<svg width="128" height="39" viewBox="0 0 128 39" fill="none" xmlns="http://www.w3.org/2000/svg">
<g clip-path="url(#clip0_2741_7485)">
<path d="M26.3418 25.1964C26.3418 22.9185 27.806 22.8777 29.7792 22.8777H30.0042C31.929 22.8777 32.9834 23.2003 32.9834 25.4044V26.9392C32.9834 28.7858 32.5051 29.5717 29.9359 29.5717H29.445C27.0074 29.5717 26.3418 28.9044 26.3418 27.0662V25.1964ZM26.3418 30.0929H26.3815C26.9865 30.8883 28.101 31.2989 29.4705 31.2989H30.1787C33.0433 31.2989 35.1392 30.5726 35.138 27.2841V25.2763C35.138 22.2331 33.7889 21.1502 30.2682 21.1502H29.1741C27.6365 21.1502 26.7806 21.6696 26.3792 22.2311H26.3418V17.3672H24.1875V30.9874H26.3418V30.0929Z" fill="white"/>
<path d="M61.2545 21.3927H58.3618V20.5144C58.3618 19.6759 58.9137 19.0011 60.0902 19.0011L62.2386 19.0033V17.3672L59.3819 17.3679C57.6553 17.3679 56.2058 18.2629 56.2058 20.5233V21.3927H55.0459V23.1161H56.2058V31.2956H58.3618V23.1161H61.2546L61.2545 21.3927Z" fill="white"/>
<path d="M48.8023 28.1375C48.8023 30.3988 50.2524 31.2956 51.98 31.2956H54.6553V29.5718L52.5054 29.5724C51.3304 29.5724 50.9576 28.9868 50.9576 28.1476V23.1161H53.8524V21.3927H50.9576V17.3672H48.8036V21.3927H47.6436V23.1161H48.8036L48.8023 28.1375Z" fill="white"/>
<path d="M73.6182 19.5463H75.7729V17.3672L73.6182 17.3679V19.5463Z" fill="white"/>
<path d="M73.6172 31.2954H75.7735V21.1484H73.6187L73.6172 31.2954Z" fill="white"/>
<path d="M38.3699 25.0186C38.3699 23.0697 39.2815 22.8752 41.5047 22.8752L41.9402 22.8759C44.4411 22.8759 44.7638 23.5027 44.7638 24.7843L44.7659 25.3283L38.3699 25.3309L38.3699 25.0186ZM40.7193 31.2954H42.6572C45.267 31.2954 46.4596 30.4701 46.7647 29.0274L44.8477 28.4492C44.5296 29.3382 43.762 29.5699 42.0729 29.5699H41.5755C38.817 29.5699 38.3686 29.2227 38.3659 27.0555L38.3699 27.0535H46.9198V25.1765C46.9198 21.7801 45.1484 21.1484 42.3177 21.1484H41.2638C39.0232 21.1484 36.3066 21.539 36.3066 24.9952V27.3911C36.3066 30.7486 38.6608 31.2971 40.7193 31.2954Z" fill="white"/>
<path d="M69.5508 28.2638C69.5508 29.2168 68.8949 29.5699 66.3435 29.5699H65.7672C63.5991 29.5699 63.3238 29.1536 63.3238 28.3311L63.3245 27.7959C63.3238 26.8427 63.8643 26.4829 65.6597 26.4829H66.6191C68.2551 26.4829 69.5507 26.8026 69.5507 27.8699L69.5508 28.2638ZM66.8731 21.1484H66.0676C63.1451 21.1484 61.8784 22.0441 61.7964 23.3855L63.8503 24.0635C63.9448 23.147 65.001 22.8759 66.6027 22.8759C68.9844 22.8759 69.5474 23.0133 69.5474 24.7267V25.6577H69.5049C68.9665 24.9428 68.2315 24.7582 66.3655 24.7582H65.5233C62.7719 24.7582 61.1699 25.4404 61.1699 27.6081V28.2278C61.1726 30.0176 61.8568 31.2954 64.729 31.2954H66.8194C68.8984 31.2954 69.1066 30.9556 69.5172 30.3629H69.5508V31.2931H71.7039V24.7708C71.704 21.9297 69.8097 21.1484 66.8731 21.1484Z" fill="white"/>
<path d="M82.3442 21.1484C81.3874 21.1484 80.4103 21.5097 79.806 22.4964H79.7285V21.1484L77.6875 21.1498V31.2954H79.8428V25.1905C79.8428 23.9588 80.5535 22.8752 82.2267 22.8752C83.423 22.8752 83.9997 23.1986 84.1279 23.5377L85.4848 22.6259C85.1504 21.7028 84.2512 21.1484 82.3442 21.1484Z" fill="white"/>
<path d="M20.2185 17.3984H14.6403V20.1858H11.6592L17.4296 26.8987L23.2019 20.1858H20.2185L20.2185 17.3984Z" fill="white"/>
<path d="M4.30469 28.4451H7.28715V31.2351H12.865V28.4451H15.8476L10.0778 21.7344L4.30469 28.4451Z" fill="white"/>
<path d="M4.71582 9.25781H6.06461C7.12287 9.25781 7.83706 9.61232 7.83706 10.6426C7.83706 11.6326 7.12667 12.0953 6.09341 12.0953H5.3169V13.961H4.71582V9.25781ZM6.0176 11.6099C6.84348 11.6099 7.23743 11.3118 7.23743 10.6426C7.23743 9.96434 6.81847 9.74322 5.9888 9.74322H5.31676V11.6099H6.0176Z" fill="white"/>
<path d="M8.51465 11.5925C8.51465 10.0861 9.34707 9.17188 10.5332 9.17188C11.7193 9.17188 12.5517 10.0888 12.5517 11.5925C12.5517 13.0988 11.7193 14.0471 10.5332 14.0471C9.34707 14.0471 8.51465 13.0988 8.51465 11.5925ZM11.9311 11.5925C11.9311 10.4208 11.3765 9.69809 10.5332 9.69809C9.68996 9.69809 9.13536 10.4208 9.13536 11.5925C9.13536 12.7641 9.68996 13.521 10.5332 13.521C11.3764 13.5208 11.9311 12.7641 11.9311 11.5925Z" fill="white"/>
<path d="M13.084 9.25781H13.7047L14.2002 11.8184C14.2915 12.3237 14.3855 12.8292 14.4768 13.3345H14.5056C14.6102 12.8292 14.7238 12.3211 14.8375 11.8184L15.4927 9.25781H16.0378L16.6931 11.8184C16.8067 12.3159 16.9203 12.8265 17.034 13.3345H17.0628C17.1542 12.8266 17.239 12.3185 17.3303 11.8184L17.8258 9.25781H18.4055L17.4283 13.961H16.7055L15.9909 11.134C15.9099 10.7666 15.8341 10.425 15.7636 10.0629H15.7348C15.6618 10.425 15.5795 10.7666 15.4985 11.134L14.7983 13.961H14.0861L13.084 9.25781Z" fill="white"/>
<path d="M19.2227 9.25781H21.9448V9.76434H19.8237V11.238H21.6131V11.7446H19.8237V13.4544H22.0167V13.9609H19.2227V9.25781Z" fill="white"/>
<path d="M23.0146 9.25781H24.4938C25.4557 9.25781 26.1465 9.60176 26.1465 10.5816C26.1465 11.521 25.4559 11.9731 24.4938 11.9731H23.6157V13.961H23.0146V9.25781ZM24.4074 11.4876C25.1423 11.4876 25.547 11.1911 25.547 10.5814C25.547 9.96265 25.1424 9.74309 24.4074 9.74309H23.6157V11.4874L24.4074 11.4876ZM24.3753 11.8091L24.8463 11.4994L26.2872 13.961H25.606L24.3753 11.8091Z" fill="white"/>
<path d="M27.1094 9.25781H29.8316V9.76434H27.7105V11.238H29.4998V11.7446H27.7105V13.4544H29.9034V13.9609H27.1094V9.25781Z" fill="white"/>
<path d="M30.9015 9.25781H32.083C33.535 9.25781 34.3137 10.0982 34.3137 11.5924C34.3137 13.0866 33.535 13.9609 32.1094 13.9609H30.9014L30.9015 9.25781ZM32.0383 13.4703C33.1423 13.4703 33.6929 12.7813 33.6929 11.5924C33.6929 10.4035 33.1423 9.74843 32.0383 9.74843H31.5026V13.4701L32.0383 13.4703Z" fill="white"/>
<path d="M36.7656 9.25781H38.1676C39.128 9.25781 39.7922 9.58298 39.7922 10.4096C39.7922 10.8743 39.5438 11.2876 39.1021 11.4309V11.4595C39.6665 11.5705 40.0627 11.9416 40.0627 12.585C40.0627 13.509 39.3281 13.9609 38.2752 13.9609H36.7656V9.25781ZM38.066 11.259C38.8692 11.259 39.2017 10.964 39.2017 10.4872C39.2017 9.93788 38.8236 9.73266 38.0932 9.73266H37.3666V11.259H38.066ZM38.1886 13.486C38.9963 13.486 39.4721 13.1963 39.4721 12.5626C39.4721 11.9832 39.0144 11.7182 38.1886 11.7182H37.3666V13.486H38.1886Z" fill="white"/>
<path d="M41.7623 12.1383L40.3428 9.25781H40.9847L41.5939 10.5856C41.7454 10.9323 41.8878 11.2593 42.0511 11.6112H42.0799C42.2431 11.2593 42.4064 10.9323 42.5515 10.5856L43.1607 9.25781H43.7828L42.3632 12.1383V13.9609H41.7623V12.1383Z" fill="white"/>
<path d="M116.782 27.5108C121.394 22.9183 121.394 15.4723 116.782 10.8798C112.17 6.28725 104.693 6.28725 100.082 10.8798C95.47 15.4723 95.47 22.9183 100.082 27.5108C104.693 32.1034 112.17 32.1034 116.782 27.5108Z" fill="#212121"/>
<path d="M108.432 7.43286C114.954 7.43286 120.241 12.698 120.241 19.1929C120.241 25.6878 114.954 30.9529 108.432 30.9529C101.91 30.9529 96.6229 25.6878 96.6229 19.1929C96.6229 12.698 101.91 7.43286 108.432 7.43286ZM108.432 4.92969C100.534 4.92969 94.1094 11.3281 94.1094 19.1928C94.1094 27.0574 100.534 33.456 108.432 33.456C116.33 33.456 122.755 27.0576 122.755 19.1929C122.755 11.3282 116.33 4.92969 108.432 4.92969Z" fill="url(#paint0_linear_2741_7485)"/>
<path d="M103.733 13.2656V25.1727H101.02V18.7889C101.02 17.8671 101 17.3131 100.96 17.1267C100.92 16.9404 100.809 16.7995 100.628 16.7039C100.446 16.6082 100.043 16.5605 99.416 16.5605H99.1475V15.1723C100.459 14.8632 101.455 14.2276 102.135 13.2656H103.733Z" fill="white"/>
<path d="M109.963 18.4189C110.361 18.5956 110.668 18.8594 110.882 19.21C111.097 19.5607 111.205 20.3959 111.205 21.7155C111.205 22.6772 111.12 23.3859 110.95 23.8421C110.779 24.2983 110.448 24.6724 109.956 24.9643C109.464 25.2562 108.803 25.4021 107.975 25.4021C107.17 25.4021 106.532 25.2622 106.062 24.9827C105.592 24.7031 105.255 24.3327 105.052 23.8716C104.848 23.4106 104.746 22.6427 104.746 21.5683C104.746 20.8471 104.796 20.2217 104.897 19.692C104.998 19.1622 105.315 18.7379 105.847 18.4189C105.511 18.2427 105.26 17.9622 105.092 17.5775C104.924 17.1928 104.84 16.7041 104.84 16.1112C104.84 15.0872 105.1 14.3193 105.619 13.8071C106.138 13.2951 106.915 13.0391 107.949 13.0391C109.143 13.0391 109.969 13.311 110.426 13.8549C110.882 14.3988 111.111 15.1753 111.111 16.1846C111.111 16.8266 111.036 17.2897 110.886 17.5737C110.736 17.8579 110.428 18.1397 109.963 18.4189ZM108.492 20.8129C108.492 20.3569 108.45 20.0542 108.365 19.9045C108.28 19.755 108.145 19.6802 107.962 19.6802C107.783 19.6802 107.654 19.7526 107.576 19.8972C107.497 20.0418 107.458 20.3471 107.458 20.8129V22.3573C107.458 22.8721 107.502 23.2031 107.589 23.3502C107.676 23.4973 107.814 23.5708 108.002 23.5708C108.195 23.5708 108.324 23.4961 108.391 23.3465C108.459 23.197 108.492 22.86 108.492 22.3353V20.8129H108.492ZM108.439 15.8632C108.439 15.4613 108.406 15.1953 108.341 15.0653C108.276 14.9354 108.152 14.8704 107.969 14.8704C107.79 14.8704 107.669 14.9403 107.606 15.08C107.544 15.2198 107.512 15.4808 107.512 15.8634V16.7679C107.512 17.1258 107.548 17.3736 107.62 17.5107C107.691 17.648 107.812 17.7166 107.982 17.7166C108.161 17.7166 108.282 17.6493 108.345 17.5144C108.407 17.3796 108.439 17.1013 108.439 16.6797V15.8632H108.439Z" fill="white"/>
<path d="M112.085 18.3351H114.495V15.6875H116.133V18.3351H118.557V20.1297H116.133V22.7626H114.495V20.1297H112.085V18.3351Z" fill="white"/>
</g>
<defs>
<linearGradient id="paint0_linear_2741_7485" x1="94.1094" y1="19.1928" x2="122.755" y2="19.1928" gradientUnits="userSpaceOnUse">
<stop stop-color="#EB5248"/>
<stop offset="0.0025" stop-color="#EB5248"/>
<stop offset="0.4365" stop-color="#E63321"/>
<stop offset="0.7842" stop-color="#E2200A"/>
<stop offset="1" stop-color="#E11901"/>
</linearGradient>
<clipPath id="clip0_2741_7485">
<rect width="128" height="39" fill="white"/>
</clipPath>
</defs>
</svg>
