<svg width="28" height="24" viewBox="0 0 28 24" fill="none" xmlns="http://www.w3.org/2000/svg">
<g clip-path="url(#clip0_2741_7573)">
<path d="M28.0004 1.85782C27.84 2.61532 27.6724 3.36532 27.5121 4.12282C26.3169 9.89032 25.1217 15.6578 23.9265 21.4178C23.839 21.8453 23.7588 22.2803 23.6495 22.7078C23.2487 24.2903 22.1264 24.1928 21.2518 23.5553C19.459 22.2353 17.6953 20.8778 15.9171 19.5428C15.6547 19.3403 15.3778 19.1528 15.13 18.9428C14.9842 18.8228 14.8968 18.8378 14.7656 18.9653C13.738 19.9853 12.6959 20.9978 11.6683 22.0178C11.3622 22.3178 11.0124 22.5053 10.5459 22.4903C10.5751 22.0778 10.5969 21.6803 10.6261 21.2753C10.75 19.5278 10.8666 17.7803 10.9978 16.0328C11.0051 15.8978 11.0925 15.7328 11.1873 15.6353C15.0498 12.0503 18.9197 8.48032 22.7896 4.90282C22.8406 4.85782 22.8989 4.82032 22.928 4.76782C22.9936 4.64782 23.0373 4.51282 23.0884 4.38532C22.9572 4.34782 22.8114 4.25782 22.6875 4.28782C22.4689 4.34032 22.2575 4.43782 22.0681 4.55782C17.2508 7.65532 12.4408 10.7528 7.63078 13.8578C7.44858 13.9703 7.30283 13.9853 7.10605 13.9253C5.0946 13.2728 3.07586 12.6353 1.06441 11.9828C0.802046 11.9003 0.539682 11.7653 0.313758 11.6003C-0.0506353 11.3228 -0.10165 10.9328 0.226304 10.6178C0.495955 10.3553 0.823909 10.1153 1.17373 9.98032C3.17789 9.16282 5.18934 8.38282 7.20808 7.58782C13.4902 5.11282 19.7724 2.63782 26.0545 0.162821C26.2586 0.0803212 26.4699 0.0203212 26.6886 0.00532125C27.3518 -0.0471788 27.7817 0.290321 27.9566 0.950321C27.9712 1.01032 27.9931 1.07032 28.015 1.13782C28.0004 1.37032 28.0004 1.61782 28.0004 1.85782Z" fill="white"/>
</g>
<defs>
<clipPath id="clip0_2741_7573">
<rect width="28" height="24" fill="white"/>
</clipPath>
</defs>
</svg>
