<svg width="27" height="27" viewBox="0 0 27 27" fill="none" xmlns="http://www.w3.org/2000/svg">
<g clip-path="url(#clip0_2741_7568)">
<path d="M13.5 2.43225C17.1045 2.43225 17.532 2.44575 18.9551 2.511C20.4266 2.5785 21.942 2.91375 23.0141 3.98587C24.0964 5.06812 24.4215 6.56887 24.489 8.04488C24.5542 9.468 24.5677 9.8955 24.5677 13.5C24.5677 17.1045 24.5542 17.532 24.489 18.9551C24.4226 20.4188 24.0795 21.9488 23.0141 23.0141C21.9319 24.0964 20.4323 24.4215 18.9551 24.489C17.532 24.5542 17.1045 24.5677 13.5 24.5677C9.8955 24.5677 9.468 24.5542 8.04488 24.489C6.5925 24.4226 5.04225 24.0716 3.98587 23.0141C2.90925 21.9375 2.5785 20.4221 2.511 18.9551C2.44575 17.532 2.43225 17.1045 2.43225 13.5C2.43225 9.8955 2.44575 9.468 2.511 8.04488C2.57738 6.58687 2.92387 5.04787 3.98587 3.98587C5.06588 2.90587 6.57225 2.5785 8.04488 2.511C9.468 2.44575 9.8955 2.43225 13.5 2.43225ZM13.5 0C9.83362 0 9.3735 0.01575 7.9335 0.081C5.84662 0.176625 3.77437 0.757125 2.26575 2.26575C0.7515 3.78 0.176625 5.84775 0.081 7.9335C0.01575 9.3735 0 9.83362 0 13.5C0 17.1664 0.01575 17.6265 0.081 19.0665C0.176625 21.1511 0.759375 23.229 2.26575 24.7342C3.77887 26.2474 5.85 26.8234 7.9335 26.919C9.3735 26.9842 9.83362 27 13.5 27C17.1664 27 17.6265 26.9842 19.0665 26.919C21.1523 26.8234 23.2267 26.2418 24.7342 24.7342C26.2496 23.2189 26.8234 21.1523 26.919 19.0665C26.9842 17.6265 27 17.1664 27 13.5C27 9.83362 26.9842 9.3735 26.919 7.9335C26.8234 5.84662 26.2418 3.77325 24.7342 2.26575C23.2234 0.754875 21.1466 0.1755 19.0665 0.081C17.6265 0.01575 17.1664 0 13.5 0Z" fill="white"/>
<path d="M13.4996 6.57031C9.67126 6.57031 6.56738 9.67419 6.56738 13.5026C6.56738 17.3309 9.67126 20.4348 13.4996 20.4348C17.328 20.4348 20.4319 17.3309 20.4319 13.5026C20.4319 9.67419 17.328 6.57031 13.4996 6.57031ZM13.4996 18.0026C11.0145 18.0026 8.99963 15.9877 8.99963 13.5026C8.99963 11.0174 11.0145 9.00256 13.4996 9.00256C15.9848 9.00256 17.9996 11.0174 17.9996 13.5026C17.9996 15.9877 15.9848 18.0026 13.4996 18.0026Z" fill="white"/>
<path d="M20.7069 7.91188C21.6016 7.91188 22.3269 7.18658 22.3269 6.29188C22.3269 5.39717 21.6016 4.67188 20.7069 4.67188C19.8122 4.67188 19.0869 5.39717 19.0869 6.29188C19.0869 7.18658 19.8122 7.91188 20.7069 7.91188Z" fill="white"/>
</g>
<defs>
<clipPath id="clip0_2741_7568">
<rect width="27" height="27" fill="white"/>
</clipPath>
</defs>
</svg>
