<svg width="28" height="23" viewBox="0 0 28 23" fill="none" xmlns="http://www.w3.org/2000/svg">
<path d="M25.1335 5.6634C25.1498 5.90956 25.1498 6.1569 25.1498 6.4054C25.1498 13.9969 19.3702 22.7504 8.80483 22.7504V22.7457C5.684 22.7504 2.62733 21.8567 0 20.1709C0.453833 20.2257 0.91 20.2526 1.36733 20.2537C3.955 20.2561 6.468 19.3881 8.5015 17.7897C6.04333 17.7431 3.88733 16.1401 3.13483 13.7997C3.99583 13.9654 4.8825 13.9316 5.72833 13.7017C3.04733 13.1604 1.12 10.8049 1.12 8.07023C1.12 8.04573 1.12 8.02123 1.12 7.9979C1.91917 8.44356 2.81283 8.68973 3.7275 8.71656C1.20283 7.03073 0.4235 3.67306 1.94833 1.04806C4.865 4.63673 9.16883 6.8184 13.7877 7.05056C13.3245 5.05556 13.958 2.9649 15.449 1.5614C17.7625 -0.614436 21.4013 -0.502436 23.5772 1.81106C24.864 1.5579 26.0972 1.0854 27.2253 0.416898C26.796 1.7469 25.8988 2.87623 24.6995 3.5949C25.8393 3.4584 26.9512 3.1539 28 2.68956C27.2288 3.8434 26.2582 4.85023 25.1335 5.6634Z" fill="white"/>
</svg>
