<svg width="14" height="26" viewBox="0 0 14 26" fill="none" xmlns="http://www.w3.org/2000/svg">
<g clip-path="url(#clip0_2741_7564)">
<path d="M3.90781 14.676C3.70482 14.676 3.53355 14.676 3.36862 14.676C2.48053 14.676 1.59245 14.6823 0.704365 14.676C0.184202 14.6696 0.0129289 14.5171 0.00658549 14.0215C-0.00610141 12.6872 -0.00610141 11.3529 0.00658549 10.0186C0.0129289 9.52299 0.190546 9.3705 0.704365 9.3705C1.6432 9.36415 2.58837 9.3705 3.5272 9.3705C3.64138 9.3705 3.75557 9.3705 3.90147 9.3705C3.90147 9.21801 3.90147 9.09093 3.90147 8.97021C3.9205 7.76297 3.88243 6.54939 3.98393 5.35486C4.23767 2.33678 6.55303 0.151049 9.5852 0.0366794C10.8539 -0.0141515 12.1226 0.0176178 13.3913 0.0176178C13.8099 0.0176178 13.9939 0.20188 13.9939 0.621235C14.0002 1.8793 14.0002 3.14372 13.9939 4.40178C13.9939 4.83385 13.8163 4.99905 13.3596 5.01175C12.5032 5.03081 11.6468 5.03081 10.7905 5.04352C9.79453 5.05623 9.40124 5.43746 9.38855 6.42866C9.36952 7.36904 9.38221 8.30941 9.38221 9.2879C9.51542 9.29426 9.62326 9.30696 9.73744 9.30696C10.7524 9.30696 11.7673 9.30696 12.7823 9.30696C13.7973 9.30696 13.8734 9.37685 13.8734 10.4125C13.8734 11.5753 13.8734 12.7444 13.8734 13.9072C13.8734 14.4917 13.7275 14.6379 13.1439 14.6442C12.0211 14.6506 10.9046 14.6442 9.78185 14.6442C9.66766 14.6442 9.55348 14.6442 9.38855 14.6442C9.38855 14.8031 9.38855 14.9365 9.38855 15.0699C9.38855 18.3866 9.38855 21.697 9.38855 25.0137C9.38855 25.9032 9.28706 26.0113 8.38629 26.0113C7.16834 26.0113 5.95674 26.0113 4.7388 26.0113C4.0664 26.0113 3.91415 25.8588 3.91415 25.1916C3.91415 21.8368 3.91415 18.4756 3.91415 15.1207C3.90781 14.981 3.90781 14.8539 3.90781 14.676Z" fill="white"/>
</g>
<defs>
<clipPath id="clip0_2741_7564">
<rect width="14" height="26" fill="white"/>
</clipPath>
</defs>
</svg>
