<svg width="17" height="17" viewBox="0 0 17 17" fill="none" xmlns="http://www.w3.org/2000/svg">
<path d="M1.28814e-05 8.49742C-0.00178145 9.56661 0.199745 10.6264 0.593855 11.6203C0.887585 12.361 1.28329 13.0571 1.7695 13.6883C3.13048 15.4569 5.1335 16.6181 7.34461 16.9203C7.38498 16.9245 7.42535 16.9284 7.46572 16.9366C7.80495 16.9769 8.14844 16.9971 8.49972 16.9971C10.3662 16.9971 12.0915 16.3951 13.493 15.3771C14.2806 14.8032 14.965 14.0997 15.5171 13.2967C15.9193 12.7132 16.2452 12.0805 16.4867 11.4142C17.2291 9.37087 17.1642 7.12126 16.305 5.12416C16.2969 5.10788 16.2887 5.08769 16.2806 5.0714C15.4037 3.09254 13.8082 1.52038 11.8167 0.672647C10.7675 0.228378 9.63945 0.000268963 8.50007 0.00196249C8.03973 0.00196249 7.59107 0.0380817 7.15091 0.106779C6.07885 0.276564 5.04984 0.652475 4.12079 1.21373C4.08042 1.23816 4.04005 1.26224 3.99969 1.29057C3.13773 1.82797 2.37963 2.51626 1.76171 3.32245C1.73338 3.35503 1.70895 3.38725 1.68487 3.42373C0.588127 4.88775 -0.00318233 6.66816 1.28814e-05 8.49742Z" fill="#D4D6D6"/>
<path d="M17.0004 8.49583C17.0004 9.6225 16.7777 10.7381 16.3453 11.7784C16.1187 12.3167 15.8425 12.8266 15.5167 13.2976C13.8657 14.3255 11.9123 14.7566 9.98197 14.5192C9.93948 14.5157 9.90053 14.5086 9.86158 14.5051C7.59881 14.197 5.61934 12.9966 4.28434 11.2721C3.79761 10.6411 3.40186 9.94501 3.1087 9.20405C2.81479 8.46042 2.62003 7.66013 2.5492 6.82798C2.52796 6.58364 2.51733 6.33576 2.51733 6.08434C2.51733 4.30671 3.06266 2.65656 3.99751 1.28969C4.04001 1.26136 4.07896 1.23658 4.12145 1.21533C4.68095 0.875385 5.28293 0.599179 5.92033 0.397336C6.31693 0.269856 6.7277 0.174246 7.14909 0.106965C7.59173 0.0396846 8.03791 0.000732422 8.49825 0.000732422C9.6739 0.000732422 10.7964 0.241527 11.8163 0.673542C13.8077 1.52026 15.4028 3.0925 16.2781 5.07159C16.2887 5.08929 16.2958 5.107 16.3028 5.12471C16.7627 6.18912 17.0001 7.33632 17.0004 8.49583Z" fill="#E0E2E2"/>
<path d="M16.9982 8.49583C16.9981 9.6225 16.7755 10.7381 16.3431 11.7784C15.5286 12.0405 14.6575 12.1821 13.7581 12.1821C13.411 12.1821 13.064 12.1609 12.7241 12.1219C12.6816 12.1184 12.6426 12.1078 12.6001 12.1042C10.3409 11.7961 8.36143 10.5992 7.02644 8.87119C6.53769 8.24162 6.14178 7.54519 5.85079 6.80319C5.55688 6.05956 5.36212 5.26281 5.2913 4.43065C5.27005 4.18277 5.25589 3.9349 5.25589 3.68702C5.25589 2.522 5.4896 1.41009 5.91807 0.397336C6.31468 0.269856 6.72545 0.174246 7.14684 0.106965C7.58947 0.0396846 8.03565 0.000732422 8.496 0.000732422C9.67164 0.000732422 10.7942 0.241527 11.814 0.673542C13.8055 1.52026 15.4005 3.0925 16.2758 5.07159C16.2864 5.08929 16.2935 5.107 16.3006 5.12471C16.7605 6.18912 16.9979 7.33632 16.9982 8.49583ZM3.98428 7.74618C4.43258 8.98203 4.98995 10.2912 5.64435 11.6485C5.47898 11.8468 5.32565 12.0525 5.1879 12.2706C4.86031 11.9626 4.55777 11.6289 4.28315 11.2728C3.79549 10.6425 3.39967 9.9462 3.1075 9.20476C2.8911 8.66133 2.73264 8.09659 2.63477 7.51991C3.06324 7.63322 3.51544 7.70971 3.98392 7.74618H3.98428Z" fill="#ECF0F1"/>
<path d="M16.3107 5.18498L15.7371 5.33442L15.7208 5.27386L15.7087 5.21721L16.2743 5.07202C16.2824 5.08406 16.2866 5.10035 16.2944 5.11204L16.2987 5.12443L16.3107 5.18498Z" fill="#ECF0F1"/>
<path opacity="0.5" d="M8.8357 5.4647C8.83511 5.8141 8.90097 6.16043 9.02975 6.48524C9.12642 6.72958 9.25709 6.95692 9.41431 7.16159C9.85905 7.7396 10.5136 8.11911 11.2362 8.2179C11.3613 8.23451 11.4875 8.2428 11.6137 8.24269C12.2002 8.24365 12.7718 8.05827 13.2461 7.7133C13.5034 7.5257 13.7269 7.29581 13.9073 7.0334C14.0388 6.84263 14.1453 6.6358 14.2242 6.41796C14.4669 5.75007 14.4456 5.01474 14.1647 4.362L14.1569 4.345C13.8703 3.69824 13.3489 3.18439 12.698 2.90731C12.3551 2.76199 11.9864 2.68732 11.614 2.68776C11.1096 2.68588 10.6144 2.82297 10.1827 3.08401C10.1693 3.09216 10.1562 3.09995 10.1431 3.10915C9.84938 3.29226 9.59269 3.5289 9.38634 3.80675C9.02797 4.28512 8.83473 4.86698 8.8357 5.4647Z" fill="white"/>
<path opacity="0.5" d="M8.83569 5.46471C8.83569 6.98384 10.0648 8.2427 11.614 8.2427C13.1211 8.2427 14.392 7.02739 14.392 5.46471C14.392 4.91917 14.2314 4.38571 13.9301 3.93091C13.6288 3.4761 13.2003 3.1201 12.698 2.90732C10.8814 2.13572 8.83569 3.46859 8.83569 5.46471Z" fill="white"/>
<path d="M1.74426 13.3379C2.35617 13.7522 3.19753 14.0571 4.37778 14.2937C5.02651 15.1411 6.0598 15.7827 7.31831 16.3032C7.3176 16.4973 7.33035 16.7296 7.34451 16.9194C7.38488 16.9254 7.42596 16.9307 7.46704 16.9353C7.45054 16.7301 7.44133 16.5244 7.43942 16.3185V16.3178C8.64445 16.162 9.70855 15.7682 10.648 15.163L10.6473 15.1729C10.824 15.1857 11.005 15.192 11.1891 15.192C11.9788 15.192 12.8283 15.0748 13.6431 14.8514L13.4943 15.3762C14.8624 14.3821 15.9038 13.0035 16.4859 11.4158L16.068 11.6626C15.8931 10.2724 15.6891 9.31629 15.4448 8.74405C15.8262 7.62117 15.9324 6.46641 15.7291 5.27554L15.7444 5.33432L16.3191 5.18489L16.2886 5.06733L15.7139 5.21676L15.7291 5.27554C14.9827 4.27766 14.0889 3.51207 13.0514 2.97276L13.0634 2.96568C12.5662 2.08678 11.9986 1.33713 11.3743 0.735495L11.8162 0.671047C10.7673 0.226703 9.6395 -0.00152708 8.50033 7.68946e-06C8.04803 -0.000235136 7.59642 0.0354057 7.14975 0.106595L7.46385 0.250718C6.67525 0.697605 5.84698 1.31163 5.1115 1.99648C4.00667 2.28721 3.01623 2.78402 2.16318 3.53049L2.16282 3.52978C2.03594 3.44704 1.90105 3.37729 1.7602 3.32156C1.73399 3.3552 1.70814 3.38884 1.68336 3.42284C1.84341 3.47595 2.01551 3.58006 2.08598 3.62503C1.57004 4.67143 1.28427 5.77448 1.34199 6.96217C0.868903 7.73979 0.469467 8.73343 0.276123 9.61162C0.177661 9.50134 0.0958247 9.37727 0.0332031 9.24335C0.17303 10.8609 0.775652 12.404 1.76905 13.6881C1.74249 13.5515 1.73258 13.4335 1.74426 13.3379ZM4.10405 7.70757L6.6062 4.49544C8.08885 4.60309 9.50105 4.77695 10.8038 5.01244L12.3435 8.6711C11.6753 9.73485 10.8598 10.8471 9.78823 12.1563L5.75987 11.6038C5.10795 10.2494 4.55129 8.93987 4.10405 7.70757ZM12.9129 2.94798C12.0818 3.45966 11.3637 4.08786 10.8166 4.89204C9.5145 4.65691 8.10408 4.4834 6.62319 4.37504C6.27014 3.47772 5.81476 2.69549 5.26128 2.02339C6.012 1.33465 6.85336 0.722038 7.64657 0.288253C8.76343 0.230888 9.94758 0.390237 11.1809 0.710353L11.176 0.715664C11.8183 1.30915 12.4019 2.05987 12.9129 2.94798ZM10.7185 15.0561C10.5683 14.021 10.2921 13.0808 9.86507 12.254C10.9433 10.9381 11.7642 9.81984 12.437 8.75078C13.3102 9.00149 14.2946 9.00113 15.3517 8.83647C15.5889 9.41721 15.7886 10.3818 15.9607 11.7805C15.372 12.8571 14.6271 13.8407 13.7504 14.6991L13.7497 14.6956C12.7387 14.9895 11.665 15.117 10.7185 15.0561ZM4.35937 14.1665C3.17026 13.925 2.33598 13.6131 1.74001 13.1878C1.01692 12.0153 0.546663 10.874 0.354027 9.76778L0.366067 9.77026C0.541705 8.88711 0.943266 7.86232 1.42379 7.06132C2.19009 7.44553 3.04703 7.67145 3.98932 7.74794C4.43727 8.98201 4.99429 10.2933 5.64691 11.6492C5.04669 12.3762 4.60406 13.2065 4.35937 14.1665Z" fill="#5B5E71"/>
<path d="M14.5765 13.8018C14.3192 14.1163 14.0441 14.4158 13.7525 14.6988L13.7482 14.6945C12.7383 14.9895 11.6639 15.1148 10.7185 15.0543C10.6942 14.8921 10.6673 14.7304 10.6377 14.5691C10.4189 14.5633 10.2004 14.5472 9.98299 14.521C9.94298 14.5167 9.90225 14.5086 9.86188 14.5047C8.06407 14.2621 6.44826 13.4544 5.19188 12.2706C4.81204 12.852 4.53087 13.4921 4.35972 14.1651C3.17204 13.9229 2.33563 13.612 1.73789 13.1878C1.01905 12.016 0.546309 10.8729 0.352256 9.766L0.364296 9.76989C0.542059 8.88532 0.942204 7.86336 1.42309 7.05918C1.80659 7.25323 2.21063 7.40656 2.63875 7.51952C2.59883 7.2908 2.56929 7.0604 2.55022 6.82901C2.52918 6.58168 2.51831 6.33359 2.51764 6.08538C2.51764 4.91823 2.75206 3.80314 3.17983 2.79321C2.81902 3.00692 2.47838 3.25297 2.16211 3.52835C2.10156 3.48798 1.93194 3.38706 1.76197 3.32225C1.73364 3.35483 1.70956 3.38706 1.68548 3.42353C1.84306 3.47594 2.01657 3.58111 2.08563 3.62537C1.61253 4.58289 1.33385 5.58891 1.33385 6.66364C1.33385 6.76421 1.3381 6.86123 1.34199 6.96215C0.869257 7.73765 0.469467 8.73164 0.275414 9.61231C0.182638 9.51139 0.105442 9.39029 0.0332031 9.24475C0.178388 10.9091 0.804809 12.4363 1.77011 13.6888C1.74178 13.5514 1.73399 13.4339 1.74603 13.3372C2.35581 13.7533 3.19611 14.056 4.3799 14.2947C5.02616 15.1428 6.06051 15.7813 7.31689 16.3025C7.31689 16.4962 7.32893 16.731 7.34522 16.9204C7.38559 16.9247 7.42596 16.9286 7.46633 16.9367C7.45429 16.7469 7.438 16.5125 7.438 16.3185C8.64587 16.1609 9.70855 15.7692 10.6498 15.1633L10.6459 15.1711C10.8236 15.1874 11.0053 15.1913 11.1912 15.1913C11.9788 15.1913 12.8272 15.0745 13.6434 14.8521L13.4936 15.3772C14.2812 14.8033 14.9656 14.0999 15.5177 13.2968C15.2159 13.4864 14.9014 13.6551 14.5765 13.8018ZM16.3056 5.12432L16.3014 5.11193L16.2893 5.06766L16.2812 5.07156L15.7157 5.2171L15.7277 5.27376L15.744 5.33395L16.3177 5.18487L16.3056 5.12432Z" fill="#525566"/>
</svg>
