<svg width="17" height="17" viewBox="0 0 17 17" fill="none" xmlns="http://www.w3.org/2000/svg">
<path d="M16.8498 6.90967C16.9461 7.42432 16.9992 7.95557 16.9992 8.5001C16.9992 12.2554 14.5654 15.4396 11.1887 16.5651C9.46211 16.6681 9.70781 16.0737 9.46211 15.6653C9.15 15.1407 7.99785 13.4839 9.08028 12.7933C12.7459 12.3351 15.4652 9.53936 16.8498 6.90967Z" fill="#FFD15B"/>
<path d="M16.851 6.90967C15.6888 6.90967 15.7685 8.0585 15.1842 8.9583C14.9185 9.3667 14.6097 9.53936 14.7492 11.0767C13.9424 13.0489 12.4183 14.6493 10.4992 15.5558C9.6326 15.9077 10.0211 16.2065 10.134 16.3759C10.2502 16.5452 10.4328 16.5751 11.1865 16.5651C14.5666 15.4396 17.0004 12.2554 17.0004 8.5001C17.0004 7.95557 16.9506 7.42432 16.851 6.90967Z" fill="#FFC344"/>
<path d="M14.1411 2.1416C14.6093 3.07129 14.4067 3.70547 14.1411 4.16367C13.8655 4.6418 13.829 5.21621 12.5175 4.95059C10.4688 4.79121 9.33994 3.81172 7.79932 3.27715C6.02295 2.65957 4.43252 3.20078 2.95166 2.06191C4.43916 0.776953 6.37822 0 8.4999 0C10.6647 0 12.6403 0.810156 14.1411 2.1416Z" fill="#FFD15B"/>
<path d="M13.7827 2.90864C14.0881 3.01489 14.1877 2.92856 14.2409 2.81899C14.3106 2.6729 14.4002 2.52017 14.1413 2.14165C13.185 1.29165 12.0362 0.657471 10.7678 0.308838C11.9665 0.926416 13.0024 1.81958 13.7827 2.90864Z" fill="#FFC344"/>
<path d="M5.70098 16.5286C2.38066 15.3698 0 12.2121 0 8.50004C0 7.91566 0.0597656 7.34789 0.172656 6.79671C1.40449 5.93343 4.04082 5.70765 5.12656 5.84046L5.78066 7.48734C4.34297 10.8907 5.89023 13.4473 5.70098 16.5286Z" fill="#FFE177"/>
<path d="M4.61182 16.0603C4.96045 16.2396 5.32568 16.399 5.70088 16.5285C5.86025 16.4919 5.88018 16.4521 5.81377 16.3923C5.77061 16.3525 5.46182 16.2728 5.37881 16.2363C5.11982 16.1865 4.86416 16.13 4.61182 16.0603Z" fill="#FFD15B"/>
<path d="M8.83471 16.9933C8.72514 16.9966 8.61225 17 8.49936 17C7.51987 17 6.5769 16.8339 5.70034 16.5285C2.9312 14.1445 1.98159 10.2 3.41596 6.79663C4.39213 6.91616 5.36498 7.14526 6.31791 7.48726C7.25424 8.96147 7.4933 10.0306 7.62944 11.3156C7.85854 13.4705 8.83471 15.0542 8.83471 16.9933Z" fill="#C8EFFE"/>
<path d="M8.07822 16.2829C7.68643 16.3393 7.28467 16.3692 6.87627 16.3692C6.36494 16.3692 5.86357 16.3227 5.37549 16.2364C5.48174 16.336 5.58799 16.4356 5.69756 16.5286C6.57744 16.8341 7.52041 17.0001 8.4999 17.0001C8.61279 17.0001 8.72236 16.9968 8.83525 16.9934C9.26357 16.668 9.02783 16.5718 8.90166 16.4522C8.77549 16.3327 8.73897 15.9177 8.07822 16.2829Z" fill="#99E6FC"/>
<path d="M15.6884 3.96118C16.2495 4.84771 16.6479 5.8438 16.8505 6.90962C16.1698 10.5022 13.2313 13.2946 9.56572 13.7528C9.18057 12.8463 8.8917 11.8901 8.7124 10.894C10.2663 8.61294 11.5911 8.51001 12.813 7.29478C14.0349 6.07954 14.42 4.602 15.6884 3.96118Z" fill="#C8EFFE"/>
<path d="M15.38 7.86591C15.38 9.00478 15.1575 10.0872 14.7524 11.08C15.8083 9.93447 16.5521 8.50009 16.8542 6.90966C16.6517 5.84384 16.2532 4.84775 15.6921 3.96123C14.613 3.68564 14.8454 4.27666 14.7392 4.61865C14.6528 4.89755 14.613 5.10009 15.1376 5.8372C15.2937 6.48798 15.38 7.16865 15.38 7.86591Z" fill="#99E6FC"/>
<path d="M12.5175 4.95065C13.4638 5.8405 12.8927 6.52116 12.5175 6.90964C12.2021 7.23835 10.4522 9.08776 9.56572 8.50007C8.75557 7.51393 7.56025 6.56765 6.45127 6.04304C4.4292 5.08679 2.94834 5.01706 0.976074 4.54225C1.47412 3.59597 2.14814 2.75261 2.95166 2.06198C6.40146 0.856708 10.2862 2.00554 12.5175 4.95065Z" fill="#DFF6FD"/>
<path d="M9.56638 13.7528C9.9947 14.7588 10.5392 15.7018 11.19 16.5651C10.4463 16.8141 9.65603 16.9602 8.83591 16.9934C6.07009 14.6891 5.05408 10.8608 6.32244 7.48736C7.30857 6.51782 9.08162 7.24829 9.78884 7.65669C9.78884 8.47349 9.28084 10.0805 8.71638 10.894C8.89236 11.8901 9.18123 12.8463 9.56638 13.7528Z" fill="#01D0FB"/>
<path d="M14.1413 2.1416C14.739 2.67285 15.2603 3.28379 15.6886 3.96445C15.0777 7.51055 12.2687 10.3062 8.71264 10.8973C8.57318 10.1203 8.50014 9.32012 8.50014 8.50332C8.22787 7.31797 8.81557 7.4541 9.14428 7.225C9.47299 6.9959 9.94779 6.99922 10.4658 7.12207C11.2394 6.47129 11.9234 5.74082 12.5144 4.95391C13.1751 4.07734 13.7163 3.13437 14.1413 2.1416Z" fill="#01C0FA"/>
<path d="M15.1339 5.84043C15.3863 5.24609 15.5755 4.61856 15.6884 3.96445C15.2601 3.28711 14.7388 2.67285 14.1412 2.1416C14.0316 2.40059 13.9121 2.65625 13.7859 2.90859C14.4068 3.77852 14.8716 4.76797 15.1339 5.84043Z" fill="#08A9F1"/>
<path d="M10.469 7.11865C9.86475 7.62997 9.21064 8.0915 8.5001 8.4999C7.79287 8.0915 7.0624 7.75283 6.31865 7.4872C5.36904 7.14521 4.39287 6.91611 3.4167 6.79658C2.33096 6.66376 1.24189 6.66708 0.169434 6.79658C0.332129 5.9997 0.604394 5.24267 0.972949 4.54208C4.35303 3.29697 8.18135 4.3329 10.469 7.11865Z" fill="#62DBFB"/>
<path d="M8.07837 16.2829C8.31411 16.5319 8.56645 16.771 8.83208 16.9935C9.6522 16.9636 10.4424 16.8142 11.1862 16.5651C10.9405 16.2397 10.7114 15.9044 10.4989 15.5591C9.74849 15.9144 8.93501 16.1601 8.07837 16.2829Z" fill="#08A9F1"/>
</svg>
