<svg width="22" height="22" viewBox="0 0 22 22" fill="none" xmlns="http://www.w3.org/2000/svg">
<path d="M14.757 9.68712L8.97747 15.4667L5.42686 19.0173L3.68209 20.7621C3.31132 21.1328 2.70501 21.1328 2.33425 20.7621L0.279782 18.7076C-0.090982 18.3368 -0.090982 17.7305 0.279782 17.3598L11.3547 6.28481C11.5946 6.04927 11.9785 6.04927 12.2184 6.28481L12.3929 6.45929L14.2205 8.28694L14.757 8.82346C14.9926 9.06336 14.9926 9.44721 14.757 9.68712Z" fill="#F4B37D"/>
<path d="M14.7916 9.6435C14.7824 9.62713 14.7706 9.6124 14.7567 9.59988L12.218 7.06124C11.9781 6.82569 11.5943 6.82569 11.3544 7.06124L0.27942 18.1362C0.192182 18.219 0.126753 18.315 0.0831333 18.4197C-0.0738962 18.0707 -0.00846729 17.6476 0.27942 17.3597L11.3544 6.28481C11.5943 6.04927 11.9781 6.04927 12.218 6.28481L12.3925 6.45929L14.2201 8.28694L14.7567 8.82345C14.9791 9.05028 14.9922 9.40359 14.7916 9.6435Z" fill="#EA9C5C"/>
<path d="M9.87866 10.9867L12.7532 6.82104L14.2205 8.2884L10.0549 11.1629C9.93929 11.2427 9.79883 11.1027 9.87866 10.9867Z" fill="#F2A764"/>
<path d="M14.5846 8.65084L12.3918 6.45767C12.7897 6.51001 13.1377 6.45156 13.4374 6.2701C13.57 6.19246 13.6904 6.09693 13.8012 5.97349L19.0137 0.760986L20.2817 2.02856L15.0692 7.24107C14.9458 7.3523 14.8498 7.47225 14.7726 7.60529C14.5907 7.90452 14.5318 8.25304 14.5846 8.65084Z" fill="#A04747"/>
<path d="M20.9691 1.8034L20.6887 2.0843C20.642 2.13092 20.5788 2.1571 20.5129 2.1571C20.447 2.1571 20.3837 2.13092 20.3371 2.0843L18.9583 0.705498C18.9117 0.658872 18.8855 0.595642 18.8855 0.529712C18.8855 0.463782 18.9117 0.400552 18.9583 0.353926L19.2388 0.0730182C19.2619 0.049872 19.2893 0.0315084 19.3195 0.0189789C19.3497 0.0064494 19.3821 0 19.4148 0C19.4475 0 19.4798 0.0064494 19.51 0.0189789C19.5402 0.0315084 19.5677 0.049872 19.5908 0.0730182L20.9691 1.45182C21.0158 1.49845 21.0419 1.56168 21.0419 1.62761C21.0419 1.69354 21.0158 1.75677 20.9691 1.8034ZM14.5846 8.65075L12.3918 6.45757C12.7897 6.50992 13.1377 6.45147 13.4374 6.27001C13.57 6.19237 13.6904 6.09684 13.8012 5.9734L14.0882 5.68682L15.3558 6.9544L15.0688 7.24098C14.9458 7.35221 14.8498 7.47216 14.7726 7.6052C14.5907 7.90443 14.5318 8.25294 14.5846 8.65075ZM15.0068 4.76689L15.6236 4.15011L16.8912 5.41769L16.2744 6.03447L15.0068 4.76689ZM16.2408 3.53334L16.8545 2.91961L18.1217 4.18719L17.508 4.80091L16.2408 3.53334ZM17.4709 2.30327L18.0877 1.6865L19.3552 2.95407L18.7385 3.57085L17.4709 2.30327Z" fill="#7F3939"/>
<path d="M8.9776 15.4667L5.42699 19.0174C5.40081 18.8734 5.39209 18.7251 5.39209 18.5724C5.39209 16.4181 7.54819 15.1283 8.9776 15.4667Z" fill="#EA9C5C"/>
<path d="M8.65511 20.657V21.2624C8.61019 21.2663 8.56875 21.2663 8.52382 21.2663C8.47889 21.2663 8.43745 21.2663 8.39209 21.2624V20.7172C8.43745 20.7133 8.48238 20.7023 8.52382 20.691C8.56875 20.6797 8.61411 20.6722 8.65511 20.657Z" fill="#D0D0F7"/>
<path d="M11.2194 18.5702C11.2193 19.1241 11.0485 19.6646 10.7303 20.1181C10.4121 20.5715 9.96196 20.916 9.44106 21.1045C9.3558 21.1382 9.2678 21.1646 9.17804 21.1834C9.00707 21.2285 8.83171 21.255 8.65504 21.2624C8.61011 21.2663 8.56867 21.2663 8.52375 21.2663C8.47882 21.2663 8.43738 21.2663 8.39202 21.2624C8.21549 21.255 8.04028 21.2285 7.86946 21.1834C7.77954 21.1647 7.6914 21.1383 7.606 21.1045C7.08509 20.916 6.63491 20.5715 6.31671 20.1181C5.99851 19.6646 5.82774 19.1241 5.82764 18.5702C5.82781 18.0162 5.9986 17.4758 6.31679 17.0223C6.63499 16.5689 7.08513 16.2245 7.606 16.0359C7.6928 16.0023 7.77916 15.9757 7.86946 15.9574C8.04025 15.9121 8.21547 15.8854 8.39202 15.878C8.43738 15.8745 8.47838 15.8745 8.52375 15.8745C8.56911 15.8745 8.61011 15.8745 8.65504 15.878C8.83213 15.8854 9.00836 15.912 9.17804 15.957C9.26833 15.9757 9.35469 16.0023 9.44106 16.0359C9.96193 16.2245 10.4121 16.5689 10.7303 17.0223C11.0485 17.4758 11.2193 18.0162 11.2194 18.5702Z" fill="#F05543"/>
<path opacity="0.8" d="M8.65511 15.878V21.2624C8.61019 21.2663 8.56875 21.2663 8.52382 21.2663C8.47889 21.2663 8.43745 21.2663 8.39209 21.2624V15.878C8.43745 15.8745 8.47846 15.8745 8.52382 15.8745C8.56918 15.8745 8.61019 15.8745 8.65511 15.878Z" fill="white"/>
<g opacity="0.8">
<path d="M9.44249 16.036V16.0512C9.44255 16.0685 9.43918 16.0857 9.43257 16.1017C9.42597 16.1176 9.41626 16.1322 9.40401 16.1444C9.39176 16.1566 9.37721 16.1662 9.3612 16.1728C9.3452 16.1793 9.32805 16.1827 9.31076 16.1825C9.2935 16.1826 9.2764 16.1792 9.26045 16.1727C9.24449 16.1661 9.22999 16.1564 9.21779 16.1442C9.20559 16.132 9.19592 16.1175 9.18934 16.1016C9.18276 16.0856 9.17941 16.0685 9.17946 16.0512V15.957C9.26976 15.9758 9.35612 16.0024 9.44249 16.036ZM9.31076 16.6414C9.29346 16.6414 9.27633 16.6447 9.26035 16.6513C9.24436 16.6579 9.22985 16.6676 9.21764 16.6799C9.20543 16.6921 9.19577 16.7067 9.18922 16.7227C9.18266 16.7387 9.17935 16.7559 9.17946 16.7731V17.4911C9.17946 17.5627 9.23966 17.6229 9.31076 17.6229C9.34556 17.6224 9.3788 17.6084 9.40341 17.5838C9.42801 17.5592 9.44204 17.5259 9.44249 17.4911V16.7731C9.44261 16.7558 9.43928 16.7386 9.4327 16.7226C9.42612 16.7066 9.41642 16.692 9.40416 16.6797C9.39191 16.6675 9.37734 16.6578 9.36131 16.6512C9.34527 16.6446 9.32809 16.6413 9.31076 16.6414ZM9.31076 18.0778C9.27604 18.0784 9.2429 18.0924 9.21839 18.117C9.19388 18.1416 9.17991 18.1748 9.17946 18.2095V18.9314C9.17946 19.0025 9.23966 19.0632 9.31076 19.0632C9.34556 19.0627 9.3788 19.0487 9.40341 19.0241C9.42801 18.9995 9.44204 18.9662 9.44249 18.9314V18.2095C9.44204 18.1747 9.42801 18.1415 9.40341 18.1169C9.3788 18.0923 9.34556 18.0783 9.31076 18.0778ZM9.31076 19.5181C9.27608 19.5186 9.24295 19.5325 9.21842 19.5571C9.19389 19.5816 9.17992 19.6147 9.17946 19.6494V20.3674C9.17946 20.3866 9.18295 20.4088 9.1943 20.4241C9.20407 20.4467 9.22037 20.466 9.24111 20.4793C9.26185 20.4927 9.28609 20.4996 9.31076 20.4991C9.32809 20.4992 9.34527 20.4959 9.36131 20.4893C9.37734 20.4827 9.39191 20.473 9.40416 20.4608C9.41642 20.4485 9.42612 20.434 9.4327 20.4179C9.43928 20.4019 9.44261 20.3847 9.44249 20.3674V19.6494C9.44204 19.6146 9.428 19.5815 9.40338 19.5569C9.37876 19.5324 9.34552 19.5184 9.31076 19.5181ZM9.44249 21.0893V21.1045C9.35723 21.1383 9.26923 21.1647 9.17946 21.1835V21.0893C9.17946 21.0721 9.18286 21.055 9.18947 21.0391C9.19607 21.0232 9.20575 21.0087 9.21795 20.9966C9.23014 20.9844 9.24462 20.9748 9.26055 20.9683C9.27647 20.9617 9.29354 20.9584 9.31076 20.9584C9.32802 20.9583 9.34513 20.9616 9.3611 20.9681C9.37708 20.9747 9.39161 20.9843 9.40385 20.9964C9.4161 21.0086 9.42581 21.0231 9.43245 21.039C9.43908 21.0549 9.44249 21.072 9.44249 21.0893ZM7.87045 15.957V16.0512C7.87045 16.1263 7.81462 16.1825 7.73959 16.1825C7.72226 16.1827 7.70507 16.1794 7.68901 16.1729C7.67295 16.1664 7.65835 16.1567 7.64606 16.1445C7.63376 16.1323 7.62402 16.1178 7.61738 16.1018C7.61075 16.0858 7.60737 16.0686 7.60742 16.0512V16.036C7.69423 16.0024 7.78059 15.9758 7.87089 15.9575L7.87045 15.957ZM7.73959 16.6414C7.72222 16.6412 7.705 16.6445 7.68891 16.6511C7.67282 16.6576 7.6582 16.6673 7.6459 16.6796C7.6336 16.6918 7.62386 16.7064 7.61726 16.7225C7.61065 16.7386 7.60731 16.7558 7.60742 16.7731V17.4911C7.60742 17.5627 7.66762 17.6229 7.73916 17.6229C7.75649 17.623 7.77367 17.6196 7.7897 17.6131C7.80574 17.6065 7.82031 17.5968 7.83256 17.5845C7.84482 17.5723 7.85452 17.5577 7.86109 17.5417C7.86767 17.5256 7.871 17.5085 7.87089 17.4911V16.7731C7.8713 16.7557 7.86818 16.7384 7.86171 16.7222C7.85524 16.7061 7.84555 16.6914 7.83323 16.6791C7.82092 16.6668 7.80623 16.6571 7.79006 16.6506C7.77389 16.6441 7.75657 16.641 7.73916 16.6414H7.73959ZM7.73959 18.0778C7.70472 18.0781 7.67136 18.0921 7.64666 18.1167C7.62196 18.1414 7.60788 18.1747 7.60742 18.2095V18.9314C7.60742 19.0025 7.66762 19.0632 7.73916 19.0632C7.75649 19.0633 7.77367 19.0599 7.7897 19.0534C7.80574 19.0468 7.82031 19.0371 7.83256 19.0248C7.84482 19.0126 7.85452 18.998 7.86109 18.982C7.86767 18.9659 7.871 18.9488 7.87089 18.9314V18.2095C7.871 18.1922 7.86767 18.175 7.86109 18.159C7.85452 18.1429 7.84482 18.1284 7.83256 18.1161C7.82031 18.1039 7.80574 18.0942 7.7897 18.0876C7.77367 18.081 7.75649 18.0777 7.73916 18.0778H7.73959ZM7.73959 19.5181C7.70476 19.5183 7.6714 19.5322 7.64669 19.5568C7.62198 19.5813 7.60788 19.6146 7.60742 19.6494V20.3674C7.60731 20.3847 7.61064 20.4019 7.61722 20.4179C7.6238 20.434 7.63349 20.4485 7.64575 20.4608C7.65801 20.473 7.67257 20.4827 7.68861 20.4893C7.70464 20.4959 7.72182 20.4992 7.73916 20.4991C7.81462 20.4991 7.87089 20.4428 7.87089 20.3674V19.6494C7.87094 19.6321 7.86757 19.615 7.86097 19.599C7.85436 19.583 7.84465 19.5685 7.83241 19.5563C7.82016 19.5441 7.80561 19.5344 7.7896 19.5279C7.7736 19.5213 7.75645 19.518 7.73916 19.5181H7.73959ZM7.87045 21.0893V21.1835C7.78068 21.1647 7.69269 21.1383 7.60742 21.1045V21.0893C7.60742 21.072 7.61084 21.0549 7.61747 21.039C7.6241 21.0231 7.63382 21.0086 7.64606 20.9964C7.6583 20.9843 7.67283 20.9747 7.68881 20.9681C7.70479 20.9616 7.7219 20.9583 7.73916 20.9584C7.81462 20.9584 7.87045 21.0143 7.87045 21.0893Z" fill="white"/>
</g>
<path d="M11.219 18.5701C11.2189 19.1241 11.0481 19.6646 10.7299 20.118C10.4117 20.5715 9.96157 20.9159 9.44066 21.1044C9.3554 21.1382 9.2674 21.1646 9.17764 21.1834C9.00667 21.2285 8.83131 21.255 8.65464 21.2623C8.60971 21.2662 8.56828 21.2662 8.52335 21.2662C8.47842 21.2662 8.43698 21.2662 8.39162 21.2623C8.21509 21.2549 8.03988 21.2285 7.86906 21.1834C7.77914 21.1646 7.691 21.1382 7.6056 21.1044C7.22265 20.9648 6.87583 20.7413 6.59058 20.4501C6.70704 20.5142 6.82743 20.567 6.95174 20.6115C7.03811 20.646 7.12448 20.6722 7.21477 20.6909C7.38401 20.7358 7.56067 20.7624 7.73733 20.7699C7.78269 20.7738 7.82369 20.7738 7.86906 20.7738C7.91442 20.7738 7.95542 20.7738 8.00079 20.7699C8.17745 20.7624 8.3541 20.7358 8.52335 20.6909C8.61364 20.6722 8.70001 20.646 8.78637 20.612C9.20965 20.4588 9.58784 20.2022 9.88645 19.8654C10.1851 19.5286 10.3946 19.1224 10.4959 18.6838C10.5972 18.2452 10.5871 17.7883 10.4665 17.3546C10.3458 16.921 10.1185 16.5244 9.80532 16.2012C10.2328 16.4317 10.5899 16.7737 10.8388 17.1907C11.0877 17.6078 11.2191 18.0845 11.219 18.5701Z" fill="#E24B40"/>
<path d="M7.86947 21.0892V21.1834C7.7797 21.1647 7.69171 21.1383 7.60645 21.1045V21.0892C7.60644 21.072 7.60986 21.0549 7.61649 21.0389C7.62312 21.023 7.63284 21.0086 7.64508 20.9964C7.65733 20.9842 7.67185 20.9746 7.68783 20.9681C7.70381 20.9616 7.72092 20.9583 7.73818 20.9584C7.81364 20.9584 7.86947 21.0142 7.86947 21.0892ZM9.44151 20.2622V20.3673C9.44163 20.3847 9.4383 20.4018 9.43172 20.4179C9.42514 20.4339 9.41544 20.4485 9.40318 20.4607C9.39093 20.473 9.37636 20.4827 9.36033 20.4893C9.34429 20.4958 9.32711 20.4992 9.30978 20.4991C9.28511 20.4995 9.26087 20.4926 9.24013 20.4793C9.21939 20.4659 9.20309 20.4467 9.19332 20.424C9.27981 20.376 9.36289 20.3221 9.44195 20.2626L9.44151 20.2622ZM9.44151 21.0892V21.1045C9.35625 21.1383 9.26825 21.1647 9.17849 21.1834V21.0892C9.17848 21.072 9.18188 21.055 9.18849 21.0391C9.19509 21.0231 9.20477 21.0087 9.21697 20.9965C9.22916 20.9844 9.24364 20.9748 9.25957 20.9682C9.27549 20.9617 9.29256 20.9583 9.30978 20.9584C9.32704 20.9583 9.34415 20.9616 9.36012 20.9681C9.3761 20.9746 9.39063 20.9842 9.40287 20.9964C9.41512 21.0086 9.42484 21.023 9.43147 21.0389C9.4381 21.0549 9.44151 21.072 9.44151 21.0892Z" fill="#D0D0F7"/>
<path opacity="0.4" d="M11.7216 11.9723L10.2722 13.4947C10.2465 13.5216 10.2158 13.5432 10.1818 13.5582C10.1478 13.5733 10.1111 13.5815 10.0739 13.5824C10.0368 13.5833 9.99976 13.5768 9.96507 13.5634C9.93038 13.55 9.89866 13.5299 9.87174 13.5043C9.84482 13.4786 9.82321 13.4479 9.80816 13.4139C9.79311 13.3799 9.7849 13.3432 9.78401 13.306C9.78312 13.2688 9.78956 13.2318 9.80297 13.1972C9.81637 13.1625 9.83648 13.1307 9.86214 13.1038L11.3116 11.5819C11.3371 11.5546 11.3678 11.5325 11.4019 11.5171C11.436 11.5017 11.4728 11.4932 11.5102 11.4921C11.5476 11.491 11.5849 11.4973 11.6198 11.5107C11.6548 11.524 11.6867 11.5442 11.7138 11.57C11.7409 11.5958 11.7627 11.6267 11.7777 11.661C11.7928 11.6952 11.8009 11.7321 11.8017 11.7696C11.8024 11.807 11.7957 11.8442 11.782 11.879C11.7682 11.9138 11.7477 11.9455 11.7216 11.9723ZM9.47655 14.3295L9.33435 14.4787C9.30883 14.5061 9.27813 14.5281 9.24404 14.5435C9.20995 14.559 9.17313 14.5675 9.13573 14.5686C9.09832 14.5697 9.06107 14.5634 9.02612 14.55C8.99117 14.5366 8.95922 14.5164 8.93212 14.4906C8.90502 14.4648 8.8833 14.4339 8.86823 14.3997C8.85315 14.3654 8.84502 14.3285 8.84429 14.2911C8.84357 14.2537 8.85027 14.2165 8.86401 14.1817C8.87774 14.1469 8.89825 14.1151 8.92433 14.0883L9.06653 13.9391C9.09205 13.9118 9.12275 13.8897 9.15684 13.8743C9.19093 13.8589 9.22775 13.8504 9.26515 13.8493C9.30256 13.8481 9.33981 13.8545 9.37476 13.8678C9.40971 13.8812 9.44166 13.9014 9.46876 13.9272C9.49586 13.953 9.51758 13.9839 9.53265 14.0182C9.54773 14.0524 9.55586 14.0893 9.55659 14.1267C9.55731 14.1642 9.55061 14.2013 9.53687 14.2361C9.52314 14.271 9.50263 14.3027 9.47655 14.3295Z" fill="white"/>
</svg>
