<svg width="128" height="39" viewBox="0 0 128 39" fill="none" xmlns="http://www.w3.org/2000/svg">
<g clip-path="url(#clip0_5_3433)">
<path d="M26.3418 25.1915C26.3418 22.9136 27.806 22.8728 29.7792 22.8728H30.0042C31.929 22.8728 32.9834 23.1955 32.9834 25.3995V26.9343C32.9834 28.781 32.5051 29.5668 29.9359 29.5668H29.445C27.0074 29.5668 26.3418 28.8995 26.3418 27.0613V25.1915ZM26.3418 30.088H26.3815C26.9865 30.8834 28.101 31.294 29.4705 31.294H30.1787C33.0433 31.294 35.1392 30.5677 35.138 27.2792V25.2714C35.138 22.2282 33.7889 21.1453 30.2682 21.1453H29.1741C27.6365 21.1453 26.7806 21.6648 26.3792 22.2262H26.3418V17.3623H24.1875V30.9825H26.3418V30.088Z" fill="white"/>
<path d="M61.2555 21.3868H58.3628V20.5085C58.3628 19.6701 58.9146 18.9953 60.0912 18.9953L62.2395 18.9975V17.3613L59.3828 17.3621C57.6562 17.3621 56.2067 18.257 56.2067 20.5174V21.3868H55.0469V23.1103H56.2067V31.2898H58.3628V23.1103H61.2555L61.2555 21.3868Z" fill="white"/>
<path d="M48.8033 28.1317C48.8033 30.393 50.2533 31.2898 51.9809 31.2898H54.6563V29.5659L52.5064 29.5666C51.3314 29.5666 50.9586 28.9809 50.9586 28.1417V23.1103H53.8534V21.3868H50.9586V17.3613H48.8046V21.3868H47.6445V23.1103H48.8046L48.8033 28.1317Z" fill="white"/>
<path d="M73.6191 19.5405H75.7739V17.3613L73.6191 17.3621V19.5405Z" fill="white"/>
<path d="M73.6172 31.2924H75.7735V21.1455H73.6187L73.6172 31.2924Z" fill="white"/>
<path d="M38.3699 25.0156C38.3699 23.0668 39.2815 22.8723 41.5047 22.8723L41.9402 22.8729C44.4411 22.8729 44.7638 23.4998 44.7638 24.7814L44.7659 25.3254L38.3699 25.3279L38.3699 25.0156ZM40.7193 31.2924H42.6572C45.267 31.2924 46.4596 30.4671 46.7647 29.0245L44.8477 28.4463C44.5296 29.3353 43.762 29.567 42.0729 29.567H41.5755C38.817 29.567 38.3686 29.2197 38.3659 27.0526L38.3699 27.0506H46.9198V25.1735C46.9198 21.7772 45.1484 21.1455 42.3177 21.1455H41.2638C39.0232 21.1455 36.3066 21.5361 36.3066 24.9923V27.3881C36.3066 30.7457 38.6608 31.2942 40.7193 31.2924Z" fill="white"/>
<path d="M69.5508 28.2609C69.5508 29.2138 68.8949 29.567 66.3435 29.567H65.7672C63.5991 29.567 63.3238 29.1507 63.3238 28.3282L63.3245 27.793C63.3238 26.8398 63.8643 26.48 65.6597 26.48H66.6191C68.2551 26.48 69.5507 26.7997 69.5507 27.8669L69.5508 28.2609ZM66.8731 21.1455H66.0676C63.1451 21.1455 61.8784 22.0412 61.7964 23.3825L63.8503 24.0606C63.9448 23.1441 65.001 22.8729 66.6027 22.8729C68.9844 22.8729 69.5474 23.0104 69.5474 24.7238V25.6548H69.5049C68.9665 24.9399 68.2315 24.7553 66.3655 24.7553H65.5233C62.7719 24.7553 61.1699 25.4374 61.1699 27.6052V28.2249C61.1726 30.0146 61.8568 31.2925 64.729 31.2925H66.8194C68.8984 31.2925 69.1066 30.9527 69.5172 30.36H69.5508V31.2902H71.7039V24.7679C71.704 21.9267 69.8097 21.1455 66.8731 21.1455Z" fill="white"/>
<path d="M82.3442 21.1455C81.3874 21.1455 80.4103 21.5067 79.806 22.4935H79.7285V21.1455L77.6875 21.1469V31.2924H79.8428V25.1876C79.8428 23.9559 80.5535 22.8723 82.2267 22.8723C83.423 22.8723 83.9997 23.1956 84.1279 23.5347L85.4848 22.623C85.1504 21.6999 84.2512 21.1455 82.3442 21.1455Z" fill="white"/>
<path d="M20.2195 17.3965H14.6413V20.1838H11.6602L17.4306 26.8967L23.2029 20.1838H20.2195L20.2195 17.3965Z" fill="white"/>
<path d="M4.30469 28.4402H7.28715V31.2302H12.865V28.4402H15.8476L10.0778 21.7295L4.30469 28.4402Z" fill="white"/>
<path d="M4.71484 9.25879H6.06363C7.12189 9.25879 7.83609 9.61329 7.83609 10.6436C7.83609 11.6335 7.12569 12.0963 6.09243 12.0963H5.31592V13.962H4.71484V9.25879ZM6.01663 11.6108C6.8425 11.6108 7.23645 11.3128 7.23645 10.6436C7.23645 9.96532 6.81749 9.74419 5.98782 9.74419H5.31579V11.6108H6.01663Z" fill="white"/>
<path d="M8.51367 11.5935C8.51367 10.0871 9.34609 9.17285 10.5323 9.17285C11.7183 9.17285 12.5507 10.0898 12.5507 11.5935C12.5507 13.0998 11.7183 14.048 10.5323 14.048C9.34609 14.048 8.51367 13.0998 8.51367 11.5935ZM11.9301 11.5935C11.9301 10.4218 11.3756 9.69907 10.5323 9.69907C9.68898 9.69907 9.13439 10.4218 9.13439 11.5935C9.13439 12.7651 9.68898 13.5219 10.5323 13.5219C11.3754 13.5218 11.9301 12.7651 11.9301 11.5935Z" fill="white"/>
<path d="M13.084 9.25879H13.7047L14.2002 11.8193C14.2915 12.3247 14.3855 12.8302 14.4768 13.3355H14.5056C14.6102 12.8302 14.7238 12.3221 14.8375 11.8193L15.4927 9.25879H16.0378L16.6931 11.8193C16.8067 12.3169 16.9203 12.8274 17.034 13.3355H17.0628C17.1542 12.8276 17.239 12.3195 17.3303 11.8193L17.8258 9.25879H18.4055L17.4283 13.962H16.7055L15.9909 11.135C15.9099 10.7675 15.8341 10.426 15.7636 10.0639H15.7348C15.6618 10.426 15.5795 10.7675 15.4985 11.135L14.7983 13.962H14.0861L13.084 9.25879Z" fill="white"/>
<path d="M19.2207 9.25879H21.9429V9.76532H19.8218V11.239H21.6111V11.7455H19.8218V13.4553H22.0148V13.9619H19.2207V9.25879Z" fill="white"/>
<path d="M23.0137 9.25879H24.4929C25.4548 9.25879 26.1455 9.60273 26.1455 10.5825C26.1455 11.5219 25.4549 11.9741 24.4929 11.9741H23.6147V13.962H23.0137V9.25879ZM24.4064 11.4886C25.1413 11.4886 25.546 11.1921 25.546 10.5824C25.546 9.96362 25.1415 9.74406 24.4064 9.74406H23.6147V11.4884L24.4064 11.4886ZM24.3744 11.8101L24.8453 11.5004L26.2863 13.962H25.6051L24.3744 11.8101Z" fill="white"/>
<path d="M27.1074 9.25879H29.8296V9.76532H27.7085V11.239H29.4978V11.7455H27.7085V13.4553H29.9015V13.9619H27.1074V9.25879Z" fill="white"/>
<path d="M30.9005 9.25879H32.082C33.5341 9.25879 34.3127 10.0992 34.3127 11.5934C34.3127 13.0875 33.5341 13.9619 32.1084 13.9619H30.9004L30.9005 9.25879ZM32.0373 13.4712C33.1413 13.4712 33.692 12.7823 33.692 11.5934C33.692 10.4044 33.1413 9.74941 32.0373 9.74941H31.5016V13.4711L32.0373 13.4712Z" fill="white"/>
<path d="M36.7656 9.25879H38.1676C39.128 9.25879 39.7922 9.58396 39.7922 10.4106C39.7922 10.8752 39.5438 11.2885 39.1021 11.4318V11.4605C39.6665 11.5715 40.0627 11.9425 40.0627 12.586C40.0627 13.51 39.3281 13.9619 38.2752 13.9619H36.7656V9.25879ZM38.066 11.26C38.8692 11.26 39.2017 10.9649 39.2017 10.4881C39.2017 9.93885 38.8236 9.73363 38.0932 9.73363H37.3666V11.26H38.066ZM38.1886 13.487C38.9963 13.487 39.4721 13.1973 39.4721 12.5635C39.4721 11.9841 39.0144 11.7192 38.1886 11.7192H37.3666V13.487H38.1886Z" fill="white"/>
<path d="M41.7613 12.1393L40.3418 9.25879H40.9837L41.5929 10.5866C41.7444 10.9333 41.8868 11.2603 42.0501 11.6122H42.0789C42.2422 11.2603 42.4054 10.9333 42.5505 10.5866L43.1597 9.25879H43.7818L42.3622 12.1393V13.9619H41.7613V12.1393Z" fill="white"/>
<path d="M116.783 27.506C121.395 22.9134 121.395 15.4674 116.783 10.8749C112.171 6.28237 104.694 6.28237 100.083 10.8749C95.471 15.4674 95.471 22.9134 100.083 27.506C104.694 32.0985 112.171 32.0985 116.783 27.506Z" fill="#212121"/>
<path d="M108.434 7.42993C114.956 7.42993 120.243 12.6951 120.243 19.19C120.243 25.6849 114.956 30.95 108.434 30.95C101.912 30.95 96.6248 25.6849 96.6248 19.19C96.6248 12.6951 101.912 7.42993 108.434 7.42993ZM108.434 4.92676C100.536 4.92676 94.1113 11.3252 94.1113 19.1898C94.1113 27.0545 100.536 33.4531 108.434 33.4531C116.331 33.4531 122.757 27.0546 122.757 19.19C122.757 11.3253 116.331 4.92676 108.434 4.92676Z" fill="url(#paint0_linear_5_3433)"/>
<path d="M103.732 13.2617V25.1688H101.019V18.785C101.019 17.8632 100.999 17.3092 100.959 17.1228C100.919 16.9365 100.808 16.7955 100.627 16.7C100.446 16.6043 100.042 16.5566 99.415 16.5566H99.1465V15.1684C100.458 14.8593 101.454 14.2237 102.134 13.2617H103.732Z" fill="white"/>
<path d="M109.963 18.4131C110.361 18.5897 110.668 18.8535 110.882 19.2041C111.097 19.5548 111.205 20.39 111.205 21.7096C111.205 22.6713 111.12 23.3801 110.95 23.8363C110.779 24.2925 110.448 24.6665 109.956 24.9584C109.464 25.2504 108.803 25.3963 107.975 25.3963C107.17 25.3963 106.532 25.2564 106.062 24.9768C105.592 24.6973 105.255 24.3269 105.052 23.8657C104.848 23.4047 104.746 22.6369 104.746 21.5624C104.746 20.8413 104.796 20.2159 104.897 19.6861C104.998 19.1564 105.315 18.732 105.847 18.4131C105.511 18.2368 105.26 17.9564 105.092 17.5716C104.924 17.187 104.84 16.6982 104.84 16.1054C104.84 15.0813 105.1 14.3134 105.619 13.8013C106.138 13.2893 106.915 13.0332 107.949 13.0332C109.143 13.0332 109.969 13.3052 110.426 13.849C110.882 14.3929 111.111 15.1695 111.111 16.1788C111.111 16.8207 111.036 17.2839 110.886 17.5678C110.736 17.8521 110.428 18.1338 109.963 18.4131ZM108.492 20.807C108.492 20.3511 108.45 20.0483 108.365 19.8986C108.28 19.7491 108.145 19.6744 107.962 19.6744C107.783 19.6744 107.654 19.7467 107.576 19.8913C107.497 20.0359 107.458 20.3413 107.458 20.807V22.3515C107.458 22.8662 107.502 23.1973 107.589 23.3443C107.676 23.4914 107.814 23.5649 108.002 23.5649C108.195 23.5649 108.324 23.4902 108.391 23.3407C108.459 23.1911 108.492 22.8541 108.492 22.3294V20.807H108.492ZM108.439 15.8574C108.439 15.4554 108.406 15.1894 108.341 15.0594C108.276 14.9296 108.152 14.8645 107.969 14.8645C107.79 14.8645 107.669 14.9344 107.606 15.0742C107.544 15.2139 107.512 15.475 107.512 15.8575V16.7621C107.512 17.12 107.548 17.3677 107.62 17.5049C107.691 17.6421 107.812 17.7107 107.982 17.7107C108.161 17.7107 108.282 17.6435 108.345 17.5085C108.407 17.3737 108.439 17.0955 108.439 16.6738V15.8574H108.439Z" fill="white"/>
<path d="M112.084 18.3283H114.494V15.6807H116.132V18.3283H118.556V20.1229H116.132V22.7558H114.494V20.1229H112.084V18.3283Z" fill="white"/>
</g>
<defs>
<linearGradient id="paint0_linear_5_3433" x1="94.1113" y1="19.1899" x2="122.757" y2="19.1899" gradientUnits="userSpaceOnUse">
<stop stop-color="#EB5248"/>
<stop offset="0.0025" stop-color="#EB5248"/>
<stop offset="0.4365" stop-color="#E63321"/>
<stop offset="0.7842" stop-color="#E2200A"/>
<stop offset="1" stop-color="#E11901"/>
</linearGradient>
<clipPath id="clip0_5_3433">
<rect width="128" height="39" fill="white"/>
</clipPath>
</defs>
</svg>
