<svg width="16" height="16" viewBox="0 0 16 16" fill="none" xmlns="http://www.w3.org/2000/svg">
<path d="M16 8C16 5.79074 15.1044 3.79074 13.657 2.34296C12.2096 0.895185 10.2093 0 8 0C5.79074 0 3.79074 0.895556 2.34296 2.34296C0.895185 3.79074 0 5.79074 0 8C0 10.2093 0.895555 12.2093 2.34296 13.657C3.79074 15.1048 5.79074 16 8 16C10.2093 16 12.2093 15.1044 13.657 13.657C15.1044 12.2093 16 10.2093 16 8Z" fill="#E6E6E6"/>
<path d="M11.1782 4.82191C11.9915 5.63524 12.4945 6.75895 12.4945 8.00006C12.4945 9.24117 11.9915 10.3649 11.1782 11.1782C10.3649 11.9915 9.24117 12.4945 8.00006 12.4945C6.75895 12.4945 5.63524 11.9915 4.82191 11.1782C4.00858 10.3649 3.50562 9.24117 3.50562 8.00006C3.50562 6.75895 4.00858 5.63524 4.82191 4.82191C5.63524 4.00858 6.75895 3.50562 8.00006 3.50562C9.24117 3.50562 10.3649 4.00858 11.1782 4.82191Z" fill="#F16462"/>
<path d="M8.21728 8.02319C8.21728 7.90319 8.12024 7.80615 8.00024 7.80615C7.88024 7.80615 7.7832 7.90319 7.7832 8.02319V10.4006C7.7832 10.5206 7.88024 10.6176 8.00024 10.6176C8.12024 10.6176 8.21728 10.5206 8.21728 10.4006V8.02319Z" fill="#E6E6E6"/>
<path d="M7.27807 10.1841C7.15807 10.1841 7.06104 10.2811 7.06104 10.4011C7.06104 10.5211 7.15807 10.6182 7.27807 10.6182H8.72178C8.84178 10.6182 8.93881 10.5211 8.93881 10.4011C8.93881 10.2811 8.84178 10.1841 8.72178 10.1841H7.27807Z" fill="#E6E6E6"/>
<path d="M4.10034 1.01343C3.45404 1.37491 2.8633 1.82343 2.3433 2.34306C1.82367 2.86269 1.37515 3.45343 1.01367 4.09935C1.41293 4.23824 1.84071 4.26972 2.25293 4.1938C2.72034 4.1075 3.16663 3.88454 3.52663 3.52454C3.88663 3.16454 4.1096 2.71861 4.19552 2.25121C4.27108 1.83972 4.2396 1.41195 4.10034 1.01343Z" fill="#F16462"/>
<path d="M0.301852 5.81592C0.105185 6.50999 0 7.24258 0 7.99999C0 8.75666 0.105185 9.48888 0.301482 10.183C0.681852 9.99925 1.00667 9.71925 1.24444 9.37444C1.51444 8.98295 1.67222 8.50925 1.67222 7.99999C1.67222 7.49036 1.51407 7.01629 1.24444 6.62481C1.00704 6.27999 0.682222 5.99962 0.301852 5.81592Z" fill="#F16462"/>
<path d="M1.01367 11.8999C1.37515 12.5462 1.82367 13.1373 2.34367 13.657C2.8633 14.1766 3.45441 14.6251 4.10034 14.9866C4.2396 14.5873 4.27145 14.1596 4.19552 13.7473C4.1096 13.2803 3.88664 12.8344 3.52664 12.4744C3.16664 12.1144 2.72071 11.8914 2.25367 11.8051C1.84145 11.7296 1.41293 11.761 1.01367 11.8999Z" fill="#F16462"/>
<path d="M5.81616 15.6981C6.51024 15.8948 7.24283 16 8.00024 16C8.75727 16 9.4895 15.8948 10.1836 15.6985C9.99987 15.3181 9.71987 14.9933 9.37505 14.7555C8.98357 14.4855 8.50987 14.3274 8.00061 14.3274C7.49098 14.3274 7.01764 14.4852 6.62616 14.7552C6.28098 14.9929 6.00024 15.3178 5.81616 15.6981Z" fill="#F16462"/>
<path d="M11.9007 14.9863C12.5466 14.6248 13.1373 14.1763 13.657 13.657C14.177 13.137 14.6255 12.5463 14.987 11.9C14.5877 11.7615 14.1596 11.73 13.7477 11.8059C13.2807 11.8922 12.8344 12.1152 12.4748 12.4748C12.1148 12.8348 11.8918 13.2807 11.8059 13.7477C11.7299 14.1592 11.7614 14.587 11.9007 14.9863Z" fill="#F16462"/>
<path d="M16.0003 7.99999C16.0003 7.24295 15.8952 6.50999 15.6985 5.81592C15.3185 5.99999 14.9933 6.28036 14.7555 6.62555C14.4859 7.01703 14.3281 7.49036 14.3281 7.99999C14.3281 8.50888 14.4859 8.98221 14.7559 9.37333C14.9941 9.71851 15.3189 9.99888 15.6989 10.183C15.8952 9.48925 16.0003 8.75666 16.0003 7.99999Z" fill="#F16462"/>
<path d="M14.9871 4.09997C14.6256 3.45367 14.1771 2.86293 13.6575 2.3433C13.1378 1.82367 12.5471 1.37515 11.9012 1.01367C11.7623 1.41219 11.7308 1.8396 11.8063 2.25145C11.8923 2.71849 12.1152 3.16478 12.4752 3.52478C12.8352 3.88478 13.2815 4.10812 13.7489 4.19441C14.1604 4.27034 14.5882 4.23886 14.9871 4.09997Z" fill="#F16462"/>
<path d="M10.1832 0.301482C9.48912 0.105185 8.75689 0 7.99986 0C7.24319 0 6.5106 0.105185 5.81689 0.301482C6.0006 0.681852 6.28097 1.00667 6.62578 1.24407C7.01726 1.5137 7.49097 1.67185 8.0006 1.67185C8.50986 1.67185 8.98356 1.5137 9.37504 1.24407C9.71949 1.0063 9.99949 0.681852 10.1832 0.301482Z" fill="#F16462"/>
<path d="M8.13016 8.86221C8.08239 8.81444 8.03868 8.76258 7.99979 8.7074C7.96053 8.76258 7.9172 8.81444 7.86942 8.86221C7.65461 9.07703 7.35831 9.20962 7.03053 9.20962C6.70313 9.20962 6.40646 9.07666 6.19165 8.86221C5.97683 8.6474 5.84424 8.3511 5.84424 8.02333C5.84424 7.69592 5.9772 7.39925 6.19165 7.18444C6.36572 7.01036 6.5935 6.88999 6.84831 6.85073C6.82572 6.75851 6.8135 6.6637 6.8135 6.5674C6.8135 6.23999 6.94646 5.94333 7.16091 5.72851C7.37572 5.5137 7.67202 5.3811 7.99979 5.3811C8.3272 5.3811 8.62387 5.51407 8.83868 5.72851C9.0535 5.94333 9.18609 6.23962 9.18609 6.5674C9.18609 6.6637 9.17387 6.75851 9.15128 6.85073C9.40572 6.88999 9.63387 7.01036 9.80794 7.18444C10.0228 7.39925 10.1553 7.69555 10.1553 8.02333C10.1553 8.35073 10.0224 8.6474 9.80794 8.86221C9.59313 9.07703 9.29683 9.20962 8.96905 9.20962C8.64165 9.20962 8.34498 9.07703 8.13016 8.86221Z" fill="#E6E6E6"/>
</svg>
