<svg width="14" height="26" viewBox="0 0 14 26" fill="none" xmlns="http://www.w3.org/2000/svg">
<g clip-path="url(#clip0_5_3512)">
<path d="M3.90683 14.677C3.70384 14.677 3.53257 14.677 3.36764 14.677C2.47956 14.677 1.59147 14.6833 0.703389 14.677C0.183226 14.6706 0.0119524 14.5181 0.00560893 14.0225C-0.00707798 12.6882 -0.00707798 11.3539 0.00560893 10.0196C0.0119524 9.52397 0.189569 9.37148 0.703389 9.37148C1.64222 9.36512 2.58739 9.37148 3.52623 9.37148C3.64041 9.37148 3.75459 9.37148 3.90049 9.37148C3.90049 9.21899 3.90049 9.09191 3.90049 8.97118C3.91952 7.76395 3.88146 6.55036 3.98295 5.35584C4.23669 2.33775 6.55205 0.152025 9.58422 0.037656C10.8529 -0.0131749 12.1216 0.0185944 13.3903 0.0185944C13.809 0.0185944 13.9929 0.202856 13.9929 0.622211C13.9993 1.88028 13.9993 3.14469 13.9929 4.40276C13.9929 4.83482 13.8153 5.00002 13.3586 5.01273C12.5022 5.03179 11.6458 5.03179 10.7895 5.0445C9.79356 5.05721 9.40026 5.43844 9.38758 6.42964C9.36855 7.37001 9.38123 8.31038 9.38123 9.28888C9.51444 9.29523 9.62228 9.30794 9.73647 9.30794C10.7514 9.30794 11.7664 9.30794 12.7813 9.30794C13.7963 9.30794 13.8724 9.37783 13.8724 10.4135C13.8724 11.5763 13.8724 12.7454 13.8724 13.9081C13.8724 14.4927 13.7265 14.6388 13.1429 14.6452C12.0201 14.6515 10.9037 14.6452 9.78087 14.6452C9.66669 14.6452 9.55251 14.6452 9.38758 14.6452C9.38758 14.804 9.38758 14.9375 9.38758 15.0709C9.38758 18.3876 9.38758 21.698 9.38758 25.0147C9.38758 25.9042 9.28608 26.0122 8.38531 26.0122C7.16737 26.0122 5.95577 26.0122 4.73782 26.0122C4.06542 26.0122 3.91318 25.8597 3.91318 25.1926C3.91318 21.8378 3.91318 18.4766 3.91318 15.1217C3.90683 14.9819 3.90683 14.8549 3.90683 14.677Z" fill="white"/>
</g>
<defs>
<clipPath id="clip0_5_3512">
<rect width="14" height="26" fill="white"/>
</clipPath>
</defs>
</svg>
