<svg width="17" height="17" viewBox="0 0 17 17" fill="none" xmlns="http://www.w3.org/2000/svg">
<g clip-path="url(#clip0_1_8299)">
<path d="M8.5 17C13.1944 17 17 13.1944 17 8.5C17 3.80558 13.1944 0 8.5 0C3.80558 0 0 3.80558 0 8.5C0 13.1944 3.80558 17 8.5 17Z" fill="#F26635"/>
<path d="M17.0001 8.5C17.0003 10.0696 16.5658 11.6087 15.7448 12.9465C14.9239 14.2843 13.7485 15.3687 12.349 16.0795C10.9495 16.7902 9.38054 17.0996 7.81599 16.9732C6.25145 16.8469 4.75244 16.2898 3.48511 15.3637C5.37676 16.4076 7.59492 16.6919 9.68868 16.1589C11.7824 15.6259 13.5947 14.3156 14.757 12.4944C15.9193 10.6731 16.3444 8.47758 15.946 6.3541C15.5476 4.23061 14.3554 2.33854 12.612 1.0625C13.9411 1.79716 15.0492 2.8745 15.8209 4.18249C16.5926 5.49047 16.9998 6.98133 17.0001 8.5Z" fill="#020202" fill-opacity="0.0823529"/>
<path opacity="0.2" d="M10.4922 5.39495C10.492 6.57362 10.1781 7.731 9.5827 8.74825C8.98731 9.76549 8.1319 10.6059 7.10431 11.1833C6.07672 11.7606 4.91398 12.0541 3.73549 12.0335C2.55699 12.0129 1.40522 11.679 0.398438 11.066C0.134124 10.2364 -0.000276885 9.37085 4.28261e-07 8.50011C-1.33077e-05 8.09663 0.0283903 7.69365 0.0850004 7.29417C0.357388 5.39414 1.26484 3.64225 2.65967 2.32363C4.05449 1.00501 5.85456 0.197304 7.76687 0.0319824C8.61212 0.647413 9.2997 1.45417 9.77337 2.38628C10.247 3.3184 10.4934 4.34939 10.4922 5.39495Z" fill="white"/>
<path opacity="0.15" d="M8.06965 5.39473C8.06973 6.34378 7.74976 7.26513 7.16146 8.00985C6.57316 8.75457 5.7509 9.27913 4.8276 9.49874C3.90431 9.71836 2.93393 9.62019 2.07333 9.2201C1.21272 8.82002 0.512189 8.1414 0.0849609 7.29395C0.264814 6.0353 0.724734 4.83304 1.43085 3.77571C2.13696 2.71838 3.07127 1.83293 4.16496 1.18457C5.22711 1.26371 6.22 1.74174 6.94428 2.52268C7.66855 3.30361 8.07058 4.32963 8.06965 5.39473Z" fill="#F1F2F2"/>
<path d="M4.22078 5.79336C3.89329 6.48203 3.6361 7.20197 3.45312 7.94227C4.10273 8.30181 4.6693 8.79417 5.11594 9.38727C6.18051 10.6607 7.12736 12.0281 7.94484 13.4726C8.60295 14.6956 9.62367 15.6847 10.8667 16.3041C11.0221 16.3812 11.1818 16.4495 11.3448 16.5087C11.0468 16.6155 10.7425 16.7042 10.4337 16.7743C9.14988 16.0926 8.09631 15.0465 7.40562 13.7674C6.60208 12.3617 5.67776 11.0285 4.64312 9.78305C4.27583 9.30366 3.8261 8.89351 3.315 8.5718C2.94844 10.4551 2.95375 12.7182 3.58062 15.4382C3.31766 15.254 3.06577 15.0544 2.82625 14.8405C2.36148 12.6929 2.34068 10.4728 2.76516 8.3168C2.49381 8.21522 2.20745 8.15957 1.91781 8.15211C1.23369 8.15846 0.566617 8.36635 0 8.74977L0 8.50008C0 8.3407 0 8.17867 0.0159375 8.02461C0.602616 7.69907 1.26281 7.529 1.93375 7.53055C2.26506 7.53926 2.59302 7.5993 2.90594 7.70852C3.09449 6.98914 3.35063 6.28921 3.67094 5.61805C2.24453 5.18242 1.21391 4.95133 0.812812 4.87164C0.903125 4.67773 1.00141 4.48914 1.10766 4.3032C1.62297 4.41477 2.62703 4.65383 3.94984 5.06289C4.24762 4.51817 4.58779 3.99771 4.96719 3.50633C4.72841 3.45556 4.50363 3.35317 4.30861 3.20634C4.11359 3.0595 3.95306 2.87177 3.83828 2.65633C3.6767 2.29594 3.61875 1.89766 3.67094 1.50617C3.89856 1.3447 4.13536 1.19659 4.38016 1.06258C4.22694 1.49203 4.22694 1.96125 4.38016 2.3907C4.54219 2.7068 4.85828 2.89539 5.355 2.97773H5.38687C6.44405 1.76386 7.72339 0.763108 9.15609 0.0292969C9.53582 0.055899 9.91312 0.110052 10.285 0.191328C8.66171 0.824038 7.20703 1.82413 6.035 3.1132C6.86906 3.23539 8.62219 3.37883 11.7619 3.16102C12.9295 3.08721 14.1017 3.14961 15.2548 3.34695C15.4363 3.58377 15.6048 3.83028 15.7595 4.08539C14.4633 3.79591 13.1325 3.69216 11.807 3.77727C8.08828 4.04289 6.26609 3.79852 5.5675 3.65774C5.16761 4.15704 4.81209 4.69031 4.505 5.25148C7.63937 6.27414 12.2559 8.18664 16.4581 11.5123C16.3833 11.7096 16.2982 11.9029 16.2031 12.0913C11.9956 8.71258 7.33922 6.80008 4.22078 5.79336Z" fill="#3A3A3A"/>
</g>
<defs>
<clipPath id="clip0_1_8299">
<rect width="17" height="17" fill="white"/>
</clipPath>
</defs>
</svg>
