<svg width="17" height="17" viewBox="0 0 17 17" fill="none" xmlns="http://www.w3.org/2000/svg">
<path fill-rule="evenodd" clip-rule="evenodd" d="M3.02119 11.9554L5.70414 10.7053L6.1824 9.13437L5.23462 6.73235L2.86467 5.81665C2.84814 5.94498 2.84329 6.07231 2.84037 6.2366C2.80441 8.29547 3.43045 9.53393 3.02119 11.9554ZM5.04507 13.9793C7.46655 13.57 8.70498 14.1961 10.7638 14.1601C10.9281 14.1572 11.0545 14.1523 11.1828 14.1358L10.0785 11.5083L7.86604 10.8181L6.19601 11.6414L5.04507 13.9793Z" fill="#FE8607"/>
<path fill-rule="evenodd" clip-rule="evenodd" d="M9.43294 12.8293C8.24892 12.8497 7.33615 12.6514 6.3135 12.5571L5.04492 13.9793C7.4664 13.57 8.70483 14.1961 10.7637 14.1601C10.928 14.1572 11.0544 14.1524 11.1827 14.1358L9.85189 12.805C9.72359 12.8215 9.59722 12.8264 9.43294 12.8293Z" fill="#F46700"/>
<path fill-rule="evenodd" clip-rule="evenodd" d="M0.486409 16.5135C1.11826 17.1444 2.18852 17.1794 2.78344 16.5135L3.49209 15.7193L2.7018 14.3419L1.28062 13.5078L0.486409 14.2165C0.257974 14.4216 0.111184 14.6821 0.0441148 14.9611C-0.0151854 15.2061 -0.0142225 15.4647 0.0441148 15.7135C0.11311 16.008 0.261859 16.288 0.486409 16.5135Z" fill="#FEC165"/>
<path fill-rule="evenodd" clip-rule="evenodd" d="M2.76251 14.9902L2.05387 15.7844C1.57754 16.3181 0.796974 16.4017 0.180664 16.0906C0.259657 16.2467 0.362655 16.3894 0.485897 16.5135C1.11775 17.1444 2.188 17.1794 2.78293 16.5135L3.49158 15.7193L2.76251 14.9902Z" fill="#FEA610"/>
<path fill-rule="evenodd" clip-rule="evenodd" d="M5.04479 13.9792L7.8658 10.8179L7.63736 9.38117L6.18215 9.13428L3.02092 11.9553L2.58154 12.347L3.05399 13.9189L4.65306 14.4185L5.04479 13.9792Z" fill="#FEC165"/>
<path fill-rule="evenodd" clip-rule="evenodd" d="M7.13705 10.0898L4.31608 13.2501L3.92432 13.6895L4.65338 14.4186L5.04511 13.9792L7.86612 10.8179L7.13705 10.0898Z" fill="#FEA610"/>
<path fill-rule="evenodd" clip-rule="evenodd" d="M1.28027 13.5078L3.49178 15.7193L4.65245 14.4187L2.58093 12.3472L1.28027 13.5078Z" fill="#FB2A39"/>
<path fill-rule="evenodd" clip-rule="evenodd" d="M3.92288 13.6895L3.57292 14.0812L2.95176 14.7782L2.76221 14.9901L3.49127 15.7192L4.65194 14.4185L3.92288 13.6895Z" fill="#DD003A"/>
<path fill-rule="evenodd" clip-rule="evenodd" d="M2.86377 5.8166L6.18149 9.13432L7.86514 10.818L11.1819 14.1357C11.3617 14.1114 11.5445 14.0628 11.839 13.9568C12.2154 13.8217 12.5788 13.6529 12.9248 13.4523C13.0697 13.5709 15.3531 11.7278 15.8479 10.4476C16.1699 9.88445 16.4322 9.28921 16.6304 8.67157C17.4713 6.05665 16.8288 3.48161 15.1752 1.82419C13.5178 0.170729 10.9428 -0.471811 8.32785 0.369016C5.89668 1.15058 3.85431 2.89449 3.04263 5.16044C2.93765 5.45498 2.88807 5.63677 2.86377 5.8166Z" fill="#FB2A39"/>
<path fill-rule="evenodd" clip-rule="evenodd" d="M11.595 12.1224C11.2586 12.3158 10.9068 12.4811 10.5422 12.6142C10.5306 12.6181 10.5199 12.622 10.5092 12.6259C10.2137 12.7319 10.0309 12.7805 9.85107 12.8048L11.1818 14.1356C11.3617 14.1113 11.5444 14.0627 11.839 13.9567C12.2154 13.8216 12.5788 13.6527 12.9248 13.4522C13.0696 13.5708 15.3531 11.7277 15.8479 10.4475C16.1698 9.88433 16.4321 9.28909 16.6304 8.67145C17.4712 6.05653 16.8287 3.48149 15.1752 1.82408C14.952 1.6019 14.7118 1.39747 14.4568 1.21265C15.6437 2.84576 16.0267 5.07864 15.2996 7.34165C15.1009 7.95896 14.8389 8.55412 14.518 9.11766C14.0223 10.3969 11.7389 12.24 11.595 12.1224Z" fill="#DD003A"/>
<path fill-rule="evenodd" clip-rule="evenodd" d="M14.8183 14.5507C16.0198 14.5507 16.9987 13.5718 16.9987 12.3703C16.9987 11.1698 16.0198 10.1899 14.8183 10.1899C13.6178 10.1899 12.6379 11.1698 12.6379 12.3703C12.6379 13.5718 13.6178 14.5507 14.8183 14.5507Z" fill="#F8F2F0"/>
<path fill-rule="evenodd" clip-rule="evenodd" d="M14.8202 10.1899C14.7114 10.1899 14.6035 10.1977 14.4985 10.2133C14.9194 10.3824 15.2752 10.6789 15.5182 11.0551C15.7389 11.3963 15.8662 11.8017 15.8662 12.2381C15.8662 13.3327 15.0594 14.2387 14.0076 14.3942C14.2659 14.4979 14.5418 14.551 14.8202 14.5507C16.0246 14.5507 17.0006 13.5748 17.0006 12.3703C17.0006 11.5382 16.535 10.816 15.8497 10.4476C15.5435 10.2832 15.1925 10.1899 14.8202 10.1899Z" fill="#EEE1DC"/>
</svg>
