<svg width="20" height="20" viewBox="0 0 20 20" fill="none" xmlns="http://www.w3.org/2000/svg">
<path d="M9.99761 16.4364C13.5526 16.4364 16.4344 13.5545 16.4344 9.99957C16.4344 6.44461 13.5526 3.56274 9.99761 3.56274C6.44265 3.56274 3.56079 6.44461 3.56079 9.99957C3.56079 13.5545 6.44265 16.4364 9.99761 16.4364Z" fill="#FFE967"/>
<path d="M9.99668 3.56274C9.79309 3.56274 9.59185 3.57267 9.39307 3.59114C12.665 3.89547 15.2263 6.64819 15.2263 9.99957C15.2263 13.3509 12.665 16.1037 9.39307 16.408C9.59181 16.4265 9.79309 16.4364 9.99668 16.4364C13.5516 16.4364 16.4335 13.5545 16.4335 9.99957C16.4335 6.4446 13.5516 3.56274 9.99668 3.56274Z" fill="#FFD037"/>
<path d="M10.8797 9.69765H9.11699C8.93176 9.69765 8.78103 9.54695 8.78103 9.36172V7.59901C8.78103 7.41378 8.93172 7.26308 9.11699 7.26308H11.5175C11.6842 7.26308 11.8192 7.12797 11.8192 6.96129C11.8192 6.79462 11.6841 6.65951 11.5175 6.65951H10.3002V5.95242C10.3002 5.78575 10.165 5.65063 9.99837 5.65063C9.83169 5.65063 9.69658 5.78575 9.69658 5.95242V6.65951H9.11703C8.59896 6.65951 8.17749 7.08098 8.17749 7.59905V9.36176C8.17749 9.87983 8.599 10.3013 9.11703 10.3013H10.8797C11.065 10.3013 11.2157 10.452 11.2157 10.6372V12.3999C11.2157 12.5852 11.065 12.7359 10.8797 12.7359H8.47928C8.31256 12.7359 8.17749 12.871 8.17749 13.0377C8.17749 13.2043 8.3126 13.3394 8.47928 13.3394H9.69658V14.0465C9.69658 14.2132 9.83169 14.3483 9.99837 14.3483C10.165 14.3483 10.3002 14.2132 10.3002 14.0465V13.3394H10.8797C11.3978 13.3394 11.8192 12.918 11.8192 12.3999V10.6372C11.8193 10.1191 11.3978 9.69765 10.8797 9.69765Z" fill="white"/>
<path d="M5.43802 2.52952L3.00728 0.0988151C2.87553 -0.0329384 2.66194 -0.0329384 2.53019 0.0988151L0.0994867 2.52952C-0.113045 2.74205 0.0374965 3.1054 0.338034 3.1054H0.839111C1.02543 3.1054 1.17644 3.25645 1.17644 3.44273V10.1258C1.17644 10.372 1.37605 10.5716 1.62225 10.5716H3.91522C4.16142 10.5716 4.36103 10.372 4.36103 10.1258V3.44277C4.36103 3.25645 4.51208 3.10544 4.69836 3.10544H5.19944C5.50001 3.1054 5.65052 2.74205 5.43802 2.52952Z" fill="#85E994"/>
<path d="M5.4379 2.52927L3.0072 0.098571C2.87545 -0.0331825 2.66186 -0.0331825 2.53011 0.098571L2.16504 0.463637L3.98018 2.27877C4.28513 2.58372 4.06916 3.10519 3.63784 3.10519C3.37047 3.10519 3.15372 3.32194 3.15372 3.58932V10.1256C3.15372 10.3718 2.95412 10.5714 2.70791 10.5714H3.9151C4.1613 10.5714 4.3609 10.3718 4.3609 10.1256V3.44252C4.3609 3.2562 4.51195 3.10515 4.69828 3.10515H5.19935C5.49993 3.10515 5.65043 2.74177 5.4379 2.52927Z" fill="#42DAA2"/>
<path d="M14.5616 17.4696L16.9923 19.9003C17.1241 20.032 17.3377 20.032 17.4694 19.9003L19.9001 17.4696C20.1127 17.257 19.9621 16.8937 19.6616 16.8937H19.1605C18.9742 16.8937 18.8232 16.7426 18.8232 16.5564V9.8733C18.8232 9.62709 18.6236 9.42749 18.3774 9.42749H16.0844C15.8382 9.42749 15.6386 9.62709 15.6386 9.8733V16.5564C15.6386 16.7427 15.4875 16.8937 15.3013 16.8937H14.8002C14.4996 16.8937 14.3491 17.2571 14.5616 17.4696Z" fill="#FE646F"/>
<path d="M19.6618 16.8939H19.1607C18.9744 16.8939 18.8233 16.7428 18.8233 16.5565V9.8735C18.8233 9.6273 18.6237 9.42773 18.3775 9.42773H17.1703C17.4165 9.42773 17.6161 9.62734 17.6161 9.8735V16.4098C17.6161 16.6771 17.8329 16.8939 18.1002 16.8939C18.5315 16.8939 18.7475 17.4153 18.4426 17.7203L16.6274 19.5355L16.9925 19.9005C17.1243 20.0323 17.3378 20.0323 17.4696 19.9005L19.9003 17.4698C20.1128 17.2572 19.9623 16.8939 19.6618 16.8939Z" fill="#FD4755"/>
</svg>
