<svg width="15" height="18" viewBox="0 0 15 18" fill="none" xmlns="http://www.w3.org/2000/svg">
<path d="M12.7506 17.8029H1.60825C0.72005 17.8029 0 17.0829 0 16.1947V2.17686C0 1.28865 0.72005 0.568604 1.60825 0.568604H12.7506C13.6388 0.568604 14.3588 1.28865 14.3588 2.17686V16.1947C14.3588 17.0829 13.6388 17.8029 12.7506 17.8029Z" fill="url(#paint0_linear_4_1106)"/>
<path d="M12.7333 1.97168L1.70361 16.3728L3.13377 17.803H12.7497C13.6379 17.803 14.358 17.0829 14.358 16.1947V3.59642L12.7333 1.97168Z" fill="url(#paint1_linear_4_1106)"/>
<path d="M0 9.39819V16.1946C0 17.0828 0.72005 17.8029 1.60825 17.8029H12.7506C13.6388 17.8029 14.3588 17.0828 14.3588 16.1946V9.39819H0Z" fill="url(#paint2_linear_4_1106)"/>
<path d="M12.7515 0.568604H4.77026V17.8029H12.7515C13.6397 17.8029 14.3598 17.0829 14.3598 16.1947V2.17686C14.3597 1.28865 13.6397 0.568604 12.7515 0.568604Z" fill="url(#paint3_linear_4_1106)"/>
<path d="M12.7522 0.568604H8.10815V3.10349H14.3604V2.17682C14.3604 1.28862 13.6404 0.568604 12.7522 0.568604Z" fill="url(#paint4_linear_4_1106)"/>
<path d="M11.681 16.7593H2.68007C1.89392 16.7593 1.25659 16.1219 1.25659 15.3358V2.92836C1.25659 2.14221 1.89392 1.50488 2.68007 1.50488H11.681C12.4672 1.50488 13.1045 2.14221 13.1045 2.92836V15.3358C13.1045 16.122 12.4672 16.7593 11.681 16.7593Z" fill="url(#paint5_linear_4_1106)"/>
<path d="M1.25659 9.32007V15.3357C1.25659 16.1219 1.89392 16.7592 2.68007 16.7592H11.681C12.4672 16.7592 13.1045 16.1218 13.1045 15.3357V9.32007H1.25659Z" fill="url(#paint6_linear_4_1106)"/>
<path d="M11.6811 1.50488H5.47803V16.7593H11.6811C12.4673 16.7593 13.1046 16.1219 13.1046 15.3358V2.92836C13.1046 2.14221 12.4673 1.50488 11.6811 1.50488Z" fill="url(#paint7_linear_4_1106)"/>
<path d="M11.7685 4.99121L7.82223 8.93744C7.61892 9.14075 7.28929 9.14075 7.08594 8.93744L4.86929 6.72078C4.70117 6.55266 4.42985 6.54863 4.25686 6.71171L2.58911 8.28349L11.0649 16.7592H11.6793C12.4655 16.7592 13.1028 16.1219 13.1028 15.3358V6.32553L11.7685 4.99121Z" fill="url(#paint8_linear_4_1106)"/>
<path d="M5.26221 1.43164H9.09789V3.16563H5.26221V1.43164Z" fill="url(#paint9_linear_4_1106)"/>
<path d="M5.26221 1.43164H9.09789V3.16563H5.26221V1.43164Z" fill="url(#paint10_linear_4_1106)"/>
<path d="M13.1047 2.92836C13.1047 2.14221 12.4674 1.50488 11.6813 1.50488H9.08542V2.31377C9.08542 2.83493 8.66294 3.2574 8.14179 3.2574H5.27612L13.1047 11.086V2.92836Z" fill="url(#paint11_linear_4_1106)"/>
<path d="M8.39807 3.52144H5.96061C5.3954 3.52144 4.93555 3.06159 4.93555 2.49641V1.17798H9.42317V2.49638C9.42313 3.06159 8.96328 3.52144 8.39807 3.52144ZM5.45709 1.69955V2.49638C5.45709 2.77399 5.68296 2.99984 5.96058 2.99984H8.39803C8.67565 2.99984 8.90152 2.77399 8.90152 2.49638V1.69955H5.45709Z" fill="url(#paint12_linear_4_1106)"/>
<path d="M8.39807 3.52144H5.96061C5.3954 3.52144 4.93555 3.06159 4.93555 2.49641V1.17798H9.42317V2.49638C9.42313 3.06159 8.96328 3.52144 8.39807 3.52144ZM5.45709 1.69955V2.49638C5.45709 2.77399 5.68296 2.99984 5.96058 2.99984H8.39803C8.67565 2.99984 8.90152 2.77399 8.90152 2.49638V1.69955H5.45709Z" fill="url(#paint13_linear_4_1106)"/>
<path d="M8.39807 3.52144H5.96061C5.3954 3.52144 4.93555 3.06159 4.93555 2.49641V1.17798H9.42317V2.49638C9.42313 3.06159 8.96328 3.52144 8.39807 3.52144ZM5.45709 1.69955V2.49638C5.45709 2.77399 5.68296 2.99984 5.96058 2.99984H8.39803C8.67565 2.99984 8.90152 2.77399 8.90152 2.49638V1.69955H5.45709Z" fill="url(#paint14_linear_4_1106)"/>
<path d="M7.14038 1.69955H8.90219V2.49638C8.90219 2.77399 8.67631 2.99984 8.3987 2.99984H7.14038V3.52141H8.3987C8.96391 3.52141 9.42376 3.06155 9.42376 2.49638V1.17798H7.14038V1.69955Z" fill="url(#paint15_linear_4_1106)"/>
<path d="M9.19651 2.2227H5.16106C4.8565 2.2227 4.60962 1.81448 4.60962 1.31095C4.60962 0.879887 4.7922 0.507692 5.04732 0.418781L5.33801 0.317491C6.55185 -0.105505 7.80572 -0.105505 9.01956 0.317491L9.31025 0.418781C9.56537 0.507692 9.74795 0.879852 9.74795 1.31095C9.74795 1.81451 9.50108 2.2227 9.19651 2.2227Z" fill="url(#paint16_linear_4_1106)"/>
<path d="M9.19839 2.22246C9.50295 2.22246 9.74983 1.81424 9.74983 1.31071C9.74983 0.879651 9.56725 0.507456 9.31213 0.418545L9.02147 0.317256C8.41453 0.10574 7.79758 0 7.18066 0V2.22246H9.19839Z" fill="url(#paint17_linear_4_1106)"/>
<path d="M4.60986 1.31085C4.60986 1.81441 4.85674 2.22259 5.16131 2.22259H9.19675C9.50132 2.22259 9.7482 1.81437 9.7482 1.31085C9.7482 1.04881 9.68046 0.80899 9.57024 0.640869H4.78782C4.6776 0.80899 4.60986 1.04881 4.60986 1.31085Z" fill="url(#paint18_linear_4_1106)"/>
<path d="M11.561 10.8576H5.85762C5.73442 10.8576 5.63452 10.7577 5.63452 10.6345C5.63452 10.5113 5.73439 10.4114 5.85762 10.4114H11.5609C11.6841 10.4114 11.784 10.5112 11.784 10.6345C11.784 10.7577 11.6841 10.8576 11.561 10.8576Z" fill="url(#paint19_linear_4_1106)"/>
<path d="M11.561 12.3915H5.85762C5.73442 12.3915 5.63452 12.2916 5.63452 12.1684C5.63452 12.0452 5.73439 11.9453 5.85762 11.9453H11.5609C11.6841 11.9453 11.784 12.0452 11.784 12.1684C11.784 12.2916 11.6841 12.3915 11.561 12.3915Z" fill="url(#paint20_linear_4_1106)"/>
<path d="M11.561 13.9254H5.85762C5.73442 13.9254 5.63452 13.8256 5.63452 13.7023C5.63452 13.5791 5.73439 13.4792 5.85762 13.4792H11.5609C11.6841 13.4792 11.784 13.5791 11.784 13.7023C11.784 13.8255 11.6841 13.9254 11.561 13.9254Z" fill="url(#paint21_linear_4_1106)"/>
<path d="M11.561 15.4591H5.85762C5.73442 15.4591 5.63452 15.3593 5.63452 15.236C5.63452 15.1128 5.73439 15.0129 5.85762 15.0129H11.5609C11.6841 15.0129 11.784 15.1128 11.784 15.236C11.784 15.3593 11.6841 15.4591 11.561 15.4591Z" fill="url(#paint22_linear_4_1106)"/>
<path d="M4.1455 12.3914H2.97565C2.75193 12.3914 2.57056 12.21 2.57056 11.9863V10.8165C2.57056 10.5927 2.75193 10.4114 2.97565 10.4114H4.1455C4.36922 10.4114 4.55059 10.5927 4.55059 10.8165V11.9863C4.55059 12.21 4.36922 12.3914 4.1455 12.3914Z" fill="url(#paint23_linear_4_1106)"/>
<path d="M12.3534 16.5902L5.65277 9.88965L3.37061 11.9917L8.1381 16.7592H11.6805C11.9239 16.7592 12.153 16.698 12.3534 16.5902Z" fill="url(#paint24_linear_4_1106)"/>
<path d="M3.64228 12.1054C3.53859 12.1054 3.44112 12.065 3.36779 11.9916L2.64645 11.2703C2.54461 11.1684 2.54461 11.0033 2.64645 10.9014C2.7483 10.7996 2.91343 10.7996 3.01524 10.9014L3.64228 11.5285L5.28116 9.88959C5.38301 9.78778 5.54814 9.78778 5.64995 9.88959C5.7518 9.99147 5.7518 10.1566 5.64995 10.2584L3.91669 11.9917C3.84343 12.0649 3.74596 12.1054 3.64228 12.1054Z" fill="url(#paint25_linear_4_1106)"/>
<path d="M3.64228 12.1054C3.53859 12.1054 3.44112 12.065 3.36779 11.9916L2.64645 11.2703C2.54461 11.1684 2.54461 11.0033 2.64645 10.9014C2.7483 10.7996 2.91343 10.7996 3.01524 10.9014L3.64228 11.5285L5.28116 9.88959C5.38301 9.78778 5.54814 9.78778 5.64995 9.88959C5.7518 9.99147 5.7518 10.1566 5.64995 10.2584L3.91669 11.9917C3.84343 12.0649 3.74596 12.1054 3.64228 12.1054Z" fill="url(#paint26_linear_4_1106)"/>
<path d="M7.45781 9.39419C7.27185 9.39419 7.08593 9.32343 6.94438 9.18191L4.66121 6.89874C4.58133 6.81887 4.45185 6.81887 4.37198 6.89874L3.1476 8.12315C3.04575 8.22499 2.88062 8.22499 2.77878 8.12315C2.67693 8.0213 2.67693 7.85617 2.77878 7.75433L4.00319 6.52991C4.2863 6.2468 4.74695 6.24687 5.03003 6.52991L7.3132 8.81309C7.39307 8.89296 7.52256 8.89296 7.60243 8.81309L11.21 5.20553C11.3118 5.10369 11.477 5.10369 11.5788 5.20553C11.6806 5.30738 11.6806 5.47251 11.5788 5.57436L7.97125 9.18191C7.82966 9.32343 7.64374 9.39419 7.45781 9.39419Z" fill="url(#paint27_linear_4_1106)"/>
<path d="M11.58 5.57436C11.6819 5.47251 11.6819 5.30738 11.58 5.20553C11.4782 5.10369 11.313 5.10369 11.2112 5.20553L7.60364 8.81309C7.52377 8.89296 7.39428 8.89296 7.31441 8.81309L6.55608 8.05475L6.18726 8.42357L6.94562 9.18194C7.08718 9.32346 7.2731 9.39422 7.45906 9.39422C7.64498 9.39422 7.83094 9.32346 7.9725 9.18194L11.58 5.57436Z" fill="url(#paint28_linear_4_1106)"/>
<path d="M2.98254 8.44701C3.29057 8.44701 3.54028 8.19731 3.54028 7.88928C3.54028 7.58125 3.29057 7.33154 2.98254 7.33154C2.67451 7.33154 2.4248 7.58125 2.4248 7.88928C2.4248 8.19731 2.67451 8.44701 2.98254 8.44701Z" fill="url(#paint29_linear_4_1106)"/>
<path d="M2.4248 7.88918C2.4248 8.19718 2.6745 8.44691 2.98254 8.44691C3.29055 8.44691 3.54028 8.19722 3.54028 7.88918C3.54028 7.82245 3.52852 7.7585 3.50704 7.69922H2.45805C2.43656 7.7585 2.4248 7.82248 2.4248 7.88918Z" fill="url(#paint30_linear_4_1106)"/>
<path d="M2.58693 8.28357C2.80473 8.50138 3.15788 8.50138 3.37565 8.28357C3.59346 8.06576 3.59346 7.71262 3.37565 7.49485C3.32846 7.44767 3.27495 7.41077 3.21782 7.38403L2.47607 8.12578C2.50285 8.18288 2.53974 8.23639 2.58693 8.28357Z" fill="url(#paint31_linear_4_1106)"/>
<path d="M11.3761 5.94335C11.6841 5.94335 11.9338 5.69365 11.9338 5.38562C11.9338 5.07759 11.6841 4.82788 11.3761 4.82788C11.0681 4.82788 10.8184 5.07759 10.8184 5.38562C10.8184 5.69365 11.0681 5.94335 11.3761 5.94335Z" fill="url(#paint32_linear_4_1106)"/>
<path d="M10.8184 5.38551C10.8184 5.69352 11.0681 5.94325 11.3761 5.94325C11.6841 5.94325 11.9338 5.69355 11.9338 5.38551C11.9338 5.31879 11.9221 5.25484 11.9006 5.19556H10.8516C10.8301 5.25484 10.8184 5.31882 10.8184 5.38551Z" fill="url(#paint33_linear_4_1106)"/>
<path d="M10.9812 5.77991C11.199 5.99772 11.5522 5.99772 11.7699 5.77991C11.9877 5.5621 11.9877 5.20896 11.7699 4.99119C11.7228 4.944 11.6692 4.90711 11.6121 4.88037L10.8704 5.62212C10.8971 5.67921 10.934 5.73273 10.9812 5.77991Z" fill="url(#paint34_linear_4_1106)"/>
<defs>
<linearGradient id="paint0_linear_4_1106" x1="3.09519" y1="5.10153" x2="14.4008" y2="16.4072" gradientUnits="userSpaceOnUse">
<stop stop-color="#B3DAFE"/>
<stop offset="1" stop-color="#0182FC"/>
</linearGradient>
<linearGradient id="paint1_linear_4_1106" x1="12.0672" y1="13.8302" x2="5.62241" y2="7.68284" gradientUnits="userSpaceOnUse">
<stop stop-color="#314DC9" stop-opacity="0"/>
<stop offset="0.2761" stop-color="#304BC4" stop-opacity="0.276"/>
<stop offset="0.5628" stop-color="#2B45B8" stop-opacity="0.563"/>
<stop offset="0.8535" stop-color="#243BA3" stop-opacity="0.854"/>
<stop offset="1" stop-color="#1F3596"/>
</linearGradient>
<linearGradient id="paint2_linear_4_1106" x1="7.17939" y1="15.1754" x2="7.17939" y2="17.9112" gradientUnits="userSpaceOnUse">
<stop stop-color="#314DC9" stop-opacity="0"/>
<stop offset="0.2761" stop-color="#304BC4" stop-opacity="0.276"/>
<stop offset="0.5628" stop-color="#2B45B8" stop-opacity="0.563"/>
<stop offset="0.8535" stop-color="#243BA3" stop-opacity="0.854"/>
<stop offset="1" stop-color="#1F3596"/>
</linearGradient>
<linearGradient id="paint3_linear_4_1106" x1="11.1893" y1="9.18576" x2="14.6543" y2="9.18576" gradientUnits="userSpaceOnUse">
<stop stop-color="#314DC9" stop-opacity="0"/>
<stop offset="0.2761" stop-color="#304BC4" stop-opacity="0.276"/>
<stop offset="0.5628" stop-color="#2B45B8" stop-opacity="0.563"/>
<stop offset="0.8535" stop-color="#243BA3" stop-opacity="0.854"/>
<stop offset="1" stop-color="#1F3596"/>
</linearGradient>
<linearGradient id="paint4_linear_4_1106" x1="10.9711" y1="1.83606" x2="9.08663" y2="1.83606" gradientUnits="userSpaceOnUse">
<stop stop-color="#314DC9" stop-opacity="0"/>
<stop offset="0.2761" stop-color="#304BC4" stop-opacity="0.276"/>
<stop offset="0.5628" stop-color="#2B45B8" stop-opacity="0.563"/>
<stop offset="0.8535" stop-color="#243BA3" stop-opacity="0.854"/>
<stop offset="1" stop-color="#1F3596"/>
</linearGradient>
<linearGradient id="paint5_linear_4_1106" x1="3.68393" y1="5.63547" x2="13.363" y2="15.3145" gradientUnits="userSpaceOnUse">
<stop stop-color="#F5FBFF"/>
<stop offset="1" stop-color="#DBD5EF"/>
</linearGradient>
<linearGradient id="paint6_linear_4_1106" x1="7.18056" y1="14.4336" x2="7.18056" y2="16.8551" gradientUnits="userSpaceOnUse">
<stop stop-color="#DBD5EF" stop-opacity="0"/>
<stop offset="0.2853" stop-color="#D9D2EE" stop-opacity="0.285"/>
<stop offset="0.4739" stop-color="#D4C9E9" stop-opacity="0.474"/>
<stop offset="0.6346" stop-color="#CBBAE2" stop-opacity="0.635"/>
<stop offset="0.7795" stop-color="#BFA5D7" stop-opacity="0.78"/>
<stop offset="0.9126" stop-color="#AF8ACA" stop-opacity="0.913"/>
<stop offset="1" stop-color="#A274BF"/>
</linearGradient>
<linearGradient id="paint7_linear_4_1106" x1="10.5832" y1="9.1321" x2="13.3389" y2="9.1321" gradientUnits="userSpaceOnUse">
<stop stop-color="#DBD5EF" stop-opacity="0"/>
<stop offset="0.2853" stop-color="#D9D2EE" stop-opacity="0.285"/>
<stop offset="0.4739" stop-color="#D4C9E9" stop-opacity="0.474"/>
<stop offset="0.6346" stop-color="#CBBAE2" stop-opacity="0.635"/>
<stop offset="0.7795" stop-color="#BFA5D7" stop-opacity="0.78"/>
<stop offset="0.9126" stop-color="#AF8ACA" stop-opacity="0.913"/>
<stop offset="1" stop-color="#A274BF"/>
</linearGradient>
<linearGradient id="paint8_linear_4_1106" x1="8.81288" y1="10.4553" x2="7.37518" y2="5.77041" gradientUnits="userSpaceOnUse">
<stop stop-color="#DBD5EF" stop-opacity="0"/>
<stop offset="0.2853" stop-color="#D9D2EE" stop-opacity="0.285"/>
<stop offset="0.4739" stop-color="#D4C9E9" stop-opacity="0.474"/>
<stop offset="0.6346" stop-color="#CBBAE2" stop-opacity="0.635"/>
<stop offset="0.7795" stop-color="#BFA5D7" stop-opacity="0.78"/>
<stop offset="0.9126" stop-color="#AF8ACA" stop-opacity="0.913"/>
<stop offset="1" stop-color="#A274BF"/>
</linearGradient>
<linearGradient id="paint9_linear_4_1106" x1="7.18003" y1="2.96733" x2="7.18003" y2="2.17064" gradientUnits="userSpaceOnUse">
<stop stop-color="#DBD5EF" stop-opacity="0"/>
<stop offset="0.2853" stop-color="#D9D2EE" stop-opacity="0.285"/>
<stop offset="0.4739" stop-color="#D4C9E9" stop-opacity="0.474"/>
<stop offset="0.6346" stop-color="#CBBAE2" stop-opacity="0.635"/>
<stop offset="0.7795" stop-color="#BFA5D7" stop-opacity="0.78"/>
<stop offset="0.9126" stop-color="#AF8ACA" stop-opacity="0.913"/>
<stop offset="1" stop-color="#A274BF"/>
</linearGradient>
<linearGradient id="paint10_linear_4_1106" x1="6.34725" y1="2.29863" x2="5.45481" y2="2.29863" gradientUnits="userSpaceOnUse">
<stop stop-color="#DBD5EF" stop-opacity="0"/>
<stop offset="0.2853" stop-color="#D9D2EE" stop-opacity="0.285"/>
<stop offset="0.4739" stop-color="#D4C9E9" stop-opacity="0.474"/>
<stop offset="0.6346" stop-color="#CBBAE2" stop-opacity="0.635"/>
<stop offset="0.7795" stop-color="#BFA5D7" stop-opacity="0.78"/>
<stop offset="0.9126" stop-color="#AF8ACA" stop-opacity="0.913"/>
<stop offset="1" stop-color="#A274BF"/>
</linearGradient>
<linearGradient id="paint11_linear_4_1106" x1="10.5877" y1="5.25444" x2="8.53036" y2="1.78417" gradientUnits="userSpaceOnUse">
<stop stop-color="#DBD5EF" stop-opacity="0"/>
<stop offset="0.2853" stop-color="#D9D2EE" stop-opacity="0.285"/>
<stop offset="0.4739" stop-color="#D4C9E9" stop-opacity="0.474"/>
<stop offset="0.6346" stop-color="#CBBAE2" stop-opacity="0.635"/>
<stop offset="0.7795" stop-color="#BFA5D7" stop-opacity="0.78"/>
<stop offset="0.9126" stop-color="#AF8ACA" stop-opacity="0.913"/>
<stop offset="1" stop-color="#A274BF"/>
</linearGradient>
<linearGradient id="paint12_linear_4_1106" x1="7.17932" y1="3.05825" x2="7.17932" y2="3.50441" gradientUnits="userSpaceOnUse">
<stop stop-color="#5A5A5A"/>
<stop offset="1" stop-color="#444444"/>
</linearGradient>
<linearGradient id="paint13_linear_4_1106" x1="7.17932" y1="3.1078" x2="7.17932" y2="3.45482" gradientUnits="userSpaceOnUse">
<stop stop-color="#433F43" stop-opacity="0"/>
<stop offset="1" stop-color="#1A1A1A"/>
</linearGradient>
<linearGradient id="paint14_linear_4_1106" x1="7.17932" y1="2.70296" x2="7.17932" y2="2.12457" gradientUnits="userSpaceOnUse">
<stop stop-color="#433F43" stop-opacity="0"/>
<stop offset="1" stop-color="#1A1A1A"/>
</linearGradient>
<linearGradient id="paint15_linear_4_1106" x1="8.71991" y1="2.52607" x2="9.31482" y2="2.76568" gradientUnits="userSpaceOnUse">
<stop stop-color="#433F43" stop-opacity="0"/>
<stop offset="1" stop-color="#1A1A1A"/>
</linearGradient>
<linearGradient id="paint16_linear_4_1106" x1="7.17879" y1="0.372361" x2="7.17879" y2="1.97902" gradientUnits="userSpaceOnUse">
<stop stop-color="#FEF0AE"/>
<stop offset="1" stop-color="#FAC600"/>
</linearGradient>
<linearGradient id="paint17_linear_4_1106" x1="8.57125" y1="1.48269" x2="9.55111" y2="1.9777" gradientUnits="userSpaceOnUse">
<stop stop-color="#FE9738" stop-opacity="0"/>
<stop offset="1" stop-color="#FE9738"/>
</linearGradient>
<linearGradient id="paint18_linear_4_1106" x1="7.17903" y1="1.28251" x2="7.17903" y2="2.28772" gradientUnits="userSpaceOnUse">
<stop stop-color="#FE9738" stop-opacity="0"/>
<stop offset="1" stop-color="#FE9738"/>
</linearGradient>
<linearGradient id="paint19_linear_4_1106" x1="8.67001" y1="4.84233" x2="8.71959" y2="12.1547" gradientUnits="userSpaceOnUse">
<stop stop-color="#DBD5EF" stop-opacity="0"/>
<stop offset="0.2853" stop-color="#D9D2EE" stop-opacity="0.285"/>
<stop offset="0.4739" stop-color="#D4C9E9" stop-opacity="0.474"/>
<stop offset="0.6346" stop-color="#CBBAE2" stop-opacity="0.635"/>
<stop offset="0.7795" stop-color="#BFA5D7" stop-opacity="0.78"/>
<stop offset="0.9126" stop-color="#AF8ACA" stop-opacity="0.913"/>
<stop offset="1" stop-color="#A274BF"/>
</linearGradient>
<linearGradient id="paint20_linear_4_1106" x1="8.67001" y1="6.37626" x2="8.71959" y2="13.6886" gradientUnits="userSpaceOnUse">
<stop stop-color="#DBD5EF" stop-opacity="0"/>
<stop offset="0.2853" stop-color="#D9D2EE" stop-opacity="0.285"/>
<stop offset="0.4739" stop-color="#D4C9E9" stop-opacity="0.474"/>
<stop offset="0.6346" stop-color="#CBBAE2" stop-opacity="0.635"/>
<stop offset="0.7795" stop-color="#BFA5D7" stop-opacity="0.78"/>
<stop offset="0.9126" stop-color="#AF8ACA" stop-opacity="0.913"/>
<stop offset="1" stop-color="#A274BF"/>
</linearGradient>
<linearGradient id="paint21_linear_4_1106" x1="8.67001" y1="7.9102" x2="8.71959" y2="15.2226" gradientUnits="userSpaceOnUse">
<stop stop-color="#DBD5EF" stop-opacity="0"/>
<stop offset="0.2853" stop-color="#D9D2EE" stop-opacity="0.285"/>
<stop offset="0.4739" stop-color="#D4C9E9" stop-opacity="0.474"/>
<stop offset="0.6346" stop-color="#CBBAE2" stop-opacity="0.635"/>
<stop offset="0.7795" stop-color="#BFA5D7" stop-opacity="0.78"/>
<stop offset="0.9126" stop-color="#AF8ACA" stop-opacity="0.913"/>
<stop offset="1" stop-color="#A274BF"/>
</linearGradient>
<linearGradient id="paint22_linear_4_1106" x1="8.67001" y1="9.44392" x2="8.71959" y2="16.7563" gradientUnits="userSpaceOnUse">
<stop stop-color="#DBD5EF" stop-opacity="0"/>
<stop offset="0.2853" stop-color="#D9D2EE" stop-opacity="0.285"/>
<stop offset="0.4739" stop-color="#D4C9E9" stop-opacity="0.474"/>
<stop offset="0.6346" stop-color="#CBBAE2" stop-opacity="0.635"/>
<stop offset="0.7795" stop-color="#BFA5D7" stop-opacity="0.78"/>
<stop offset="0.9126" stop-color="#AF8ACA" stop-opacity="0.913"/>
<stop offset="1" stop-color="#A274BF"/>
</linearGradient>
<linearGradient id="paint23_linear_4_1106" x1="0.0369256" y1="7.14528" x2="4.44912" y2="12.4747" gradientUnits="userSpaceOnUse">
<stop stop-color="#DBD5EF" stop-opacity="0"/>
<stop offset="0.2853" stop-color="#D9D2EE" stop-opacity="0.285"/>
<stop offset="0.4739" stop-color="#D4C9E9" stop-opacity="0.474"/>
<stop offset="0.6346" stop-color="#CBBAE2" stop-opacity="0.635"/>
<stop offset="0.7795" stop-color="#BFA5D7" stop-opacity="0.78"/>
<stop offset="0.9126" stop-color="#AF8ACA" stop-opacity="0.913"/>
<stop offset="1" stop-color="#A274BF"/>
</linearGradient>
<linearGradient id="paint24_linear_4_1106" x1="6.54487" y1="12.9739" x2="4.45245" y2="10.8814" gradientUnits="userSpaceOnUse">
<stop stop-color="#DBD5EF" stop-opacity="0"/>
<stop offset="0.2853" stop-color="#D9D2EE" stop-opacity="0.285"/>
<stop offset="0.4739" stop-color="#D4C9E9" stop-opacity="0.474"/>
<stop offset="0.6346" stop-color="#CBBAE2" stop-opacity="0.635"/>
<stop offset="0.7795" stop-color="#BFA5D7" stop-opacity="0.78"/>
<stop offset="0.9126" stop-color="#AF8ACA" stop-opacity="0.913"/>
<stop offset="1" stop-color="#A274BF"/>
</linearGradient>
<linearGradient id="paint25_linear_4_1106" x1="4.09219" y1="10.2881" x2="4.38962" y2="11.8373" gradientUnits="userSpaceOnUse">
<stop stop-color="#BBEC6C"/>
<stop offset="0.2886" stop-color="#ABDC59"/>
<stop offset="0.866" stop-color="#82B32A"/>
<stop offset="1" stop-color="#78A91F"/>
</linearGradient>
<linearGradient id="paint26_linear_4_1106" x1="4.44748" y1="10.8792" x2="4.74085" y2="11.1726" gradientUnits="userSpaceOnUse">
<stop stop-color="#334C0F" stop-opacity="0"/>
<stop offset="0.3197" stop-color="#344C12" stop-opacity="0.32"/>
<stop offset="0.5654" stop-color="#374A1C" stop-opacity="0.565"/>
<stop offset="0.7856" stop-color="#3C482C" stop-opacity="0.786"/>
<stop offset="0.9909" stop-color="#444443" stop-opacity="0.991"/>
<stop offset="1" stop-color="#444444"/>
</linearGradient>
<linearGradient id="paint27_linear_4_1106" x1="6.75918" y1="5.30064" x2="8.04813" y2="9.48977" gradientUnits="userSpaceOnUse">
<stop stop-color="#FFA1AE"/>
<stop offset="1" stop-color="#FF4565"/>
</linearGradient>
<linearGradient id="paint28_linear_4_1106" x1="9.21165" y1="7.14256" x2="9.56754" y2="7.49844" gradientUnits="userSpaceOnUse">
<stop stop-color="#FE0364" stop-opacity="0"/>
<stop offset="0.2343" stop-color="#F90362" stop-opacity="0.234"/>
<stop offset="0.5173" stop-color="#EA035B" stop-opacity="0.517"/>
<stop offset="0.8243" stop-color="#D20250" stop-opacity="0.824"/>
<stop offset="1" stop-color="#C00148"/>
</linearGradient>
<linearGradient id="paint29_linear_4_1106" x1="2.68222" y1="7.58896" x2="3.14802" y2="8.05476" gradientUnits="userSpaceOnUse">
<stop stop-color="#FEF0AE"/>
<stop offset="1" stop-color="#FAC600"/>
</linearGradient>
<linearGradient id="paint30_linear_4_1106" x1="2.98254" y1="7.86042" x2="2.98254" y2="8.46854" gradientUnits="userSpaceOnUse">
<stop stop-color="#FE9738" stop-opacity="0"/>
<stop offset="1" stop-color="#FE9738"/>
</linearGradient>
<linearGradient id="paint31_linear_4_1106" x1="2.94511" y1="7.85797" x2="3.43087" y2="8.277" gradientUnits="userSpaceOnUse">
<stop stop-color="#FE9738" stop-opacity="0"/>
<stop offset="1" stop-color="#FE9738"/>
</linearGradient>
<linearGradient id="paint32_linear_4_1106" x1="11.0758" y1="5.08529" x2="11.5416" y2="5.55109" gradientUnits="userSpaceOnUse">
<stop stop-color="#FEF0AE"/>
<stop offset="1" stop-color="#FAC600"/>
</linearGradient>
<linearGradient id="paint33_linear_4_1106" x1="11.3761" y1="5.35676" x2="11.3761" y2="5.96488" gradientUnits="userSpaceOnUse">
<stop stop-color="#FE9738" stop-opacity="0"/>
<stop offset="1" stop-color="#FE9738"/>
</linearGradient>
<linearGradient id="paint34_linear_4_1106" x1="11.3394" y1="5.35431" x2="11.8252" y2="5.77334" gradientUnits="userSpaceOnUse">
<stop stop-color="#FE9738" stop-opacity="0"/>
<stop offset="1" stop-color="#FE9738"/>
</linearGradient>
</defs>
</svg>
