<svg width="17" height="17" viewBox="0 0 17 17" fill="none" xmlns="http://www.w3.org/2000/svg">
<path d="M8.49917 16.9983C13.1931 16.9983 16.9983 13.1931 16.9983 8.49916C16.9983 3.80521 13.1931 0 8.49917 0C3.80521 0 0 3.80521 0 8.49916C0 13.1931 3.80521 16.9983 8.49917 16.9983Z" fill="#94E061"/>
<path d="M6.0954 16.6507C5.55798 16.4927 5.03752 16.2819 4.54164 16.0213C5.12183 14.343 5.20531 12.2857 4.08702 10.4915C3.1244 8.94728 1.55218 8.03736 0.0432129 7.63812C0.0971664 7.11487 0.199311 6.59773 0.348346 6.09326C2.43301 6.39839 4.47663 7.81737 5.68384 10.0409C6.88767 12.2584 6.96704 14.7381 6.0954 16.6507Z" fill="#E9EFF4"/>
<path d="M12.5535 15.9687C8.76147 18.0273 4.09508 16.9019 1.62695 13.5023C4.22714 15.8161 8.09887 16.3771 11.334 14.6209C15.4592 12.3812 16.9876 7.22157 14.748 3.09635C14.5697 2.76762 14.3699 2.45096 14.15 2.14844C14.8653 2.7847 15.4845 3.55406 15.9679 4.44419C18.2075 8.56938 16.6787 13.7291 12.5535 15.9687Z" fill="#70CF3D"/>
<path d="M6.46002 15.6117C6.36731 15.9723 6.24521 16.3199 6.09432 16.6507C6.06078 16.6407 6.02727 16.6308 5.9941 16.6206C5.71518 16.5344 5.44077 16.4343 5.17194 16.3205C5.12569 16.3008 4.53561 16.0356 4.54056 16.0212C4.62608 15.7741 4.69915 15.5228 4.75949 15.2683C5.31319 15.4403 5.88298 15.5553 6.46002 15.6117Z" fill="#D3DCE2"/>
<path d="M16.9602 9.30811C16.9111 9.82128 16.8151 10.3289 16.6736 10.8246C14.6361 10.4791 12.6537 9.07378 11.4725 6.8978C10.2882 4.71631 10.1917 2.28135 11.0192 0.38208C11.5199 0.537529 12.0052 0.738723 12.469 0.983115C11.9818 2.45236 11.882 4.24388 12.6294 5.88108C13.5024 7.79437 15.2495 8.86032 16.9602 9.30811Z" fill="#E9EFF4"/>
<path d="M16.9606 9.30796C16.9415 9.50686 16.9159 9.69723 16.884 9.89395C16.8719 9.96796 16.6885 10.8269 16.6739 10.8244C16.1581 10.7369 15.6456 10.5816 15.1489 10.3626C15.3521 9.86386 15.5078 9.34707 15.6138 8.81909C16.0541 9.02813 16.5087 9.18957 16.9606 9.30796Z" fill="#D3DCE2"/>
<path d="M16.9606 9.30813C16.9545 9.37229 16.9476 9.43638 16.9401 9.5004C16.9364 9.53254 16.9322 9.56439 16.9281 9.59653C16.9237 9.62834 16.9196 9.66049 16.9148 9.6923C16.911 9.71966 16.9069 9.74702 16.9028 9.77442C16.897 9.81443 16.8905 9.85411 16.884 9.89416C16.8771 9.93351 16.8703 9.97319 16.8631 10.0125L16.857 10.0464C16.8494 10.0872 16.8416 10.1279 16.8334 10.1685C16.8334 10.1688 16.8334 10.1692 16.833 10.1695C16.8246 10.2125 16.8155 10.2554 16.806 10.2982C16.8005 10.3248 16.7944 10.3515 16.7882 10.3782C16.7827 10.4025 16.7772 10.4268 16.7714 10.4511C16.7642 10.4826 16.7564 10.5141 16.7485 10.5452C16.7406 10.5763 16.7328 10.6074 16.7246 10.6386C16.7085 10.7008 16.6917 10.7628 16.6739 10.8247C16.1581 10.7371 15.6456 10.5818 15.1489 10.3628C15.3521 9.8641 15.5078 9.34731 15.6138 8.81934C16.0541 9.0283 16.5087 9.18975 16.9606 9.30813Z" fill="#D3DCE2"/>
</svg>
