<svg width="20" height="20" viewBox="0 0 20 20" fill="none" xmlns="http://www.w3.org/2000/svg">
<path d="M18.9465 7.45177L16.7293 9.66896L16.3031 10.0952L7.44982 18.9485C7.28866 19.1096 7.07011 19.2001 6.84224 19.2001C6.61436 19.2001 6.39582 19.1096 6.23466 18.9485L4.68263 17.3965C4.82029 17.2604 4.92969 17.0985 5.00455 16.92C5.0794 16.7416 5.11823 16.5501 5.11881 16.3565C5.11938 16.163 5.08169 15.9713 5.00789 15.7923C4.93409 15.6134 4.82565 15.4509 4.6888 15.314C4.55195 15.1772 4.3894 15.0687 4.21049 14.9949C4.03158 14.9212 3.83984 14.8835 3.64631 14.884C3.45277 14.8846 3.26126 14.9234 3.08279 14.9983C2.90432 15.0731 2.74241 15.1825 2.60638 15.3202L1.05435 13.7682C0.89324 13.607 0.802734 13.3885 0.802734 13.1606C0.802734 12.9327 0.89324 12.7142 1.05435 12.553L10.3339 3.27349L12.5511 1.0563C12.7122 0.895193 12.9308 0.804688 13.1586 0.804688C13.3865 0.804687 13.6051 0.895193 13.7662 1.0563L15.3183 2.60833C15.0456 2.88422 14.8932 3.25678 14.8944 3.64465C14.8955 4.03252 15.0501 4.40418 15.3244 4.67845C15.5987 4.95271 15.9703 5.1073 16.3582 5.10845C16.7461 5.1096 17.1186 4.95722 17.3945 4.68458L18.9465 6.23661C19.1076 6.39777 19.1981 6.61632 19.1981 6.84419C19.1981 7.07207 19.1076 7.29061 18.9465 7.45177Z" fill="#FDD82E"/>
<path d="M4.12227 10.757C4.09467 10.7851 4.06178 10.8075 4.0255 10.8229C3.98922 10.8382 3.95025 10.8462 3.91086 10.8464C3.83078 10.846 3.75414 10.8139 3.69773 10.757L3.27148 10.3325L3.69773 9.90625L4.12227 10.3325C4.15044 10.3602 4.17282 10.3932 4.1881 10.4297C4.20337 10.4661 4.21124 10.5053 4.21124 10.5448C4.21124 10.5843 4.20337 10.6234 4.1881 10.6598C4.17282 10.6963 4.15044 10.7293 4.12227 10.757Z" fill="#FFCD00"/>
<path d="M8.87479 15.084L8.08417 14.2917C8.02787 14.2352 7.95142 14.2033 7.87165 14.2032C7.79187 14.203 7.7153 14.2345 7.65878 14.2908C7.60225 14.3471 7.57041 14.4236 7.57024 14.5034C7.57008 14.5831 7.60162 14.6597 7.65792 14.7162L8.45026 15.5086C8.4779 15.5375 8.51104 15.5606 8.54773 15.5765C8.58442 15.5925 8.62393 15.6009 8.66393 15.6014C8.70393 15.6018 8.74362 15.5943 8.78066 15.5792C8.8177 15.5641 8.85136 15.5417 8.87964 15.5134C8.90793 15.4851 8.93028 15.4515 8.94538 15.4145C8.96048 15.3774 8.96802 15.3377 8.96757 15.2977C8.96712 15.2577 8.95868 15.2182 8.94275 15.1815C8.92681 15.1448 8.90371 15.1117 8.87479 15.084ZM7.29182 13.4994L6.49948 12.707C6.44256 12.6524 6.36651 12.6223 6.28764 12.6231C6.20877 12.6239 6.13336 12.6556 6.07759 12.7114C6.02182 12.7672 5.99013 12.8426 5.98931 12.9214C5.98849 13.0003 6.01862 13.0764 6.07323 13.1333L6.86557 13.9256C6.92249 13.9802 6.99854 14.0103 7.07741 14.0095C7.15628 14.0087 7.23169 13.977 7.28746 13.9212C7.34323 13.8655 7.37493 13.7901 7.37574 13.7112C7.37656 13.6323 7.34643 13.5563 7.29182 13.4994ZM5.70713 11.9147L4.91479 11.124C4.88715 11.0951 4.85401 11.072 4.81732 11.0561C4.78063 11.0402 4.74112 11.0317 4.70112 11.0313C4.66112 11.0308 4.62143 11.0384 4.58439 11.0535C4.54735 11.0686 4.51369 11.0909 4.48541 11.1192C4.45712 11.1475 4.43477 11.1811 4.41967 11.2182C4.40457 11.2552 4.39703 11.2949 4.39748 11.3349C4.39793 11.3749 4.40637 11.4144 4.42231 11.4511C4.43824 11.4878 4.46134 11.5209 4.49026 11.5486L5.2826 12.3409C5.33898 12.3971 5.4153 12.4286 5.49487 12.4286C5.57444 12.4286 5.65076 12.3971 5.70713 12.3409C5.76331 12.2842 5.79482 12.2076 5.79482 12.1278C5.79482 12.048 5.76331 11.9714 5.70713 11.9147Z" fill="#FFCD00"/>
<path d="M10.0932 16.3046L9.66691 16.7309L9.24238 16.3046C9.18817 16.2479 9.15831 16.1722 9.1592 16.0937C9.16009 16.0153 9.19165 15.9403 9.24713 15.8848C9.30261 15.8293 9.3776 15.7978 9.45605 15.7969C9.53451 15.796 9.61019 15.8259 9.66691 15.8801L10.0932 16.3046Z" fill="#FFCD00"/>
<path d="M16.7289 9.6718L16.3027 10.098L15.8781 9.6718C15.8239 9.61508 15.7941 9.53939 15.7949 9.46093C15.7958 9.38248 15.8274 9.30749 15.8829 9.25201C15.9383 9.19653 16.0133 9.16497 16.0918 9.16408C16.1702 9.16319 16.2459 9.19305 16.3027 9.24726L16.7289 9.6718Z" fill="#FFCD00"/>
<path d="M15.5105 8.45124L14.7182 7.65889C14.6617 7.6026 14.5851 7.57106 14.5053 7.57122C14.4255 7.57138 14.3491 7.60323 14.2928 7.65975C14.2365 7.71628 14.205 7.79285 14.2051 7.87263C14.2053 7.9524 14.2371 8.02885 14.2937 8.08514L15.086 8.87577C15.1136 8.90469 15.1468 8.92779 15.1835 8.94372C15.2202 8.95965 15.2597 8.96809 15.2997 8.96855C15.3397 8.969 15.3794 8.96145 15.4164 8.94635C15.4534 8.93125 15.4871 8.90891 15.5154 8.88062C15.5437 8.85233 15.566 8.81868 15.5811 8.78164C15.5962 8.74459 15.6038 8.70491 15.6033 8.66491C15.6029 8.62491 15.5944 8.5854 15.5785 8.54871C15.5626 8.51201 15.5395 8.47888 15.5105 8.45124ZM13.9276 6.86655L13.1352 6.07421C13.0783 6.0196 13.0023 5.98947 12.9234 5.99029C12.8445 5.9911 12.7691 6.0228 12.7133 6.07857C12.6576 6.13434 12.6259 6.20975 12.6251 6.28862C12.6242 6.36749 12.6544 6.44354 12.709 6.50046L13.5013 7.2928C13.5291 7.32174 13.5624 7.34486 13.5992 7.36078C13.636 7.3767 13.6756 7.38512 13.7157 7.38553C13.7558 7.38595 13.7956 7.37836 13.8328 7.3632C13.8699 7.34804 13.9037 7.32562 13.932 7.29725C13.9604 7.26889 13.9828 7.23515 13.998 7.19801C14.0131 7.16087 14.0207 7.12108 14.0203 7.08096C14.0199 7.04085 14.0115 7.00123 13.9955 6.96441C13.9796 6.92759 13.9565 6.89432 13.9276 6.86655ZM12.3429 5.28358L11.5505 4.49124C11.5229 4.46232 11.4898 4.43921 11.4531 4.42328C11.4164 4.40735 11.3769 4.39891 11.3369 4.39846C11.2969 4.398 11.2572 4.40555 11.2201 4.42065C11.1831 4.43575 11.1494 4.4581 11.1211 4.48638C11.0929 4.51467 11.0705 4.54832 11.0554 4.58537C11.0403 4.62241 11.0328 4.6621 11.0332 4.7021C11.0337 4.7421 11.0421 4.7816 11.058 4.8183C11.074 4.85499 11.0971 4.88813 11.126 4.91577L11.9166 5.70811C11.9445 5.7361 11.9776 5.75832 12.0141 5.77351C12.0505 5.7887 12.0896 5.79656 12.1291 5.79664C12.1686 5.79672 12.2078 5.78902 12.2443 5.77398C12.2808 5.75894 12.314 5.73685 12.342 5.70897C12.37 5.6811 12.3922 5.64798 12.4074 5.61152C12.4226 5.57505 12.4305 5.53595 12.4305 5.49645C12.4306 5.45695 12.4229 5.41782 12.4079 5.3813C12.3928 5.34477 12.3708 5.31157 12.3429 5.28358Z" fill="#FFCD00"/>
<path d="M10.758 4.12594C10.73 4.15386 10.6968 4.17597 10.6602 4.19101C10.6236 4.20605 10.5844 4.21373 10.5449 4.21359C10.5055 4.21362 10.4664 4.20572 10.4301 4.19037C10.3938 4.17502 10.3609 4.15252 10.3335 4.12422L9.90723 3.69969L10.3335 3.27344L10.758 3.69969C10.7862 3.72756 10.8086 3.76075 10.8238 3.79734C10.8391 3.83392 10.847 3.87317 10.847 3.91281C10.847 3.95246 10.8391 3.9917 10.8238 4.02829C10.8086 4.06487 10.7862 4.09806 10.758 4.12594Z" fill="#FFCD00"/>
<path d="M9.05552 8.37656L9.66946 8.68938C9.76461 8.73786 9.87266 8.75497 9.97813 8.73827C10.0836 8.72157 10.1811 8.6719 10.2566 8.59639L10.7439 8.10913C10.8193 8.03359 10.9168 7.9839 11.0222 7.96718C11.1277 7.95045 11.2358 7.96756 11.3309 8.01603C11.426 8.06451 11.5034 8.14187 11.5519 8.23702C11.6003 8.33218 11.6174 8.44023 11.6006 8.54569L11.4929 9.22631C11.4761 9.33177 11.4932 9.43983 11.5417 9.53497C11.5902 9.63011 11.6676 9.70745 11.7627 9.75586L12.3767 10.0687C12.4718 10.1172 12.5491 10.1945 12.5976 10.2897C12.6461 10.3848 12.6632 10.4929 12.6465 10.5983C12.6298 10.7038 12.5801 10.8013 12.5046 10.8768C12.429 10.9523 12.3316 11.0019 12.2261 11.0186L11.5456 11.1264C11.4402 11.1431 11.3427 11.1927 11.2672 11.2682C11.1917 11.3437 11.1421 11.4412 11.1254 11.5466L11.0176 12.2271C11.001 12.3325 10.9513 12.43 10.8758 12.5055C10.8003 12.5811 10.7028 12.6307 10.5974 12.6474C10.4919 12.6642 10.3838 12.6471 10.2887 12.5986C10.1935 12.5501 10.1162 12.4728 10.0677 12.3776L9.75488 11.7637C9.70643 11.6686 9.62909 11.5912 9.53396 11.5427C9.43883 11.4943 9.33079 11.4771 9.22534 11.4939L8.54471 11.6016C8.43925 11.6184 8.3312 11.6013 8.23605 11.5528C8.1409 11.5044 8.06353 11.427 8.01506 11.3319C7.96658 11.2367 7.94948 11.1287 7.9662 11.0232C7.98292 10.9178 8.03262 10.8203 8.10815 10.7448L8.59541 10.2576C8.67092 10.1821 8.72059 10.0846 8.73729 9.97911C8.754 9.87364 8.73688 9.76558 8.6884 9.67044L8.37507 9.05702C8.32626 8.96183 8.3089 8.85361 8.32549 8.74793C8.34209 8.64225 8.39178 8.54456 8.46742 8.46892C8.54307 8.39327 8.64076 8.34358 8.74644 8.32698C8.85212 8.31039 8.96034 8.32775 9.05552 8.37656Z" fill="#FF990D"/>
</svg>
