<svg width="16" height="16" viewBox="0 0 16 16" fill="none" xmlns="http://www.w3.org/2000/svg">
<g clip-path="url(#clip0_4_954)">
<path d="M12.8326 5.22523C14.2755 5.22523 15.4452 4.05552 15.4452 2.61261C15.4452 1.16971 14.2755 0 12.8326 0C11.3897 0 10.22 1.16971 10.22 2.61261C10.22 4.05552 11.3897 5.22523 12.8326 5.22523Z" fill="#FCD249"/>
<path d="M11.341 3.47367C10.6955 2.35562 10.9709 0.959279 11.931 0.160889C11.7931 0.211733 11.6577 0.274172 11.5262 0.35008C10.2766 1.0715 9.8485 2.66928 10.5699 3.91887C11.2913 5.16839 12.8891 5.59656 14.1387 4.87511C14.2702 4.79917 14.392 4.71304 14.5049 4.61916C13.3334 5.05139 11.9865 4.59173 11.341 3.47367Z" fill="#F9B938"/>
<path d="M12.8327 4.33451C13.7837 4.33451 14.5547 3.56352 14.5547 2.61245C14.5547 1.66138 13.7837 0.890381 12.8327 0.890381C11.8816 0.890381 11.1106 1.66138 11.1106 2.61245C11.1106 3.56352 11.8816 4.33451 12.8327 4.33451Z" fill="#F9B938"/>
<path d="M12.0381 3.0714C11.6319 2.36777 11.779 1.49691 12.3439 0.961426C12.2166 0.999208 12.0916 1.05196 11.9715 1.12127C11.1478 1.59684 10.8656 2.65012 11.3411 3.47382C11.8167 4.29755 12.8699 4.57975 13.6937 4.10418C13.8137 4.03486 13.9219 3.95295 14.0183 3.86161C13.2721 4.08311 12.4443 3.77507 12.0381 3.0714Z" fill="#E59C1C"/>
<path d="M10.3275 5.22523C11.7704 5.22523 12.9401 4.05552 12.9401 2.61261C12.9401 1.16971 11.7704 0 10.3275 0C8.88455 0 7.71484 1.16971 7.71484 2.61261C7.71484 4.05552 8.88455 5.22523 10.3275 5.22523Z" fill="#FCD249"/>
<path d="M8.83609 3.47367C8.19058 2.35562 8.46599 0.959279 9.42607 0.160889C9.28825 0.211733 9.15278 0.274172 9.02128 0.35008C7.77175 1.0715 7.34362 2.66928 8.06504 3.91887C8.78646 5.16839 10.3842 5.59656 11.6338 4.87511C11.7653 4.79917 11.8871 4.71304 12.0001 4.61916C10.8286 5.05139 9.4816 4.59173 8.83609 3.47367Z" fill="#F9B938"/>
<path d="M10.3275 4.33451C11.2786 4.33451 12.0496 3.56352 12.0496 2.61245C12.0496 1.66138 11.2786 0.890381 10.3275 0.890381C9.37646 0.890381 8.60547 1.66138 8.60547 2.61245C8.60547 3.56352 9.37646 4.33451 10.3275 4.33451Z" fill="#F9B938"/>
<path d="M9.53302 3.0714C9.12676 2.36777 9.27389 1.49691 9.83874 0.961426C9.71143 0.999208 9.58643 1.05196 9.46636 1.12127C8.64263 1.59684 8.36043 2.65011 8.83601 3.47382C9.31158 4.29752 10.3648 4.57975 11.1886 4.10417C11.3086 4.03486 11.4168 3.95295 11.5132 3.86161C10.767 4.08311 9.93928 3.77507 9.53302 3.0714Z" fill="#E59C1C"/>
<path d="M10.5462 4.37852L6.33757 0.137747C6.15554 -0.044288 5.85763 -0.044288 5.67559 0.137747L1.46704 4.37852H10.5462Z" fill="#91CE91"/>
<path d="M6.33757 0.137747C6.15554 -0.044288 5.85763 -0.044288 5.67559 0.137747L1.46704 4.37852H2.72257L6.63436 0.436784L6.33757 0.137747Z" fill="#5EAA5E"/>
<path d="M5.67566 1.3968L2.72607 4.37861H9.28723L6.33765 1.3968C6.15558 1.21474 5.8577 1.21474 5.67566 1.3968Z" fill="#5EAA5E"/>
<path d="M6.33764 1.39678C6.15561 1.21475 5.8577 1.21475 5.67566 1.39678L2.72607 4.37859H3.56309L6.42518 1.48525L6.33764 1.39678Z" fill="#4D964D"/>
<path d="M15.9993 12.3042V14.5415C15.9993 15.3457 15.3451 15.9999 14.5409 15.9999H1.45892C0.65472 15.9999 0.000488281 15.3457 0.000488281 14.5415V5.8046C0.000488281 5.00042 0.65472 4.34619 1.45892 4.34619H14.5409C15.3451 4.34619 15.9994 5.00042 15.9994 5.8046V8.0333" fill="#DD9A5E"/>
<path d="M0.901881 14.5415V5.8046C0.901881 5.00042 1.55611 4.34619 2.36032 4.34619H1.45892C0.65472 4.34619 0.000488281 5.00042 0.000488281 5.8046V14.5415C0.000488281 15.3457 0.65472 15.9999 1.45892 15.9999H2.36032C1.55611 15.9999 0.901881 15.3457 0.901881 14.5415Z" fill="#D38D54"/>
<path d="M15.9992 8.11279H12.2786C11.1454 8.11279 10.2183 9.03994 10.2183 10.1731C10.2183 11.3064 11.1454 12.2335 12.2786 12.2335H15.9992V8.11279Z" fill="#D38D54"/>
<path d="M10.2672 9.73047C10.2357 9.87322 10.2185 10.0212 10.2185 10.173C10.2185 11.3062 11.1456 12.2334 12.2789 12.2334H15.9995V11.3482H12.2789C11.2975 11.3483 10.4712 10.6528 10.2672 9.73047Z" fill="#C17B48"/>
<path d="M12.3355 11.3224C12.9756 11.3224 13.4945 10.8035 13.4945 10.1634C13.4945 9.52329 12.9756 9.00439 12.3355 9.00439C11.6954 9.00439 11.1765 9.52329 11.1765 10.1634C11.1765 10.8035 11.6954 11.3224 12.3355 11.3224Z" fill="#DADADA"/>
<path d="M13.0393 10.7036C12.421 10.5379 12.0541 9.90244 12.2197 9.28421C12.2466 9.18395 12.286 9.09045 12.3355 9.00464C11.8235 9.00436 11.3549 9.34568 11.2161 9.86369C11.0504 10.4819 11.4173 11.1174 12.0356 11.2831C12.5536 11.4219 13.0835 11.1867 13.3393 10.7432C13.2402 10.7431 13.1395 10.7304 13.0393 10.7036Z" fill="#C0C0C0"/>
<path d="M1.1797 15.1011C1.18867 14.968 1.30367 14.8679 1.43683 14.8764C1.44308 14.8769 1.44942 14.8771 1.45573 14.8771C1.58908 14.8787 1.6959 14.988 1.69436 15.1214C1.69049 15.4568 1.15776 15.4264 1.1797 15.1011ZM14.285 15.36H14.2526C14.1192 15.36 14.0111 15.2519 14.0111 15.1186C14.0111 14.9852 14.1192 14.8771 14.2526 14.8771H14.285C14.4183 14.8771 14.5264 14.9852 14.5264 15.1186C14.5264 15.2519 14.4183 15.36 14.285 15.36ZM13.1184 15.36H13.086C12.9526 15.36 12.8446 15.2519 12.8446 15.1186C12.8446 14.9852 12.9526 14.8771 13.086 14.8771H13.1184C13.2517 14.8771 13.3598 14.9852 13.3598 15.1186C13.3598 15.2519 13.2518 15.36 13.1184 15.36ZM11.9519 15.36H11.9195C11.7862 15.36 11.6781 15.2519 11.6781 15.1186C11.6781 14.9852 11.7862 14.8771 11.9195 14.8771H11.9519C12.0853 14.8771 12.1934 14.9852 12.1934 15.1186C12.1933 15.2519 12.0852 15.36 11.9519 15.36ZM10.7853 15.36H10.7529C10.6196 15.36 10.5115 15.2519 10.5115 15.1186C10.5115 14.9852 10.6196 14.8771 10.7529 14.8771H10.7853C10.9187 14.8771 11.0268 14.9852 11.0268 15.1186C11.0268 15.2519 10.9187 15.36 10.7853 15.36ZM9.6188 15.36H9.5864C9.45305 15.36 9.34495 15.2519 9.34495 15.1186C9.34495 14.9852 9.45305 14.8771 9.5864 14.8771H9.6188C9.75215 14.8771 9.86024 14.9852 9.86024 15.1186C9.86024 15.2519 9.75212 15.36 9.6188 15.36ZM8.45225 15.36H8.41984C8.28649 15.36 8.1784 15.2519 8.1784 15.1186C8.1784 14.9852 8.28649 14.8771 8.41984 14.8771H8.45225C8.5856 14.8771 8.69369 14.9852 8.69369 15.1186C8.69366 15.2519 8.5856 15.36 8.45225 15.36ZM7.28569 15.36H7.25329C7.11994 15.36 7.01184 15.2519 7.01184 15.1186C7.01184 14.9852 7.11997 14.8771 7.25329 14.8771H7.28569C7.41904 14.8771 7.52714 14.9852 7.52714 15.1186C7.52714 15.2519 7.41904 15.36 7.28569 15.36ZM6.11914 15.36H6.08673C5.95339 15.36 5.84529 15.2519 5.84529 15.1186C5.84529 14.9852 5.95339 14.8771 6.08673 14.8771H6.11914C6.25249 14.8771 6.36058 14.9852 6.36058 15.1186C6.36058 15.2519 6.25249 15.36 6.11914 15.36ZM4.95259 15.36H4.92018C4.78683 15.36 4.67874 15.2519 4.67874 15.1186C4.67874 14.7966 5.194 14.7956 5.194 15.1186C5.19403 15.2519 5.08593 15.36 4.95259 15.36ZM3.78606 15.36H3.75366C3.62031 15.36 3.51221 15.2519 3.51221 15.1186C3.51221 14.7966 4.0275 14.7956 4.0275 15.1186C4.0275 15.2519 3.91938 15.36 3.78606 15.36ZM2.61948 15.36H2.58707C2.45372 15.36 2.34563 15.2519 2.34563 15.1186C2.34563 14.9852 2.45372 14.8771 2.58707 14.8771H2.61948C2.75282 14.8771 2.86092 14.9852 2.86092 15.1186C2.86092 15.2519 2.75285 15.36 2.61948 15.36ZM15.1176 14.8114C15.1137 14.8114 15.1098 14.8114 15.1058 14.8112C14.9726 14.8047 14.8698 14.6915 14.8763 14.5583C14.8766 14.5528 14.8767 14.5472 14.8767 14.5416V14.5376C14.8767 14.4043 14.9848 14.2962 15.1181 14.2962C15.2515 14.2962 15.3596 14.4043 15.3596 14.5376V14.5416C15.3596 14.555 15.3592 14.5684 15.3586 14.5817C15.3524 14.7109 15.2456 14.8114 15.1176 14.8114ZM0.882067 14.5168C0.748721 14.5168 0.640625 14.4087 0.640625 14.2753V14.243C0.640625 14.1096 0.748721 14.0015 0.882067 14.0015C1.01541 14.0015 1.12351 14.1096 1.12351 14.243V14.2753C1.12354 14.4087 1.01544 14.5168 0.882067 14.5168ZM15.1181 13.645C14.9848 13.645 14.8767 13.5369 14.8767 13.4035V13.3711C14.8767 13.2377 14.9848 13.1297 15.1181 13.1297C15.2515 13.1297 15.3596 13.2378 15.3596 13.3711V13.4035C15.3596 13.5369 15.2514 13.645 15.1181 13.645ZM0.882067 13.3503C0.748721 13.3503 0.640625 13.2422 0.640625 13.1088V13.0764C0.640625 12.9431 0.748721 12.835 0.882067 12.835C1.01541 12.835 1.12351 12.9431 1.12351 13.0764V13.1088C1.12354 13.2422 1.01544 13.3503 0.882067 13.3503ZM0.882067 12.1837C0.748721 12.1837 0.640625 12.0756 0.640625 11.9422V11.9099C0.640625 11.7765 0.748721 11.6684 0.882067 11.6684C1.01541 11.6684 1.12351 11.7765 1.12351 11.9099V11.9422C1.12354 12.0756 1.01544 12.1837 0.882067 12.1837ZM0.882067 11.0172C0.748721 11.0172 0.640625 10.9091 0.640625 10.7757V10.7433C0.640625 10.61 0.748721 10.5019 0.882067 10.5019C1.20476 10.5019 1.20439 11.0172 0.882067 11.0172ZM0.882067 9.85063C0.748721 9.85063 0.640625 9.74254 0.640625 9.60919V9.57678C0.640625 9.4434 0.748721 9.33534 0.882067 9.33534C1.01541 9.33534 1.12351 9.44344 1.12351 9.57678V9.60919C1.12354 9.74254 1.01544 9.85063 0.882067 9.85063ZM0.882067 8.68405C0.748721 8.68405 0.640625 8.57595 0.640625 8.4426V8.4102C0.640625 8.27682 0.748721 8.16875 0.882067 8.16875C1.01541 8.16875 1.12351 8.27685 1.12351 8.4102V8.4426C1.12354 8.57598 1.01544 8.68405 0.882067 8.68405ZM0.882067 7.51752C0.748721 7.51752 0.640625 7.40943 0.640625 7.27608V7.24367C0.640625 7.1103 0.748721 7.00223 0.882067 7.00223C1.01541 7.00223 1.12351 7.11033 1.12351 7.24367V7.27608C1.12354 7.40943 1.01544 7.51752 0.882067 7.51752ZM15.1181 7.21045C14.9848 7.21045 14.8767 7.10236 14.8767 6.96901V6.9366C14.8767 6.80323 14.9848 6.69516 15.1181 6.69516C15.2515 6.69516 15.3596 6.80326 15.3596 6.9366V6.96901C15.3596 7.10236 15.2514 7.21045 15.1181 7.21045ZM0.882067 6.35097C0.748721 6.35097 0.640625 6.24287 0.640625 6.10953V6.07712C0.640625 5.94374 0.748721 5.83568 0.882067 5.83568C1.01541 5.83568 1.12351 5.94377 1.12351 6.07712V6.10953C1.12354 6.2429 1.01544 6.35097 0.882067 6.35097ZM14.8767 5.80349C14.8766 5.79702 14.8764 5.79058 14.876 5.78421C14.8572 5.4632 15.3579 5.41904 15.3595 5.8014C15.3601 5.93474 15.2525 6.04331 15.1192 6.04387C14.9831 6.0439 14.8772 5.93487 14.8767 5.80349ZM1.41417 5.47089C1.10748 5.47089 1.06929 4.99394 1.44189 4.98644C1.75243 4.97863 1.79571 5.47089 1.41417 5.47089ZM14.2788 5.46914H14.2464C14.113 5.46914 14.005 5.36104 14.005 5.2277C14.005 5.09435 14.113 4.98625 14.2464 4.98625H14.2788C14.4121 4.98625 14.5202 5.09435 14.5202 5.2277C14.5202 5.36104 14.4121 5.46914 14.2788 5.46914ZM13.1122 5.46914H13.0798C12.9465 5.46914 12.8384 5.36104 12.8384 5.2277C12.8384 5.09435 12.9465 4.98625 13.0798 4.98625H13.1122C13.2456 4.98625 13.3537 5.09435 13.3537 5.2277C13.3537 5.36104 13.2456 5.46914 13.1122 5.46914ZM11.9457 5.46914H11.9133C11.7799 5.46914 11.6718 5.36104 11.6718 5.2277C11.6718 5.09435 11.7799 4.98625 11.9133 4.98625H11.9457C12.079 4.98625 12.1871 5.09435 12.1871 5.2277C12.1871 5.36104 12.079 5.46914 11.9457 5.46914ZM10.7791 5.46914H10.7467C10.6134 5.46914 10.5053 5.36104 10.5053 5.2277C10.5053 5.09435 10.6134 4.98625 10.7467 4.98625H10.7791C10.9125 4.98625 11.0206 5.09435 11.0206 5.2277C11.0206 5.36104 10.9125 5.46914 10.7791 5.46914ZM9.61261 5.46914H9.58021C9.44686 5.46914 9.33877 5.36104 9.33877 5.2277C9.33877 5.09435 9.44686 4.98625 9.58021 4.98625H9.61261C9.74596 4.98625 9.85406 5.09435 9.85406 5.2277C9.85406 5.36104 9.74593 5.46914 9.61261 5.46914ZM8.44606 5.46914H8.41365C8.28031 5.46914 8.17221 5.36104 8.17221 5.2277C8.17221 5.09435 8.28031 4.98625 8.41365 4.98625H8.44606C8.57941 4.98625 8.6875 5.09435 8.6875 5.2277C8.6875 5.36104 8.57941 5.46914 8.44606 5.46914ZM7.27954 5.46914H7.24713C7.11378 5.46914 7.00569 5.36104 7.00569 5.2277C7.00569 5.09435 7.11378 4.98625 7.24713 4.98625H7.27954C7.41288 4.98625 7.52098 5.09435 7.52098 5.2277C7.52098 5.36104 7.41285 5.46914 7.27954 5.46914ZM6.11295 5.46914H6.08055C5.9472 5.46914 5.8391 5.36104 5.8391 5.2277C5.8391 4.90572 6.35439 4.90472 6.35439 5.2277C6.35439 5.36107 6.24633 5.46914 6.11295 5.46914ZM4.9464 5.46914H4.91399C4.78064 5.46914 4.67255 5.36104 4.67255 5.2277C4.67255 5.09435 4.78064 4.98625 4.91399 4.98625H4.9464C5.07974 4.98625 5.18784 5.09435 5.18784 5.2277C5.18784 5.36104 5.07974 5.46914 4.9464 5.46914ZM3.77987 5.46914H3.74747C3.61412 5.46914 3.50603 5.36104 3.50603 5.2277C3.50603 5.09435 3.61412 4.98625 3.74747 4.98625H3.77987C3.91322 4.98625 4.02132 5.09435 4.02132 5.2277C4.02132 5.36104 3.91319 5.46914 3.77987 5.46914ZM2.61329 5.46914H2.58088C2.44754 5.46914 2.33944 5.36104 2.33944 5.2277C2.33944 5.09435 2.44754 4.98625 2.58088 4.98625H2.61329C2.74664 4.98625 2.85473 5.09435 2.85473 5.2277C2.85473 5.36104 2.74667 5.46914 2.61329 5.46914Z" fill="#EAB883"/>
</g>
<defs>
<clipPath id="clip0_4_954">
<rect width="16" height="16" fill="white"/>
</clipPath>
</defs>
</svg>
