<svg width="132" height="61" viewBox="0 0 132 61" fill="none" xmlns="http://www.w3.org/2000/svg">
<g clip-path="url(#clip0_5_2802)">
<path d="M33.2612 23.1342C33.2612 24.7805 33 26.3402 32.5646 27.8132C32.1293 29.1996 30.6491 31.799 29.9525 33.0121C29.8654 33.0987 28.9947 34.3984 28.124 35.6115C27.3404 36.7379 26.3826 38.1243 25.3377 39.5107C22.6385 43.3232 19.591 47.4822 18.9815 48.4354C18.8074 48.522 18.6332 48.522 18.4591 48.522H7.13984C6.70449 48.522 6.53034 48.0888 6.70449 47.7422L12.6253 39.5107C12.7124 39.3374 12.6253 39.0774 12.4512 39.0774H12.3641C12.1029 38.9908 11.8417 38.9041 11.6675 38.9041C11.5805 38.9041 11.4063 38.8175 11.3193 38.8175C11.1451 38.7308 10.971 38.7308 10.7968 38.6442C10.6227 38.5575 10.4485 38.4709 10.2744 38.4709C10.1873 38.4709 10.1003 38.3842 10.0132 38.3842C9.75198 38.2976 9.49077 38.1243 9.22955 38.0376C9.14248 37.951 9.05541 37.951 8.88127 37.8643C8.7942 37.8643 8.70712 37.7777 8.62005 37.691C8.44591 37.6044 8.27177 37.5178 8.09763 37.4311C8.09763 37.4311 8.01055 37.4311 8.01055 37.3445C3.22164 34.3118 0 29.1129 0 23.1342C0 14.1229 7.48813 6.75781 16.6306 6.75781C18.4591 6.75781 20.2876 7.1044 21.942 7.62429C21.942 7.62429 21.942 7.62429 22.029 7.62429C22.2032 7.71094 22.2902 7.71094 22.4644 7.79759C27.6887 9.70383 31.6939 14.2095 32.9129 19.755C33 20.1882 33.0871 20.6214 33.1741 21.0547C33.1741 21.7479 33.2612 22.4411 33.2612 23.1342ZM23.8575 23.1342C23.8575 19.1484 20.6359 15.9425 16.6306 15.9425C16.2823 15.9425 16.0211 15.9425 15.6728 16.0291C12.1029 16.4624 9.40369 19.495 9.40369 23.1342C9.40369 26.6868 12.1029 29.6328 15.4987 30.2393C15.847 30.326 16.2823 30.326 16.6306 30.326C17.7625 30.326 18.7203 30.066 19.6781 29.6328C21.942 28.593 23.5963 26.4268 23.8575 23.8274C23.8575 23.5675 23.8575 23.3942 23.8575 23.1342Z" fill="white"/>
<path fill-rule="evenodd" clip-rule="evenodd" d="M39.9643 25.6475C42.7506 27.9004 45.7981 30.8464 47.4524 34.2257C47.3654 34.8322 47.7136 35.2654 47.8878 35.7853C49.2809 40.2044 48.4973 44.0169 44.9274 47.3961C45.1886 47.1362 45.4498 46.9629 45.711 46.7029C49.1068 43.5836 50.7611 39.5112 49.2809 35.2654C49.1068 34.6589 48.6714 34.0524 47.9749 33.6191C47.5395 30.9331 43.7954 27.2939 40.835 25.041C40.0514 24.4345 39.4419 24.3478 39.5289 23.1348C39.0065 23.9146 38.6582 24.6944 39.9643 25.6475Z" fill="url(#paint0_linear_5_2802)"/>
<path fill-rule="evenodd" clip-rule="evenodd" d="M48.5854 23.0479C49.6303 26.3405 48.8466 30.3263 47.8889 33.6189C48.2371 34.2254 48.4984 34.8319 48.6725 35.4385C50.1527 39.7709 48.8466 43.5834 45.625 46.616C46.844 45.5763 47.8888 44.3632 48.8466 42.9768C53.8968 36.1317 52.939 29.3731 48.5854 23.0479Z" fill="url(#paint1_linear_5_2802)"/>
<path fill-rule="evenodd" clip-rule="evenodd" d="M42.8379 37.0852C47.4527 36.392 48.0622 43.8438 44.9276 47.483C48.5846 44.277 49.6294 40.2045 48.0622 35.7855C47.888 35.2656 47.7139 34.7457 47.4527 34.3125C47.0173 34.7457 46.4949 35.179 45.8854 35.6122C44.9276 36.1321 43.8827 36.652 42.8379 37.0852Z" fill="url(#paint2_linear_5_2802)"/>
<path fill-rule="evenodd" clip-rule="evenodd" d="M42.6642 20.3616C41.4452 19.2352 40.3132 18.0221 39.0942 16.8957C38.2235 16.0292 37.1787 16.7224 38.0494 17.8488C38.6589 18.7153 39.2684 19.4951 39.8779 20.3616C40.5744 21.5747 39.9649 22.3545 39.5296 23.1343C38.9201 24.1741 39.7037 24.7806 40.4874 25.3005C43.4478 27.5534 46.3211 30.4994 47.9755 33.6187C50.5876 30.6727 51.023 26.6869 48.6721 23.0477C48.0626 22.1812 47.4531 21.4014 46.7565 20.5349C42.49 15.4227 38.2235 10.3105 33.957 5.19824L43.4478 19.6684C43.9702 20.3616 43.2737 21.0548 42.6642 20.3616Z" fill="url(#paint3_linear_5_2802)"/>
<path fill-rule="evenodd" clip-rule="evenodd" d="M29.8644 1.29933C30.7351 2.1658 32.5636 3.81211 33.3472 4.50529C32.8248 3.63882 31.5187 1.47262 30.8221 0.519497C30.0385 -0.606924 28.9936 0.346201 29.8644 1.29933Z" fill="url(#paint4_linear_5_2802)"/>
<path fill-rule="evenodd" clip-rule="evenodd" d="M36.6555 15.2499C37.0909 14.9033 36.9167 14.0368 36.3072 13.257C35.6977 12.4771 34.827 12.1305 34.3916 12.4771C33.9563 12.8237 34.1304 13.6902 34.827 14.47C35.4365 15.2499 36.3072 15.5964 36.6555 15.2499Z" fill="url(#paint5_linear_5_2802)"/>
<path fill-rule="evenodd" clip-rule="evenodd" d="M36.5687 20.1016C36.1334 20.4482 36.0463 21.1414 36.3946 21.6613C36.7429 22.0945 37.4394 22.1812 37.9619 21.8346C38.3972 21.488 38.4843 20.7948 38.136 20.2749C37.7877 19.755 37.0912 19.6684 36.5687 20.1016Z" fill="url(#paint6_linear_5_2802)"/>
<path fill-rule="evenodd" clip-rule="evenodd" d="M38.7461 41.4173C44.5799 39.5111 47.2791 45.7497 42.4902 49.129C43.3609 48.6091 44.1445 48.0026 44.9282 47.396C48.8464 43.5835 48.1498 35.0054 42.8385 36.9983C40.5746 37.9514 38.1366 38.6446 35.9598 39.9443C31.5192 42.6304 28.1234 46.7895 26.2949 51.6418C30.1261 46.7895 34.6538 42.8037 38.7461 41.4173Z" fill="url(#paint7_linear_5_2802)"/>
<path fill-rule="evenodd" clip-rule="evenodd" d="M38.572 40.897C34.4796 42.2834 29.4295 46.3558 26.2949 51.728C31.7804 53.201 37.6142 52.1612 42.4902 49.2152C48.0627 45.576 44.8411 38.8175 38.572 40.897Z" fill="url(#paint8_linear_5_2802)"/>
<path fill-rule="evenodd" clip-rule="evenodd" d="M65.3022 35.3511C62.5159 33.0983 59.4685 30.1523 57.8141 26.773C57.9012 26.1665 57.5529 25.7332 57.3787 25.2133C55.9856 20.7943 56.7692 16.9818 60.3392 13.6025C60.078 13.8625 59.8167 14.0358 59.5555 14.2957C56.1597 17.415 54.5054 21.4875 55.9856 25.7332C56.1597 26.3398 56.5951 26.9463 57.2917 27.3795C57.727 30.0656 61.4711 33.7048 64.4315 35.9576C65.2151 36.5642 65.8246 36.6508 65.7376 37.8639C66.1729 37.0841 66.5212 36.3042 65.3022 35.3511Z" fill="url(#paint9_linear_5_2802)"/>
<path fill-rule="evenodd" clip-rule="evenodd" d="M56.5955 37.951C55.5507 34.6584 56.3343 30.6726 57.2921 27.38C56.9438 26.7734 56.6826 26.1669 56.5085 25.5604C55.0283 21.228 56.3343 17.4155 59.556 14.3828C58.337 15.4226 57.2921 16.6357 56.3343 18.022C51.2842 24.9538 52.242 31.6257 56.5955 37.951Z" fill="url(#paint10_linear_5_2802)"/>
<path fill-rule="evenodd" clip-rule="evenodd" d="M62.3417 23.9143C57.7269 24.6075 57.1174 17.1558 60.252 13.5166C56.595 16.7226 55.5501 20.795 57.1174 25.214C57.2915 25.7339 57.4657 26.2538 57.7269 26.6871C58.1622 26.2538 58.6847 25.8206 59.2942 25.3873C60.252 24.8675 61.2968 24.3476 62.3417 23.9143Z" fill="url(#paint11_linear_5_2802)"/>
<path fill-rule="evenodd" clip-rule="evenodd" d="M62.6035 40.637C63.8225 41.7634 64.9544 42.9765 66.1734 44.1029C67.0441 44.9694 68.0889 44.2762 67.2182 43.1498C66.6087 42.2833 65.9992 41.5035 65.3897 40.637C64.6932 39.4239 65.3027 38.6441 65.738 37.8643C66.3475 36.8245 65.5639 36.218 64.7802 35.6981C61.8198 33.4452 58.9465 30.4992 57.2921 27.3799C54.68 30.3259 54.2446 34.3117 56.5955 37.9509C57.205 38.8174 57.8145 39.5972 58.5111 40.4637C62.7776 45.5759 67.0441 50.6881 71.3106 55.8003L61.7327 41.3302C61.2974 40.637 61.9069 39.9438 62.6035 40.637Z" fill="url(#paint12_linear_5_2802)"/>
<path fill-rule="evenodd" clip-rule="evenodd" d="M75.3168 59.6991C74.4461 58.8327 72.6176 57.1863 71.834 56.4932C72.3564 57.3596 73.6625 59.5258 74.3591 60.479C75.1427 61.6054 76.2746 60.6523 75.3168 59.6991Z" fill="url(#paint13_linear_5_2802)"/>
<path fill-rule="evenodd" clip-rule="evenodd" d="M68.525 45.8359C68.0897 46.1825 68.2638 47.049 68.8733 47.8288C69.4828 48.6087 70.3535 48.9552 70.7889 48.6087C71.2243 48.2621 71.0501 47.3956 70.3535 46.6158C69.8311 45.7493 68.9604 45.4027 68.525 45.8359Z" fill="url(#paint14_linear_5_2802)"/>
<path fill-rule="evenodd" clip-rule="evenodd" d="M68.6123 40.9839C69.0476 40.6373 69.1347 39.9442 68.7864 39.4243C68.4381 38.991 67.7416 38.9044 67.2191 39.251C66.7838 39.5976 66.6967 40.2907 67.045 40.8106C67.3933 41.2439 68.0898 41.3305 68.6123 40.9839Z" fill="url(#paint15_linear_5_2802)"/>
<path fill-rule="evenodd" clip-rule="evenodd" d="M66.435 19.5819C60.6012 21.4881 57.902 15.2495 62.6909 11.8702C61.8202 12.3901 61.0365 12.9966 60.2529 13.6032C56.3347 17.4157 57.0313 25.9938 62.3426 24.0009C64.6065 23.0478 67.0445 22.3546 69.2212 21.0549C73.6619 18.3688 77.0576 14.2097 78.8861 9.35742C75.055 14.2097 70.5273 18.1955 66.435 19.5819Z" fill="url(#paint16_linear_5_2802)"/>
<path fill-rule="evenodd" clip-rule="evenodd" d="M66.6083 20.1881C70.7007 18.8017 75.7508 14.7293 78.8854 9.35712C73.3999 7.88411 67.5661 8.92388 62.6901 11.8699C57.2046 15.4225 60.3392 22.181 66.6083 20.1881Z" fill="url(#paint17_linear_5_2802)"/>
<path d="M79.3222 34.3121C78.1903 35.7852 76.4489 36.6516 74.5333 36.6516C71.2246 36.6516 68.5254 33.8789 68.5254 30.4996C68.5254 27.1204 71.2246 24.3477 74.5333 24.3477C75.4911 24.3477 76.4489 24.6076 77.3196 25.0408C78.0162 25.4741 78.7127 25.994 79.2352 26.6871C79.3222 26.7738 79.2352 26.8604 79.2352 26.8604L77.2325 28.3335C77.1454 28.4201 77.0584 28.3335 77.0584 28.3335C76.4489 27.6403 75.5782 27.207 74.6204 27.207C72.7919 27.207 71.3117 28.68 71.3117 30.5863C71.3117 32.4059 72.7919 33.9656 74.6204 33.9656C75.5782 33.9656 76.5359 33.5323 77.1454 32.7525C77.2325 32.6658 77.3196 32.6658 77.3196 32.7525L79.3222 34.2255C79.3222 34.1388 79.4093 34.2255 79.3222 34.3121Z" fill="white"/>
<path d="M89.5957 24.7807V36.1316C89.5957 36.2182 89.5087 36.3049 89.4216 36.3049H86.7224C86.6353 36.3049 86.5482 36.2182 86.5482 36.1316V31.8858C86.5482 31.7992 86.4612 31.7125 86.3741 31.7125H83.0654C82.9783 31.7125 82.8912 31.7992 82.8912 31.8858V36.1316C82.8912 36.2182 82.8042 36.3049 82.7171 36.3049H80.0179C79.9308 36.3049 79.8438 36.2182 79.8438 36.1316V24.7807C79.8438 24.6941 79.9308 24.6074 80.0179 24.6074H82.7171C82.8042 24.6074 82.8912 24.6941 82.8912 24.7807V28.9398C82.8912 29.0265 82.9783 29.1131 83.0654 29.1131H86.3741C86.4612 29.1131 86.5482 29.0265 86.5482 28.9398V24.7807C86.5482 24.6941 86.6353 24.6074 86.7224 24.6074H89.4216C89.5957 24.6941 89.5957 24.6941 89.5957 24.7807Z" fill="white"/>
<path d="M101.265 36.3913H98.3915C98.3045 36.3913 98.2174 36.3047 98.2174 36.3047L97.6079 34.4851C97.6079 34.3984 97.5208 34.3984 97.4338 34.3984H93.8638C93.7768 34.3984 93.7768 34.3984 93.6897 34.4851L93.0802 36.3913C93.0802 36.478 92.9931 36.478 92.906 36.478H89.9456C89.8586 36.478 89.7715 36.3913 89.7715 36.3047L94.125 24.9538C94.125 24.8672 94.2121 24.8672 94.2992 24.8672H96.8243C96.9113 24.8672 96.9113 24.8672 96.9984 24.9538L101.352 36.3913C101.439 36.3047 101.352 36.3913 101.265 36.3913ZM96.7372 31.7124L95.8665 29.0263C95.7794 28.853 95.6053 28.853 95.6053 29.0263L94.7345 31.7124C94.7345 31.799 94.7345 31.8857 94.9087 31.8857H96.7372C96.6501 31.8857 96.7372 31.799 96.7372 31.7124Z" fill="white"/>
<path d="M111.451 24.7807V36.2182C111.451 36.3049 111.364 36.3915 111.277 36.3915H108.926C108.839 36.3915 108.839 36.3915 108.839 36.3049L104.834 30.7594C104.747 30.6728 104.573 30.6728 104.573 30.8461L104.66 36.2182C104.66 36.3049 104.573 36.3915 104.485 36.3915H101.873C101.786 36.3915 101.699 36.3049 101.699 36.2182V24.7807C101.699 24.6941 101.786 24.6074 101.873 24.6074H104.224C104.311 24.6074 104.311 24.6074 104.311 24.6941L108.317 30.6728C108.404 30.7594 108.578 30.7594 108.578 30.5861L108.491 24.7807C108.491 24.6941 108.578 24.6074 108.665 24.6074H111.277C111.364 24.6074 111.451 24.6941 111.451 24.7807Z" fill="white"/>
<path d="M124.338 30.4996C124.338 31.1062 124.251 31.7127 124.077 32.3192C123.903 33.0124 123.554 33.619 123.206 34.1389C122.684 34.9187 121.9 35.5252 121.116 35.9585C120.246 36.3917 119.288 36.6516 118.33 36.6516C115.021 36.6516 112.322 33.8789 112.322 30.4996C112.322 27.1204 115.021 24.3477 118.33 24.3477C119.288 24.3477 120.246 24.6076 121.116 25.0408C121.813 25.3874 122.51 25.994 123.032 26.6005C123.119 26.6871 123.119 26.7738 123.032 26.8604L121.116 28.3335C121.029 28.4201 120.942 28.3335 120.942 28.3335C120.333 27.6403 119.375 27.207 118.417 27.207C116.589 27.207 115.109 28.68 115.109 30.5863C115.109 32.4059 116.589 33.9656 118.417 33.9656C119.462 33.9656 120.42 33.4457 121.029 32.6658C121.116 32.5792 121.029 32.4059 120.942 32.4059H118.156C118.069 32.4059 117.982 32.3192 117.982 32.2326V29.9798C117.982 29.8931 118.069 29.8065 118.156 29.8065H124.251C124.338 29.8065 124.425 29.8931 124.425 29.9798C124.338 30.0664 124.338 30.3263 124.338 30.4996Z" fill="white"/>
<path d="M132.001 33.7921L131.74 36.2182C131.74 36.3049 131.653 36.3915 131.565 36.3915H125.209C125.122 36.3915 125.035 36.3049 125.035 36.2182V24.7807C125.035 24.6941 125.122 24.6074 125.209 24.6074H131.565C131.653 24.6074 131.74 24.6941 131.74 24.7807L132.001 27.2069C132.001 27.2935 131.914 27.3801 131.827 27.3801H128.17C128.083 27.3801 127.996 27.4668 127.996 27.5534V28.9398C127.996 29.0265 128.083 29.1131 128.17 29.1131H130.782C130.869 29.1131 130.956 29.1998 130.956 29.2864V31.7125C130.956 31.7992 130.869 31.8858 130.782 31.8858H128.17C128.083 31.8858 127.996 31.9725 127.996 32.0591V33.7054C127.996 33.7921 128.083 33.8787 128.17 33.8787H131.827C132.001 33.7054 132.088 33.7054 132.001 33.7921Z" fill="white"/>
</g>
<defs>
<linearGradient id="paint0_linear_5_2802" x1="44.4202" y1="84.8262" x2="44.4202" y2="25.072" gradientUnits="userSpaceOnUse">
<stop stop-color="#19489E"/>
<stop offset="0.3321" stop-color="#2878BE"/>
<stop offset="0.6773" stop-color="#3BADE2"/>
<stop offset="1" stop-color="#55C4F0"/>
</linearGradient>
<linearGradient id="paint1_linear_5_2802" x1="48.9834" y1="12.82" x2="48.9834" y2="58.2539" gradientUnits="userSpaceOnUse">
<stop stop-color="#0062AF"/>
<stop offset="0.3321" stop-color="#2878BE"/>
<stop offset="0.6773" stop-color="#54B6E7"/>
<stop offset="1" stop-color="#AFDBF5"/>
</linearGradient>
<linearGradient id="paint2_linear_5_2802" x1="51.0386" y1="40.8413" x2="19.9166" y2="40.8413" gradientUnits="userSpaceOnUse">
<stop stop-color="#19489E"/>
<stop offset="0.3321" stop-color="#2878BE"/>
<stop offset="0.6773" stop-color="#3BADE2"/>
<stop offset="1" stop-color="#55C4F0"/>
</linearGradient>
<linearGradient id="paint3_linear_5_2802" x1="42.0641" y1="52.2798" x2="42.0641" y2="14.7737" gradientUnits="userSpaceOnUse">
<stop stop-color="#5055A5"/>
<stop offset="0.3321" stop-color="#0090D2"/>
<stop offset="0.6773" stop-color="#6FB5E4"/>
<stop offset="1" stop-color="#B4DDF5"/>
</linearGradient>
<linearGradient id="paint4_linear_5_2802" x1="31.4148" y1="52.281" x2="31.4148" y2="14.7744" gradientUnits="userSpaceOnUse">
<stop stop-color="#5055A5"/>
<stop offset="0.3321" stop-color="#0090D2"/>
<stop offset="0.6773" stop-color="#6FB5E4"/>
<stop offset="1" stop-color="#B4DDF5"/>
</linearGradient>
<linearGradient id="paint5_linear_5_2802" x1="35.5299" y1="52.2807" x2="35.5299" y2="14.7744" gradientUnits="userSpaceOnUse">
<stop stop-color="#5055A5"/>
<stop offset="0.3321" stop-color="#0090D2"/>
<stop offset="0.6773" stop-color="#6FB5E4"/>
<stop offset="1" stop-color="#B4DDF5"/>
</linearGradient>
<linearGradient id="paint6_linear_5_2802" x1="37.3051" y1="52.279" x2="37.3051" y2="14.7738" gradientUnits="userSpaceOnUse">
<stop stop-color="#5055A5"/>
<stop offset="0.3321" stop-color="#0090D2"/>
<stop offset="0.6773" stop-color="#6FB5E4"/>
<stop offset="1" stop-color="#B4DDF5"/>
</linearGradient>
<linearGradient id="paint7_linear_5_2802" x1="55.86" y1="44.2294" x2="22.3973" y2="44.2294" gradientUnits="userSpaceOnUse">
<stop stop-color="#0066B3"/>
<stop offset="0.3321" stop-color="#1780C4"/>
<stop offset="0.6773" stop-color="#3BADE2"/>
<stop offset="1" stop-color="#55C4F0"/>
</linearGradient>
<linearGradient id="paint8_linear_5_2802" x1="58.9085" y1="46.4029" x2="26.4387" y2="46.4029" gradientUnits="userSpaceOnUse">
<stop stop-color="#19489E"/>
<stop offset="0.3321" stop-color="#0584C7"/>
<stop offset="0.6773" stop-color="#66B3E4"/>
<stop offset="1" stop-color="#ACDAF5"/>
</linearGradient>
<linearGradient id="paint9_linear_5_2802" x1="60.7762" y1="-23.8187" x2="60.7762" y2="35.9357" gradientUnits="userSpaceOnUse">
<stop stop-color="#672E80"/>
<stop offset="0.4675" stop-color="#C21A81"/>
<stop offset="1" stop-color="#F05783"/>
</linearGradient>
<linearGradient id="paint10_linear_5_2802" x1="56.2143" y1="48.1879" x2="56.2143" y2="2.754" gradientUnits="userSpaceOnUse">
<stop stop-color="#672E80"/>
<stop offset="0.4926" stop-color="#C21A81"/>
<stop offset="1" stop-color="#F05783"/>
</linearGradient>
<linearGradient id="paint11_linear_5_2802" x1="54.1577" y1="20.1672" x2="85.2796" y2="20.1672" gradientUnits="userSpaceOnUse">
<stop stop-color="#672E80"/>
<stop offset="0.4926" stop-color="#C21A81"/>
<stop offset="1" stop-color="#F05783"/>
</linearGradient>
<linearGradient id="paint12_linear_5_2802" x1="63.1333" y1="8.72801" x2="63.1333" y2="46.2339" gradientUnits="userSpaceOnUse">
<stop stop-color="#672E80"/>
<stop offset="0.4926" stop-color="#C21A81"/>
<stop offset="1" stop-color="#F05783"/>
</linearGradient>
<linearGradient id="paint13_linear_5_2802" x1="73.7832" y1="8.72595" x2="73.7832" y2="46.2328" gradientUnits="userSpaceOnUse">
<stop stop-color="#672E80"/>
<stop offset="0.4926" stop-color="#C21A81"/>
<stop offset="1" stop-color="#F05783"/>
</linearGradient>
<linearGradient id="paint14_linear_5_2802" x1="69.6675" y1="8.72699" x2="69.6675" y2="46.2336" gradientUnits="userSpaceOnUse">
<stop stop-color="#672E80"/>
<stop offset="0.4926" stop-color="#C21A81"/>
<stop offset="1" stop-color="#F05783"/>
</linearGradient>
<linearGradient id="paint15_linear_5_2802" x1="67.8927" y1="8.72802" x2="67.8927" y2="46.2343" gradientUnits="userSpaceOnUse">
<stop stop-color="#672E80"/>
<stop offset="0.4926" stop-color="#C21A81"/>
<stop offset="1" stop-color="#F05783"/>
</linearGradient>
<linearGradient id="paint16_linear_5_2802" x1="49.338" y1="16.7787" x2="82.8006" y2="16.7787" gradientUnits="userSpaceOnUse">
<stop stop-color="#672E80"/>
<stop offset="0.4926" stop-color="#C21A81"/>
<stop offset="1" stop-color="#F05783"/>
</linearGradient>
<linearGradient id="paint17_linear_5_2802" x1="46.2886" y1="14.6045" x2="78.7584" y2="14.6045" gradientUnits="userSpaceOnUse">
<stop stop-color="#672E80"/>
<stop offset="0.4926" stop-color="#C21A81"/>
<stop offset="1" stop-color="#F05783"/>
</linearGradient>
<clipPath id="clip0_5_2802">
<rect width="132" height="61" fill="white"/>
</clipPath>
</defs>
</svg>
