<svg width="727" height="377" viewBox="0 0 727 377" fill="none" xmlns="http://www.w3.org/2000/svg">
<g filter="url(#filter0_d_3500_339)">
<mask id="path-1-outside-1_3500_339" maskUnits="userSpaceOnUse" x="0" y="0" width="727" height="370" fill="black">
<rect fill="white" width="727" height="370"/>
<path d="M221.922 232.385V284.631H4.88086L2.43945 244.348L125.975 7.53125H175.535L124.998 104.211L65.1836 232.385H221.922ZM189.695 7.53125V363H126.951V7.53125H189.695ZM465.574 154.748V214.807C465.574 241.988 463.133 265.262 458.25 284.631C453.367 303.999 446.45 319.868 437.498 332.238C428.709 344.445 418.13 353.479 405.76 359.338C393.39 365.035 379.718 367.883 364.744 367.883C352.863 367.883 341.714 366.092 331.297 362.512C320.88 358.768 311.44 353.072 302.977 345.422C294.676 337.609 287.514 327.681 281.492 315.637C275.633 303.592 271.076 289.27 267.82 272.668C264.728 255.904 263.182 236.617 263.182 214.807V154.748C263.182 127.404 265.623 104.13 270.506 84.9238C275.551 65.7181 282.55 50.0117 291.502 37.8047C300.454 25.5977 311.115 16.7272 323.484 11.1934C335.854 5.49674 349.526 2.64844 364.5 2.64844C376.382 2.64844 387.531 4.4388 397.947 8.01953C408.364 11.6003 417.641 17.2155 425.779 24.8652C434.08 32.3522 441.242 42.1178 447.264 54.1621C453.286 66.0436 457.843 80.3665 460.936 97.1309C464.028 113.732 465.574 132.938 465.574 154.748ZM403.074 223.596V145.227C403.074 131.88 402.505 120.161 401.365 110.07C400.226 99.9792 398.598 91.5156 396.482 84.6797C394.367 77.681 391.681 71.9844 388.426 67.5898C385.333 63.1953 381.753 60.0215 377.684 58.0684C373.615 55.9525 369.22 54.8945 364.5 54.8945C358.478 54.8945 353.107 56.5221 348.387 59.7773C343.667 62.8698 339.598 67.9967 336.18 75.1582C332.762 82.1569 330.158 91.4342 328.367 102.99C326.577 114.546 325.682 128.625 325.682 145.227V223.596C325.682 237.105 326.251 248.986 327.391 259.24C328.693 269.331 330.402 277.958 332.518 285.119C334.796 292.281 337.482 298.14 340.574 302.697C343.667 307.092 347.247 310.347 351.316 312.463C355.385 314.579 359.861 315.637 364.744 315.637C370.766 315.637 376.137 314.009 380.857 310.754C385.74 307.336 389.809 302.046 393.064 294.885C396.32 287.723 398.761 278.283 400.389 266.564C402.179 254.683 403.074 240.36 403.074 223.596ZM724.852 232.385V284.631H507.811L505.369 244.348L628.904 7.53125H678.465L627.928 104.211L568.113 232.385H724.852ZM692.625 7.53125V363H629.881V7.53125H692.625Z"/>
</mask>
<path d="M221.922 232.385V284.631H4.88086L2.43945 244.348L125.975 7.53125H175.535L124.998 104.211L65.1836 232.385H221.922ZM189.695 7.53125V363H126.951V7.53125H189.695ZM465.574 154.748V214.807C465.574 241.988 463.133 265.262 458.25 284.631C453.367 303.999 446.45 319.868 437.498 332.238C428.709 344.445 418.13 353.479 405.76 359.338C393.39 365.035 379.718 367.883 364.744 367.883C352.863 367.883 341.714 366.092 331.297 362.512C320.88 358.768 311.44 353.072 302.977 345.422C294.676 337.609 287.514 327.681 281.492 315.637C275.633 303.592 271.076 289.27 267.82 272.668C264.728 255.904 263.182 236.617 263.182 214.807V154.748C263.182 127.404 265.623 104.13 270.506 84.9238C275.551 65.7181 282.55 50.0117 291.502 37.8047C300.454 25.5977 311.115 16.7272 323.484 11.1934C335.854 5.49674 349.526 2.64844 364.5 2.64844C376.382 2.64844 387.531 4.4388 397.947 8.01953C408.364 11.6003 417.641 17.2155 425.779 24.8652C434.08 32.3522 441.242 42.1178 447.264 54.1621C453.286 66.0436 457.843 80.3665 460.936 97.1309C464.028 113.732 465.574 132.938 465.574 154.748ZM403.074 223.596V145.227C403.074 131.88 402.505 120.161 401.365 110.07C400.226 99.9792 398.598 91.5156 396.482 84.6797C394.367 77.681 391.681 71.9844 388.426 67.5898C385.333 63.1953 381.753 60.0215 377.684 58.0684C373.615 55.9525 369.22 54.8945 364.5 54.8945C358.478 54.8945 353.107 56.5221 348.387 59.7773C343.667 62.8698 339.598 67.9967 336.18 75.1582C332.762 82.1569 330.158 91.4342 328.367 102.99C326.577 114.546 325.682 128.625 325.682 145.227V223.596C325.682 237.105 326.251 248.986 327.391 259.24C328.693 269.331 330.402 277.958 332.518 285.119C334.796 292.281 337.482 298.14 340.574 302.697C343.667 307.092 347.247 310.347 351.316 312.463C355.385 314.579 359.861 315.637 364.744 315.637C370.766 315.637 376.137 314.009 380.857 310.754C385.74 307.336 389.809 302.046 393.064 294.885C396.32 287.723 398.761 278.283 400.389 266.564C402.179 254.683 403.074 240.36 403.074 223.596ZM724.852 232.385V284.631H507.811L505.369 244.348L628.904 7.53125H678.465L627.928 104.211L568.113 232.385H724.852ZM692.625 7.53125V363H629.881V7.53125H692.625Z" fill="white"/>
<path d="M221.922 232.385H223.922V230.385H221.922V232.385ZM221.922 284.631V286.631H223.922V284.631H221.922ZM4.88086 284.631L2.88452 284.752L2.9984 286.631H4.88086V284.631ZM2.43945 244.348L0.666218 243.423L0.409543 243.915L0.443116 244.469L2.43945 244.348ZM125.975 7.53125V5.53125H124.762L124.201 6.60624L125.975 7.53125ZM175.535 7.53125L177.308 8.45776L178.837 5.53125H175.535V7.53125ZM124.998 104.211L123.226 103.284L123.205 103.324L123.186 103.365L124.998 104.211ZM65.1836 232.385L63.3712 231.539L62.0432 234.385H65.1836V232.385ZM189.695 7.53125H191.695V5.53125H189.695V7.53125ZM189.695 363V365H191.695V363H189.695ZM126.951 363H124.951V365H126.951V363ZM126.951 7.53125V5.53125H124.951V7.53125H126.951ZM221.922 232.385H219.922V284.631H221.922H223.922V232.385H221.922ZM221.922 284.631V282.631H4.88086V284.631V286.631H221.922V284.631ZM4.88086 284.631L6.8772 284.51L4.43579 244.227L2.43945 244.348L0.443116 244.469L2.88452 284.752L4.88086 284.631ZM2.43945 244.348L4.21269 245.273L127.748 8.45626L125.975 7.53125L124.201 6.60624L0.666218 243.423L2.43945 244.348ZM125.975 7.53125V9.53125H175.535V7.53125V5.53125H125.975V7.53125ZM175.535 7.53125L173.763 6.60474L123.226 103.284L124.998 104.211L126.77 105.137L177.308 8.45776L175.535 7.53125ZM124.998 104.211L123.186 103.365L63.3712 231.539L65.1836 232.385L66.996 233.231L126.81 105.057L124.998 104.211ZM65.1836 232.385V234.385H221.922V232.385V230.385H65.1836V232.385ZM189.695 7.53125H187.695V363H189.695H191.695V7.53125H189.695ZM189.695 363V361H126.951V363V365H189.695V363ZM126.951 363H128.951V7.53125H126.951H124.951V363H126.951ZM126.951 7.53125V9.53125H189.695V7.53125V5.53125H126.951V7.53125ZM437.498 332.238L435.878 331.066L435.875 331.07L437.498 332.238ZM405.76 359.338L406.596 361.155L406.606 361.15L406.616 361.145L405.76 359.338ZM331.297 362.512L330.62 364.394L330.634 364.399L330.647 364.403L331.297 362.512ZM302.977 345.422L301.606 346.878L301.621 346.892L301.635 346.906L302.977 345.422ZM281.492 315.637L279.694 316.512L279.698 316.521L279.703 316.531L281.492 315.637ZM267.82 272.668L265.853 273.031L265.856 273.042L265.858 273.053L267.82 272.668ZM270.506 84.9238L268.572 84.4156L268.569 84.4233L268.568 84.431L270.506 84.9238ZM323.484 11.1934L324.301 13.019L324.311 13.0145L324.321 13.01L323.484 11.1934ZM425.779 24.8652L424.409 26.3225L424.424 26.3366L424.44 26.3504L425.779 24.8652ZM447.264 54.1621L445.475 55.0565L445.48 55.0663L447.264 54.1621ZM460.936 97.1309L458.969 97.4937L458.969 97.4971L460.936 97.1309ZM396.482 84.6797L394.568 85.2585L394.572 85.2711L396.482 84.6797ZM388.426 67.5898L386.79 68.7408L386.804 68.7607L386.819 68.7803L388.426 67.5898ZM377.684 58.0684L376.761 59.8428L376.789 59.8576L376.818 59.8714L377.684 58.0684ZM348.387 59.7773L349.483 61.4503L349.503 61.4373L349.522 61.4238L348.387 59.7773ZM336.18 75.1582L337.977 76.0359L337.981 76.0278L337.985 76.0197L336.18 75.1582ZM328.367 102.99L326.391 102.684L328.367 102.99ZM327.391 259.24L325.403 259.461L325.405 259.479L325.407 259.496L327.391 259.24ZM332.518 285.119L330.6 285.686L330.605 285.706L330.612 285.726L332.518 285.119ZM340.574 302.697L338.919 303.82L338.929 303.834L338.939 303.848L340.574 302.697ZM380.857 310.754L381.993 312.4L382.004 312.392L380.857 310.754ZM393.064 294.885L391.244 294.057L393.064 294.885ZM400.389 266.564L398.411 266.266L398.409 266.278L398.408 266.289L400.389 266.564ZM465.574 154.748H463.574V214.807H465.574H467.574V154.748H465.574ZM465.574 214.807H463.574C463.574 241.878 461.142 264.979 456.311 284.142L458.25 284.631L460.189 285.12C465.124 265.546 467.574 242.098 467.574 214.807H465.574ZM458.25 284.631L456.311 284.142C451.472 303.336 444.643 318.954 435.878 331.066L437.498 332.238L439.118 333.411C448.257 320.783 455.263 304.662 460.189 285.12L458.25 284.631ZM437.498 332.238L435.875 331.07C427.263 343.03 416.938 351.83 404.904 357.53L405.76 359.338L406.616 361.145C419.321 355.127 430.155 345.86 439.121 333.407L437.498 332.238ZM405.76 359.338L404.923 357.521C392.841 363.085 379.458 365.883 364.744 365.883V367.883V369.883C379.978 369.883 393.939 366.984 406.596 361.155L405.76 359.338ZM364.744 367.883V365.883C353.066 365.883 342.139 364.124 331.947 360.62L331.297 362.512L330.647 364.403C341.288 368.061 352.659 369.883 364.744 369.883V367.883ZM331.297 362.512L331.973 360.63C321.81 356.977 312.594 351.418 304.318 343.938L302.977 345.422L301.635 346.906C310.286 354.725 319.951 360.559 330.62 364.394L331.297 362.512ZM302.977 345.422L304.347 343.965C296.246 336.341 289.217 326.613 283.281 314.742L281.492 315.637L279.703 316.531C285.812 328.749 293.106 338.878 301.606 346.878L302.977 345.422ZM281.492 315.637L283.291 314.762C277.524 302.908 273.013 288.757 269.783 272.283L267.82 272.668L265.858 273.053C269.138 289.782 273.742 304.277 279.694 316.512L281.492 315.637ZM267.82 272.668L269.787 272.305C266.722 255.688 265.182 236.527 265.182 214.807H263.182H261.182C261.182 236.706 262.734 256.119 265.853 273.031L267.82 272.668ZM263.182 214.807H265.182V154.748H263.182H261.182V214.807H263.182ZM263.182 154.748H265.182C265.182 127.513 267.615 104.413 272.444 85.4166L270.506 84.9238L268.568 84.431C263.632 103.846 261.182 127.296 261.182 154.748H263.182ZM270.506 84.9238L272.44 85.432C277.441 66.3975 284.35 50.9395 293.115 38.9874L291.502 37.8047L289.889 36.622C280.75 49.084 273.662 65.0387 268.572 84.4156L270.506 84.9238ZM291.502 37.8047L293.115 38.9874C301.886 27.0266 312.284 18.3952 324.301 13.019L323.484 11.1934L322.668 9.36772C309.945 15.0592 299.022 24.1687 289.889 36.622L291.502 37.8047ZM323.484 11.1934L324.321 13.01C336.403 7.44577 349.786 4.64844 364.5 4.64844V2.64844V0.648438C349.266 0.648438 335.305 3.54772 322.648 9.37674L323.484 11.1934ZM364.5 2.64844V4.64844C376.178 4.64844 387.106 6.40755 397.297 9.9109L397.947 8.01953L398.597 6.12816C387.956 2.47005 376.585 0.648438 364.5 0.648438V2.64844ZM397.947 8.01953L397.297 9.9109C407.442 13.3982 416.475 18.864 424.409 26.3225L425.779 24.8652L427.149 23.408C418.808 15.567 409.286 9.80231 398.597 6.12816L397.947 8.01953ZM425.779 24.8652L424.44 26.3504C432.522 33.6398 439.542 43.191 445.475 55.0565L447.264 54.1621L449.053 53.2677C442.941 41.0447 435.639 31.0646 427.119 23.3801L425.779 24.8652ZM447.264 54.1621L445.48 55.0663C451.395 66.7371 455.902 80.8678 458.969 97.4937L460.936 97.1309L462.902 96.7681C459.784 79.8652 455.177 65.3502 449.048 53.2579L447.264 54.1621ZM460.936 97.1309L458.969 97.4971C462.034 113.949 463.574 133.028 463.574 154.748H465.574H467.574C467.574 132.849 466.022 113.516 462.902 96.7646L460.936 97.1309ZM403.074 223.596H405.074V145.227H403.074H401.074V223.596H403.074ZM403.074 145.227H405.074C405.074 131.827 404.502 120.03 403.353 109.846L401.365 110.07L399.378 110.295C400.507 120.292 401.074 131.933 401.074 145.227H403.074ZM401.365 110.07L403.353 109.846C402.205 99.6775 400.558 91.082 398.393 84.0883L396.482 84.6797L394.572 85.2711C396.639 91.9492 398.247 100.281 399.378 110.295L401.365 110.07ZM396.482 84.6797L398.397 84.1009C396.235 76.9517 393.462 71.0292 390.033 66.3994L388.426 67.5898L386.819 68.7803C389.9 72.9396 392.498 78.4103 394.568 85.2585L396.482 84.6797ZM388.426 67.5898L390.061 66.4389C386.81 61.818 382.98 58.3923 378.549 56.2653L377.684 58.0684L376.818 59.8714C380.525 61.6507 383.857 64.5726 386.79 68.7408L388.426 67.5898ZM377.684 58.0684L378.606 56.2939C374.244 54.0254 369.532 52.8945 364.5 52.8945V54.8945V56.8945C368.909 56.8945 372.985 57.8795 376.761 59.8428L377.684 58.0684ZM364.5 54.8945V52.8945C358.094 52.8945 352.323 54.6335 347.251 58.1309L348.387 59.7773L349.522 61.4238C353.891 58.4108 358.862 56.8945 364.5 56.8945V54.8945ZM348.387 59.7773L347.291 58.1044C342.164 61.463 337.889 66.9329 334.375 74.2967L336.18 75.1582L337.985 76.0197C341.306 69.0606 345.169 64.2766 349.483 61.4503L348.387 59.7773ZM336.18 75.1582L334.383 74.2805C330.844 81.5258 328.198 91.0186 326.391 102.684L328.367 102.99L330.344 103.296C332.117 91.8499 334.679 82.788 337.977 76.0359L336.18 75.1582ZM328.367 102.99L326.391 102.684C324.58 114.374 323.682 128.561 323.682 145.227H325.682H327.682C327.682 128.689 328.574 114.719 330.344 103.296L328.367 102.99ZM325.682 145.227H323.682V223.596H325.682H327.682V145.227H325.682ZM325.682 223.596H323.682C323.682 237.157 324.253 249.115 325.403 259.461L327.391 259.24L329.378 259.019C328.249 248.857 327.682 237.052 327.682 223.596H325.682ZM327.391 259.24L325.407 259.496C326.718 269.658 328.445 278.394 330.6 285.686L332.518 285.119L334.436 284.552C332.358 277.522 330.667 269.005 329.374 258.984L327.391 259.24ZM332.518 285.119L330.612 285.726C332.929 293.009 335.688 299.058 338.919 303.82L340.574 302.697L342.229 301.574C339.276 297.222 336.663 291.553 334.423 284.513L332.518 285.119ZM340.574 302.697L338.939 303.848C342.184 308.46 345.996 311.95 350.394 314.237L351.316 312.463L352.239 310.688C348.499 308.744 345.15 305.724 342.21 301.546L340.574 302.697ZM351.316 312.463L350.394 314.237C354.766 316.511 359.561 317.637 364.744 317.637V315.637V313.637C360.161 313.637 356.005 312.647 352.239 310.688L351.316 312.463ZM364.744 315.637V317.637C371.15 317.637 376.922 315.898 381.993 312.4L380.857 310.754L379.722 309.107C375.353 312.12 370.382 313.637 364.744 313.637V315.637ZM380.857 310.754L382.004 312.392C387.26 308.714 391.528 303.098 394.885 295.712L393.064 294.885L391.244 294.057C388.091 300.994 384.221 305.958 379.711 309.115L380.857 310.754ZM393.064 294.885L394.885 295.712C398.249 288.311 400.727 278.663 402.37 266.84L400.389 266.564L398.408 266.289C396.795 277.903 394.39 287.136 391.244 294.057L393.064 294.885ZM400.389 266.564L402.366 266.862C404.176 254.852 405.074 240.424 405.074 223.596H403.074H401.074C401.074 240.296 400.182 254.514 398.411 266.266L400.389 266.564ZM724.852 232.385H726.852V230.385H724.852V232.385ZM724.852 284.631V286.631H726.852V284.631H724.852ZM507.811 284.631L505.814 284.752L505.928 286.631H507.811V284.631ZM505.369 244.348L503.596 243.423L503.339 243.915L503.373 244.469L505.369 244.348ZM628.904 7.53125V5.53125H627.692L627.131 6.60624L628.904 7.53125ZM678.465 7.53125L680.237 8.45776L681.767 5.53125H678.465V7.53125ZM627.928 104.211L626.155 103.284L626.134 103.324L626.115 103.365L627.928 104.211ZM568.113 232.385L566.301 231.539L564.973 234.385H568.113V232.385ZM692.625 7.53125H694.625V5.53125H692.625V7.53125ZM692.625 363V365H694.625V363H692.625ZM629.881 363H627.881V365H629.881V363ZM629.881 7.53125V5.53125H627.881V7.53125H629.881ZM724.852 232.385H722.852V284.631H724.852H726.852V232.385H724.852ZM724.852 284.631V282.631H507.811V284.631V286.631H724.852V284.631ZM507.811 284.631L509.807 284.51L507.365 244.227L505.369 244.348L503.373 244.469L505.814 284.752L507.811 284.631ZM505.369 244.348L507.142 245.273L630.678 8.45626L628.904 7.53125L627.131 6.60624L503.596 243.423L505.369 244.348ZM628.904 7.53125V9.53125H678.465V7.53125V5.53125H628.904V7.53125ZM678.465 7.53125L676.692 6.60474L626.155 103.284L627.928 104.211L629.7 105.137L680.237 8.45776L678.465 7.53125ZM627.928 104.211L626.115 103.365L566.301 231.539L568.113 232.385L569.926 233.231L629.74 105.057L627.928 104.211ZM568.113 232.385V234.385H724.852V232.385V230.385H568.113V232.385ZM692.625 7.53125H690.625V363H692.625H694.625V7.53125H692.625ZM692.625 363V361H629.881V363V365H692.625V363ZM629.881 363H631.881V7.53125H629.881H627.881V363H629.881ZM629.881 7.53125V9.53125H692.625V7.53125V5.53125H629.881V7.53125Z" fill="#06574A" mask="url(#path-1-outside-1_3500_339)"/>
</g>
<defs>
<filter id="filter0_d_3500_339" x="0.40918" y="0.648438" width="726.442" height="376.234" filterUnits="userSpaceOnUse" color-interpolation-filters="sRGB">
<feFlood flood-opacity="0" result="BackgroundImageFix"/>
<feColorMatrix in="SourceAlpha" type="matrix" values="0 0 0 0 0 0 0 0 0 0 0 0 0 0 0 0 0 0 127 0" result="hardAlpha"/>
<feOffset dy="7"/>
<feComposite in2="hardAlpha" operator="out"/>
<feColorMatrix type="matrix" values="0 0 0 0 0 0 0 0 0 0.297222 0 0 0 0 0.248268 0 0 0 1 0"/>
<feBlend mode="normal" in2="BackgroundImageFix" result="effect1_dropShadow_3500_339"/>
<feBlend mode="normal" in="SourceGraphic" in2="effect1_dropShadow_3500_339" result="shape"/>
</filter>
</defs>
</svg>
