<svg width="18" height="18" viewBox="0 0 18 18" fill="none" xmlns="http://www.w3.org/2000/svg">
<path d="M14.9766 0H4.99746C4.85757 0 4.72345 0.055582 4.62459 0.154477L2.65057 2.1285C2.55164 2.22739 2.49609 2.36152 2.49609 2.50137V17.4727C2.49609 17.7639 2.7322 18 3.02344 18H14.9766C15.2678 18 15.5039 17.7639 15.5039 17.4727V0.527344C15.5039 0.236109 15.2678 0 14.9766 0Z" fill="#FFE470"/>
<path d="M14.9766 0H9V18H14.9766C15.2678 18 15.5039 17.7639 15.5039 17.4727V0.527344C15.5039 0.236109 15.2678 0 14.9766 0Z" fill="#FFD400"/>
<path d="M12.8672 15.4688H5.13281C4.84158 15.4688 4.60547 15.2326 4.60547 14.9414C4.60547 14.6502 4.84158 14.4141 5.13281 14.4141H12.8672C13.1584 14.4141 13.3945 14.6502 13.3945 14.9414C13.3945 15.2326 13.1584 15.4688 12.8672 15.4688Z" fill="#5A69E6"/>
<path d="M12.8672 13.3594H5.13281C4.84158 13.3594 4.60547 13.1233 4.60547 12.832C4.60547 12.5408 4.84158 12.3047 5.13281 12.3047H12.8672C13.1584 12.3047 13.3945 12.5408 13.3945 12.832C13.3945 13.1233 13.1584 13.3594 12.8672 13.3594Z" fill="#5A69E6"/>
<path d="M12.8672 14.4141H9V15.4688H12.8672C13.1584 15.4688 13.3945 15.2326 13.3945 14.9414C13.3945 14.6502 13.1584 14.4141 12.8672 14.4141Z" fill="#3A4DE2"/>
<path d="M12.8672 12.3047H9V13.3594H12.8672C13.1584 13.3594 13.3945 13.1233 13.3945 12.832C13.3945 12.5408 13.1584 12.3047 12.8672 12.3047Z" fill="#3A4DE2"/>
<path d="M12.8672 11.25H10.0547C9.76345 11.25 9.52734 11.0139 9.52734 10.7227C9.52734 10.4314 9.76345 10.1953 10.0547 10.1953H12.8672C13.1584 10.1953 13.3945 10.4314 13.3945 10.7227C13.3945 11.0139 13.1584 11.25 12.8672 11.25Z" fill="#3A4DE2"/>
<path d="M8.78197 8.46451C7.86355 8.43389 7.11353 7.95939 7.11353 7.46956C7.11353 7.20936 7.34313 6.82665 7.63398 6.82665C7.95545 6.82665 8.21564 7.2782 8.78197 7.37769V6.13787C8.07786 5.86998 7.2513 5.54092 7.2513 4.56126C7.2513 3.58929 7.97071 3.12242 8.78197 3.0076V2.79332C8.78197 2.68616 8.90442 2.58667 9.07278 2.58667C9.21823 2.58667 9.3636 2.68616 9.3636 2.79332V2.98464C9.8381 2.99997 10.7336 3.12238 10.7336 3.65046C10.7336 3.85711 10.5958 4.27804 10.2591 4.27804C10.0065 4.27804 9.86109 4.03314 9.3636 3.99485V5.11226C10.0601 5.37249 10.8713 5.73221 10.8713 6.76541C10.8713 7.71442 10.2591 8.28845 9.3636 8.43386V8.6558C9.3636 8.76295 9.21819 8.86245 9.07278 8.86245C8.90442 8.86245 8.78197 8.76295 8.78197 8.6558V8.46451ZM8.85851 4.9286V4.01785C8.51412 4.08672 8.36867 4.26274 8.36867 4.44644C8.36867 4.66841 8.56766 4.80615 8.85851 4.9286ZM9.2871 6.34449V7.37003C9.54729 7.30882 9.75394 7.16342 9.75394 6.88786C9.75394 6.63533 9.56261 6.4746 9.2871 6.34449Z" fill="#5A69E6"/>
<path d="M9.36361 5.11226V3.99485C9.86107 4.0331 10.0065 4.27804 10.2591 4.27804C10.5958 4.27804 10.7336 3.85711 10.7336 3.65046C10.7336 3.12238 9.83811 2.99993 9.36361 2.98464V2.79332C9.36361 2.68616 9.21821 2.58667 9.0728 2.58667C9.04457 2.58667 9.01774 2.58969 8.99243 2.59486V8.85429C9.01774 8.85946 9.04453 8.86248 9.0728 8.86248C9.21824 8.86248 9.36361 8.76299 9.36361 8.65583V8.43389C10.2591 8.28849 10.8714 7.71446 10.8714 6.76545C10.8713 5.73221 10.0601 5.37249 9.36361 5.11226ZM9.28708 7.37003V6.34449C9.5626 6.4746 9.75392 6.6353 9.75392 6.8879C9.75392 7.16338 9.54727 7.30879 9.28708 7.37003Z" fill="#3A4DE2"/>
</svg>
