<svg width="15" height="18" viewBox="0 0 15 18" fill="none" xmlns="http://www.w3.org/2000/svg">
<path d="M12.7506 17.9013H1.60825C0.72005 17.9013 0 17.1813 0 16.2931V2.27525C0 1.38704 0.72005 0.666992 1.60825 0.666992H12.7506C13.6388 0.666992 14.3588 1.38704 14.3588 2.27525V16.2931C14.3588 17.1813 13.6388 17.9013 12.7506 17.9013Z" fill="url(#paint0_linear_28_248)"/>
<path d="M12.7333 2.07007L1.70361 16.4712L3.13377 17.9014H12.7497C13.6379 17.9014 14.358 17.1813 14.358 16.2931V3.6948L12.7333 2.07007Z" fill="url(#paint1_linear_28_248)"/>
<path d="M0 9.49658V16.293C0 17.1812 0.72005 17.9013 1.60825 17.9013H12.7506C13.6388 17.9013 14.3588 17.1812 14.3588 16.293V9.49658H0Z" fill="url(#paint2_linear_28_248)"/>
<path d="M12.7515 0.666992H4.77026V17.9013H12.7515C13.6397 17.9013 14.3598 17.1813 14.3598 16.2931V2.27525C14.3597 1.38704 13.6397 0.666992 12.7515 0.666992Z" fill="url(#paint3_linear_28_248)"/>
<path d="M12.7522 0.666992H8.10815V3.20187H14.3604V2.27521C14.3604 1.38701 13.6404 0.666992 12.7522 0.666992Z" fill="url(#paint4_linear_28_248)"/>
<path d="M11.681 16.8577H2.68007C1.89392 16.8577 1.25659 16.2203 1.25659 15.4342V3.02675C1.25659 2.2406 1.89392 1.60327 2.68007 1.60327H11.681C12.4672 1.60327 13.1045 2.2406 13.1045 3.02675V15.4342C13.1045 16.2204 12.4672 16.8577 11.681 16.8577Z" fill="url(#paint5_linear_28_248)"/>
<path d="M1.25659 9.41846V15.4341C1.25659 16.2203 1.89392 16.8576 2.68007 16.8576H11.681C12.4672 16.8576 13.1045 16.2202 13.1045 15.4341V9.41846H1.25659Z" fill="url(#paint6_linear_28_248)"/>
<path d="M11.6811 1.60327H5.47803V16.8577H11.6811C12.4673 16.8577 13.1046 16.2203 13.1046 15.4342V3.02675C13.1046 2.2406 12.4673 1.60327 11.6811 1.60327Z" fill="url(#paint7_linear_28_248)"/>
<path d="M11.7685 5.0896L7.82223 9.03583C7.61892 9.23913 7.28929 9.23913 7.08594 9.03583L4.86929 6.81917C4.70117 6.65105 4.42985 6.64702 4.25686 6.8101L2.58911 8.38188L11.0649 16.8576H11.6793C12.4655 16.8576 13.1028 16.2203 13.1028 15.4341V6.42392L11.7685 5.0896Z" fill="url(#paint8_linear_28_248)"/>
<path d="M5.26221 1.53003H9.09789V3.26402H5.26221V1.53003Z" fill="url(#paint9_linear_28_248)"/>
<path d="M5.26221 1.53003H9.09789V3.26402H5.26221V1.53003Z" fill="url(#paint10_linear_28_248)"/>
<path d="M13.1047 3.02675C13.1047 2.2406 12.4674 1.60327 11.6813 1.60327H9.08542V2.41216C9.08542 2.93332 8.66294 3.35579 8.14179 3.35579H5.27612L13.1047 11.1844V3.02675Z" fill="url(#paint11_linear_28_248)"/>
<path d="M8.39807 3.61983H5.96061C5.3954 3.61983 4.93555 3.15998 4.93555 2.5948V1.27637H9.42317V2.59477C9.42313 3.15998 8.96328 3.61983 8.39807 3.61983ZM5.45709 1.79794V2.59477C5.45709 2.87238 5.68296 3.09822 5.96058 3.09822H8.39803C8.67565 3.09822 8.90152 2.87238 8.90152 2.59477V1.79794H5.45709Z" fill="url(#paint12_linear_28_248)"/>
<path d="M8.39807 3.61983H5.96061C5.3954 3.61983 4.93555 3.15998 4.93555 2.5948V1.27637H9.42317V2.59477C9.42313 3.15998 8.96328 3.61983 8.39807 3.61983ZM5.45709 1.79794V2.59477C5.45709 2.87238 5.68296 3.09822 5.96058 3.09822H8.39803C8.67565 3.09822 8.90152 2.87238 8.90152 2.59477V1.79794H5.45709Z" fill="url(#paint13_linear_28_248)"/>
<path d="M8.39807 3.61983H5.96061C5.3954 3.61983 4.93555 3.15998 4.93555 2.5948V1.27637H9.42317V2.59477C9.42313 3.15998 8.96328 3.61983 8.39807 3.61983ZM5.45709 1.79794V2.59477C5.45709 2.87238 5.68296 3.09822 5.96058 3.09822H8.39803C8.67565 3.09822 8.90152 2.87238 8.90152 2.59477V1.79794H5.45709Z" fill="url(#paint14_linear_28_248)"/>
<path d="M7.14038 1.79794H8.90219V2.59477C8.90219 2.87238 8.67631 3.09822 8.3987 3.09822H7.14038V3.6198H8.3987C8.96391 3.6198 9.42376 3.15994 9.42376 2.59477V1.27637H7.14038V1.79794Z" fill="url(#paint15_linear_28_248)"/>
<path d="M9.19651 2.32108H5.16106C4.8565 2.32108 4.60962 1.91287 4.60962 1.40934C4.60962 0.978275 4.7922 0.60608 5.04732 0.51717L5.33801 0.41588C6.55185 -0.00711624 7.80572 -0.00711624 9.01956 0.41588L9.31025 0.51717C9.56537 0.60608 9.74795 0.978241 9.74795 1.40934C9.74795 1.9129 9.50108 2.32108 9.19651 2.32108Z" fill="url(#paint16_linear_28_248)"/>
<path d="M9.19839 2.32085C9.50295 2.32085 9.74983 1.91263 9.74983 1.4091C9.74983 0.97804 9.56725 0.605845 9.31213 0.516934L9.02147 0.415644C8.41453 0.204129 7.79758 0.0983887 7.18066 0.0983887V2.32085H9.19839Z" fill="url(#paint17_linear_28_248)"/>
<path d="M4.60986 1.40924C4.60986 1.9128 4.85674 2.32098 5.16131 2.32098H9.19675C9.50132 2.32098 9.7482 1.91276 9.7482 1.40924C9.7482 1.1472 9.68046 0.907378 9.57024 0.739258H4.78782C4.6776 0.907378 4.60986 1.1472 4.60986 1.40924Z" fill="url(#paint18_linear_28_248)"/>
<path d="M11.561 10.956H5.85762C5.73442 10.956 5.63452 10.8561 5.63452 10.7329C5.63452 10.6097 5.73439 10.5098 5.85762 10.5098H11.5609C11.6841 10.5098 11.784 10.6096 11.784 10.7329C11.784 10.8561 11.6841 10.956 11.561 10.956Z" fill="url(#paint19_linear_28_248)"/>
<path d="M11.561 12.4899H5.85762C5.73442 12.4899 5.63452 12.39 5.63452 12.2668C5.63452 12.1436 5.73439 12.0437 5.85762 12.0437H11.5609C11.6841 12.0437 11.784 12.1436 11.784 12.2668C11.784 12.39 11.6841 12.4899 11.561 12.4899Z" fill="url(#paint20_linear_28_248)"/>
<path d="M11.561 14.0238H5.85762C5.73442 14.0238 5.63452 13.924 5.63452 13.8007C5.63452 13.6775 5.73439 13.5776 5.85762 13.5776H11.5609C11.6841 13.5776 11.784 13.6775 11.784 13.8007C11.784 13.9239 11.6841 14.0238 11.561 14.0238Z" fill="url(#paint21_linear_28_248)"/>
<path d="M11.561 15.5575H5.85762C5.73442 15.5575 5.63452 15.4577 5.63452 15.3344C5.63452 15.2112 5.73439 15.1113 5.85762 15.1113H11.5609C11.6841 15.1113 11.784 15.2112 11.784 15.3344C11.784 15.4577 11.6841 15.5575 11.561 15.5575Z" fill="url(#paint22_linear_28_248)"/>
<path d="M4.1455 12.4898H2.97565C2.75193 12.4898 2.57056 12.3084 2.57056 12.0847V10.9149C2.57056 10.6911 2.75193 10.5098 2.97565 10.5098H4.1455C4.36922 10.5098 4.55059 10.6911 4.55059 10.9149V12.0847C4.55059 12.3084 4.36922 12.4898 4.1455 12.4898Z" fill="url(#paint23_linear_28_248)"/>
<path d="M12.3534 16.6886L5.65277 9.98804L3.37061 12.0901L8.1381 16.8575H11.6805C11.9239 16.8575 12.153 16.7963 12.3534 16.6886Z" fill="url(#paint24_linear_28_248)"/>
<path d="M3.64228 12.2038C3.53859 12.2038 3.44112 12.1634 3.36779 12.09L2.64645 11.3687C2.54461 11.2668 2.54461 11.1017 2.64645 10.9998C2.7483 10.898 2.91343 10.898 3.01524 10.9998L3.64228 11.6269L5.28116 9.98798C5.38301 9.88617 5.54814 9.88617 5.64995 9.98798C5.7518 10.0899 5.7518 10.255 5.64995 10.3568L3.91669 12.0901C3.84343 12.1633 3.74596 12.2038 3.64228 12.2038Z" fill="url(#paint25_linear_28_248)"/>
<path d="M3.64228 12.2038C3.53859 12.2038 3.44112 12.1634 3.36779 12.09L2.64645 11.3687C2.54461 11.2668 2.54461 11.1017 2.64645 10.9998C2.7483 10.898 2.91343 10.898 3.01524 10.9998L3.64228 11.6269L5.28116 9.98798C5.38301 9.88617 5.54814 9.88617 5.64995 9.98798C5.7518 10.0899 5.7518 10.255 5.64995 10.3568L3.91669 12.0901C3.84343 12.1633 3.74596 12.2038 3.64228 12.2038Z" fill="url(#paint26_linear_28_248)"/>
<path d="M7.45781 9.49258C7.27185 9.49258 7.08593 9.42182 6.94438 9.2803L4.66121 6.99713C4.58133 6.91725 4.45185 6.91725 4.37198 6.99713L3.1476 8.22154C3.04575 8.32338 2.88062 8.32338 2.77878 8.22154C2.67693 8.11969 2.67693 7.95456 2.77878 7.85271L4.00319 6.6283C4.2863 6.34519 4.74695 6.34526 5.03003 6.6283L7.3132 8.91147C7.39307 8.99134 7.52256 8.99134 7.60243 8.91147L11.21 5.30392C11.3118 5.20208 11.477 5.20208 11.5788 5.30392C11.6806 5.40577 11.6806 5.5709 11.5788 5.67275L7.97125 9.2803C7.82966 9.42182 7.64374 9.49258 7.45781 9.49258Z" fill="url(#paint27_linear_28_248)"/>
<path d="M11.58 5.67275C11.6819 5.5709 11.6819 5.40577 11.58 5.30392C11.4782 5.20208 11.313 5.20208 11.2112 5.30392L7.60364 8.91147C7.52377 8.99134 7.39428 8.99134 7.31441 8.91147L6.55608 8.15314L6.18726 8.52196L6.94562 9.28033C7.08718 9.42185 7.2731 9.49261 7.45906 9.49261C7.64498 9.49261 7.83094 9.42185 7.9725 9.28033L11.58 5.67275Z" fill="url(#paint28_linear_28_248)"/>
<path d="M2.98254 8.5454C3.29057 8.5454 3.54028 8.2957 3.54028 7.98767C3.54028 7.67964 3.29057 7.42993 2.98254 7.42993C2.67451 7.42993 2.4248 7.67964 2.4248 7.98767C2.4248 8.2957 2.67451 8.5454 2.98254 8.5454Z" fill="url(#paint29_linear_28_248)"/>
<path d="M2.4248 7.98756C2.4248 8.29557 2.6745 8.5453 2.98254 8.5453C3.29055 8.5453 3.54028 8.29561 3.54028 7.98756C3.54028 7.92084 3.52852 7.85689 3.50704 7.79761H2.45805C2.43656 7.85689 2.4248 7.92087 2.4248 7.98756Z" fill="url(#paint30_linear_28_248)"/>
<path d="M2.58693 8.38196C2.80473 8.59977 3.15788 8.59977 3.37565 8.38196C3.59346 8.16415 3.59346 7.81101 3.37565 7.59324C3.32846 7.54605 3.27495 7.50916 3.21782 7.48242L2.47607 8.22417C2.50285 8.28126 2.53974 8.33478 2.58693 8.38196Z" fill="url(#paint31_linear_28_248)"/>
<path d="M11.3761 6.04174C11.6841 6.04174 11.9338 5.79203 11.9338 5.48401C11.9338 5.17598 11.6841 4.92627 11.3761 4.92627C11.0681 4.92627 10.8184 5.17598 10.8184 5.48401C10.8184 5.79203 11.0681 6.04174 11.3761 6.04174Z" fill="url(#paint32_linear_28_248)"/>
<path d="M10.8184 5.4839C10.8184 5.79191 11.0681 6.04164 11.3761 6.04164C11.6841 6.04164 11.9338 5.79194 11.9338 5.4839C11.9338 5.41718 11.9221 5.35323 11.9006 5.29395H10.8516C10.8301 5.35323 10.8184 5.41721 10.8184 5.4839Z" fill="url(#paint33_linear_28_248)"/>
<path d="M10.9812 5.8783C11.199 6.09611 11.5522 6.09611 11.7699 5.8783C11.9877 5.66049 11.9877 5.30735 11.7699 5.08958C11.7228 5.04239 11.6692 5.0055 11.6121 4.97876L10.8704 5.72051C10.8971 5.7776 10.934 5.83112 10.9812 5.8783Z" fill="url(#paint34_linear_28_248)"/>
<defs>
<linearGradient id="paint0_linear_28_248" x1="3.09519" y1="5.19992" x2="14.4008" y2="16.5055" gradientUnits="userSpaceOnUse">
<stop stop-color="#B3DAFE"/>
<stop offset="1" stop-color="#0182FC"/>
</linearGradient>
<linearGradient id="paint1_linear_28_248" x1="12.0672" y1="13.9286" x2="5.62241" y2="7.78123" gradientUnits="userSpaceOnUse">
<stop stop-color="#314DC9" stop-opacity="0"/>
<stop offset="0.2761" stop-color="#304BC4" stop-opacity="0.276"/>
<stop offset="0.5628" stop-color="#2B45B8" stop-opacity="0.563"/>
<stop offset="0.8535" stop-color="#243BA3" stop-opacity="0.854"/>
<stop offset="1" stop-color="#1F3596"/>
</linearGradient>
<linearGradient id="paint2_linear_28_248" x1="7.17939" y1="15.2738" x2="7.17939" y2="18.0096" gradientUnits="userSpaceOnUse">
<stop stop-color="#314DC9" stop-opacity="0"/>
<stop offset="0.2761" stop-color="#304BC4" stop-opacity="0.276"/>
<stop offset="0.5628" stop-color="#2B45B8" stop-opacity="0.563"/>
<stop offset="0.8535" stop-color="#243BA3" stop-opacity="0.854"/>
<stop offset="1" stop-color="#1F3596"/>
</linearGradient>
<linearGradient id="paint3_linear_28_248" x1="11.1893" y1="9.28415" x2="14.6543" y2="9.28415" gradientUnits="userSpaceOnUse">
<stop stop-color="#314DC9" stop-opacity="0"/>
<stop offset="0.2761" stop-color="#304BC4" stop-opacity="0.276"/>
<stop offset="0.5628" stop-color="#2B45B8" stop-opacity="0.563"/>
<stop offset="0.8535" stop-color="#243BA3" stop-opacity="0.854"/>
<stop offset="1" stop-color="#1F3596"/>
</linearGradient>
<linearGradient id="paint4_linear_28_248" x1="10.9711" y1="1.93445" x2="9.08663" y2="1.93445" gradientUnits="userSpaceOnUse">
<stop stop-color="#314DC9" stop-opacity="0"/>
<stop offset="0.2761" stop-color="#304BC4" stop-opacity="0.276"/>
<stop offset="0.5628" stop-color="#2B45B8" stop-opacity="0.563"/>
<stop offset="0.8535" stop-color="#243BA3" stop-opacity="0.854"/>
<stop offset="1" stop-color="#1F3596"/>
</linearGradient>
<linearGradient id="paint5_linear_28_248" x1="3.68393" y1="5.73386" x2="13.363" y2="15.4129" gradientUnits="userSpaceOnUse">
<stop stop-color="#F5FBFF"/>
<stop offset="1" stop-color="#DBD5EF"/>
</linearGradient>
<linearGradient id="paint6_linear_28_248" x1="7.18056" y1="14.532" x2="7.18056" y2="16.9535" gradientUnits="userSpaceOnUse">
<stop stop-color="#DBD5EF" stop-opacity="0"/>
<stop offset="0.2853" stop-color="#D9D2EE" stop-opacity="0.285"/>
<stop offset="0.4739" stop-color="#D4C9E9" stop-opacity="0.474"/>
<stop offset="0.6346" stop-color="#CBBAE2" stop-opacity="0.635"/>
<stop offset="0.7795" stop-color="#BFA5D7" stop-opacity="0.78"/>
<stop offset="0.9126" stop-color="#AF8ACA" stop-opacity="0.913"/>
<stop offset="1" stop-color="#A274BF"/>
</linearGradient>
<linearGradient id="paint7_linear_28_248" x1="10.5832" y1="9.23048" x2="13.3389" y2="9.23048" gradientUnits="userSpaceOnUse">
<stop stop-color="#DBD5EF" stop-opacity="0"/>
<stop offset="0.2853" stop-color="#D9D2EE" stop-opacity="0.285"/>
<stop offset="0.4739" stop-color="#D4C9E9" stop-opacity="0.474"/>
<stop offset="0.6346" stop-color="#CBBAE2" stop-opacity="0.635"/>
<stop offset="0.7795" stop-color="#BFA5D7" stop-opacity="0.78"/>
<stop offset="0.9126" stop-color="#AF8ACA" stop-opacity="0.913"/>
<stop offset="1" stop-color="#A274BF"/>
</linearGradient>
<linearGradient id="paint8_linear_28_248" x1="8.81288" y1="10.5537" x2="7.37518" y2="5.8688" gradientUnits="userSpaceOnUse">
<stop stop-color="#DBD5EF" stop-opacity="0"/>
<stop offset="0.2853" stop-color="#D9D2EE" stop-opacity="0.285"/>
<stop offset="0.4739" stop-color="#D4C9E9" stop-opacity="0.474"/>
<stop offset="0.6346" stop-color="#CBBAE2" stop-opacity="0.635"/>
<stop offset="0.7795" stop-color="#BFA5D7" stop-opacity="0.78"/>
<stop offset="0.9126" stop-color="#AF8ACA" stop-opacity="0.913"/>
<stop offset="1" stop-color="#A274BF"/>
</linearGradient>
<linearGradient id="paint9_linear_28_248" x1="7.18003" y1="3.06572" x2="7.18003" y2="2.26903" gradientUnits="userSpaceOnUse">
<stop stop-color="#DBD5EF" stop-opacity="0"/>
<stop offset="0.2853" stop-color="#D9D2EE" stop-opacity="0.285"/>
<stop offset="0.4739" stop-color="#D4C9E9" stop-opacity="0.474"/>
<stop offset="0.6346" stop-color="#CBBAE2" stop-opacity="0.635"/>
<stop offset="0.7795" stop-color="#BFA5D7" stop-opacity="0.78"/>
<stop offset="0.9126" stop-color="#AF8ACA" stop-opacity="0.913"/>
<stop offset="1" stop-color="#A274BF"/>
</linearGradient>
<linearGradient id="paint10_linear_28_248" x1="6.34725" y1="2.39702" x2="5.45481" y2="2.39702" gradientUnits="userSpaceOnUse">
<stop stop-color="#DBD5EF" stop-opacity="0"/>
<stop offset="0.2853" stop-color="#D9D2EE" stop-opacity="0.285"/>
<stop offset="0.4739" stop-color="#D4C9E9" stop-opacity="0.474"/>
<stop offset="0.6346" stop-color="#CBBAE2" stop-opacity="0.635"/>
<stop offset="0.7795" stop-color="#BFA5D7" stop-opacity="0.78"/>
<stop offset="0.9126" stop-color="#AF8ACA" stop-opacity="0.913"/>
<stop offset="1" stop-color="#A274BF"/>
</linearGradient>
<linearGradient id="paint11_linear_28_248" x1="10.5877" y1="5.35283" x2="8.53036" y2="1.88256" gradientUnits="userSpaceOnUse">
<stop stop-color="#DBD5EF" stop-opacity="0"/>
<stop offset="0.2853" stop-color="#D9D2EE" stop-opacity="0.285"/>
<stop offset="0.4739" stop-color="#D4C9E9" stop-opacity="0.474"/>
<stop offset="0.6346" stop-color="#CBBAE2" stop-opacity="0.635"/>
<stop offset="0.7795" stop-color="#BFA5D7" stop-opacity="0.78"/>
<stop offset="0.9126" stop-color="#AF8ACA" stop-opacity="0.913"/>
<stop offset="1" stop-color="#A274BF"/>
</linearGradient>
<linearGradient id="paint12_linear_28_248" x1="7.17932" y1="3.15664" x2="7.17932" y2="3.60279" gradientUnits="userSpaceOnUse">
<stop stop-color="#5A5A5A"/>
<stop offset="1" stop-color="#444444"/>
</linearGradient>
<linearGradient id="paint13_linear_28_248" x1="7.17932" y1="3.20619" x2="7.17932" y2="3.55321" gradientUnits="userSpaceOnUse">
<stop stop-color="#433F43" stop-opacity="0"/>
<stop offset="1" stop-color="#1A1A1A"/>
</linearGradient>
<linearGradient id="paint14_linear_28_248" x1="7.17932" y1="2.80134" x2="7.17932" y2="2.22295" gradientUnits="userSpaceOnUse">
<stop stop-color="#433F43" stop-opacity="0"/>
<stop offset="1" stop-color="#1A1A1A"/>
</linearGradient>
<linearGradient id="paint15_linear_28_248" x1="8.71991" y1="2.62446" x2="9.31482" y2="2.86407" gradientUnits="userSpaceOnUse">
<stop stop-color="#433F43" stop-opacity="0"/>
<stop offset="1" stop-color="#1A1A1A"/>
</linearGradient>
<linearGradient id="paint16_linear_28_248" x1="7.17879" y1="0.47075" x2="7.17879" y2="2.0774" gradientUnits="userSpaceOnUse">
<stop stop-color="#FEF0AE"/>
<stop offset="1" stop-color="#FAC600"/>
</linearGradient>
<linearGradient id="paint17_linear_28_248" x1="8.57125" y1="1.58108" x2="9.55111" y2="2.07609" gradientUnits="userSpaceOnUse">
<stop stop-color="#FE9738" stop-opacity="0"/>
<stop offset="1" stop-color="#FE9738"/>
</linearGradient>
<linearGradient id="paint18_linear_28_248" x1="7.17903" y1="1.3809" x2="7.17903" y2="2.38611" gradientUnits="userSpaceOnUse">
<stop stop-color="#FE9738" stop-opacity="0"/>
<stop offset="1" stop-color="#FE9738"/>
</linearGradient>
<linearGradient id="paint19_linear_28_248" x1="8.67001" y1="4.94072" x2="8.71959" y2="12.2531" gradientUnits="userSpaceOnUse">
<stop stop-color="#DBD5EF" stop-opacity="0"/>
<stop offset="0.2853" stop-color="#D9D2EE" stop-opacity="0.285"/>
<stop offset="0.4739" stop-color="#D4C9E9" stop-opacity="0.474"/>
<stop offset="0.6346" stop-color="#CBBAE2" stop-opacity="0.635"/>
<stop offset="0.7795" stop-color="#BFA5D7" stop-opacity="0.78"/>
<stop offset="0.9126" stop-color="#AF8ACA" stop-opacity="0.913"/>
<stop offset="1" stop-color="#A274BF"/>
</linearGradient>
<linearGradient id="paint20_linear_28_248" x1="8.67001" y1="6.47465" x2="8.71959" y2="13.787" gradientUnits="userSpaceOnUse">
<stop stop-color="#DBD5EF" stop-opacity="0"/>
<stop offset="0.2853" stop-color="#D9D2EE" stop-opacity="0.285"/>
<stop offset="0.4739" stop-color="#D4C9E9" stop-opacity="0.474"/>
<stop offset="0.6346" stop-color="#CBBAE2" stop-opacity="0.635"/>
<stop offset="0.7795" stop-color="#BFA5D7" stop-opacity="0.78"/>
<stop offset="0.9126" stop-color="#AF8ACA" stop-opacity="0.913"/>
<stop offset="1" stop-color="#A274BF"/>
</linearGradient>
<linearGradient id="paint21_linear_28_248" x1="8.67001" y1="8.00859" x2="8.71959" y2="15.3209" gradientUnits="userSpaceOnUse">
<stop stop-color="#DBD5EF" stop-opacity="0"/>
<stop offset="0.2853" stop-color="#D9D2EE" stop-opacity="0.285"/>
<stop offset="0.4739" stop-color="#D4C9E9" stop-opacity="0.474"/>
<stop offset="0.6346" stop-color="#CBBAE2" stop-opacity="0.635"/>
<stop offset="0.7795" stop-color="#BFA5D7" stop-opacity="0.78"/>
<stop offset="0.9126" stop-color="#AF8ACA" stop-opacity="0.913"/>
<stop offset="1" stop-color="#A274BF"/>
</linearGradient>
<linearGradient id="paint22_linear_28_248" x1="8.67001" y1="9.54231" x2="8.71959" y2="16.8547" gradientUnits="userSpaceOnUse">
<stop stop-color="#DBD5EF" stop-opacity="0"/>
<stop offset="0.2853" stop-color="#D9D2EE" stop-opacity="0.285"/>
<stop offset="0.4739" stop-color="#D4C9E9" stop-opacity="0.474"/>
<stop offset="0.6346" stop-color="#CBBAE2" stop-opacity="0.635"/>
<stop offset="0.7795" stop-color="#BFA5D7" stop-opacity="0.78"/>
<stop offset="0.9126" stop-color="#AF8ACA" stop-opacity="0.913"/>
<stop offset="1" stop-color="#A274BF"/>
</linearGradient>
<linearGradient id="paint23_linear_28_248" x1="0.0369256" y1="7.24367" x2="4.44912" y2="12.573" gradientUnits="userSpaceOnUse">
<stop stop-color="#DBD5EF" stop-opacity="0"/>
<stop offset="0.2853" stop-color="#D9D2EE" stop-opacity="0.285"/>
<stop offset="0.4739" stop-color="#D4C9E9" stop-opacity="0.474"/>
<stop offset="0.6346" stop-color="#CBBAE2" stop-opacity="0.635"/>
<stop offset="0.7795" stop-color="#BFA5D7" stop-opacity="0.78"/>
<stop offset="0.9126" stop-color="#AF8ACA" stop-opacity="0.913"/>
<stop offset="1" stop-color="#A274BF"/>
</linearGradient>
<linearGradient id="paint24_linear_28_248" x1="6.54487" y1="13.0722" x2="4.45245" y2="10.9798" gradientUnits="userSpaceOnUse">
<stop stop-color="#DBD5EF" stop-opacity="0"/>
<stop offset="0.2853" stop-color="#D9D2EE" stop-opacity="0.285"/>
<stop offset="0.4739" stop-color="#D4C9E9" stop-opacity="0.474"/>
<stop offset="0.6346" stop-color="#CBBAE2" stop-opacity="0.635"/>
<stop offset="0.7795" stop-color="#BFA5D7" stop-opacity="0.78"/>
<stop offset="0.9126" stop-color="#AF8ACA" stop-opacity="0.913"/>
<stop offset="1" stop-color="#A274BF"/>
</linearGradient>
<linearGradient id="paint25_linear_28_248" x1="4.09219" y1="10.3865" x2="4.38962" y2="11.9357" gradientUnits="userSpaceOnUse">
<stop stop-color="#BBEC6C"/>
<stop offset="0.2886" stop-color="#ABDC59"/>
<stop offset="0.866" stop-color="#82B32A"/>
<stop offset="1" stop-color="#78A91F"/>
</linearGradient>
<linearGradient id="paint26_linear_28_248" x1="4.44748" y1="10.9776" x2="4.74085" y2="11.2709" gradientUnits="userSpaceOnUse">
<stop stop-color="#334C0F" stop-opacity="0"/>
<stop offset="0.3197" stop-color="#344C12" stop-opacity="0.32"/>
<stop offset="0.5654" stop-color="#374A1C" stop-opacity="0.565"/>
<stop offset="0.7856" stop-color="#3C482C" stop-opacity="0.786"/>
<stop offset="0.9909" stop-color="#444443" stop-opacity="0.991"/>
<stop offset="1" stop-color="#444444"/>
</linearGradient>
<linearGradient id="paint27_linear_28_248" x1="6.75918" y1="5.39902" x2="8.04813" y2="9.58816" gradientUnits="userSpaceOnUse">
<stop stop-color="#FFA1AE"/>
<stop offset="1" stop-color="#FF4565"/>
</linearGradient>
<linearGradient id="paint28_linear_28_248" x1="9.21165" y1="7.24094" x2="9.56754" y2="7.59683" gradientUnits="userSpaceOnUse">
<stop stop-color="#FE0364" stop-opacity="0"/>
<stop offset="0.2343" stop-color="#F90362" stop-opacity="0.234"/>
<stop offset="0.5173" stop-color="#EA035B" stop-opacity="0.517"/>
<stop offset="0.8243" stop-color="#D20250" stop-opacity="0.824"/>
<stop offset="1" stop-color="#C00148"/>
</linearGradient>
<linearGradient id="paint29_linear_28_248" x1="2.68222" y1="7.68735" x2="3.14802" y2="8.15315" gradientUnits="userSpaceOnUse">
<stop stop-color="#FEF0AE"/>
<stop offset="1" stop-color="#FAC600"/>
</linearGradient>
<linearGradient id="paint30_linear_28_248" x1="2.98254" y1="7.95881" x2="2.98254" y2="8.56693" gradientUnits="userSpaceOnUse">
<stop stop-color="#FE9738" stop-opacity="0"/>
<stop offset="1" stop-color="#FE9738"/>
</linearGradient>
<linearGradient id="paint31_linear_28_248" x1="2.94511" y1="7.95636" x2="3.43087" y2="8.37539" gradientUnits="userSpaceOnUse">
<stop stop-color="#FE9738" stop-opacity="0"/>
<stop offset="1" stop-color="#FE9738"/>
</linearGradient>
<linearGradient id="paint32_linear_28_248" x1="11.0758" y1="5.18368" x2="11.5416" y2="5.64948" gradientUnits="userSpaceOnUse">
<stop stop-color="#FEF0AE"/>
<stop offset="1" stop-color="#FAC600"/>
</linearGradient>
<linearGradient id="paint33_linear_28_248" x1="11.3761" y1="5.45515" x2="11.3761" y2="6.06327" gradientUnits="userSpaceOnUse">
<stop stop-color="#FE9738" stop-opacity="0"/>
<stop offset="1" stop-color="#FE9738"/>
</linearGradient>
<linearGradient id="paint34_linear_28_248" x1="11.3394" y1="5.4527" x2="11.8252" y2="5.87173" gradientUnits="userSpaceOnUse">
<stop stop-color="#FE9738" stop-opacity="0"/>
<stop offset="1" stop-color="#FE9738"/>
</linearGradient>
</defs>
</svg>
