<svg width="19" height="19" viewBox="0 0 19 19" fill="none" xmlns="http://www.w3.org/2000/svg">
<path d="M9.50009 15.4694C13.7718 15.4694 17.2348 12.0065 17.2348 7.73471C17.2348 3.46295 13.7718 0 9.50009 0C5.22833 0 1.76538 3.46295 1.76538 7.73471C1.76538 12.0065 5.22833 15.4694 9.50009 15.4694Z" fill="#FF4F6B"/>
<path d="M15.6723 11.0876H3.32769C3.08049 11.0873 2.84173 11.1776 2.65649 11.3413C3.95287 13.7961 6.53082 15.4694 9.50002 15.4694C12.4692 15.4694 15.0472 13.7961 16.3435 11.3413C16.1583 11.1776 15.9195 11.0874 15.6723 11.0876Z" fill="#FB2B3A"/>
<path d="M9.5002 14.3227C13.1386 14.3227 16.088 11.3732 16.088 7.73481C16.088 4.09645 13.1386 1.14697 9.5002 1.14697C5.86183 1.14697 2.91235 4.09645 2.91235 7.73481C2.91235 11.3732 5.86183 14.3227 9.5002 14.3227Z" fill="white"/>
<path d="M3.83154 11.0876C4.98045 13.0226 7.09116 14.3225 9.50011 14.3225C11.9091 14.3225 14.0198 13.0226 15.1687 11.0876H3.83154Z" fill="#F9F7F8"/>
<path d="M15.6724 19.0001H3.32771C2.76662 19.0001 2.31177 18.5452 2.31177 17.9841V13.2506C2.31177 12.6895 2.76662 12.2346 3.32771 12.2346H15.6724C16.2335 12.2346 16.6883 12.6895 16.6883 13.2506V17.9841C16.6884 18.5452 16.2335 19.0001 15.6724 19.0001Z" fill="#FF4F6B"/>
<path d="M15.6725 12.2346H14.5256C15.0867 12.2346 15.5416 12.6895 15.5416 13.2506V17.9841C15.5416 18.5452 15.0867 19.0001 14.5256 19.0001H15.6725C16.2336 19.0001 16.6884 18.5452 16.6884 17.9841V13.2506C16.6885 12.6895 16.2336 12.2346 15.6725 12.2346Z" fill="#FB2B3A"/>
<path d="M5.69546 17.2785H5.69383C5.37112 17.2803 4.90703 17.2821 4.61565 17.2818V13.6661C4.61566 13.6284 4.60824 13.5911 4.59384 13.5563C4.57943 13.5216 4.55831 13.4899 4.53169 13.4633C4.50506 13.4367 4.47345 13.4156 4.43867 13.4012C4.40388 13.3868 4.3666 13.3794 4.32894 13.3794C4.29129 13.3794 4.25401 13.3868 4.21922 13.4012C4.18443 13.4156 4.15282 13.4367 4.1262 13.4633C4.09958 13.4899 4.07846 13.5216 4.06405 13.5563C4.04964 13.5911 4.04223 13.6284 4.04224 13.6661V17.5652C4.04223 17.6329 4.06614 17.6983 4.10974 17.7501C4.15335 17.8018 4.21384 17.8364 4.28052 17.8478C4.30089 17.8513 4.32449 17.8554 4.74765 17.8554C4.9539 17.8554 5.25516 17.8544 5.69713 17.8519C5.77317 17.8517 5.846 17.8213 5.89962 17.7674C5.95323 17.7134 5.98322 17.6404 5.983 17.5644C5.98278 17.4883 5.95236 17.4155 5.89844 17.3619C5.84451 17.3083 5.7715 17.2783 5.69546 17.2785ZM7.21936 13.3793C7.1817 13.3793 7.14442 13.3867 7.10963 13.4011C7.07484 13.4155 7.04324 13.4367 7.01661 13.4633C6.98999 13.4899 6.96887 13.5215 6.95446 13.5563C6.94006 13.5911 6.93264 13.6284 6.93265 13.666V17.5685C6.93264 17.6061 6.94006 17.6434 6.95446 17.6782C6.96887 17.713 6.98999 17.7446 7.01661 17.7712C7.04324 17.7979 7.07484 17.819 7.10963 17.8334C7.14442 17.8478 7.1817 17.8552 7.21936 17.8552C7.25701 17.8552 7.29429 17.8478 7.32908 17.8334C7.36387 17.819 7.39547 17.7979 7.4221 17.7712C7.44872 17.7446 7.46984 17.713 7.48425 17.6782C7.49865 17.6434 7.50607 17.6061 7.50606 17.5685V13.6661C7.50607 13.6284 7.49866 13.5911 7.48426 13.5563C7.46985 13.5215 7.44874 13.4899 7.42211 13.4633C7.39549 13.4367 7.36388 13.4155 7.32909 13.4011C7.2943 13.3867 7.25701 13.3793 7.21936 13.3793ZM14.6714 17.264H13.3287V15.904H14.5512C14.6273 15.904 14.7002 15.8738 14.754 15.82C14.8077 15.7662 14.8379 15.6933 14.8379 15.6173C14.8379 15.5412 14.8077 15.4683 14.754 15.4145C14.7002 15.3608 14.6273 15.3306 14.5512 15.3306H13.3287V13.9706H14.6714C14.7474 13.9706 14.8203 13.9404 14.8741 13.8866C14.9279 13.8328 14.9581 13.7599 14.9581 13.6839C14.9581 13.6078 14.9279 13.5349 14.8741 13.4811C14.8203 13.4274 14.7474 13.3972 14.6714 13.3972H13.042C13.0044 13.3972 12.9671 13.4046 12.9323 13.419C12.8975 13.4334 12.8659 13.4545 12.8393 13.4811C12.8127 13.5078 12.7916 13.5394 12.7771 13.5742C12.7627 13.6089 12.7553 13.6462 12.7553 13.6839V17.5507C12.7553 17.5884 12.7627 17.6256 12.7771 17.6604C12.7916 17.6952 12.8127 17.7268 12.8393 17.7535C12.8659 17.7801 12.8975 17.8012 12.9323 17.8156C12.9671 17.83 13.0044 17.8374 13.042 17.8374H14.6714C14.8297 17.8374 14.9581 17.7091 14.9581 17.5507C14.9581 17.3924 14.8297 17.264 14.6714 17.264ZM11.6085 13.4011C11.5363 13.3772 11.4576 13.3829 11.3896 13.4169C11.3217 13.451 11.27 13.5107 11.246 13.5828L10.1564 16.8628L9.01411 13.572C8.96223 13.4224 8.79877 13.343 8.64925 13.3952C8.61368 13.4075 8.58089 13.4267 8.55275 13.4518C8.52462 13.4768 8.50168 13.5071 8.48526 13.541C8.46883 13.5748 8.45924 13.6116 8.45704 13.6492C8.45483 13.6868 8.46005 13.7245 8.47239 13.76L9.80733 17.6059C9.83328 17.6788 9.88116 17.7419 9.94439 17.7865C10.0076 17.8312 10.0831 17.8552 10.1605 17.8552H10.163C10.3224 17.8541 10.464 17.752 10.516 17.5992L11.7902 13.7636C11.802 13.7279 11.8068 13.6901 11.8041 13.6526C11.8014 13.615 11.7913 13.5784 11.7744 13.5447C11.7576 13.5111 11.7342 13.4811 11.7057 13.4564C11.6773 13.4318 11.6442 13.413 11.6085 13.4011Z" fill="white"/>
<path d="M8.04224 9.89226V5.57711C8.04224 5.14007 8.53954 4.88899 8.89119 5.14846L11.8154 7.30603C12.1039 7.51893 12.1039 7.9504 11.8154 8.16333L8.89119 10.3209C8.53954 10.5804 8.04224 10.3293 8.04224 9.89226Z" fill="#FF4F6B"/>
<path d="M11.8156 7.30603L8.89137 5.14845C8.59309 4.92836 8.19023 5.07564 8.07471 5.39208C9.65174 6.55568 9.65174 8.91364 8.07471 10.0772C8.19023 10.3936 8.59312 10.5409 8.89137 10.3208L11.8156 8.16326C12.1041 7.9504 12.1041 7.51896 11.8156 7.30603Z" fill="#FB2B3A"/>
</svg>
