<svg width="17" height="20" viewBox="0 0 17 20" fill="none" xmlns="http://www.w3.org/2000/svg">
<path fill-rule="evenodd" clip-rule="evenodd" d="M8.36351 15.9918V16.9398C8.36351 17.7 7.98464 18.3562 7.32629 18.7363C7.00954 18.9191 6.65601 19.0212 6.28948 19.0213C5.92261 19.0215 5.56919 18.9193 5.25222 18.7363L1.03722 16.3027C0.378792 15.9226 0 15.2665 0 14.5062V2.07444C0 0.930521 0.930558 0 2.07444 0H11.3574C12.5013 0 13.432 0.930447 13.432 2.07444V4.69503C13.432 5.07096 13.1267 5.37619 12.7508 5.37619C12.3748 5.37619 12.0698 5.071 12.0698 4.69503V2.07444C12.0698 1.68164 11.7502 1.36203 11.3574 1.36203H3.22311L7.32629 3.73141C7.98442 4.11146 8.36351 4.76755 8.36351 5.52755V14.6297H11.3574C11.7502 14.6297 12.0698 14.3102 12.0698 13.9174V11.6201C12.0698 11.2439 12.3746 10.939 12.7508 10.939C13.1269 10.939 13.432 11.244 13.432 11.6201V13.9174C13.432 15.0614 12.5013 15.9918 11.3574 15.9918H8.36351ZM14.6748 8.67691L13.9247 9.42703C13.6587 9.69299 13.6588 10.1242 13.9247 10.3902C14.0527 10.5183 14.2253 10.5894 14.4063 10.5894C14.5875 10.5894 14.7599 10.5184 14.8881 10.3902L16.8006 8.47734C17.0665 8.21141 17.0665 7.78046 16.8006 7.51453L14.8881 5.602C14.6221 5.336 14.1909 5.33611 13.9247 5.60196C13.6589 5.86767 13.6589 6.29903 13.9247 6.5648L14.6748 7.31473H9.64978C9.27348 7.31473 8.96877 7.61967 8.96877 7.99593C8.96877 8.3722 9.27352 8.67695 9.64978 8.67695H14.6748V8.67691Z" fill="#FF7D7D"/>
</svg>
