<svg width="18" height="18" viewBox="0 0 18 18" fill="none" xmlns="http://www.w3.org/2000/svg">
<path d="M17.9997 8.99984C17.9997 6.51447 16.9922 4.26451 15.3639 2.63579C13.7356 1.00707 11.4852 0 8.99984 0C6.51447 0 4.26451 1.00748 2.63579 2.63579C1.00707 4.26451 0 6.51447 0 8.99984C0 11.4852 1.00748 13.7352 2.63579 15.3639C4.26451 16.9926 6.51447 17.9997 8.99984 17.9997C11.4852 17.9997 13.7352 16.9922 15.3639 15.3639C16.9922 13.7352 17.9997 11.4852 17.9997 8.99984Z" fill="#E6E6E6"/>
<path d="M12.5754 5.42441C13.4903 6.3394 14.0562 7.60354 14.0562 8.99977C14.0562 10.396 13.4903 11.6601 12.5754 12.5751C11.6604 13.4901 10.3962 14.0559 9.00001 14.0559C7.60378 14.0559 6.33964 13.4901 5.42466 12.5751C4.50967 11.6601 3.94385 10.396 3.94385 8.99977C3.94385 7.60354 4.50967 6.3394 5.42466 5.42441C6.33964 4.50943 7.60378 3.9436 9.00001 3.9436C10.3962 3.9436 11.6604 4.50943 12.5754 5.42441Z" fill="#F16462"/>
<path d="M9.24418 9.0259C9.24418 8.8909 9.13502 8.78174 9.00002 8.78174C8.86502 8.78174 8.75586 8.8909 8.75586 9.0259V11.7004C8.75586 11.8354 8.86502 11.9446 9.00002 11.9446C9.13502 11.9446 9.24418 11.8354 9.24418 11.7004V9.0259Z" fill="#E6E6E6"/>
<path d="M8.18752 11.4568C8.05252 11.4568 7.94336 11.566 7.94336 11.701C7.94336 11.8359 8.05252 11.9451 8.18752 11.9451H9.81166C9.94666 11.9451 10.0558 11.8359 10.0558 11.701C10.0558 11.566 9.94666 11.4568 9.81166 11.4568H8.18752Z" fill="#E6E6E6"/>
<path d="M4.61282 1.13989C3.88575 1.54655 3.22118 2.05113 2.63619 2.6357C2.05161 3.22027 1.54704 3.88485 1.14038 4.6115C1.58954 4.76775 2.07078 4.80316 2.53452 4.71775C3.06035 4.62067 3.56242 4.36984 3.96742 3.96484C4.37241 3.55985 4.62324 3.05819 4.7199 2.53237C4.8049 2.06946 4.76948 1.58822 4.61282 1.13989Z" fill="#F16462"/>
<path d="M0.339577 6.54272C0.118331 7.32354 0 8.1477 0 8.99977C0 9.851 0.118331 10.6747 0.339161 11.4556C0.76707 11.2489 1.13248 10.9339 1.39998 10.546C1.70372 10.1056 1.88122 9.57267 1.88122 8.99977C1.88122 8.42644 1.7033 7.89312 1.39998 7.45271C1.1329 7.0648 0.767487 6.74939 0.339577 6.54272Z" fill="#F16462"/>
<path d="M1.14038 13.3872C1.54704 14.1143 2.05162 14.7793 2.6366 15.3639C3.22118 15.9484 3.88617 16.453 4.61282 16.8597C4.76949 16.4105 4.80532 15.9293 4.7199 15.4655C4.62324 14.9401 4.37241 14.4385 3.96742 14.0335C3.56242 13.6285 3.06076 13.3777 2.53536 13.2806C2.07161 13.1956 1.58954 13.231 1.14038 13.3872Z" fill="#F16462"/>
<path d="M6.54297 17.6602C7.32379 17.8815 8.14794 17.9998 9.00001 17.9998C9.85166 17.9998 10.6754 17.8815 11.4562 17.6606C11.2496 17.2327 10.9346 16.8673 10.5466 16.5998C10.1062 16.2961 9.57333 16.1182 9.00043 16.1182C8.4271 16.1182 7.89461 16.2957 7.4542 16.5994C7.06588 16.8669 6.75005 17.2323 6.54297 17.6602Z" fill="#F16462"/>
<path d="M13.388 16.8592C14.1147 16.4526 14.7792 15.948 15.3638 15.3639C15.9488 14.7789 16.4534 14.1143 16.86 13.3872C16.4109 13.2314 15.9292 13.196 15.4659 13.2814C14.9405 13.3785 14.4384 13.6293 14.0338 14.0339C13.6288 14.4389 13.378 14.9405 13.2814 15.4659C13.1959 15.9288 13.2314 16.4101 13.388 16.8592Z" fill="#F16462"/>
<path d="M18.0001 8.99977C18.0001 8.14811 17.8818 7.32354 17.6605 6.54272C17.233 6.7498 16.8672 7.06522 16.5997 7.45354C16.2964 7.89395 16.1189 8.42644 16.1189 8.99977C16.1189 9.57226 16.2964 10.1047 16.6001 10.5447C16.8681 10.9331 17.2335 11.2485 17.661 11.4556C17.8818 10.6752 18.0001 9.851 18.0001 8.99977Z" fill="#F16462"/>
<path d="M16.8601 4.61216C16.4534 3.88509 15.9488 3.22052 15.3643 2.63594C14.7797 2.05137 14.1151 1.5468 13.3885 1.14014C13.2322 1.58846 13.1968 2.06929 13.2818 2.53261C13.3785 3.05802 13.6293 3.56009 14.0343 3.96509C14.4393 4.37008 14.9414 4.62133 15.4672 4.71841C15.9301 4.80382 16.4113 4.76841 16.8601 4.61216Z" fill="#F16462"/>
<path d="M11.4557 0.339161C10.6749 0.118331 9.85114 0 8.99949 0C8.14826 0 7.3241 0.118331 6.5437 0.339161C6.75036 0.76707 7.06578 1.13248 7.45369 1.39956C7.89409 1.70289 8.427 1.8808 9.00032 1.8808C9.57323 1.8808 10.1061 1.70289 10.5465 1.39956C10.934 1.13206 11.249 0.76707 11.4557 0.339161Z" fill="#F16462"/>
<path d="M9.14633 9.96989C9.09258 9.91614 9.04341 9.85781 8.99967 9.79573C8.9555 9.85781 8.90675 9.91614 8.853 9.96989C8.61134 10.2116 8.27801 10.3607 7.90927 10.3607C7.54094 10.3607 7.2072 10.2111 6.96553 9.96989C6.72387 9.72823 6.57471 9.3949 6.57471 9.02616C6.57471 8.65783 6.72429 8.32409 6.96553 8.08243C7.16136 7.8866 7.41761 7.75118 7.70427 7.70702C7.67885 7.60327 7.6651 7.4966 7.6651 7.38827C7.6651 7.01994 7.81469 6.6862 8.05593 6.44454C8.29759 6.20288 8.63092 6.05371 8.99967 6.05371C9.36799 6.05371 9.70174 6.20329 9.9434 6.44454C10.1851 6.6862 10.3342 7.01953 10.3342 7.38827C10.3342 7.4966 10.3205 7.60327 10.2951 7.70702C10.5813 7.75118 10.838 7.8866 11.0338 8.08243C11.2755 8.32409 11.4246 8.65742 11.4246 9.02616C11.4246 9.39449 11.275 9.72823 11.0338 9.96989C10.7921 10.2116 10.4588 10.3607 10.0901 10.3607C9.72174 10.3607 9.38799 10.2116 9.14633 9.96989Z" fill="#E6E6E6"/>
</svg>
