<svg width="17" height="17" viewBox="0 0 17 17" fill="none" xmlns="http://www.w3.org/2000/svg">
<g clip-path="url(#clip0_28_98)">
<path d="M13.6348 5.5518C15.1679 5.5518 16.4107 4.30899 16.4107 2.7759C16.4107 1.24281 15.1679 0 13.6348 0C12.1017 0 10.8589 1.24281 10.8589 2.7759C10.8589 4.30899 12.1017 5.5518 13.6348 5.5518Z" fill="#FCD249"/>
<path d="M12.05 3.69073C11.3641 2.5028 11.6567 1.01919 12.6768 0.170898C12.5304 0.224921 12.3865 0.291262 12.2467 0.371914C10.9191 1.13842 10.4642 2.83607 11.2307 4.16375C11.9973 5.49137 13.6949 5.9463 15.0225 5.17975C15.1623 5.09907 15.2917 5.00756 15.4117 4.90782C14.167 5.36706 12.7358 4.87866 12.05 3.69073Z" fill="#F9B938"/>
<path d="M13.6349 4.60543C14.6454 4.60543 15.4646 3.78625 15.4646 2.77574C15.4646 1.76523 14.6454 0.946045 13.6349 0.946045C12.6244 0.946045 11.8052 1.76523 11.8052 2.77574C11.8052 3.78625 12.6244 4.60543 13.6349 4.60543Z" fill="#F9B938"/>
<path d="M12.7905 3.26334C12.3588 2.51572 12.5151 1.59043 13.1153 1.02148C12.98 1.06163 12.8472 1.11768 12.7197 1.19132C11.8444 1.69662 11.5446 2.81572 12.0499 3.6909C12.5552 4.56612 13.6743 4.86595 14.5495 4.36066C14.6771 4.28701 14.792 4.19998 14.8944 4.10293C14.1016 4.33828 13.2221 4.01099 12.7905 3.26334Z" fill="#E59C1C"/>
<path d="M10.9729 5.5518C12.506 5.5518 13.7488 4.30899 13.7488 2.7759C13.7488 1.24281 12.506 0 10.9729 0C9.43984 0 8.19702 1.24281 8.19702 2.7759C8.19702 4.30899 9.43984 5.5518 10.9729 5.5518Z" fill="#FCD249"/>
<path d="M9.38836 3.69073C8.7025 2.5028 8.99513 1.01919 10.0152 0.170898C9.86878 0.224921 9.72485 0.291262 9.58512 0.371914C8.2575 1.13842 7.80261 2.83607 8.56912 4.16375C9.33563 5.49137 11.0333 5.9463 12.3609 5.17975C12.5006 5.09907 12.6301 5.00756 12.7501 4.90782C11.5054 5.36706 10.0742 4.87866 9.38836 3.69073Z" fill="#F9B938"/>
<path d="M10.973 4.60543C11.9835 4.60543 12.8027 3.78625 12.8027 2.77574C12.8027 1.76523 11.9835 0.946045 10.973 0.946045C9.96249 0.946045 9.14331 1.76523 9.14331 2.77574C9.14331 3.78625 9.96249 4.60543 10.973 4.60543Z" fill="#F9B938"/>
<path d="M10.1289 3.26334C9.69721 2.51572 9.85354 1.59043 10.4537 1.02148C10.3184 1.06163 10.1856 1.11768 10.058 1.19132C9.18282 1.69662 8.88299 2.81572 9.38829 3.6909C9.89358 4.56609 11.0127 4.86595 11.8879 4.36066C12.0154 4.28701 12.1304 4.19998 12.2328 4.10293C11.44 4.33828 10.5605 4.01099 10.1289 3.26334Z" fill="#E59C1C"/>
<path d="M11.2054 4.6521L6.73378 0.14628C6.54037 -0.0471323 6.22383 -0.0471323 6.03042 0.14628L1.55884 4.6521H11.2054Z" fill="#91CE91"/>
<path d="M6.73378 0.14628C6.54037 -0.0471323 6.22384 -0.0471323 6.03042 0.14628L1.55884 4.6521H2.89283L7.04911 0.464007L6.73378 0.14628Z" fill="#5EAA5E"/>
<path d="M6.03042 1.48395L2.89648 4.65212H9.86772L6.73378 1.48395C6.54033 1.29051 6.22384 1.29051 6.03042 1.48395Z" fill="#5EAA5E"/>
<path d="M6.73378 1.48393C6.54037 1.29051 6.22383 1.29051 6.03042 1.48393L2.89648 4.6521H3.78581L6.82678 1.57793L6.73378 1.48393Z" fill="#4D964D"/>
<path d="M16.9993 13.0733V15.4504C16.9993 16.3049 16.3041 17 15.4497 17H1.55008C0.695609 17 0.000488281 16.3049 0.000488281 15.4504V6.16747C0.000488281 5.31304 0.695609 4.61792 1.55008 4.61792H15.4497C16.3042 4.61792 16.9993 5.31304 16.9993 6.16747V8.53547" fill="#DD9A5E"/>
<path d="M0.958218 15.4504V6.16747C0.958218 5.31304 1.65334 4.61792 2.5078 4.61792H1.55007C0.695609 4.61792 0.000488281 5.31304 0.000488281 6.16747V15.4504C0.000488281 16.3049 0.695609 17 1.55007 17H2.5078C1.65334 17 0.958218 16.3049 0.958218 15.4504Z" fill="#D38D54"/>
<path d="M16.9992 8.61987H13.0461C11.842 8.61987 10.8569 9.60496 10.8569 10.809C10.8569 12.013 11.842 12.9981 13.0461 12.9981H16.9992V8.61987Z" fill="#D38D54"/>
<path d="M10.9089 10.3386C10.8754 10.4903 10.8572 10.6475 10.8572 10.8089C10.8572 12.0129 11.8423 12.9979 13.0463 12.9979H16.9994V12.0575H13.0463C12.0036 12.0575 11.1257 11.3186 10.9089 10.3386Z" fill="#C17B48"/>
<path d="M13.1064 12.03C13.7865 12.03 14.3379 11.4787 14.3379 10.7986C14.3379 10.1185 13.7865 9.56714 13.1064 9.56714C12.4263 9.56714 11.875 10.1185 11.875 10.7986C11.875 11.4787 12.4263 12.03 13.1064 12.03Z" fill="#DADADA"/>
<path d="M13.8542 11.3725C13.1973 11.1965 12.8075 10.5213 12.9834 9.86442C13.012 9.75791 13.0538 9.65856 13.1064 9.56738C12.5624 9.56708 12.0645 9.92974 11.917 10.4801C11.741 11.137 12.1308 11.8122 12.7878 11.9882C13.3381 12.1357 13.9012 11.8858 14.1729 11.4146C14.0676 11.4145 13.9607 11.401 13.8542 11.3725Z" fill="#C0C0C0"/>
<path d="M1.25343 16.0448C1.26296 15.9034 1.38515 15.7971 1.52663 15.8061C1.53327 15.8066 1.54001 15.8068 1.54672 15.8069C1.6884 15.8085 1.80189 15.9247 1.80026 16.0664C1.79615 16.4227 1.23012 16.3905 1.25343 16.0448ZM15.1778 16.3199H15.1434C15.0017 16.3199 14.8868 16.2051 14.8868 16.0634C14.8868 15.9217 15.0017 15.8069 15.1434 15.8069H15.1778C15.3195 15.8069 15.4343 15.9217 15.4343 16.0634C15.4343 16.2051 15.3195 16.3199 15.1778 16.3199ZM13.9383 16.3199H13.9039C13.7622 16.3199 13.6473 16.2051 13.6473 16.0634C13.6473 15.9217 13.7622 15.8069 13.9039 15.8069H13.9383C14.08 15.8069 14.1948 15.9217 14.1948 16.0634C14.1948 16.2051 14.08 16.3199 13.9383 16.3199ZM12.6989 16.3199H12.6645C12.5228 16.3199 12.4079 16.2051 12.4079 16.0634C12.4079 15.9217 12.5228 15.8069 12.6645 15.8069H12.6989C12.8406 15.8069 12.9554 15.9217 12.9554 16.0634C12.9554 16.2051 12.8406 16.3199 12.6989 16.3199ZM11.4594 16.3199H11.425C11.2833 16.3199 11.1684 16.2051 11.1684 16.0634C11.1684 15.9217 11.2833 15.8069 11.425 15.8069H11.4594C11.6011 15.8069 11.7159 15.9217 11.7159 16.0634C11.7159 16.2051 11.6011 16.3199 11.4594 16.3199ZM10.22 16.3199H10.1855C10.0439 16.3199 9.92901 16.2051 9.92901 16.0634C9.92901 15.9217 10.0439 15.8069 10.1855 15.8069H10.22C10.3617 15.8069 10.4765 15.9217 10.4765 16.0634C10.4765 16.2051 10.3616 16.3199 10.22 16.3199ZM8.98051 16.3199H8.94608C8.8044 16.3199 8.68955 16.2051 8.68955 16.0634C8.68955 15.9217 8.8044 15.8069 8.94608 15.8069H8.98051C9.1222 15.8069 9.23705 15.9217 9.23705 16.0634C9.23701 16.2051 9.1222 16.3199 8.98051 16.3199ZM7.74105 16.3199H7.70662C7.56494 16.3199 7.45009 16.2051 7.45009 16.0634C7.45009 15.9217 7.56497 15.8069 7.70662 15.8069H7.74105C7.88273 15.8069 7.99758 15.9217 7.99758 16.0634C7.99758 16.2051 7.88273 16.3199 7.74105 16.3199ZM6.50159 16.3199H6.46715C6.32547 16.3199 6.21062 16.2051 6.21062 16.0634C6.21062 15.9217 6.32547 15.8069 6.46715 15.8069H6.50159C6.64327 15.8069 6.75812 15.9217 6.75812 16.0634C6.75812 16.2051 6.64327 16.3199 6.50159 16.3199ZM5.26212 16.3199H5.22769C5.08601 16.3199 4.97116 16.2051 4.97116 16.0634C4.97116 15.7213 5.51862 15.7202 5.51862 16.0634C5.51865 16.2051 5.4038 16.3199 5.26212 16.3199ZM4.02269 16.3199H3.98826C3.84658 16.3199 3.73173 16.2051 3.73173 16.0634C3.73173 15.7213 4.27922 15.7202 4.27922 16.0634C4.27922 16.2051 4.16434 16.3199 4.02269 16.3199ZM2.78319 16.3199H2.74876C2.60708 16.3199 2.49223 16.2051 2.49223 16.0634C2.49223 15.9217 2.60708 15.8069 2.74876 15.8069H2.78319C2.92487 15.8069 3.03973 15.9217 3.03973 16.0634C3.03973 16.2051 2.92491 16.3199 2.78319 16.3199ZM16.0625 15.7371C16.0583 15.7371 16.0541 15.737 16.0499 15.7368C15.9084 15.7299 15.7992 15.6097 15.8061 15.4682C15.8063 15.4622 15.8065 15.4563 15.8065 15.4503V15.4461C15.8065 15.3044 15.9213 15.1896 16.063 15.1896C16.2047 15.1896 16.3195 15.3045 16.3195 15.4461V15.4503C16.3195 15.4646 16.3192 15.4788 16.3185 15.493C16.3119 15.6302 16.1985 15.7371 16.0625 15.7371ZM0.937196 15.424C0.795516 15.424 0.680664 15.3091 0.680664 15.1675V15.1331C0.680664 14.9913 0.795516 14.8765 0.937196 14.8765C1.07888 14.8765 1.19373 14.9914 1.19373 15.1331V15.1675C1.19376 15.3092 1.07891 15.424 0.937196 15.424ZM16.063 14.4977C15.9213 14.4977 15.8065 14.3828 15.8065 14.2411V14.2067C15.8065 14.065 15.9213 13.9502 16.063 13.9502C16.2047 13.9502 16.3195 14.065 16.3195 14.2067V14.2411C16.3195 14.3828 16.2047 14.4977 16.063 14.4977ZM0.937196 14.1846C0.795516 14.1846 0.680664 14.0697 0.680664 13.928V13.8936C0.680664 13.7519 0.795516 13.6371 0.937196 13.6371C1.07888 13.6371 1.19373 13.7519 1.19373 13.8936V13.928C1.19376 14.0697 1.07891 14.1846 0.937196 14.1846ZM0.937196 12.9451C0.795516 12.9451 0.680664 12.8302 0.680664 12.6885V12.6541C0.680664 12.5124 0.795516 12.3976 0.937196 12.3976C1.07888 12.3976 1.19373 12.5125 1.19373 12.6541V12.6885C1.19376 12.8302 1.07891 12.9451 0.937196 12.9451ZM0.937196 11.7056C0.795516 11.7056 0.680664 11.5908 0.680664 11.4491V11.4147C0.680664 11.273 0.795516 11.1582 0.937196 11.1582C1.28006 11.1581 1.27966 11.7056 0.937196 11.7056ZM0.937196 10.4662C0.795516 10.4662 0.680664 10.3514 0.680664 10.2097V10.1752C0.680664 10.0335 0.795516 9.91871 0.937196 9.91871C1.07888 9.91871 1.19373 10.0336 1.19373 10.1752V10.2097C1.19376 10.3514 1.07891 10.4662 0.937196 10.4662ZM0.937196 9.22671C0.795516 9.22671 0.680664 9.11185 0.680664 8.97017V8.93574C0.680664 8.79403 0.795516 8.67921 0.937196 8.67921C1.07888 8.67921 1.19373 8.79406 1.19373 8.93574V8.97017C1.19376 9.11189 1.07891 9.22671 0.937196 9.22671ZM0.937196 7.98728C0.795516 7.98728 0.680664 7.87242 0.680664 7.73074V7.69631C0.680664 7.5546 0.795516 7.43978 0.937196 7.43978C1.07888 7.43978 1.19373 7.55463 1.19373 7.69631V7.73074C1.19376 7.87242 1.07891 7.98728 0.937196 7.98728ZM16.063 7.66102C15.9213 7.66102 15.8065 7.54616 15.8065 7.40448V7.37005C15.8065 7.22834 15.9213 7.11352 16.063 7.11352C16.2047 7.11352 16.3195 7.22837 16.3195 7.37005V7.40448C16.3195 7.54616 16.2047 7.66102 16.063 7.66102ZM0.937196 6.74781C0.795516 6.74781 0.680664 6.63296 0.680664 6.49128V6.45685C0.680664 6.31513 0.795516 6.20032 0.937196 6.20032C1.07888 6.20032 1.19373 6.31517 1.19373 6.45685V6.49128C1.19376 6.63299 1.07891 6.74781 0.937196 6.74781ZM15.8064 6.16611C15.8064 6.15924 15.8062 6.1524 15.8058 6.14563C15.7858 5.80456 16.3178 5.75764 16.3195 6.16389C16.3201 6.30557 16.2058 6.42092 16.0641 6.42152C15.9196 6.42155 15.807 6.3057 15.8064 6.16611ZM1.50256 5.81273C1.1767 5.81273 1.13612 5.30597 1.53201 5.298C1.86196 5.2897 1.90794 5.81273 1.50256 5.81273ZM15.1712 5.81087H15.1368C14.9951 5.81087 14.8803 5.69602 14.8803 5.55434C14.8803 5.41266 14.9951 5.2978 15.1368 5.2978H15.1712C15.3129 5.2978 15.4278 5.41266 15.4278 5.55434C15.4278 5.69602 15.3129 5.81087 15.1712 5.81087ZM13.9318 5.81087H13.8973C13.7557 5.81087 13.6408 5.69602 13.6408 5.55434C13.6408 5.41266 13.7557 5.2978 13.8973 5.2978H13.9318C14.0734 5.2978 14.1883 5.41266 14.1883 5.55434C14.1883 5.69602 14.0734 5.81087 13.9318 5.81087ZM12.6923 5.81087H12.6579C12.5162 5.81087 12.4013 5.69602 12.4013 5.55434C12.4013 5.41266 12.5162 5.2978 12.6579 5.2978H12.6923C12.834 5.2978 12.9488 5.41266 12.9488 5.55434C12.9488 5.69602 12.834 5.81087 12.6923 5.81087ZM11.4528 5.81087H11.4184C11.2767 5.81087 11.1619 5.69602 11.1619 5.55434C11.1619 5.41266 11.2768 5.2978 11.4184 5.2978H11.4528C11.5945 5.2978 11.7094 5.41266 11.7094 5.55434C11.7094 5.69602 11.5945 5.81087 11.4528 5.81087ZM10.2134 5.81087H10.179C10.0373 5.81087 9.92244 5.69602 9.92244 5.55434C9.92244 5.41266 10.0373 5.2978 10.179 5.2978H10.2134C10.3551 5.2978 10.4699 5.41266 10.4699 5.55434C10.4699 5.69602 10.3551 5.81087 10.2134 5.81087ZM8.97394 5.81087H8.93951C8.79783 5.81087 8.68298 5.69602 8.68298 5.55434C8.68298 5.41266 8.79783 5.2978 8.93951 5.2978H8.97394C9.11562 5.2978 9.23047 5.41266 9.23047 5.55434C9.23047 5.69602 9.11562 5.81087 8.97394 5.81087ZM7.73451 5.81087H7.70008C7.5584 5.81087 7.44354 5.69602 7.44354 5.55434C7.44354 5.41266 7.5584 5.2978 7.70008 5.2978H7.73451C7.87619 5.2978 7.99104 5.41266 7.99104 5.55434C7.99104 5.69602 7.87616 5.81087 7.73451 5.81087ZM6.49501 5.81087H6.46058C6.3189 5.81087 6.20405 5.69602 6.20405 5.55434C6.20405 5.21224 6.75154 5.21117 6.75154 5.55434C6.75154 5.69605 6.63673 5.81087 6.49501 5.81087ZM5.25555 5.81087H5.22112C5.07943 5.81087 4.96458 5.69602 4.96458 5.55434C4.96458 5.41266 5.07943 5.2978 5.22112 5.2978H5.25555C5.39723 5.2978 5.51208 5.41266 5.51208 5.55434C5.51208 5.69602 5.39723 5.81087 5.25555 5.81087ZM4.01612 5.81087H3.98168C3.84 5.81087 3.72515 5.69602 3.72515 5.55434C3.72515 5.41266 3.84 5.2978 3.98168 5.2978H4.01612C4.1578 5.2978 4.27265 5.41266 4.27265 5.55434C4.27265 5.69602 4.15776 5.81087 4.01612 5.81087ZM2.77662 5.81087H2.74219C2.60051 5.81087 2.48565 5.69602 2.48565 5.55434C2.48565 5.41266 2.60051 5.2978 2.74219 5.2978H2.77662C2.9183 5.2978 3.03315 5.41266 3.03315 5.55434C3.03315 5.69602 2.91833 5.81087 2.77662 5.81087Z" fill="#EAB883"/>
</g>
<defs>
<clipPath id="clip0_28_98">
<rect width="17" height="17" fill="white"/>
</clipPath>
</defs>
</svg>
