<svg width="19" height="19" viewBox="0 0 19 19" fill="none" xmlns="http://www.w3.org/2000/svg">
<g clip-path="url(#clip0_27_1176)">
<path d="M9.5 19C14.7467 19 19 14.7467 19 9.5C19 4.25329 14.7467 0 9.5 0C4.25329 0 0 4.25329 0 9.5C0 14.7467 4.25329 19 9.5 19Z" fill="#DD1C4B"/>
<path d="M18.8892 8.04614C18.8967 8.2024 18.901 8.35931 18.901 8.51721C18.9052 13.7639 14.6554 18.0206 9.40865 18.0249C4.71745 18.0286 0.725857 14.6076 0.0117188 9.97104C0.277555 15.211 4.74092 19.2433 9.98086 18.9775C15.2208 18.7117 19.2531 14.2483 18.9873 9.00835C18.971 8.68612 18.9382 8.36501 18.8892 8.04614Z" fill="#B21D48"/>
<path d="M12.7625 9.49509L18.4222 6.23003C18.0457 5.20489 17.4949 4.25244 16.7941 3.41476L11.138 6.67785V0.143483C10.0545 -0.0478276 8.94574 -0.0478276 7.86217 0.143483V6.66015L2.22146 3.39707C1.51339 4.23917 0.957186 5.19802 0.577637 6.23069L6.23767 9.50655L0.577964 12.77C0.954525 13.7951 1.50532 14.7476 2.20607 15.5852L7.86217 12.3222V18.8565C8.94574 19.0478 10.0545 19.0478 11.138 18.8565V12.3398L16.7787 15.6029C17.4868 14.7608 18.043 13.802 18.4226 12.7693L12.7625 9.49509Z" fill="#F6F6E7"/>
<path d="M5.56899 17.0345C5.93083 17.0345 6.22416 16.7411 6.22416 16.3793C6.22416 16.0175 5.93083 15.7241 5.56899 15.7241C5.20715 15.7241 4.91382 16.0175 4.91382 16.3793C4.91382 16.7411 5.20715 17.0345 5.56899 17.0345Z" fill="#F6F6E7"/>
<path d="M13.4311 17.0345C13.7929 17.0345 14.0862 16.7411 14.0862 16.3793C14.0862 16.0175 13.7929 15.7241 13.4311 15.7241C13.0692 15.7241 12.7759 16.0175 12.7759 16.3793C12.7759 16.7411 13.0692 17.0345 13.4311 17.0345Z" fill="#F6F6E7"/>
<path d="M17.3622 10.1551C17.724 10.1551 18.0174 9.86174 18.0174 9.4999C18.0174 9.13806 17.724 8.84473 17.3622 8.84473C17.0004 8.84473 16.707 9.13806 16.707 9.4999C16.707 9.86174 17.0004 10.1551 17.3622 10.1551Z" fill="#F6F6E7"/>
<path d="M13.4311 3.27592C13.7929 3.27592 14.0862 2.98259 14.0862 2.62075C14.0862 2.25891 13.7929 1.96558 13.4311 1.96558C13.0692 1.96558 12.7759 2.25891 12.7759 2.62075C12.7759 2.98259 13.0692 3.27592 13.4311 3.27592Z" fill="#F6F6E7"/>
<path d="M5.56899 3.27592C5.93083 3.27592 6.22416 2.98259 6.22416 2.62075C6.22416 2.25891 5.93083 1.96558 5.56899 1.96558C5.20715 1.96558 4.91382 2.25891 4.91382 2.62075C4.91382 2.98259 5.20715 3.27592 5.56899 3.27592Z" fill="#F6F6E7"/>
<path d="M1.63808 10.1551C1.99992 10.1551 2.29325 9.86174 2.29325 9.4999C2.29325 9.13806 1.99992 8.84473 1.63808 8.84473C1.27624 8.84473 0.98291 9.13806 0.98291 9.4999C0.98291 9.86174 1.27624 10.1551 1.63808 10.1551Z" fill="#F6F6E7"/>
<path d="M13.9011 5.0989C11.4704 2.66821 7.52953 2.66821 5.09888 5.0989C2.66823 7.52959 2.66819 11.4705 5.09888 13.9011C7.52957 16.3318 11.4705 16.3318 13.9011 13.9011C16.3318 11.4704 16.3318 7.52959 13.9011 5.0989ZM11.7931 13.4717C9.59959 14.7382 6.79471 13.9867 5.52818 11.7932C4.26165 9.59969 5.01314 6.79481 7.20665 5.52828C9.40017 4.26175 12.205 5.01323 13.4716 7.20675L13.4717 7.20691C14.738 9.40039 13.9865 12.2052 11.7931 13.4717Z" fill="#DD1C4B"/>
<path d="M13.2063 5.79362C11.1593 3.74678 7.84065 3.74686 5.79385 5.79382C3.74705 7.84079 3.74709 11.1594 5.79405 13.2062C7.84093 15.253 11.1594 15.253 13.2063 13.2062C15.2532 11.1594 15.2533 7.84075 13.2065 5.79382C13.2064 5.79374 13.2063 5.7937 13.2063 5.79362ZM11.4327 12.8446C9.5857 13.9116 7.22343 13.2793 6.1564 11.4323C5.08937 9.58527 5.7217 7.223 7.56871 6.15597C9.41572 5.08894 11.778 5.72126 12.845 7.56828C12.8454 7.56901 12.8458 7.56971 12.8462 7.57045C13.9118 9.41725 13.279 11.7782 11.4327 12.8446Z" fill="#F6F6E7"/>
<path d="M9.50003 14.0862C12.0329 14.0862 14.0862 12.0329 14.0862 9.50003C14.0862 6.96713 12.0329 4.91382 9.50003 4.91382C6.96713 4.91382 4.91382 6.96713 4.91382 9.50003C4.91382 12.0329 6.96713 14.0862 9.50003 14.0862Z" fill="#DD1C4B"/>
</g>
<defs>
<clipPath id="clip0_27_1176">
<rect width="19" height="19" fill="white"/>
</clipPath>
</defs>
</svg>
