<svg width="18" height="18" viewBox="0 0 18 18" fill="none" xmlns="http://www.w3.org/2000/svg">
<path d="M8.99806 14.793C12.1976 14.793 14.7913 12.1993 14.7913 8.99977C14.7913 5.80026 12.1976 3.20654 8.99806 3.20654C5.79855 3.20654 3.20483 5.80026 3.20483 8.99977C3.20483 12.1993 5.79855 14.793 8.99806 14.793Z" fill="#FFE967"/>
<path d="M8.99736 3.20654C8.81413 3.20654 8.63301 3.21547 8.4541 3.2321C11.3988 3.506 13.7041 5.98349 13.7041 8.99977C13.7041 12.0161 11.3988 14.4935 8.4541 14.7674C8.63297 14.7841 8.81413 14.793 8.99736 14.793C12.1969 14.793 14.7906 12.1993 14.7906 8.99977C14.7906 5.80026 12.1969 3.20654 8.99736 3.20654Z" fill="#FFD037"/>
<path d="M9.79189 8.72806H8.20543C8.03872 8.72806 7.90305 8.59243 7.90305 8.42572V6.83926C7.90305 6.67255 8.03868 6.53692 8.20543 6.53692H10.3659C10.5159 6.53692 10.6375 6.41531 10.6375 6.26531C10.6375 6.1153 10.5159 5.99369 10.3659 5.99369H9.27029V5.35731C9.27029 5.2073 9.14869 5.08569 8.99868 5.08569C8.84867 5.08569 8.72707 5.2073 8.72707 5.35731V5.99369H8.20546C7.73919 5.99369 7.35986 6.37302 7.35986 6.83929V8.42576C7.35986 8.89203 7.73923 9.27136 8.20546 9.27136H9.79193C9.95864 9.27136 10.0943 9.40699 10.0943 9.5737V11.1602C10.0943 11.3269 9.95867 11.4625 9.79193 11.4625H7.63148C7.48143 11.4625 7.35986 11.5841 7.35986 11.7341C7.35986 11.8841 7.48147 12.0057 7.63148 12.0057H8.72707V12.6421C8.72707 12.7921 8.84867 12.9137 8.99868 12.9137C9.14869 12.9137 9.27029 12.7921 9.27029 12.6421V12.0057H9.79189C10.2582 12.0057 10.6375 11.6264 10.6375 11.1601V9.57366C10.6375 9.10739 10.2582 8.72806 9.79189 8.72806Z" fill="white"/>
<path d="M4.8943 2.2766L2.7066 0.088935C2.58802 -0.029645 2.39578 -0.029645 2.2772 0.088935L0.0895394 2.2766C-0.101742 2.46788 0.0337474 2.7949 0.304235 2.7949H0.755211C0.922904 2.7949 1.05882 2.93085 1.05882 3.0985V9.11335C1.05882 9.33494 1.23846 9.51458 1.46005 9.51458H3.52375C3.74534 9.51458 3.92498 9.33494 3.92498 9.11335V3.09854C3.92498 2.93085 4.06093 2.79493 4.22859 2.79493H4.67956C4.95009 2.7949 5.08554 2.46788 4.8943 2.2766Z" fill="#85E994"/>
<path d="M4.89435 2.27636L2.70669 0.0886908C2.58811 -0.0298891 2.39588 -0.0298891 2.2773 0.0886908L1.94873 0.417255L3.58238 2.0509C3.85684 2.32536 3.66246 2.79469 3.27427 2.79469C3.03363 2.79469 2.83855 2.98977 2.83855 3.23041V9.11314C2.83855 9.33473 2.65891 9.51434 2.43732 9.51434H3.52381C3.74539 9.51434 3.92504 9.33469 3.92504 9.11311V3.09829C3.92504 2.9306 4.06099 2.79466 4.22868 2.79466H4.67966C4.95018 2.79466 5.08563 2.4676 4.89435 2.27636Z" fill="#42DAA2"/>
<path d="M13.1056 15.7228L15.2933 17.9105C15.4119 18.0291 15.6041 18.0291 15.7227 17.9105L17.9104 15.7228C18.1016 15.5316 17.9661 15.2045 17.6957 15.2045H17.2447C17.077 15.2045 16.9411 15.0686 16.9411 14.9009V8.88609C16.9411 8.66451 16.7614 8.48486 16.5398 8.48486H14.4761C14.2546 8.48486 14.0749 8.66451 14.0749 8.88609V14.9009C14.0749 15.0686 13.939 15.2045 13.7713 15.2045H13.3203C13.0498 15.2045 12.9144 15.5316 13.1056 15.7228Z" fill="#FE646F"/>
<path d="M17.6958 15.2048H17.2448C17.0771 15.2048 16.9412 15.0688 16.9412 14.9011V8.8863C16.9412 8.66472 16.7615 8.48511 16.54 8.48511H15.4534C15.675 8.48511 15.8547 8.66475 15.8547 8.8863V14.769C15.8547 15.0097 16.0497 15.2048 16.2904 15.2048C16.6785 15.2048 16.873 15.674 16.5985 15.9485L14.9648 17.5822L15.2934 17.9108C15.412 18.0293 15.6042 18.0293 15.7228 17.9108L17.9105 15.7231C18.1017 15.5318 17.9663 15.2048 17.6958 15.2048Z" fill="#FD4755"/>
</svg>
