<svg width="23" height="23" viewBox="0 0 23 23" fill="none" xmlns="http://www.w3.org/2000/svg">
<path d="M12.5907 13.5817C12.394 13.2965 12.3095 12.9487 12.3536 12.6051C12.3613 12.5455 12.3652 12.4855 12.3652 12.4254C12.3652 12.1408 12.2786 11.863 12.1168 11.6289L6.19118 3.04209C6.08296 2.88473 5.9448 2.75022 5.7846 2.64625C5.6244 2.54228 5.44528 2.47089 5.25749 2.43614C5.06969 2.40139 4.87689 2.40397 4.69009 2.44374C4.50329 2.4835 4.32616 2.55967 4.1688 2.66789C4.01143 2.77611 3.87693 2.91427 3.77296 3.07447C3.66899 3.23467 3.59759 3.41378 3.56285 3.60158C3.5281 3.78938 3.53068 3.98218 3.57045 4.16897C3.61021 4.35577 3.68638 4.53291 3.7946 4.69027L7.66282 10.2956L11.4443 14.8705C11.5787 14.348 12.1694 13.9882 12.8657 13.9801L12.5907 13.5817Z" fill="#C79A83"/>
<path d="M9.01035 10.2957L5.14213 4.69037C5.03368 4.53334 4.95729 4.35645 4.91732 4.16985C4.87736 3.98324 4.87462 3.79058 4.90926 3.60291C4.9439 3.41524 5.01523 3.23626 5.11918 3.07621C5.22312 2.91616 5.35762 2.7782 5.51498 2.67023C5.56375 2.63686 5.61449 2.60645 5.66691 2.57918C5.37929 2.42788 5.04925 2.37737 4.72954 2.43572C4.40984 2.49408 4.11892 2.65792 3.90329 2.90106C3.68766 3.1442 3.55976 3.45261 3.54003 3.777C3.52031 4.10139 3.60989 4.42302 3.79448 4.6905L7.6627 10.2959L11.4442 14.8707C11.5301 14.5368 11.8025 14.2696 12.1696 14.1179L9.01035 10.2957Z" fill="#A07C6B"/>
<path d="M12.0889 21.8802C13.0547 21.8802 13.8377 21.0972 13.8377 20.1314C13.8377 19.1655 13.0547 18.3826 12.0889 18.3826C11.1231 18.3826 10.3401 19.1655 10.3401 20.1314C10.3401 21.0972 11.1231 21.8802 12.0889 21.8802Z" fill="#F2CD6D"/>
<path d="M14.1851 18.5205L16.6171 19.8376L15.5844 20.5478L14.1851 18.5205Z" fill="#AF826E"/>
<path d="M16.6171 19.8374L17.7114 20.4299C17.6487 20.651 17.5106 20.8432 17.321 20.973L16.6122 21.4604C16.3963 21.6089 16.1303 21.6656 15.8726 21.6182C15.6149 21.5708 15.3865 21.4231 15.2376 21.2075C15.1974 21.1499 15.1759 21.0814 15.176 21.0112C15.1759 20.9549 15.1896 20.8994 15.2158 20.8495C15.2421 20.7996 15.28 20.7569 15.3265 20.7251L15.5844 20.5476L16.6171 19.8374Z" fill="#C79A83"/>
<path d="M16.1098 11.9349V11.9353L15.0514 14.2273L14.4535 14.2659L13.6633 14.097L14.9158 11.3855C15.2749 11.6434 15.6803 11.8299 16.1098 11.9349Z" fill="#799091"/>
<path d="M13.3561 14.0314L12.5107 17.9728L12.4913 17.9688C12.331 17.9346 11.5502 17.9733 11.1733 17.3367C11.4505 16.546 11.5431 15.7025 11.4442 14.8705C11.5785 14.3481 12.1693 13.9882 12.8655 13.9802C13.0239 13.9781 13.182 13.9939 13.3368 14.0273L13.3561 14.0314Z" fill="#4689D3"/>
<path d="M14.4536 14.2657L14.132 15.7666L13.9177 16.7647L13.6082 18.2076L12.5107 17.9727L13.3562 14.0312L13.6634 14.0968L14.4536 14.2657Z" fill="#5FA8ED"/>
<path d="M20.3446 20.2293C20.3616 20.2533 20.3726 20.281 20.3765 20.3101C20.3804 20.3393 20.3773 20.3689 20.3672 20.3966C20.3572 20.4242 20.3407 20.449 20.319 20.4688C20.2973 20.4887 20.2711 20.503 20.2427 20.5105L19.0716 20.8258C18.8018 20.8986 18.5145 20.865 18.2688 20.7319L17.7113 20.4301L16.617 19.8375L14.185 18.5204V18.52L13.6082 18.2078L13.9177 16.7649L19.0154 18.613C19.1806 18.6736 19.3235 18.7827 19.4255 18.9261L20.3446 20.2293Z" fill="#C1D1E5"/>
<path d="M21.2818 17.5594C21.3044 17.5797 21.3216 17.6054 21.3318 17.634C21.342 17.6626 21.3449 17.6934 21.3402 17.7234C21.3355 17.7534 21.3234 17.7818 21.305 17.806C21.2865 17.8301 21.2623 17.8493 21.2346 17.8618L19.2131 18.7157C19.152 18.6729 19.0856 18.6383 19.0155 18.6129L13.9177 16.7648L14.132 15.7666L19.5253 16.1628C19.625 16.17 19.7252 16.1598 19.8214 16.1327L21.2818 17.5594Z" fill="#D4E1F4"/>
<path d="M21.449 14.8453C21.4728 14.863 21.4919 14.8862 21.5048 14.9129C21.5176 14.9396 21.5238 14.969 21.5227 14.9986C21.5217 15.0283 21.5134 15.0572 21.4987 15.0829C21.484 15.1086 21.4632 15.1304 21.4382 15.1463L20.0519 16.0299C19.9806 16.0754 19.9029 16.1101 19.8214 16.1328C19.7252 16.1599 19.6251 16.17 19.5254 16.1629L14.1321 15.7667L14.4537 14.2658L15.0516 14.2272L19.7576 13.9235C20.0187 13.9038 20.2781 13.9786 20.4885 14.1342L21.449 14.8453Z" fill="#C1D1E5"/>
<path d="M4.30138 17.2041L2.10335 19.3981C1.22891 18.5285 0.674992 17.3882 0.531982 16.1633C1.19667 15.9965 1.89323 16.0047 2.55381 16.1871C3.21439 16.3695 3.81646 16.7199 4.30138 17.2041Z" fill="#EA8E60"/>
<path d="M4.3013 17.2041C4.78608 17.6872 5.13705 18.2879 5.31982 18.9474C5.5026 19.6069 5.51091 20.3026 5.34394 20.9663C4.11774 20.8241 2.97566 20.2714 2.10327 19.3981L4.3013 17.2041Z" fill="#D8825B"/>
<path d="M5.98854 15.52L9.87338 19.3981C9.28607 19.9849 8.57334 20.4309 7.7888 20.7026C7.00426 20.9742 6.16833 21.0644 5.34391 20.9663C5.51088 20.3027 5.50257 19.607 5.3198 18.9475C5.13702 18.2879 4.78605 17.6872 4.30127 17.2041L5.98854 15.52Z" fill="#CE7B51"/>
<path d="M5.98858 15.52L4.30131 17.2041C3.8164 16.7198 3.21433 16.3694 2.55375 16.187C1.89317 16.0046 1.19661 15.9964 0.531918 16.1632C0.434006 15.3398 0.524588 14.5048 0.796816 13.7215C1.06904 12.9382 1.51579 12.2271 2.10328 11.6418L5.98858 15.52Z" fill="#DF8A59"/>
<path d="M11.4443 14.8706C11.5431 15.695 11.453 16.5311 11.1808 17.3155C10.9087 18.1 10.4616 18.8122 9.87337 19.3983L5.98853 15.5202L7.68298 13.8289C8.1669 14.312 8.76744 14.6618 9.42637 14.8445C10.0853 15.0272 10.7803 15.0365 11.4438 14.8715C11.4438 14.871 11.4438 14.871 11.4443 14.8706Z" fill="#BA6847"/>
<path d="M7.68302 13.8287L5.98856 15.52L2.10327 11.6419C2.69113 11.0543 3.40475 10.6078 4.1903 10.3362C4.97586 10.0645 5.81284 9.97476 6.63813 10.0737V10.0742C6.47289 10.7369 6.48229 11.4312 6.66542 12.0892C6.84855 12.7473 7.19916 13.3466 7.68302 13.8287Z" fill="#CC764C"/>
<path d="M9.87338 11.642L7.68299 13.8287C7.19913 13.3466 6.84853 12.7473 6.6654 12.0893C6.48227 11.4312 6.47287 10.7369 6.63811 10.0742V10.0737C7.86204 10.2183 9.00166 10.7707 9.87338 11.642Z" fill="#BF6743"/>
<path d="M11.4444 14.8704C11.444 14.8708 11.444 14.8708 11.444 14.8713C10.7804 15.0362 10.0854 15.0269 9.4265 14.8443C8.76757 14.6616 8.16703 14.3117 7.68311 13.8286L9.8735 11.6418C10.7461 12.5102 11.2997 13.6479 11.4444 14.8704Z" fill="#AD5A3D"/>
<path d="M1.87182 16.0629C1.42273 16.0204 0.969705 16.0544 0.531982 16.1634C0.674992 17.3884 1.22891 18.5286 2.10335 19.3983L2.83643 18.6665C2.31522 17.9245 1.9873 17.0641 1.88233 16.1634C1.87829 16.13 1.87515 16.0964 1.87182 16.0629Z" fill="#C17A5B"/>
<path d="M6.64169 10.0808C6.64223 10.0786 6.64843 10.0764 6.64843 10.0741V10.0737C5.82234 9.97443 4.9845 10.064 4.19807 10.3357C3.41163 10.6073 2.69713 11.0539 2.1084 11.6419L2.84094 12.3756C3.02566 12.1136 3.23277 11.8681 3.45992 11.6419C4.31833 10.7835 5.43747 10.2344 6.64169 10.0808Z" fill="#AA6549"/>
<path d="M2.83635 18.6665L2.10327 19.3983C2.97566 20.2716 4.11774 20.8243 5.34394 20.9665C5.36963 20.8639 5.39065 20.7604 5.40799 20.6565C4.37011 20.267 3.47386 19.5734 2.83635 18.6665V18.6665Z" fill="#B26B4F"/>
<path d="M2.83839 12.3756L2.10328 11.6418C1.51579 12.2271 1.06904 12.9382 0.796816 13.7215C0.524588 14.5048 0.434006 15.3398 0.531918 16.1632C0.96964 16.0542 1.42267 16.0202 1.87176 16.0627C1.74174 14.7575 2.08477 13.4491 2.83839 12.3756Z" fill="#B27252"/>
<path d="M21.3173 6.71629L21.5477 6.21568L20.5184 5.74211L20.9439 4.82054L21.2442 4.95867L21.4746 4.45806L21.1749 4.32024L21.3168 4.01298L20.9559 3.459L20.6743 4.08988L19.547 3.57131L19.9655 2.66483L19.4652 2.4338L19.0464 3.34086L17.9192 2.82219L18.159 2.28394H17.5606L17.4184 2.59201L17.1196 2.45455L16.8892 2.95516L17.1874 3.0923L16.7618 4.01379L15.7331 3.54045L15.5028 4.0411L16.5309 4.51408L16.1053 5.43556L14.8501 4.85805L14.6197 5.3587L15.8743 5.9359L15.4487 6.85748L14.3659 6.35925L14.1355 6.8599L15.2182 7.35791L14.7926 8.27948L14.3214 8.06264L14.0911 8.5633L14.5616 8.77977L14.3105 9.32369L14.8108 9.55468L15.0623 9.01013L16.1899 9.5288L15.662 10.6719L16.1623 10.9029L16.6905 9.75912L17.8178 10.2778L17.5662 10.8227L18.0666 11.0537L18.3185 10.5081L18.7909 10.7255L19.0212 10.2249L18.5496 10.0078L18.9751 9.08623L20.0712 9.59061L20.3016 9.09L19.206 8.58589L19.6307 7.66432L20.8859 8.24183L21.1163 7.74123L19.8617 7.16402L20.2873 6.24241L21.3173 6.71629ZM20.4433 4.59018L20.0177 5.51193L18.8902 4.99326L19.3157 4.07169L20.4433 4.59018ZM17.688 3.32253L18.8155 3.8412L18.39 4.76277L17.2625 4.2441L17.688 3.32253ZM17.0315 4.74444L18.159 5.26311L17.7335 6.18468L16.606 5.66601L17.0315 4.74444ZM16.3749 6.16631L17.5024 6.68498L17.0769 7.60655L15.9494 7.08793L16.3749 6.16631ZM15.2928 8.50979L15.7184 7.58822L16.8456 8.10689L16.4201 9.02846L15.2928 8.50979ZM18.0481 9.77749L16.9206 9.25882L17.3461 8.3372L18.4736 8.85587L18.0481 9.77749ZM18.7047 8.35549L17.5771 7.83682L18.0027 6.91525L19.1302 7.43391L18.7047 8.35549ZM19.3612 6.93366L18.2337 6.415L18.6592 5.49342L19.7868 6.01209L19.3612 6.93366Z" fill="#A4BFC1"/>
<path d="M4.63749 4.2503C4.59304 4.25037 4.54926 4.23942 4.51007 4.21845C4.47087 4.19747 4.43748 4.16712 4.41288 4.13009L4.36158 4.05301C4.34135 4.02356 4.32718 3.99038 4.31988 3.95541C4.31259 3.92044 4.31232 3.88436 4.3191 3.84928C4.32587 3.81421 4.33955 3.78082 4.35934 3.75108C4.37914 3.72134 4.40464 3.69582 4.43438 3.67603C4.46412 3.65623 4.4975 3.64254 4.53258 3.63576C4.56765 3.62898 4.60373 3.62924 4.6387 3.63652C4.67368 3.64381 4.70686 3.65797 4.73631 3.6782C4.76576 3.69842 4.7909 3.7243 4.81026 3.75432L4.8616 3.83141C4.88862 3.87199 4.90412 3.91913 4.90647 3.96783C4.90881 4.01652 4.8979 4.06494 4.8749 4.10792C4.8519 4.15091 4.81768 4.18685 4.77587 4.21192C4.73406 4.23699 4.68624 4.25026 4.63749 4.2503Z" fill="#F4F8FC"/>
<path d="M7.014 7.82056C6.96954 7.82062 6.92577 7.80967 6.88657 7.7887C6.84738 7.76772 6.81399 7.73737 6.78939 7.70034L4.86826 4.81438C4.82958 4.75488 4.81593 4.68252 4.83027 4.61301C4.84461 4.54351 4.88579 4.48246 4.94486 4.44313C5.00394 4.4038 5.07615 4.38935 5.14581 4.40293C5.21547 4.41651 5.27696 4.45701 5.31694 4.51565L7.23807 7.40166C7.26508 7.44224 7.28059 7.48938 7.28293 7.53807C7.28527 7.58676 7.27437 7.63517 7.25138 7.67815C7.22838 7.72114 7.19417 7.75708 7.15236 7.78216C7.11056 7.80723 7.06274 7.8205 7.014 7.82056Z" fill="#F4F8FC"/>
<path d="M21.3981 6.3808C21.4805 5.80811 21.4565 5.22514 21.3272 4.66119C21.2625 4.38672 21.1666 4.12055 21.0415 3.86787C20.749 3.28299 20.3029 2.81805 19.7199 2.54941C19.7194 2.54941 19.7194 2.54896 19.719 2.54896C19.1354 2.28078 18.4912 2.24439 17.8561 2.40297C17.5828 2.47204 17.3182 2.57212 17.0677 2.70125H17.0672C16.554 2.96921 16.0944 3.32934 15.7115 3.76365C15.3658 4.15173 15.0754 4.58574 14.8485 5.05336C14.8297 5.09109 14.8117 5.12973 14.7937 5.16836C14.5941 5.59877 14.449 6.05239 14.3616 6.51871C14.2555 7.06908 14.2449 7.63358 14.3301 8.18756C14.3892 8.57013 14.5059 8.94153 14.6765 9.28904C14.9689 9.87392 15.415 10.3389 15.9981 10.6075C15.9985 10.6075 15.9985 10.6079 15.999 10.6079C16.5816 10.8761 17.2253 10.913 17.861 10.7553V10.7548C18.237 10.6591 18.5961 10.5065 18.9261 10.3025H18.9265C19.4044 10.0066 19.828 9.63102 20.179 9.19201C20.4765 8.82349 20.727 8.41939 20.9247 7.989C20.9426 7.95037 20.9597 7.91174 20.9763 7.8731C21.1852 7.39754 21.3271 6.89533 21.3981 6.3808ZM20.232 1.44029C22.4381 2.45508 23.164 5.5785 21.8537 8.41666C20.6637 10.9934 18.2037 12.4488 16.1099 11.9354V11.9349C15.6804 11.8299 15.2751 11.6434 14.9159 11.3855C13.164 10.1304 12.6748 7.31787 13.8647 4.74115C15.1751 1.90299 18.0259 0.425507 20.232 1.44029Z" fill="#A4BFC1"/>
</svg>
