<svg width="84" height="84" viewBox="0 0 84 84" fill="none" xmlns="http://www.w3.org/2000/svg">
<path d="M61.3761 82.6H3.02412C2.7727 82.6004 2.52465 82.5421 2.29969 82.4298C2.07472 82.3175 1.87904 82.1543 1.72819 81.9532C1.57733 81.7521 1.47546 81.5185 1.43066 81.2711C1.38586 81.0237 1.39937 80.7693 1.47012 80.528C1.96012 78.834 2.46412 77.154 2.95412 75.474C3.39668 73.5694 4.17409 71.7586 5.25012 70.126C7.21329 67.3722 10.1703 65.4895 13.4961 64.876L23.8001 63H40.6001L50.9041 64.876C54.23 65.4895 57.187 67.3722 59.1501 70.126C60.2262 71.7586 61.0036 73.5694 61.4461 75.474C61.9361 77.154 62.4401 78.834 62.9301 80.528C63.0009 80.7693 63.0144 81.0237 62.9696 81.2711C62.9248 81.5185 62.8229 81.7521 62.6721 81.9532C62.5212 82.1543 62.3255 82.3175 62.1006 82.4298C61.8756 82.5421 61.6275 82.6004 61.3761 82.6Z" fill="#2FA8CC"/>
<path d="M10.92 32.8054C7 28.3576 7 24.2192 7 20.9404C7.11936 15.6878 9.30115 10.6933 13.0737 7.03655C16.8462 3.37983 21.9063 1.35476 27.16 1.39915C44.5984 1.39915 57.4 9.54155 57.4 22.5686C57.202 26.3113 55.8117 29.8926 53.4324 32.7886L10.92 32.8054Z" fill="#CB8252"/>
<path d="M50.4 32.2031H51.142C51.7808 32.2038 52.4131 32.3316 53.002 32.5792C53.5909 32.8268 54.1246 33.1891 54.572 33.6451C55.2529 34.3286 55.7168 35.198 55.9057 36.1441C56.0946 37.0902 55.9999 38.0711 55.6336 38.9636C55.2673 39.8562 54.6457 40.6208 53.8467 41.1615C53.0476 41.7022 52.1067 41.995 51.142 42.0031H13.258C12.2932 41.995 11.3523 41.7022 10.5533 41.1615C9.75423 40.6208 9.13259 39.8562 8.7663 38.9636C8.4 38.0711 8.30535 37.0902 8.49422 36.1441C8.68308 35.198 9.14705 34.3286 9.82796 33.6451C10.2753 33.1891 10.809 32.8268 11.3979 32.5792C11.9868 32.3316 12.6191 32.2038 13.258 32.2031H50.4Z" fill="#F9C795"/>
<path d="M40.5998 62.9992C40.5998 62.9992 38.6818 67.1992 32.1998 67.1992C25.7178 67.1992 23.7998 62.9992 23.7998 62.9992C24.6331 62.5167 25.3283 61.828 25.8186 60.9993C26.3089 60.1707 26.5779 59.2298 26.5998 58.2672V55.1172H37.7998V58.2672C37.8217 59.2298 38.0907 60.1707 38.581 60.9993C39.0714 61.828 39.7665 62.5167 40.5998 62.9992Z" fill="#FDD7AD"/>
<path d="M37.8001 55.1172V58.0432C34.1348 59.0512 30.2654 59.0512 26.6001 58.0432V55.1172H37.8001Z" fill="#F9C795"/>
<path d="M50.4 29.2569V37.7969C50.4 42.6238 48.4825 47.2531 45.0694 50.6662C41.6562 54.0794 37.0269 55.9969 32.2 55.9969C27.3731 55.9969 22.7438 54.0794 19.3307 50.6662C15.9175 47.2531 14 42.6238 14 37.7969V27.9563C13.9989 27.1857 14.2105 26.4298 14.6114 25.7718C15.0123 25.1138 15.587 24.5791 16.2722 24.2267C19.5296 22.5995 22.2036 20.0042 23.9274 16.7969C23.9274 16.7969 31.0282 24.0069 46.5458 25.0667C47.5991 25.1481 48.5824 25.6257 49.2976 26.4032C50.0128 27.1808 50.4067 28.2005 50.4 29.2569Z" fill="#FDD7AD"/>
<path d="M15.4001 77.0016V82.6016H12.6001V77.0016C12.6001 76.6303 12.7476 76.2742 13.0101 76.0116C13.2727 75.7491 13.6288 75.6016 14.0001 75.6016C14.3714 75.6016 14.7275 75.7491 14.99 76.0116C15.2526 76.2742 15.4001 76.6303 15.4001 77.0016Z" fill="#2980BA"/>
<path d="M64.4002 82.6031C74.4518 82.6031 82.6002 74.4547 82.6002 64.4031C82.6002 54.3515 74.4518 46.2031 64.4002 46.2031C54.3486 46.2031 46.2002 54.3515 46.2002 64.4031C46.2002 74.4547 54.3486 82.6031 64.4002 82.6031Z" fill="#E64C3C"/>
<path d="M70.084 54.754L54.754 70.084C53.4979 67.9457 52.9869 65.451 53.3013 62.991C53.6158 60.531 54.7377 58.245 56.4914 56.4914C58.245 54.7377 60.531 53.6158 62.991 53.3013C65.451 52.9869 67.9457 53.4979 70.084 54.754Z" fill="#ECF0F1"/>
<path d="M75.5998 64.4028C75.599 66.3766 75.0766 68.3152 74.0854 70.0222C73.0943 71.7292 71.6696 73.1439 69.9557 74.1231C68.2418 75.1022 66.2996 75.6111 64.3258 75.598C62.3519 75.585 60.4166 75.0505 58.7158 74.0488L74.0458 58.7188C75.0619 60.4407 75.5985 62.4033 75.5998 64.4028Z" fill="#ECF0F1"/>
</svg>
