<svg width="20" height="20" viewBox="0 0 20 20" fill="none" xmlns="http://www.w3.org/2000/svg">
<path d="M13.7209 0H2.55814C1.87968 0 1.22901 0.269517 0.749261 0.749261C0.269517 1.22901 0 1.87968 0 2.55814C0 3.2366 0.269517 3.88727 0.749261 4.36702C1.22901 4.84676 1.87968 5.11628 2.55814 5.11628H14.6512C14.8362 5.11623 15.0136 5.04271 15.1444 4.91188C15.2753 4.78105 15.3488 4.60362 15.3488 4.4186V1.62791C15.3483 1.19632 15.1766 0.78256 14.8714 0.477382C14.5663 0.172204 14.1525 0.000524346 13.7209 0Z" fill="#1C5E3F"/>
<path d="M18.1395 6.27912V16.5117C18.1375 16.9428 17.9653 17.3557 17.6605 17.6605C17.3556 17.9653 16.9427 18.1375 16.5116 18.1396H1.31178C0.464452 17.1752 -0.00196563 15.9349 6.22676e-06 14.6512V2.55819C6.22676e-06 2.46517 0.0186108 2.49301 0.0465178 2.56749V2.5768C0.158661 3.16066 0.470782 3.68719 0.929184 4.0658C1.38759 4.4444 1.96361 4.65141 2.55814 4.65121H16.5116C16.9427 4.65328 17.3556 4.82545 17.6605 5.1303C17.9653 5.43514 18.1375 5.84801 18.1395 6.27912Z" fill="#0DB561"/>
<path d="M18.8714 8.37207H15.443C14.8014 8.37277 14.1862 8.62797 13.7325 9.08167C13.2788 9.53536 13.0237 10.1505 13.0229 10.7921V11.0683C13.0237 11.7099 13.2788 12.3251 13.7325 12.7788C14.1862 13.2324 14.8014 13.4876 15.443 13.4883H18.8714C19.1706 13.4881 19.4574 13.3691 19.6689 13.1576C19.8804 12.946 19.9994 12.6592 19.9997 12.3601V9.50034C19.9994 9.20119 19.8804 8.91438 19.6689 8.70285C19.4574 8.49133 19.1706 8.37236 18.8714 8.37207Z" fill="#FFCB27"/>
<path d="M10.6977 14.6511C10.6996 15.9347 10.2333 17.175 9.38613 18.1395C8.88758 18.7228 8.26852 19.1913 7.57157 19.5124C6.87463 19.8336 6.11635 19.9999 5.34896 19.9999C4.58156 19.9999 3.82329 19.8336 3.12634 19.5124C2.42939 19.1913 1.81033 18.7228 1.31178 18.1395C0.464452 17.1751 -0.00196563 15.9348 6.22676e-06 14.6511C6.22676e-06 13.2325 0.563542 11.872 1.56664 10.8689C2.56974 9.86578 3.93024 9.30225 5.34884 9.30225C6.76744 9.30225 8.12794 9.86578 9.13104 10.8689C10.1341 11.872 10.6977 13.2325 10.6977 14.6511Z" fill="#FFCB27"/>
<path d="M5.34806 17.2093C5.16305 17.2092 4.98562 17.1357 4.85479 17.0049C4.72396 16.8741 4.65044 16.6966 4.65039 16.5116V12.7907C4.65039 12.6057 4.7239 12.4282 4.85473 12.2974C4.98557 12.1665 5.16303 12.093 5.34806 12.093C5.5331 12.093 5.71056 12.1665 5.8414 12.2974C5.97223 12.4282 6.04574 12.6057 6.04574 12.7907V16.5116C6.04569 16.6966 5.97217 16.8741 5.84134 17.0049C5.71051 17.1357 5.53308 17.2092 5.34806 17.2093Z" fill="white"/>
<path d="M7.20962 15.3487H3.48869C3.30366 15.3487 3.1262 15.2752 2.99536 15.1444C2.86452 15.0135 2.79102 14.8361 2.79102 14.651C2.79102 14.466 2.86452 14.2886 2.99536 14.1577C3.1262 14.0269 3.30366 13.9534 3.48869 13.9534H7.20962C7.39465 13.9534 7.57211 14.0269 7.70295 14.1577C7.83379 14.2886 7.90729 14.466 7.90729 14.651C7.90729 14.8361 7.83379 15.0135 7.70295 15.1444C7.57211 15.2752 7.39465 15.3487 7.20962 15.3487Z" fill="white"/>
</svg>
