<svg width="20" height="20" viewBox="0 0 20 20" fill="none" xmlns="http://www.w3.org/2000/svg">
<path d="M10.2756 14.573L7.53358 15.1215L5.99155 15.4297C5.14686 15.5987 4.40201 14.8539 4.571 14.0092L4.87924 12.4676L5.42772 9.7251L10.2756 14.573Z" fill="#5AD6FF"/>
<path d="M5.42641 9.7251L4.87793 12.4676L6.66668 13.3328L7.53227 15.1215L10.2743 14.573L5.42641 9.7251Z" fill="#2ECEFB"/>
<path d="M19.9158 1.64496L14.5806 15.443L13.117 19.2281C12.7363 20.2128 11.3645 20.2688 10.9045 19.3187L8.77539 11.7854C8.71625 11.6631 8.63695 11.5524 8.54199 11.4579L11.7299 7.35965L12.6506 6.23973L19.6434 0.356445C19.9589 0.671914 20.1045 1.15645 19.9158 1.64496Z" fill="#83DEFF"/>
<path d="M14.5805 15.4429L13.1169 19.2281C12.7362 20.2128 11.3643 20.2687 10.9044 19.3187L7.75391 12.8067C7.69477 12.6844 7.61547 12.5737 7.52051 12.4792L11.7298 7.35962C11.6968 9.71982 12.3889 12.4888 14.5805 15.4429Z" fill="#5AD6FF"/>
<path d="M19.6435 0.356484L11.7521 8.24782L7.52077 12.4793C7.4262 12.3843 7.31554 12.305 7.1932 12.2458L0.681317 9.09532C-0.268761 8.63536 -0.212863 7.26356 0.771864 6.88285L13.0153 2.14883L18.355 0.084023C18.8435 -0.104688 19.328 0.0409762 19.6435 0.356484Z" fill="#A4E7FF"/>
<path d="M11.7521 8.24791L7.52077 12.4794C7.4262 12.3844 7.31554 12.3051 7.1932 12.2459L0.681317 9.09541C-0.268761 8.63545 -0.212863 7.26366 0.771864 6.88295L13.0153 2.14893C12.2882 3.62377 11.592 5.73647 11.7521 8.24791Z" fill="#83DEFF"/>
<path d="M15.7578 17.5749C17.9332 17.5749 19.6967 15.8114 19.6967 13.636C19.6967 11.4605 17.9332 9.69702 15.7578 9.69702C13.5824 9.69702 11.8188 11.4605 11.8188 13.636C11.8188 15.8114 13.5824 17.5749 15.7578 17.5749Z" fill="#F1F2F5"/>
<path d="M17.6812 17.0737C17.1126 17.3928 16.4563 17.5747 15.7577 17.5747C13.5826 17.5747 11.8188 15.8113 11.8188 13.6359C11.8188 11.4604 13.5826 9.69702 15.7577 9.69702C15.7577 9.69702 14.1042 13.4773 17.6812 17.0737Z" fill="#E8E9EA"/>
<path d="M19.7248 12.1613L16.5972 15.2414C16.5284 15.309 16.4535 15.3665 16.3743 15.4136C15.9123 15.6917 15.305 15.6329 14.9047 15.2377L13.2805 13.6329C12.9244 13.2772 12.9264 12.7013 13.2805 12.3476C13.6354 11.9926 14.2109 11.9926 14.5658 12.3476L15.5316 13.313L15.5445 13.3259C15.6616 13.4434 15.8519 13.4438 15.9699 13.327L18.4471 10.8683C18.8037 10.5158 19.3763 10.5194 19.7288 10.8719C20.0853 11.2285 20.0833 11.8072 19.7248 12.1613Z" fill="#ACE094"/>
<path d="M16.3743 15.4135C15.9123 15.6916 15.305 15.6329 14.9047 15.2377L13.2805 13.6328C12.9244 13.2771 12.9264 12.7012 13.2805 12.3475C13.6354 11.9926 14.2109 11.9926 14.5658 12.3475L15.5316 13.3129C15.6769 13.9725 15.9381 14.684 16.3743 15.4135Z" fill="#8DD470"/>
</svg>
