<svg width="18" height="20" viewBox="0 0 18 20" fill="none" xmlns="http://www.w3.org/2000/svg">
<path d="M8.99922 16.2836C13.4958 16.2836 17.141 12.6384 17.141 8.1418C17.141 3.64521 13.4958 0 8.99922 0C4.50263 0 0.857422 3.64521 0.857422 8.1418C0.857422 12.6384 4.50263 16.2836 8.99922 16.2836Z" fill="#FF4F6B"/>
<path d="M15.4958 11.6709H2.50145C2.24123 11.6706 1.98991 11.7655 1.79492 11.9379C3.15953 14.5219 5.87316 16.2833 8.99863 16.2833C12.1241 16.2833 14.8377 14.5219 16.2023 11.9379C16.0073 11.7656 15.756 11.6706 15.4958 11.6709Z" fill="#FB2B3A"/>
<path d="M8.99902 15.0762C12.8289 15.0762 15.9336 11.9715 15.9336 8.1416C15.9336 4.31174 12.8289 1.20703 8.99902 1.20703C5.16917 1.20703 2.06445 4.31174 2.06445 8.1416C2.06445 11.9715 5.16917 15.0762 8.99902 15.0762Z" fill="white"/>
<path d="M3.0332 11.6709C4.24258 13.7077 6.46437 15.0761 9.00012 15.0761C11.5359 15.0761 13.7577 13.7077 14.967 11.6709H3.0332Z" fill="#F9F7F8"/>
<path d="M15.4955 20.0004H2.50105C1.91043 20.0004 1.43164 19.5216 1.43164 18.931V13.9483C1.43164 13.3577 1.91043 12.8789 2.50105 12.8789H15.4955C16.0861 12.8789 16.5649 13.3577 16.5649 13.9483V18.931C16.5649 19.5216 16.0861 20.0004 15.4955 20.0004Z" fill="#FF4F6B"/>
<path d="M15.4963 12.8789H14.2891C14.8797 12.8789 15.3585 13.3577 15.3585 13.9483V18.931C15.3585 19.5216 14.8797 20.0004 14.2891 20.0004H15.4963C16.0869 20.0004 16.5657 19.5216 16.5657 18.931V13.9483C16.5657 13.3577 16.087 12.8789 15.4963 12.8789Z" fill="#FB2B3A"/>
<path d="M4.99414 18.1876H4.99242C4.65273 18.1895 4.16422 18.1914 3.8575 18.191V14.385C3.8575 14.3454 3.8497 14.3061 3.83454 14.2695C3.81937 14.2329 3.79714 14.1996 3.76912 14.1716C3.74109 14.1436 3.70782 14.1214 3.6712 14.1062C3.63458 14.091 3.59534 14.0832 3.5557 14.0832C3.51607 14.0832 3.47682 14.091 3.4402 14.1062C3.40359 14.1214 3.37031 14.1436 3.34229 14.1716C3.31426 14.1996 3.29203 14.2329 3.27687 14.2695C3.2617 14.3061 3.2539 14.3454 3.25391 14.385V18.4894C3.2539 18.5606 3.27907 18.6295 3.32497 18.684C3.37087 18.7384 3.43454 18.7749 3.50473 18.7869C3.52617 18.7906 3.55102 18.7948 3.99645 18.7948C4.21355 18.7948 4.53066 18.7938 4.9959 18.7912C5.07594 18.791 5.15261 18.7589 5.20904 18.7022C5.26548 18.6454 5.29705 18.5686 5.29682 18.4885C5.29658 18.4085 5.26456 18.3318 5.2078 18.2754C5.15104 18.2189 5.07418 18.1874 4.99414 18.1876ZM6.59824 14.0832C6.55861 14.0832 6.51936 14.091 6.48274 14.1062C6.44612 14.1213 6.41285 14.1435 6.38483 14.1716C6.3568 14.1996 6.33457 14.2329 6.31941 14.2695C6.30424 14.3061 6.29644 14.3454 6.29645 14.385V18.4928C6.29644 18.5325 6.30424 18.5717 6.31941 18.6083C6.33457 18.645 6.3568 18.6782 6.38483 18.7062C6.41285 18.7343 6.44612 18.7565 6.48274 18.7717C6.51936 18.7868 6.55861 18.7946 6.59824 18.7946C6.63788 18.7946 6.67712 18.7868 6.71374 18.7717C6.75036 18.7565 6.78363 18.7343 6.81166 18.7062C6.83968 18.6782 6.86191 18.645 6.87708 18.6083C6.89224 18.5717 6.90004 18.5325 6.90004 18.4928V14.385C6.90005 14.3454 6.89225 14.3061 6.87709 14.2695C6.86192 14.2329 6.8397 14.1996 6.81167 14.1716C6.78364 14.1436 6.75037 14.1213 6.71375 14.1062C6.67713 14.091 6.63788 14.0832 6.59824 14.0832ZM14.4425 18.1723H13.0292V16.7407H14.316C14.3961 16.7407 14.4728 16.7089 14.5294 16.6523C14.586 16.5957 14.6178 16.519 14.6178 16.4389C14.6178 16.3589 14.586 16.2821 14.5294 16.2255C14.4728 16.1689 14.3961 16.1371 14.316 16.1371H13.0292V14.7056H14.4425C14.5225 14.7056 14.5993 14.6738 14.6559 14.6172C14.7125 14.5606 14.7443 14.4838 14.7443 14.4038C14.7443 14.3237 14.7125 14.247 14.6559 14.1904C14.5993 14.1338 14.5225 14.102 14.4425 14.102H12.7274C12.6877 14.102 12.6485 14.1098 12.6119 14.1249C12.5753 14.1401 12.542 14.1623 12.514 14.1904C12.4859 14.2184 12.4637 14.2517 12.4485 14.2883C12.4334 14.3249 12.4256 14.3641 12.4256 14.4038V18.4741C12.4256 18.5138 12.4334 18.553 12.4485 18.5896C12.4637 18.6262 12.4859 18.6595 12.514 18.6875C12.542 18.7156 12.5753 18.7378 12.6119 18.753C12.6485 18.7681 12.6877 18.7759 12.7274 18.7759H14.4425C14.6092 18.7759 14.7443 18.6408 14.7443 18.4741C14.7443 18.3074 14.6092 18.1723 14.4425 18.1723ZM11.2184 14.1062C11.1424 14.0809 11.0596 14.0869 10.988 14.1228C10.9165 14.1586 10.8621 14.2215 10.8368 14.2974L9.68988 17.75L8.48746 14.286C8.43285 14.1285 8.26078 14.045 8.1034 14.0999C8.06596 14.1129 8.03144 14.1331 8.00182 14.1594C7.9722 14.1858 7.94806 14.2177 7.93077 14.2533C7.91348 14.289 7.90339 14.3277 7.90106 14.3673C7.89874 14.4069 7.90423 14.4465 7.91723 14.4839L9.32242 18.5322C9.34974 18.609 9.40014 18.6754 9.4667 18.7224C9.53325 18.7693 9.61271 18.7946 9.69418 18.7946H9.69684C9.86465 18.7935 10.0137 18.686 10.0684 18.5251L11.4096 14.4877C11.4221 14.4501 11.4271 14.4104 11.4242 14.3708C11.4214 14.3313 11.4108 14.2927 11.3931 14.2573C11.3753 14.2219 11.3507 14.1903 11.3208 14.1644C11.2908 14.1384 11.256 14.1186 11.2184 14.1062Z" fill="white"/>
<path d="M7.46484 10.4126V5.87033C7.46484 5.41029 7.98832 5.14599 8.35848 5.41912L11.4366 7.69025C11.7403 7.91435 11.7403 8.36853 11.4366 8.59267L8.35848 10.8638C7.98832 11.1369 7.46484 10.8726 7.46484 10.4126Z" fill="#FF4F6B"/>
<path d="M11.4358 7.69025L8.35769 5.41912C8.04371 5.18744 7.61965 5.34248 7.49805 5.67556C9.15809 6.90041 9.15809 9.38247 7.49805 10.6073C7.61965 10.9404 8.04375 11.0954 8.35769 10.8637L11.4358 8.59259C11.7395 8.36853 11.7395 7.91439 11.4358 7.69025Z" fill="#FB2B3A"/>
</svg>
