<svg width="20" height="21" viewBox="0 0 20 21" fill="none" xmlns="http://www.w3.org/2000/svg">
<path d="M15.1851 7.86307V14.4446C15.1851 15.1322 14.9119 15.7916 14.4257 16.2778C13.9395 16.764 13.2801 17.0371 12.5925 17.0371H7.03693C6.34933 17.0371 5.68989 16.764 5.20369 16.2778C4.71748 15.7916 4.44434 15.1322 4.44434 14.4446V10.7408H12.2221V7.77789C12.2217 7.39687 12.3681 7.03033 12.6309 6.75444C12.8937 6.47854 13.2526 6.3145 13.6332 6.29641C13.8386 6.2954 14.042 6.33535 14.2317 6.41391C14.4214 6.49247 14.5936 6.60807 14.7381 6.75394C14.8826 6.89982 14.9965 7.07305 15.0733 7.26349C15.15 7.45393 15.188 7.65777 15.1851 7.86307Z" fill="#FFE27A"/>
<path d="M15.1844 7.863V14.4445C15.1844 15.1321 14.9113 15.7915 14.4251 16.2777C13.9389 16.7639 13.2794 17.0371 12.5919 17.0371H7.0363C6.35133 17.0421 5.69222 16.7757 5.20296 16.2963C5.07909 16.1715 4.96747 16.0351 4.86963 15.8889C5.2944 16.1623 5.79048 16.304 6.29555 16.2963H12.8733C13.2898 16.2963 13.6893 16.1309 13.9838 15.8364C14.2783 15.5419 14.4437 15.1425 14.4437 14.726V6.71115C14.4424 6.63862 14.4325 6.5665 14.4141 6.49634C14.6485 6.63935 14.8425 6.84006 14.9773 7.0793C15.1122 7.31855 15.1835 7.58837 15.1844 7.863Z" fill="#F6B545"/>
<path d="M12.185 10.7407C11.8751 10.8968 11.5924 11.1019 11.3479 11.3481C11.0373 11.6566 10.791 12.0237 10.6231 12.428C10.4553 12.8323 10.3693 13.2659 10.3702 13.7037C10.3702 13.8019 10.3311 13.8961 10.2617 13.9656C10.1922 14.035 10.098 14.0741 9.99979 14.0741C9.90156 14.0741 9.80735 14.035 9.7379 13.9656C9.66844 13.8961 9.62942 13.8019 9.62942 13.7037C9.62761 13.1684 9.7321 12.638 9.93682 12.1434C10.1415 11.6487 10.4424 11.1997 10.822 10.8222L10.9072 10.7407H12.185Z" fill="#F6B545"/>
<path d="M20 1.48148V2.59259C20 2.19968 19.8439 1.82286 19.5661 1.54503C19.2883 1.2672 18.9114 1.11111 18.5185 1.11111H1.48148C1.08857 1.11111 0.711747 1.2672 0.433916 1.54503C0.156084 1.82286 0 2.19968 0 2.59259V1.48148C0 1.08857 0.156084 0.711747 0.433916 0.433916C0.711747 0.156084 1.08857 0 1.48148 0H18.5185C18.9114 0 19.2883 0.156084 19.5661 0.433916C19.8439 0.711747 20 1.08857 20 1.48148Z" fill="#6F707E"/>
<path d="M20 2.59257V4.44442C20 4.83733 19.8439 5.21415 19.5661 5.49198C19.2883 5.76981 18.9114 5.9259 18.5185 5.9259H18.1481V2.96294H1.85185V5.9259H1.48148C1.08857 5.9259 0.711747 5.76981 0.433916 5.49198C0.156084 5.21415 0 4.83733 0 4.44442V2.59257C0 2.19965 0.156084 1.82283 0.433916 1.545C0.711747 1.26717 1.08857 1.11108 1.48148 1.11108H18.5185C18.9114 1.11108 19.2883 1.26717 19.5661 1.545C19.8439 1.82283 20 2.19965 20 2.59257Z" fill="#595A66"/>
<path d="M14.4443 18.1482V19.6297C14.4443 19.9244 14.3273 20.207 14.1189 20.4154C13.9105 20.6238 13.6279 20.7408 13.3332 20.7408H6.29617C6.00148 20.7408 5.71887 20.6238 5.5105 20.4154C5.30212 20.207 5.18506 19.9244 5.18506 19.6297V18.1482C5.18506 17.8536 5.30212 17.5709 5.5105 17.3626C5.71887 17.1542 6.00148 17.0371 6.29617 17.0371H13.3332C13.4597 17.0363 13.5853 17.0589 13.7036 17.1038C13.9197 17.1802 14.1069 17.3216 14.2395 17.5086C14.3721 17.6956 14.4437 17.919 14.4443 18.1482Z" fill="#4C9CD6"/>
<path d="M13.7036 17.1038V18.5186C13.7036 18.8133 13.5865 19.0959 13.3781 19.3043C13.1698 19.5127 12.8872 19.6297 12.5925 19.6297H5.55543C5.42892 19.6305 5.30335 19.6079 5.18506 19.5631V18.1482C5.18506 17.8536 5.30212 17.5709 5.5105 17.3626C5.71887 17.1542 6.00148 17.0371 6.29617 17.0371H13.3332C13.4597 17.0363 13.5853 17.0589 13.7036 17.1038Z" fill="#70B7E5"/>
<path d="M12.2224 9.25919V10.7407H3.33353C2.94062 10.7407 2.5638 10.5846 2.28597 10.3068C2.00813 10.0289 1.85205 9.6521 1.85205 9.25919V2.96289H4.76687C4.6848 3.28072 4.49951 3.56229 4.24008 3.7634C3.98065 3.9645 3.66178 4.07376 3.33353 4.074V7.7777C3.72645 7.7777 4.10327 7.93379 4.3811 8.21162C4.65893 8.48945 4.81501 8.86627 4.81501 9.25919H12.2224Z" fill="#0E9347"/>
<path d="M16.6668 4.074V7.77771C16.2739 7.77771 15.8971 7.93379 15.6193 8.21162C15.3414 8.48945 15.1853 8.86627 15.1853 9.25919V7.86289C15.1883 7.65758 15.1503 7.45375 15.0735 7.26331C14.9968 7.07287 14.8828 6.89964 14.7383 6.75376C14.5938 6.60789 14.4217 6.49229 14.232 6.41372C14.0423 6.33516 13.8388 6.29522 13.6335 6.29622C13.2529 6.31432 12.8939 6.47836 12.6311 6.75425C12.3683 7.03015 12.222 7.39669 12.2224 7.77771V9.25919H4.81498C4.81498 8.86627 4.65889 8.48945 4.38106 8.21162C4.10323 7.93379 3.72641 7.77771 3.3335 7.77771V4.074C3.66175 4.07376 3.98062 3.9645 4.24005 3.7634C4.49947 3.56229 4.68477 3.28072 4.76683 2.96289H15.2335C15.3156 3.28072 15.5009 3.56229 15.7603 3.7634C16.0197 3.9645 16.3386 4.07376 16.6668 4.074Z" fill="#3BB54A"/>
<path d="M18.148 2.96289V9.25919C18.1475 9.58324 18.0407 9.89818 17.844 10.1557C17.6473 10.4133 17.3716 10.5992 17.0591 10.6851C16.9316 10.7225 16.7994 10.7412 16.6665 10.7407H15.1851V9.25919C15.1851 8.86627 15.3411 8.48945 15.619 8.21162C15.8968 7.93379 16.2736 7.77771 16.6665 7.77771V4.074C16.3383 4.07376 16.0194 3.9645 15.76 3.7634C15.5006 3.56229 15.3153 3.28072 15.2332 2.96289H18.148Z" fill="#0E9347"/>
<path d="M9.9998 7.77771C11.0226 7.77771 11.8517 6.69987 11.8517 5.3703C11.8517 4.04072 11.0226 2.96289 9.9998 2.96289C8.97705 2.96289 8.14795 4.04072 8.14795 5.3703C8.14795 6.69987 8.97705 7.77771 9.9998 7.77771Z" fill="#89C763"/>
<path d="M18.5187 3.33327H1.4817C1.38347 3.33327 1.28927 3.29425 1.21981 3.22479C1.15035 3.15533 1.11133 3.06113 1.11133 2.9629C1.11133 2.86467 1.15035 2.77047 1.21981 2.70101C1.28927 2.63155 1.38347 2.59253 1.4817 2.59253H18.5187C18.617 2.59253 18.7112 2.63155 18.7806 2.70101C18.8501 2.77047 18.8891 2.86467 18.8891 2.9629C18.8891 3.06113 18.8501 3.15533 18.7806 3.22479C18.7112 3.29425 18.617 3.33327 18.5187 3.33327Z" fill="#494A52"/>
</svg>
