<svg width="15" height="19" viewBox="0 0 15 19" fill="none" xmlns="http://www.w3.org/2000/svg">
<path d="M7.50015 9.18366C10.0491 9.18366 12.1156 7.12784 12.1156 4.59184C12.1156 2.05583 10.0491 0 7.50015 0C4.95115 0 2.88477 2.05583 2.88477 4.59184C2.88477 7.12784 4.95115 9.18366 7.50015 9.18366Z" fill="white"/>
<path d="M9.90384 11.0972H5.09616C2.30769 11.0972 0 13.3932 0 16.1674C0 16.837 0.288459 17.411 0.865387 17.698C1.73077 18.1763 3.65385 18.7502 7.5 18.7502C11.3462 18.7502 13.2692 18.1763 14.1346 17.698C14.6153 17.411 15 16.837 15 16.1674C15 13.2975 12.6923 11.0972 9.90384 11.0972Z" fill="white"/>
</svg>
