<svg width="20" height="20" viewBox="0 0 20 20" fill="none" xmlns="http://www.w3.org/2000/svg">
<path d="M11.25 1.25H3.125C2.08947 1.25 1.25 2.08947 1.25 3.125V16.875C1.25 17.9105 2.08947 18.75 3.125 18.75H11.25C12.2855 18.75 13.125 17.9105 13.125 16.875V3.125C13.125 2.08947 12.2855 1.25 11.25 1.25Z" fill="url(#paint0_linear_2742_7724)"/>
<path d="M9.37461 4.375H3.74961C2.92461 4.375 2.92461 3.125 3.74961 3.125H9.37461C10.1996 3.125 10.1996 4.375 9.37461 4.375Z" fill="url(#paint1_linear_2742_7724)"/>
<path d="M6.24961 7.5H3.74961C2.92461 7.5 2.92461 6.25 3.74961 6.25H6.24961C7.07461 6.25 7.07461 7.5 6.24961 7.5Z" fill="url(#paint2_linear_2742_7724)"/>
<path d="M4.99961 10.625H3.74961C2.92461 10.625 2.92461 9.375 3.74961 9.375H4.99961C5.82461 9.375 5.82461 10.625 4.99961 10.625Z" fill="url(#paint3_linear_2742_7724)"/>
<path d="M5.62461 13.75H3.74961C2.92461 13.75 2.92461 12.5 3.74961 12.5H5.62461C6.44961 12.5 6.44961 13.75 5.62461 13.75Z" fill="url(#paint4_linear_2742_7724)"/>
<path d="M6.24961 16.875H3.74961C2.92461 16.875 2.92461 15.625 3.74961 15.625H6.24961C7.07461 15.625 7.07461 16.875 6.24961 16.875Z" fill="url(#paint5_linear_2742_7724)"/>
<path d="M18.6942 8.94844C18.638 8.36719 18.1942 7.90469 17.613 7.82344C15.6442 7.54219 14.388 6.84844 13.8192 6.46094C13.4005 6.17969 12.8505 6.17969 12.4317 6.46094C11.863 6.84844 10.6067 7.54219 8.63798 7.82344C8.05673 7.90469 7.61298 8.36719 7.55673 8.94844C7.17548 12.8984 8.45673 16.7922 12.1067 18.5234C12.7692 18.8297 13.5067 18.8172 14.1442 18.5234C17.763 16.8047 19.063 12.9234 18.6942 8.94844Z" fill="url(#paint6_linear_2742_7724)"/>
<path d="M12.0562 14.1976L10.8062 12.9476C10.2187 12.3601 11.1062 11.4726 11.6937 12.0601L12.4999 12.8726L14.5562 10.8101C15.1437 10.2226 16.0312 11.1101 15.4437 11.6976L12.9437 14.1976C12.6874 14.4413 12.3124 14.4413 12.0562 14.1976Z" fill="#00E676"/>
<path d="M15.4437 11.6976L12.9437 14.1976C12.6874 14.4413 12.3124 14.4413 12.0562 14.1976L10.8062 12.9476C10.2187 12.3601 11.1062 11.4726 11.6937 12.0601L12.4999 12.8726L14.5562 10.8101C15.1437 10.2226 16.0312 11.1101 15.4437 11.6976Z" fill="#00E676"/>
<path d="M15.4437 11.6976L12.9437 14.1976C12.6874 14.4413 12.3124 14.4413 12.0562 14.1976L10.8062 12.9476C10.2187 12.3601 11.1062 11.4726 11.6937 12.0601L12.4999 12.8726L14.5562 10.8101C15.1437 10.2226 16.0312 11.1101 15.4437 11.6976Z" fill="url(#paint7_linear_2742_7724)"/>
<defs>
<linearGradient id="paint0_linear_2742_7724" x1="0.39375" y1="16.7937" x2="13.9813" y2="3.20625" gradientUnits="userSpaceOnUse">
<stop stop-color="#004D40"/>
<stop offset="1" stop-color="#26A69A"/>
</linearGradient>
<linearGradient id="paint1_linear_2742_7724" x1="4.70586" y1="5.60625" x2="8.41836" y2="1.89375" gradientUnits="userSpaceOnUse">
<stop stop-color="#00E676"/>
<stop offset="1" stop-color="#69F0AE"/>
</linearGradient>
<linearGradient id="paint2_linear_2742_7724" x1="3.92461" y1="7.95" x2="6.07461" y2="5.8" gradientUnits="userSpaceOnUse">
<stop stop-color="#00E676"/>
<stop offset="1" stop-color="#69F0AE"/>
</linearGradient>
<linearGradient id="paint3_linear_2742_7724" x1="3.61211" y1="10.7625" x2="5.13711" y2="9.2375" gradientUnits="userSpaceOnUse">
<stop stop-color="#00E676"/>
<stop offset="1" stop-color="#69F0AE"/>
</linearGradient>
<linearGradient id="paint4_linear_2742_7724" x1="3.76836" y1="14.0438" x2="5.60586" y2="12.2062" gradientUnits="userSpaceOnUse">
<stop stop-color="#00E676"/>
<stop offset="1" stop-color="#69F0AE"/>
</linearGradient>
<linearGradient id="paint5_linear_2742_7724" x1="3.92461" y1="17.325" x2="6.07461" y2="15.175" gradientUnits="userSpaceOnUse">
<stop stop-color="#00E676"/>
<stop offset="1" stop-color="#69F0AE"/>
</linearGradient>
<linearGradient id="paint6_linear_2742_7724" x1="8.81923" y1="15.8797" x2="17.4255" y2="7.27344" gradientUnits="userSpaceOnUse">
<stop stop-color="#00E676"/>
<stop offset="1" stop-color="#69F0AE"/>
</linearGradient>
<linearGradient id="paint7_linear_2742_7724" x1="11.4312" y1="13.5726" x2="14.8187" y2="10.1913" gradientUnits="userSpaceOnUse">
<stop stop-color="#004D40"/>
<stop offset="1" stop-color="#26A69A"/>
</linearGradient>
</defs>
</svg>
