<svg width="15" height="19" viewBox="0 0 15 19" fill="none" xmlns="http://www.w3.org/2000/svg">
<path d="M7.50015 9.35192C10.0491 9.35192 12.1156 7.29495 12.1156 4.75751C12.1156 2.22008 10.0491 0.163086 7.50015 0.163086C4.95115 0.163086 2.88477 2.22008 2.88477 4.75751C2.88477 7.29495 4.95115 9.35192 7.50015 9.35192Z" fill="white"/>
<path d="M9.90384 11.2666H5.09616C2.30769 11.2666 0 13.5639 0 16.3397C0 17.0097 0.288459 17.584 0.865387 17.8712C1.73077 18.3498 3.65385 18.9239 7.5 18.9239C11.3462 18.9239 13.2692 18.3498 14.1346 17.8712C14.6153 17.584 15 17.0097 15 16.3397C15 13.4682 12.6923 11.2666 9.90384 11.2666Z" fill="white"/>
</svg>
