<svg width="126" height="36" viewBox="0 0 126 36" fill="none" xmlns="http://www.w3.org/2000/svg">
<g clip-path="url(#clip0_5_3531)">
<path d="M1.63638 13.0909C0.654565 13.0909 0 12.4363 0 11.4545V4.90907C0 2.12725 2.12725 0 4.90907 0H11.4545C12.4363 0 13.0909 0.654565 13.0909 1.63638C13.0909 2.61819 12.4363 3.27276 11.4545 3.27276H4.90907C3.92726 3.27276 3.27269 3.92732 3.27269 4.90914V11.4546C3.27276 12.4363 2.61819 13.0909 1.63638 13.0909ZM34.3636 13.0909C33.3818 13.0909 32.7272 12.4363 32.7272 11.4545V4.90907C32.7272 3.92726 32.0727 3.27269 31.0909 3.27269H24.5454C23.5636 3.27269 22.909 2.61813 22.909 1.63631C22.909 0.654498 23.5636 0 24.5454 0H31.0909C33.8727 0 35.9999 2.12725 35.9999 4.90907V11.4545C36 12.4363 35.3454 13.0909 34.3636 13.0909ZM11.4545 36H4.90907C2.12725 36 0 33.8727 0 31.0909V24.5455C0 23.5637 0.654565 22.9091 1.63638 22.9091C2.61819 22.9091 3.27276 23.5637 3.27276 24.5455V31.0909C3.27276 32.0727 3.92732 32.7273 4.90914 32.7273H11.4546C12.4364 32.7273 13.091 33.3819 13.091 34.3637C13.0909 35.3454 12.4363 36 11.4545 36ZM31.0909 36H24.5455C23.5637 36 22.9091 35.3454 22.9091 34.3636C22.9091 33.3818 23.5637 32.7272 24.5455 32.7272H31.0909C32.0727 32.7272 32.7273 32.0727 32.7273 31.0909V24.5454C32.7273 23.5636 33.3819 22.909 34.3637 22.909C35.3455 22.909 36.0001 23.5636 36.0001 24.5454V31.0909C36 33.8727 33.8727 36 31.0909 36Z" fill="white"/>
<path d="M14.7267 16.3641H8.1813C7.19949 16.3641 6.54492 15.7095 6.54492 14.7277V8.18228C6.54492 7.20046 7.19949 6.5459 8.1813 6.5459H14.7267C15.7086 6.5459 16.3631 7.20046 16.3631 8.18228V14.7277C16.3631 15.7095 15.7086 16.3641 14.7267 16.3641ZM9.81768 13.0913H13.0904V9.81859H9.81768V13.0913ZM14.7267 29.455H8.1813C7.19949 29.455 6.54492 28.8004 6.54492 27.8186V21.2732C6.54492 20.2914 7.19949 19.6368 8.1813 19.6368H14.7267C15.7086 19.6368 16.3631 20.2914 16.3631 21.2732V27.8186C16.3631 28.8004 15.7086 29.455 14.7267 29.455ZM9.81768 26.1822H13.0904V22.9095H9.81768V26.1822ZM27.8176 16.3641H21.2722C20.2904 16.3641 19.6358 15.7095 19.6358 14.7277V8.18228C19.6358 7.20046 20.2904 6.5459 21.2722 6.5459H27.8176C28.7995 6.5459 29.454 7.20046 29.454 8.18228V14.7277C29.454 15.7095 28.7995 16.3641 27.8176 16.3641ZM22.9086 13.0913H26.1813V9.81859H22.9086V13.0913ZM21.2722 24.5459C20.2904 24.5459 19.6358 23.8913 19.6358 22.9095V21.2731C19.6358 20.2913 20.2904 19.6367 21.2722 19.6367C22.254 19.6367 22.9086 20.2913 22.9086 21.2731V22.9095C22.9086 23.8914 22.254 24.5459 21.2722 24.5459ZM27.8176 22.9096H26.1813C25.1995 22.9096 24.5449 22.255 24.5449 21.2732C24.5449 20.2914 25.1995 19.6368 26.1813 19.6368H27.8176C28.7995 19.6368 29.454 20.2914 29.454 21.2732C29.454 22.255 28.7995 22.9096 27.8176 22.9096ZM27.8176 29.455H22.9086C21.9268 29.455 21.2722 28.8004 21.2722 27.8186C21.2722 26.8368 21.9268 26.1822 22.9086 26.1822H27.8176C28.7995 26.1822 29.454 26.8368 29.454 27.8186C29.454 28.8004 28.7995 29.455 27.8176 29.455Z" fill="white"/>
</g>
<path d="M58.835 23.6152L62.5732 26.9883L60.5967 28.8037L56.9443 25.4307L58.835 23.6152ZM62.5088 16.9658V19.3936C62.5088 20.5179 62.3763 21.5098 62.1113 22.3691C61.8464 23.2214 61.4632 23.9339 60.9619 24.5068C60.4606 25.0726 59.8662 25.4987 59.1787 25.7852C58.4912 26.0716 57.7285 26.2148 56.8906 26.2148C56.0527 26.2148 55.2865 26.0716 54.5918 25.7852C53.9043 25.4987 53.3099 25.0726 52.8086 24.5068C52.3145 23.9339 51.9277 23.2214 51.6484 22.3691C51.3763 21.5098 51.2402 20.5179 51.2402 19.3936V16.9658C51.2402 15.8415 51.3763 14.8532 51.6484 14.001C51.9206 13.1488 52.3037 12.4398 52.7979 11.874C53.2992 11.3011 53.8936 10.8714 54.5811 10.585C55.2686 10.2913 56.0312 10.1445 56.8691 10.1445C57.7142 10.1445 58.4805 10.2913 59.168 10.585C59.8555 10.8714 60.4499 11.3011 60.9512 11.874C61.4596 12.4398 61.8464 13.1488 62.1113 14.001C62.3763 14.8532 62.5088 15.8415 62.5088 16.9658ZM59.3721 19.3936V16.9443C59.3721 16.2067 59.3184 15.5729 59.2109 15.043C59.1035 14.513 58.9424 14.0798 58.7275 13.7432C58.5199 13.4066 58.2585 13.1595 57.9434 13.002C57.6354 12.8444 57.2773 12.7656 56.8691 12.7656C56.4681 12.7656 56.11 12.8444 55.7949 13.002C55.487 13.1595 55.2292 13.4066 55.0215 13.7432C54.8138 14.0798 54.6527 14.513 54.5381 15.043C54.4307 15.5729 54.377 16.2067 54.377 16.9443V19.3936C54.377 20.1383 54.4307 20.7757 54.5381 21.3057C54.6455 21.8356 54.8031 22.2725 55.0107 22.6162C55.2256 22.9528 55.487 23.2035 55.7949 23.3682C56.11 23.5257 56.4753 23.6045 56.8906 23.6045C57.2917 23.6045 57.6462 23.5257 57.9541 23.3682C58.2692 23.2035 58.5306 22.9528 58.7383 22.6162C58.9531 22.2796 59.1107 21.8464 59.2109 21.3164C59.3184 20.7793 59.3721 20.1383 59.3721 19.3936ZM64.8184 10.3594H69.835C70.8805 10.3594 71.7721 10.5384 72.5098 10.8965C73.2474 11.2546 73.8132 11.7845 74.207 12.4863C74.6009 13.1882 74.7979 14.0547 74.7979 15.0859C74.7979 15.931 74.6833 16.6543 74.4541 17.2559C74.2249 17.8503 73.8991 18.348 73.4766 18.749C73.054 19.1429 72.5492 19.458 71.9619 19.6943L71.0059 20.2637H66.9346L66.9238 17.6533H69.749C70.1787 17.6533 70.5332 17.5602 70.8125 17.374C71.099 17.1807 71.3102 16.9121 71.4463 16.5684C71.5895 16.2174 71.6611 15.8092 71.6611 15.3438C71.6611 14.8496 71.5967 14.4271 71.4678 14.0762C71.346 13.7181 71.1491 13.446 70.877 13.2598C70.612 13.0664 70.2646 12.9697 69.835 12.9697H67.9658V26H64.8184V10.3594ZM71.9189 26L69.0508 19.0283L72.3486 19.0176L75.2812 25.8496V26H71.9189ZM89.5146 20.79H92.6406C92.5977 21.9645 92.3613 22.9564 91.9316 23.7656C91.502 24.5677 90.8896 25.1764 90.0947 25.5918C89.307 26.0072 88.3545 26.2148 87.2373 26.2148C86.3708 26.2148 85.6009 26.0716 84.9277 25.7852C84.2546 25.4915 83.6816 25.0618 83.209 24.4961C82.7363 23.9303 82.3783 23.2321 82.1348 22.4014C81.8984 21.5635 81.7803 20.6003 81.7803 19.5117V16.8584C81.7803 15.7699 81.9056 14.8066 82.1562 13.9688C82.4141 13.1309 82.7793 12.429 83.252 11.8633C83.7318 11.2904 84.3083 10.8607 84.9814 10.5742C85.6618 10.2806 86.4281 10.1338 87.2803 10.1338C88.4189 10.1338 89.3714 10.3486 90.1377 10.7783C90.904 11.208 91.4948 11.8346 91.9102 12.6582C92.3327 13.4746 92.5869 14.4736 92.6729 15.6553H89.5361C89.5146 14.9105 89.4287 14.3268 89.2783 13.9043C89.1351 13.4746 88.9059 13.1738 88.5908 13.002C88.2757 12.8229 87.8389 12.7334 87.2803 12.7334C86.8649 12.7334 86.5068 12.8086 86.2061 12.959C85.9053 13.1022 85.6582 13.335 85.4648 13.6572C85.2715 13.9795 85.1283 14.402 85.0352 14.9248C84.9492 15.4476 84.9062 16.085 84.9062 16.8369V19.5117C84.9062 20.2493 84.9456 20.8796 85.0244 21.4023C85.1032 21.918 85.2285 22.3405 85.4004 22.6699C85.5723 22.9993 85.805 23.2393 86.0986 23.3896C86.3994 23.54 86.779 23.6152 87.2373 23.6152C87.7673 23.6152 88.1934 23.5365 88.5156 23.3789C88.8451 23.2214 89.0885 22.9385 89.2461 22.5303C89.4036 22.1221 89.4932 21.542 89.5146 20.79ZM94.1123 20.5859V19.8018C94.1123 18.8923 94.2197 18.0866 94.4346 17.3848C94.6566 16.6829 94.9717 16.0957 95.3799 15.623C95.7881 15.1432 96.2786 14.7816 96.8516 14.5381C97.4316 14.2874 98.0798 14.1621 98.7959 14.1621C99.5192 14.1621 100.167 14.2874 100.74 14.5381C101.32 14.7816 101.814 15.1432 102.223 15.623C102.638 16.0957 102.957 16.6829 103.179 17.3848C103.401 18.0866 103.512 18.8923 103.512 19.8018V20.5859C103.512 21.4883 103.401 22.2904 103.179 22.9922C102.957 23.694 102.638 24.2848 102.223 24.7646C101.814 25.2445 101.324 25.6061 100.751 25.8496C100.178 26.0931 99.5335 26.2148 98.8174 26.2148C98.1012 26.2148 97.4531 26.0931 96.873 25.8496C96.3001 25.6061 95.806 25.2445 95.3906 24.7646C94.9753 24.2848 94.6566 23.694 94.4346 22.9922C94.2197 22.2904 94.1123 21.4883 94.1123 20.5859ZM97.1201 19.8018V20.5859C97.1201 21.123 97.1559 21.5885 97.2275 21.9824C97.3063 22.3763 97.4173 22.7021 97.5605 22.96C97.7109 23.2178 97.89 23.4076 98.0977 23.5293C98.3053 23.651 98.5452 23.7119 98.8174 23.7119C99.0895 23.7119 99.333 23.651 99.5479 23.5293C99.7627 23.4076 99.9382 23.2178 100.074 22.96C100.217 22.7021 100.321 22.3763 100.386 21.9824C100.457 21.5885 100.493 21.123 100.493 20.5859V19.8018C100.493 19.279 100.454 18.8206 100.375 18.4268C100.296 18.0257 100.185 17.6999 100.042 17.4492C99.8988 17.1914 99.7197 16.998 99.5049 16.8691C99.2972 16.7331 99.0609 16.665 98.7959 16.665C98.5309 16.665 98.2946 16.7331 98.0869 16.8691C97.8864 16.998 97.7109 17.1914 97.5605 17.4492C97.4173 17.6999 97.3063 18.0257 97.2275 18.4268C97.1559 18.8206 97.1201 19.279 97.1201 19.8018ZM111.042 23.4326V9.5H114.061V26L111.332 26.0107L111.042 23.4326ZM105.016 20.5967V19.8232C105.016 18.8779 105.094 18.0508 105.252 17.3418C105.417 16.6328 105.66 16.042 105.982 15.5693C106.305 15.0967 106.699 14.7458 107.164 14.5166C107.637 14.2803 108.177 14.1621 108.786 14.1621C109.338 14.1621 109.821 14.3018 110.236 14.5811C110.659 14.8532 111.017 15.2363 111.311 15.7305C111.604 16.2246 111.84 16.8083 112.02 17.4814C112.199 18.1546 112.324 18.8923 112.396 19.6943V20.8115C112.31 21.5706 112.177 22.2796 111.998 22.9385C111.826 23.5973 111.59 24.1702 111.289 24.6572C110.995 25.1442 110.641 25.5273 110.226 25.8066C109.81 26.0788 109.327 26.2148 108.775 26.2148C108.167 26.2148 107.626 26.0931 107.153 25.8496C106.688 25.6061 106.294 25.248 105.972 24.7754C105.657 24.2956 105.417 23.7083 105.252 23.0137C105.094 22.3118 105.016 21.5062 105.016 20.5967ZM108.023 19.8232V20.5967C108.023 21.141 108.049 21.61 108.099 22.0039C108.156 22.3906 108.245 22.7093 108.367 22.96C108.496 23.2035 108.664 23.3861 108.872 23.5078C109.08 23.6224 109.338 23.6797 109.646 23.6797C110.047 23.6797 110.372 23.5794 110.623 23.3789C110.874 23.1712 111.06 22.8883 111.182 22.5303C111.311 22.165 111.382 21.7461 111.396 21.2734V19.2432C111.382 18.8493 111.336 18.4948 111.257 18.1797C111.178 17.8646 111.067 17.596 110.924 17.374C110.781 17.152 110.602 16.9801 110.387 16.8584C110.179 16.7367 109.936 16.6758 109.656 16.6758C109.355 16.6758 109.098 16.7367 108.883 16.8584C108.675 16.9801 108.51 17.1699 108.389 17.4277C108.267 17.6784 108.174 18.0042 108.109 18.4053C108.052 18.7992 108.023 19.2718 108.023 19.8232ZM121.011 26.2148C120.216 26.2148 119.51 26.0931 118.895 25.8496C118.286 25.6061 117.77 25.2552 117.348 24.7969C116.925 24.3314 116.603 23.7692 116.381 23.1104C116.159 22.4515 116.048 21.6995 116.048 20.8545V19.8984C116.048 18.9531 116.155 18.126 116.37 17.417C116.585 16.7008 116.889 16.0993 117.283 15.6123C117.677 15.1253 118.16 14.7637 118.733 14.5273C119.313 14.2839 119.969 14.1621 120.699 14.1621C121.43 14.1621 122.071 14.2839 122.622 14.5273C123.181 14.7637 123.643 15.1217 124.008 15.6016C124.373 16.0742 124.649 16.6615 124.835 17.3633C125.021 18.0651 125.114 18.8815 125.114 19.8125V21.1875H117.326V19.0713H122.16V18.8027C122.16 18.3301 122.11 17.9362 122.01 17.6211C121.91 17.2988 121.752 17.0589 121.537 16.9014C121.322 16.7438 121.036 16.665 120.678 16.665C120.377 16.665 120.123 16.7259 119.915 16.8477C119.707 16.9694 119.543 17.1592 119.421 17.417C119.299 17.6748 119.21 18.0114 119.152 18.4268C119.095 18.835 119.066 19.3255 119.066 19.8984V20.8545C119.066 21.3916 119.113 21.8428 119.206 22.208C119.299 22.5661 119.435 22.8597 119.614 23.0889C119.8 23.3109 120.026 23.472 120.291 23.5723C120.556 23.6654 120.864 23.7119 121.215 23.7119C121.745 23.7119 122.221 23.6188 122.644 23.4326C123.073 23.2393 123.438 22.9779 123.739 22.6484L124.942 24.4746C124.735 24.7467 124.448 25.0189 124.083 25.291C123.718 25.5632 123.281 25.7852 122.772 25.957C122.264 26.1289 121.677 26.2148 121.011 26.2148Z" fill="white"/>
<defs>
<clipPath id="clip0_5_3531">
<rect width="36" height="36" fill="white"/>
</clipPath>
</defs>
</svg>
