<svg width="17" height="17" viewBox="0 0 17 17" fill="none" xmlns="http://www.w3.org/2000/svg">
<path d="M6.84242 17C6.56525 17 6.32542 16.9095 6.12294 16.7285C5.92046 16.5475 5.80153 16.325 5.76613 16.0611L5.52946 14.2786C5.41248 14.234 5.3 14.1796 5.19201 14.1155C5.08404 14.0515 4.97756 13.9845 4.87257 13.9146L3.17719 14.6101C2.92162 14.7218 2.6641 14.7338 2.40464 14.6463C2.14516 14.5587 1.94463 14.3965 1.80305 14.1596L0.154464 11.3377C0.0128808 11.1009 -0.0313631 10.8505 0.0217325 10.5866C0.0748143 10.3228 0.211444 10.1109 0.431623 9.95104L1.89033 8.86407C1.88433 8.80002 1.88133 8.73934 1.88133 8.68204V8.31796C1.88133 8.26066 1.88433 8.19999 1.89033 8.13593L0.431623 7.06043C0.211444 6.90057 0.0748073 6.68679 0.0217117 6.41909C-0.0313701 6.15138 0.0128808 5.8991 0.154464 5.66225L1.80305 2.85184C1.94463 2.62263 2.14516 2.46424 2.40464 2.37667C2.6641 2.28911 2.92162 2.29733 3.17719 2.40135L4.89598 3.09691C5.00095 3.02697 5.10503 2.96189 5.20822 2.90166C5.3114 2.84141 5.41848 2.78896 5.52946 2.7443L5.76613 0.938873C5.80153 0.67499 5.92046 0.452536 6.12294 0.271514C6.32542 0.0905045 6.56525 0 6.84242 0H10.1576C10.4348 0 10.6746 0.0905045 10.8771 0.271514C11.0795 0.452536 11.1985 0.67499 11.2339 0.938873L11.4706 2.7443C11.5875 2.78896 11.7 2.84141 11.808 2.90166C11.916 2.96189 12.0225 3.02697 12.1274 3.09691L13.8228 2.40135C14.0784 2.29733 14.3359 2.28911 14.5954 2.37667C14.8548 2.46424 15.0554 2.62263 15.197 2.85184L16.8455 5.66225C16.9871 5.8991 17.0314 6.15138 16.9783 6.41909C16.9252 6.68679 16.7847 6.90057 16.5567 7.06043L15.098 8.13593C15.104 8.19999 15.107 8.26066 15.107 8.31796V8.5C15.107 8.56406 15.105 8.62474 15.1011 8.68204C15.0972 8.73934 15.0893 8.80002 15.0773 8.86407L16.536 9.93956C16.764 10.0994 16.9045 10.3132 16.9576 10.5809C17.0107 10.8486 16.9664 11.1009 16.8249 11.3377L15.1646 14.1623C15.023 14.3991 14.821 14.559 14.5585 14.6418C14.296 14.7247 14.037 14.7141 13.7814 14.6101L12.104 13.9146C11.9991 13.9845 11.895 14.0515 11.7918 14.1155C11.6886 14.1796 11.5815 14.234 11.4706 14.2786L11.2339 16.0611C11.1985 16.325 11.0795 16.5475 10.8771 16.7285C10.6746 16.9095 10.4348 17 10.1576 17H6.84242ZM8.5063 11.3386C9.30659 11.3386 9.98961 11.0615 10.5553 10.5073C11.1211 9.9531 11.4039 9.284 11.4039 8.5C11.4039 7.716 11.1211 7.0469 10.5553 6.49269C9.98961 5.93848 9.30659 5.66138 8.5063 5.66138C7.70001 5.66138 7.0155 5.93848 6.45277 6.49269C5.89004 7.0469 5.60867 7.716 5.60867 8.5C5.60867 9.284 5.89004 9.9531 6.45277 10.5073C7.0155 11.0615 7.70001 11.3386 8.5063 11.3386Z" fill="white"/>
</svg>
