<svg width="19" height="18" viewBox="0 0 19 18" fill="none" xmlns="http://www.w3.org/2000/svg">
<path d="M5.06618 9.48605C4.22867 9.48605 4.14051 9.08911 4.14051 9.08911L0.966797 15.3519L3.5234 15.0432L4.93394 17.1602L7.88726 11.1179C6.34448 11.1179 6.91751 9.57426 5.06618 9.53015V9.48605ZM14.8077 9.35374C12.4715 9.61836 12.9564 10.1917 12.4274 10.6328C12.2573 10.8074 12.0501 10.9416 11.8213 11.0255C11.5924 11.1095 11.3477 11.141 11.1051 11.1179L14.6314 17.2925L15.513 14.9991L18.0255 15.3519L14.8077 9.35374ZM10.3998 2.38526L9.5182 0.621094L8.63661 2.38526L6.60896 2.64989L8.06358 4.06123L7.71094 6.04592L9.47412 5.11973L11.2373 6.00181L10.9287 4.06123L12.3834 2.64989L10.3998 2.38526Z" fill="white"/>
</svg>
