<svg width="19" height="22" viewBox="0 0 19 22" fill="none" xmlns="http://www.w3.org/2000/svg">
<path d="M12.1194 13.8831C12.2906 13.5673 12.5461 13.3052 12.8575 13.1261C13.1688 12.947 13.5237 12.8579 13.8826 12.8687C14.0406 12.8833 14.1998 12.8621 14.3485 12.8067C14.4972 12.7514 14.6316 12.6632 14.7417 12.5489C14.8517 12.4345 14.9347 12.2969 14.9843 12.1461C15.034 11.9953 15.0492 11.8353 15.0287 11.6779C15.0179 11.3188 15.1069 10.9637 15.2859 10.6522C15.4649 10.3407 15.7268 10.085 16.0425 9.91372C16.1875 9.85106 16.3166 9.7567 16.4204 9.63757C16.5242 9.51844 16.6 9.37757 16.6423 9.2253C16.6846 9.07303 16.6922 8.91322 16.6647 8.75759C16.6372 8.60197 16.5752 8.45449 16.4833 8.32597C16.3009 8.01908 16.2046 7.66863 16.2046 7.31157C16.2046 6.95452 16.3009 6.60407 16.4833 6.29718C16.5752 6.16866 16.6372 6.02118 16.6647 5.86555C16.6922 5.70993 16.6846 5.55012 16.6423 5.39785C16.6 5.24557 16.5242 5.1047 16.4204 4.98558C16.3166 4.86645 16.1875 4.77209 16.0425 4.70942C15.7268 4.5381 15.4649 4.28246 15.2859 3.97097C15.1069 3.65949 15.0179 3.3044 15.0287 2.94525C15.0492 2.78783 15.034 2.62781 14.9843 2.47704C14.9347 2.32627 14.8517 2.18861 14.7417 2.07426C14.6316 1.9599 14.4972 1.87178 14.3485 1.81642C14.1998 1.76106 14.0406 1.73988 13.8826 1.75444C13.5237 1.76525 13.1688 1.67614 12.8575 1.49704C12.5461 1.31793 12.2906 1.05587 12.1194 0.74004C12.0584 0.587977 11.9628 0.452177 11.8404 0.343338C11.718 0.234498 11.5719 0.155592 11.4138 0.112835C11.2557 0.0700775 11.0898 0.0646371 10.9292 0.0969422C10.7687 0.129247 10.6178 0.198415 10.4885 0.298998C10.1818 0.481494 9.83151 0.577818 9.47466 0.577818C9.1178 0.577818 8.76756 0.481494 8.46083 0.298998C8.33239 0.207022 8.18499 0.144992 8.02945 0.117459C7.87392 0.0899265 7.7142 0.0975905 7.56201 0.139889C7.40982 0.182187 7.26903 0.258045 7.14997 0.361897C7.03091 0.465749 6.93661 0.594958 6.87397 0.74004C6.70275 1.05587 6.44725 1.31793 6.13594 1.49704C5.82463 1.67614 5.46974 1.76525 5.1108 1.75444C4.9528 1.73988 4.79356 1.76106 4.64485 1.81642C4.49615 1.87178 4.3618 1.9599 4.25174 2.07426C4.14168 2.18861 4.05875 2.32627 4.00906 2.47704C3.95938 2.62781 3.94423 2.78783 3.96473 2.94525C3.97063 3.30349 3.8795 3.65665 3.701 3.96725C3.52251 4.27785 3.26331 4.53431 2.95091 4.70942C2.80591 4.77209 2.67677 4.86645 2.57298 4.98558C2.46918 5.1047 2.39337 5.24557 2.35109 5.39785C2.30882 5.55012 2.30116 5.70993 2.32868 5.86555C2.35619 6.02118 2.41819 6.16866 2.51011 6.29718C2.69718 6.60243 2.79619 6.95351 2.79619 7.31157C2.79619 7.66964 2.69718 8.02072 2.51011 8.32597C2.41819 8.45449 2.35619 8.60197 2.32868 8.75759C2.30116 8.91322 2.30882 9.07303 2.35109 9.2253C2.39337 9.37757 2.46918 9.51844 2.57298 9.63757C2.67677 9.7567 2.80591 9.85106 2.95091 9.91372C3.26656 10.085 3.52848 10.3407 3.70748 10.6522C3.88648 10.9637 3.97554 11.3188 3.96473 11.6779C3.93677 11.8386 3.94632 12.0037 3.99264 12.1601C4.03895 12.3165 4.12079 12.4601 4.23174 12.5797C4.3427 12.6992 4.47977 12.7915 4.63226 12.8493C4.78475 12.9071 4.94853 12.9288 5.1108 12.9128C5.46974 12.902 5.82463 12.9911 6.13594 13.1702C6.44725 13.3493 6.70275 13.6114 6.87397 13.9272C6.93504 14.0793 7.03055 14.2151 7.153 14.3239C7.27545 14.4328 7.42148 14.5117 7.57959 14.5544C7.7377 14.5972 7.90358 14.6026 8.06415 14.5703C8.22472 14.538 8.37561 14.4688 8.50491 14.3683C8.81164 14.1858 9.16188 14.0894 9.51874 14.0894C9.87559 14.0894 10.2258 14.1858 10.5326 14.3683C10.661 14.4602 10.8084 14.5223 10.9639 14.5498C11.1195 14.5773 11.2792 14.5697 11.4314 14.5274C11.5836 14.4851 11.7244 14.4092 11.8434 14.3054C11.9625 14.2015 12.0568 14.0723 12.1194 13.9272V13.8831ZM9.47466 11.5456C8.63772 11.5456 7.81958 11.2973 7.1237 10.832C6.42781 10.3668 5.88543 9.70552 5.56515 8.93186C5.24487 8.15819 5.16107 7.30688 5.32435 6.48556C5.48762 5.66424 5.89065 4.90981 6.48245 4.31768C7.07425 3.72554 7.82826 3.32229 8.64911 3.15892C9.46996 2.99555 10.3208 3.0794 11.094 3.39986C11.8673 3.72032 12.5281 4.26301 12.9931 4.95929C13.4581 5.65556 13.7063 6.47417 13.7063 7.31157C13.7063 8.4269 13.2666 9.49721 12.4825 10.29C11.6984 11.0828 10.6334 11.534 9.51874 11.5456H9.47466Z" fill="white"/>
<path d="M5.06618 13.486C4.22867 13.486 4.14051 13.0891 4.14051 13.0891L0.966797 19.3519L3.5234 19.0432L4.93394 21.1602L7.88726 15.1179C6.34448 15.1179 6.91751 13.5743 5.06618 13.5302V13.486ZM14.8077 13.3537C12.4715 13.6184 12.9564 14.1917 12.4274 14.6328C12.2573 14.8074 12.0501 14.9416 11.8213 15.0255C11.5924 15.1095 11.3477 15.141 11.1051 15.1179L14.6314 21.2925L15.513 18.9991L18.0255 19.3519L14.8077 13.3537ZM10.3998 6.38526L9.5182 4.62109L8.63661 6.38526L6.60896 6.64989L8.06358 8.06123L7.71094 10.0459L9.47412 9.11973L11.2373 10.0018L10.9287 8.06123L12.3834 6.64989L10.3998 6.38526Z" fill="white"/>
</svg>
