<svg width="89" height="89" viewBox="0 0 89 89" fill="none" xmlns="http://www.w3.org/2000/svg">
<path d="M86.3091 22.5716C83.9729 13.9723 75.0294 5.02711 66.4284 2.69086C61.1545 1.37672 54.0901 0.0225977 44.5 0C34.9099 0.0225977 27.8455 1.37672 22.5716 2.69086C13.9723 5.02711 5.02711 13.9706 2.69086 22.5716C1.37672 27.8455 0.0225977 34.9099 0 44.5C0.0225977 54.0901 1.37672 61.1545 2.69086 66.4284C5.02711 75.0294 13.9723 83.9729 22.5716 86.3091C27.8455 87.6233 34.9134 88.9774 44.5 89C54.0884 88.9774 61.1545 87.6233 66.4284 86.3091C75.0294 83.9729 83.9729 75.0294 86.3091 66.4284C87.6233 61.1545 88.9774 54.0866 89 44.5C88.9774 34.9099 87.6233 27.8455 86.3091 22.5716Z" fill="#DFF8FF"/>
<path d="M71.4938 38.6391C70.2689 37.4478 69.0411 36.2524 67.8104 35.053C67.7756 33.3878 67.7321 31.7213 67.68 30.0537C67.6105 27.8235 66.6474 25.6959 64.9926 24.041C63.3988 22.4142 61.245 21.4557 58.9695 21.3606C57.2984 21.3084 55.6285 21.265 53.9597 21.2302C52.7522 20.0065 51.5568 18.7821 50.3737 17.5572C49.6229 16.7504 48.714 16.107 47.7036 15.667C46.6931 15.2271 45.6029 15 44.5009 15C43.3988 15 42.3086 15.2271 41.2982 15.667C40.2878 16.107 39.3788 16.7504 38.6281 17.5572C37.4437 18.7833 36.2461 20.0105 35.0351 21.2389C33.3663 21.2714 31.6976 21.3142 30.0288 21.3675C25.4311 21.524 21.4747 25.4716 21.3183 30.0589C21.2661 31.7242 21.2227 33.3906 21.1879 35.0582C19.9584 36.26 18.7306 37.4542 17.5045 38.6408C15.8688 40.2314 14.9492 42.3034 14.9492 44.5006C14.9564 45.5996 15.1866 46.6858 15.6258 47.6933C16.0651 48.7008 16.7042 49.6087 17.5045 50.3621C18.7306 51.5476 19.9584 52.7406 21.1879 53.9412C21.2227 55.6099 21.2661 57.2781 21.3183 58.9457C21.3878 61.1794 22.3508 63.3018 24.0039 64.9584C25.5986 66.5851 27.7529 67.5435 30.0288 67.6388C31.6999 67.691 33.3698 67.7345 35.0385 67.7692C36.2472 68.9953 37.4426 70.2202 38.6246 71.4439C39.3761 72.2504 40.2856 72.8935 41.2964 73.3332C42.3072 73.773 43.3977 73.9999 44.5 73.9999C45.6023 73.9999 46.6928 73.773 47.7036 73.3332C48.7144 72.8935 49.6239 72.2504 50.3754 71.4439C51.5644 70.2214 52.7609 68.9959 53.9649 67.7675C55.6337 67.7339 57.3024 67.691 58.9712 67.6388C63.5672 67.4824 67.5253 63.5313 67.6817 58.9474C67.7339 57.2822 67.7773 55.6163 67.8121 53.9499C69.0416 52.7493 70.2694 51.5528 71.4955 50.3603C72.295 49.6067 72.9335 48.699 73.3727 47.6919C73.8119 46.6848 74.0425 45.5992 74.0508 44.5006C74.0508 42.2999 73.1312 40.2279 71.4938 38.6391Z" fill="url(#paint0_linear_2741_2405)"/>
<path d="M59.1938 40.7597C54.2154 45.9328 49.157 51.2224 44.1838 56.4685C43.7793 56.8965 43.2919 57.2376 42.7513 57.471C42.2106 57.7044 41.6281 57.8253 41.0392 57.8261H41.0236C40.4352 57.8219 39.8536 57.7001 39.313 57.4679C38.7724 57.2356 38.2836 56.8976 37.8756 56.4737C35.2177 53.729 32.5408 50.986 29.8795 48.2656C29.4746 47.8586 29.1551 47.3749 28.9399 46.8427C28.7248 46.3105 28.6182 45.7406 28.6264 45.1667C28.6347 44.5927 28.7576 44.0261 28.988 43.5004C29.2185 42.9746 29.5517 42.5002 29.9681 42.1051C30.8066 41.2939 31.9318 40.847 33.0983 40.8616C34.2649 40.8763 35.3785 41.3513 36.1964 42.1833C37.7852 43.8127 39.3774 45.4472 40.9732 47.087C44.9225 42.9499 48.8893 38.7902 52.7935 34.6879C54.4518 32.9496 57.2174 32.9148 58.9957 34.5975C60.7739 36.2801 60.8643 39.0249 59.1938 40.7597Z" fill="url(#paint1_linear_2741_2405)"/>
<defs>
<linearGradient id="paint0_linear_2741_2405" x1="64.97" y1="64.9723" x2="24.0283" y2="24.0323" gradientUnits="userSpaceOnUse">
<stop stop-color="#1EB4EB"/>
<stop offset="0.54" stop-color="#1EB4EB"/>
<stop offset="1" stop-color="#92F4FE"/>
</linearGradient>
<linearGradient id="paint1_linear_2741_2405" x1="51.7731" y1="48.8809" x2="37.4757" y2="34.5836" gradientUnits="userSpaceOnUse">
<stop stop-color="#BCE4ED"/>
<stop offset="0.57" stop-color="white"/>
<stop offset="1" stop-color="white"/>
</linearGradient>
</defs>
</svg>
