<svg width="18" height="18" viewBox="0 0 18 18" fill="none" xmlns="http://www.w3.org/2000/svg">
<g clip-path="url(#clip0_2742_7736)">
<path d="M16.8831 4.06021C16.5688 2.2806 14.9527 0.664472 13.1731 0.351582C12.0938 0.170527 10.6235 0.00212851 8.61647 1.91357e-05C6.6094 -0.00209024 5.13987 0.170527 4.06022 0.351582C2.28061 0.664472 0.664479 2.2806 0.351588 4.06021C0.170534 5.13986 0.00248689 6.60939 2.59497e-05 8.61646C-0.00243499 10.6235 0.170534 12.0938 0.351588 13.1731C0.665885 14.9527 2.28237 16.5688 4.06163 16.8831C5.14163 17.0628 6.61116 17.2312 8.61788 17.2347C10.6246 17.2382 12.0945 17.0642 13.1745 16.8831C14.9541 16.5688 16.5702 14.9527 16.8845 13.1731C17.0642 12.0934 17.2322 10.6235 17.2361 8.61646C17.2399 6.60939 17.0628 5.14021 16.8831 4.06021Z" fill="#4193D2"/>
<path d="M0.375143 13.2986C1.59545 13.8233 2.91013 14.0931 4.23846 14.0913C9.63952 14.0913 14.0179 9.71299 14.0179 4.31228C14.0201 2.94821 13.7358 1.59888 13.1836 0.351582H13.1748C12.0938 0.170527 10.6235 0.00212851 8.61647 1.91357e-05C6.6094 -0.00209024 5.13987 0.170527 4.06022 0.351582C2.28061 0.664472 0.664479 2.2806 0.351588 4.06021C0.170534 5.13986 0.00248689 6.60939 2.59497e-05 8.61646C-0.00243499 10.6235 0.170534 12.0938 0.351588 13.1731C0.357565 13.2153 0.366354 13.2567 0.375143 13.2986Z" fill="#48A4DF"/>
<path d="M4.36227 4.16406H12.8754C13.1398 4.16406 13.3934 4.26911 13.5804 4.45609C13.7673 4.64307 13.8724 4.89666 13.8724 5.16109C13.8724 5.42552 13.7673 5.67912 13.5804 5.8661C13.3934 6.05308 13.1398 6.15813 12.8754 6.15813H4.36227C4.09784 6.15813 3.84424 6.05308 3.65726 5.8661C3.47028 5.67912 3.36523 5.42552 3.36523 5.16109C3.36523 4.89666 3.47028 4.64307 3.65726 4.45609C3.84424 4.26911 4.09784 4.16406 4.36227 4.16406ZM4.36227 10.322C4.09784 10.322 3.84424 10.217 3.65726 10.03C3.47028 9.84303 3.36523 9.58943 3.36523 9.325C3.36523 9.06057 3.47028 8.80697 3.65726 8.61999C3.84424 8.43301 4.09784 8.32797 4.36227 8.32797H9.35973C9.62416 8.32797 9.87775 8.43301 10.0647 8.61999C10.2517 8.80697 10.3568 9.06057 10.3568 9.325C10.3568 9.58943 10.2517 9.84303 10.0647 10.03C9.87775 10.217 9.62416 10.322 9.35973 10.322H4.36227Z" fill="white"/>
<path d="M14.4171 10.8359C13.7084 10.8359 13.0157 11.0461 12.4264 11.4398C11.8372 11.8335 11.3779 12.3931 11.1067 13.0479C10.8355 13.7026 10.7646 14.423 10.9028 15.1181C11.0411 15.8132 11.3823 16.4516 11.8835 16.9527C12.3846 17.4538 13.023 17.7951 13.7181 17.9333C14.4131 18.0716 15.1336 18.0006 15.7883 17.7294C16.443 17.4582 17.0027 16.999 17.3964 16.4097C17.7901 15.8205 18.0002 15.1277 18.0002 14.4191C18.0002 13.4688 17.6227 12.5574 16.9508 11.8854C16.2788 11.2134 15.3674 10.8359 14.4171 10.8359Z" fill="#DD4247"/>
<path d="M15.0641 16.537C15.0489 16.6083 15.0133 16.6737 14.9617 16.7252C14.9101 16.7767 14.8447 16.8122 14.7733 16.8273C14.5369 16.8639 14.2964 16.8639 14.06 16.8273C13.9887 16.8122 13.9234 16.7767 13.8718 16.7251C13.8203 16.6736 13.7848 16.6082 13.7696 16.537C13.733 16.3006 13.733 16.06 13.7696 15.8236C13.7848 15.7524 13.8203 15.687 13.8718 15.6355C13.9234 15.5839 13.9887 15.5484 14.06 15.5332C14.2964 15.4967 14.5369 15.4967 14.7733 15.5332C14.8447 15.5484 14.9101 15.5838 14.9617 15.6354C15.0133 15.6869 15.0489 15.7523 15.0641 15.8236C15.1006 16.06 15.1006 16.3006 15.0641 16.537ZM15.0915 14.3991C15.0915 14.5763 15.0211 14.7462 14.8958 14.8714C14.7706 14.9967 14.6007 15.0671 14.4235 15.0671C14.2464 15.0671 14.0765 14.9967 13.9512 14.8714C13.8259 14.7462 13.7555 14.5763 13.7555 14.3991V12.6367C13.7555 12.4596 13.8259 12.2897 13.9512 12.1644C14.0765 12.0391 14.2464 11.9688 14.4235 11.9688C14.6007 11.9688 14.7706 12.0391 14.8958 12.1644C15.0211 12.2897 15.0915 12.4596 15.0915 12.6367V14.3991Z" fill="white"/>
</g>
<defs>
<clipPath id="clip0_2742_7736">
<rect width="18" height="18" fill="white"/>
</clipPath>
</defs>
</svg>
