<svg width="18" height="18" viewBox="0 0 18 18" fill="none" xmlns="http://www.w3.org/2000/svg">
<path d="M3.65625 7.875H0.84375C0.619974 7.875 0.405362 7.96389 0.247129 8.12213C0.0888948 8.28036 0 8.49497 0 8.71875L0 17.1562C0 17.6175 0.3825 18 0.84375 18H3.65625C4.1175 18 4.5 17.6175 4.5 17.1562V8.71875C4.5 8.49497 4.41111 8.28036 4.25287 8.12213C4.09464 7.96389 3.88003 7.875 3.65625 7.875ZM2.25 16.5938C2.02622 16.5938 1.81161 16.5049 1.65338 16.3466C1.49514 16.1884 1.40625 15.9738 1.40625 15.75C1.40625 15.5262 1.49514 15.3116 1.65338 15.1534C1.81161 14.9951 2.02622 14.9062 2.25 14.9062C2.47378 14.9062 2.68839 14.9951 2.84662 15.1534C3.00486 15.3116 3.09375 15.5262 3.09375 15.75C3.09375 15.9738 3.00486 16.1884 2.84662 16.3466C2.68839 16.5049 2.47378 16.5938 2.25 16.5938ZM13.5 2.86875C13.5 4.35375 12.5887 5.18625 12.33 6.1875H15.9075C17.0775 6.1875 18 7.16625 18 8.235C18 8.865 17.73 9.54 17.325 9.95625H17.3138C17.6513 10.7888 17.6063 11.9362 16.9762 12.7575C17.2913 13.6575 16.9762 14.7825 16.4137 15.39C16.56 16.0088 16.4925 16.5263 16.1888 16.965C15.48 17.9775 13.7025 18 12.195 18H12.0938C10.4062 18 9.01125 17.3813 7.88625 16.875C7.32375 16.6388 6.5925 16.3237 6.04125 16.3125C5.93175 16.3097 5.82752 16.2649 5.75007 16.1874C5.67261 16.11 5.62785 16.0057 5.625 15.8962V8.38125C5.625 8.26875 5.67 8.15625 5.74875 8.0775C7.14375 6.705 7.74 5.2425 8.8875 4.10625C9.405 3.5775 9.59625 2.79 9.77625 2.03625C9.93375 1.38375 10.26 0 10.9688 0C11.8125 0 13.5 0.28125 13.5 2.86875Z" fill="white"/>
</svg>
