<svg width="40" height="40" viewBox="0 0 40 40" fill="none" xmlns="http://www.w3.org/2000/svg">
<g clip-path="url(#clip0_2788_4383)">
<path d="M2.5 22.5H16.5625C16.7283 22.5 16.8872 22.5658 17.0044 22.6831C17.1217 22.8003 17.1875 22.9592 17.1875 23.125V26.25H2.5C2.00272 26.25 1.52581 26.0525 1.17417 25.7008C0.822544 25.3492 0.625 24.8723 0.625 24.375C0.625 23.8777 0.822544 23.4008 1.17417 23.0492C1.52581 22.6975 2.00272 22.5 2.5 22.5Z" fill="#253A84"/>
<path d="M2.5 26.25C2.00272 26.25 1.52581 26.0525 1.17417 25.7008C0.822544 25.3492 0.625 24.8723 0.625 24.375V37.5C0.625 37.9973 0.822544 38.4742 1.17417 38.8258C1.52581 39.1775 2.00272 39.375 2.5 39.375H17.8125C17.9783 39.375 18.1372 39.3092 18.2544 39.1919C18.3717 39.0747 18.4375 38.9158 18.4375 38.75V26.875C18.4375 26.7092 18.3717 26.5503 18.2544 26.4331C18.1372 26.3158 17.9783 26.25 17.8125 26.25H2.5Z" fill="#2F5BC8"/>
<path d="M18.4375 31.875H15C14.337 31.875 13.7011 32.1384 13.2322 32.6072C12.7634 33.0761 12.5 33.712 12.5 34.375C12.5 35.038 12.7634 35.6739 13.2322 36.1428C13.7011 36.6116 14.337 36.875 15 36.875H18.4375V31.875Z" fill="#314898"/>
<path d="M15 30.625H18.75C18.9158 30.625 19.0747 30.6908 19.1919 30.8081C19.3092 30.9253 19.375 31.0842 19.375 31.25V35C19.375 35.1658 19.3092 35.3247 19.1919 35.4419C19.0747 35.5592 18.9158 35.625 18.75 35.625H15C14.337 35.625 13.7011 35.3616 13.2322 34.8928C12.7634 34.4239 12.5 33.788 12.5 33.125C12.5 32.462 12.7634 31.8261 13.2322 31.3572C13.7011 30.8884 14.337 30.625 15 30.625Z" fill="#326EE1"/>
<path d="M16.25 31.875C15.8321 31.8735 15.4205 31.9771 15.0532 32.1763C14.6859 32.3755 14.3746 32.6639 14.148 33.0151C13.9214 33.3662 13.7868 33.7686 13.7565 34.1854C13.7263 34.6022 13.8014 35.0199 13.975 35.4C14.2966 35.5474 14.6461 35.6241 15 35.625H18.75C18.9157 35.625 19.0747 35.5592 19.1919 35.442C19.3091 35.3247 19.375 35.1658 19.375 35V31.875H16.25Z" fill="#2F5BC8"/>
<path d="M15 34.0625C15.5178 34.0625 15.9375 33.6428 15.9375 33.125C15.9375 32.6072 15.5178 32.1875 15 32.1875C14.4822 32.1875 14.0625 32.6072 14.0625 33.125C14.0625 33.6428 14.4822 34.0625 15 34.0625Z" fill="#F5C115"/>
<path d="M22.5 0.625H36.5625C36.7283 0.625 36.8872 0.690848 37.0044 0.808058C37.1217 0.925268 37.1875 1.08424 37.1875 1.25V4.375H22.5C22.0027 4.375 21.5258 4.17746 21.1742 3.82583C20.8225 3.47419 20.625 2.99728 20.625 2.5C20.625 2.00272 20.8225 1.52581 21.1742 1.17417C21.5258 0.822544 22.0027 0.625 22.5 0.625Z" fill="#253A84"/>
<path d="M22.5 4.375C22.0027 4.375 21.5258 4.17746 21.1742 3.82583C20.8225 3.47419 20.625 2.99728 20.625 2.5V15.625C20.625 16.1223 20.8225 16.5992 21.1742 16.9508C21.5258 17.3025 22.0027 17.5 22.5 17.5H37.8125C37.9783 17.5 38.1372 17.4342 38.2544 17.3169C38.3717 17.1997 38.4375 17.0408 38.4375 16.875V5C38.4375 4.83424 38.3717 4.67527 38.2544 4.55806C38.1372 4.44085 37.9783 4.375 37.8125 4.375H22.5Z" fill="#2F5BC8"/>
<path d="M38.4375 10H35C34.337 10 33.7011 10.2634 33.2322 10.7322C32.7634 11.2011 32.5 11.837 32.5 12.5C32.5 13.163 32.7634 13.7989 33.2322 14.2678C33.7011 14.7366 34.337 15 35 15H38.4375V10Z" fill="#314898"/>
<path d="M35 8.75H38.75C38.9158 8.75 39.0747 8.81585 39.1919 8.93306C39.3092 9.05027 39.375 9.20924 39.375 9.375V13.125C39.375 13.2908 39.3092 13.4497 39.1919 13.5669C39.0747 13.6842 38.9158 13.75 38.75 13.75H35C34.337 13.75 33.7011 13.4866 33.2322 13.0178C32.7634 12.5489 32.5 11.913 32.5 11.25C32.5 10.587 32.7634 9.95107 33.2322 9.48223C33.7011 9.01339 34.337 8.75 35 8.75Z" fill="#326EE1"/>
<path d="M36.25 10C35.8321 9.99845 35.4205 10.1021 35.0532 10.3013C34.6859 10.5005 34.3746 10.7889 34.148 11.1401C33.9214 11.4912 33.7868 11.8936 33.7565 12.3104C33.7263 12.7272 33.8014 13.1449 33.975 13.525C34.2966 13.6724 34.6461 13.7491 35 13.75H38.75C38.9157 13.75 39.0747 13.6842 39.1919 13.567C39.3091 13.4497 39.375 13.2908 39.375 13.125V10H36.25Z" fill="#2F5BC8"/>
<path d="M35 12.1875C35.5178 12.1875 35.9375 11.7678 35.9375 11.25C35.9375 10.7322 35.5178 10.3125 35 10.3125C34.4822 10.3125 34.0625 10.7322 34.0625 11.25C34.0625 11.7678 34.4822 12.1875 35 12.1875Z" fill="#F5C115"/>
<path d="M10.2725 0.868008C10.2024 0.818178 10.1199 0.788579 10.0341 0.782445C9.94828 0.776311 9.86244 0.793877 9.78594 0.833224C9.70944 0.872571 9.64522 0.932186 9.6003 1.00556C9.55539 1.07893 9.5315 1.16323 9.53125 1.24926V2.65551H8.125C6.34369 2.65749 4.6359 3.366 3.37632 4.62558C2.11674 5.88516 1.40824 7.59294 1.40625 9.37426V16.2493C1.40625 16.3736 1.45564 16.4928 1.54354 16.5807C1.63145 16.6686 1.75068 16.718 1.875 16.718H4.375C4.49932 16.718 4.61855 16.6686 4.70646 16.5807C4.79436 16.4928 4.84375 16.3736 4.84375 16.2493V9.37426C4.84474 8.50432 5.19076 7.6703 5.8059 7.05516C6.42104 6.44002 7.25506 6.094 8.125 6.09301H9.53125V7.49926C9.53139 7.58534 9.55519 7.66972 9.60006 7.74318C9.64493 7.81664 9.70914 7.87635 9.78566 7.91577C9.86219 7.9552 9.94807 7.97282 10.0339 7.96671C10.1198 7.9606 10.2023 7.93099 10.2725 7.88113L14.6475 4.75613C14.7083 4.71277 14.7578 4.65553 14.792 4.58916C14.8261 4.52279 14.844 4.44922 14.844 4.37457C14.844 4.29992 14.8261 4.22635 14.792 4.15998C14.7578 4.09362 14.7083 4.03637 14.6475 3.99301L10.2725 0.868008Z" fill="#E44E91"/>
<path d="M4.84375 16.2537V9.37875C4.84474 8.50881 5.19076 7.67479 5.8059 7.05965C6.42104 6.44451 7.25506 6.09849 8.125 6.0975H9.53125V6.145C9.68613 6.11774 9.8428 6.10186 10 6.0975H11.4062V7.07562L14.6475 4.76312C14.7083 4.71976 14.7578 4.66252 14.792 4.59615C14.8261 4.52978 14.844 4.45621 14.844 4.38156C14.844 4.30691 14.8261 4.23334 14.792 4.16698C14.7578 4.10061 14.7083 4.04336 14.6475 4L11.4062 1.6875V2.66H10C8.21869 2.66199 6.5109 3.37049 5.25132 4.63007C3.99174 5.88965 3.28324 7.59744 3.28125 9.37875V16.2537C3.28125 16.3781 3.33064 16.4973 3.41854 16.5852C3.50645 16.6731 3.62568 16.7225 3.75 16.7225H4.375C4.49932 16.7225 4.61855 16.6731 4.70646 16.5852C4.79436 16.4973 4.84375 16.3781 4.84375 16.2537Z" fill="#DC286E"/>
<path d="M38.1248 23.2812H35.6248C35.5005 23.2812 35.3812 23.3306 35.2933 23.4185C35.2054 23.5065 35.156 23.6257 35.156 23.75V30.625C35.155 31.4949 34.809 32.329 34.1939 32.9441C33.5787 33.5592 32.7447 33.9053 31.8748 33.9062H30.4685V32.5C30.4685 32.4139 30.4448 32.3294 30.3999 32.2559C30.355 32.1824 30.2908 32.1227 30.2142 32.0833C30.1376 32.0439 30.0516 32.0264 29.9658 32.0326C29.8799 32.0389 29.7974 32.0687 29.7273 32.1187L25.3523 35.2437C25.2916 35.2871 25.2422 35.3443 25.2081 35.4107C25.174 35.477 25.1562 35.5504 25.1562 35.625C25.1562 35.6996 25.174 35.773 25.2081 35.8393C25.2422 35.9057 25.2916 35.9629 25.3523 36.0063L29.7273 39.1313C29.7974 39.1813 29.8799 39.2111 29.9658 39.2174C30.0516 39.2236 30.1376 39.2061 30.2142 39.1667C30.2908 39.1273 30.355 39.0676 30.3999 38.9941C30.4448 38.9206 30.4685 38.8361 30.4685 38.75V37.3438H31.8748C33.6561 37.3418 35.3639 36.6333 36.6235 35.3737C37.883 34.1141 38.5915 32.4063 38.5935 30.625V23.75C38.5935 23.6257 38.5441 23.5065 38.4562 23.4185C38.3683 23.3306 38.2491 23.2812 38.1248 23.2812Z" fill="#E44E91"/>
<path d="M38.1252 25.1562H35.6252C35.5009 25.1562 35.3817 25.2056 35.2938 25.2935C35.2059 25.3815 35.1565 25.5007 35.1565 25.625V32.5C35.1555 33.3699 34.8095 34.204 34.1943 34.8191C33.5792 35.4342 32.7452 35.7803 31.8752 35.7812H30.469V34.375C30.469 34.2889 30.4452 34.2044 30.4003 34.1309C30.3555 34.0574 30.2912 33.9977 30.2146 33.9583C30.1381 33.9189 30.0521 33.9014 29.9662 33.9076C29.8803 33.9139 29.7978 33.9437 29.7277 33.9937L26.1309 36.5625L29.7277 39.1313C29.7978 39.1813 29.8803 39.2111 29.9662 39.2174C30.0521 39.2236 30.1381 39.2061 30.2146 39.1667C30.2912 39.1273 30.3555 39.0676 30.4003 38.9941C30.4452 38.9206 30.469 38.8361 30.469 38.75V37.3438H31.8752C33.6566 37.3418 35.3643 36.6333 36.6239 35.3737C37.8835 34.1141 38.592 32.4063 38.594 30.625V25.625C38.594 25.5007 38.5446 25.3815 38.4567 25.2935C38.3688 25.2056 38.2496 25.1562 38.1252 25.1562Z" fill="#DC286E"/>
</g>
<defs>
<clipPath id="clip0_2788_4383">
<rect width="40" height="40" fill="white"/>
</clipPath>
</defs>
</svg>
