<svg width="58" height="58" viewBox="0 0 58 58" fill="none" xmlns="http://www.w3.org/2000/svg">
<rect width="58" height="58" rx="15" fill="#F2870A"/>
<path d="M32.1875 31.2346V33.3596C32.1875 36.2921 34.5675 38.6721 37.5 38.6721H41.75V39.7346C41.75 41.4878 40.3156 42.9221 38.5625 42.9221H17.3125C15.5594 42.9221 14.125 41.4878 14.125 39.7346V24.8596C14.125 23.0959 15.5594 21.6721 17.3125 21.6721H38.5625C40.3156 21.6721 41.75 23.0959 41.75 24.8596V25.9221H37.5C34.5675 25.9221 32.1875 28.3021 32.1875 31.2346ZM44.9375 31.2346V33.3596C44.9375 34.2946 44.5231 35.1446 43.875 35.729C43.3119 36.239 42.5575 36.5471 41.75 36.5471H37.5C35.7469 36.5471 34.3125 35.1128 34.3125 33.3596V31.2346C34.3125 29.4709 35.7469 28.0471 37.5 28.0471H41.75C42.5575 28.0471 43.3119 28.3552 43.875 28.8652C44.5231 29.439 44.9375 30.289 44.9375 31.2346ZM39.625 32.2971C39.625 31.7127 39.1469 31.2346 38.5625 31.2346C37.9781 31.2346 37.5 31.7127 37.5 32.2971C37.5 32.8815 37.9781 33.3596 38.5625 33.3596C39.1469 33.3596 39.625 32.8815 39.625 32.2971ZM36.0231 17.4009C35.7575 16.4977 35.1306 15.7646 34.2806 15.3715C33.4306 14.989 32.4531 14.989 31.6031 15.3821L22.6888 19.5471H36.6394L36.0231 17.4009Z" fill="white"/>
</svg>
