<svg width="28" height="25" viewBox="0 0 28 25" fill="none" xmlns="http://www.w3.org/2000/svg">
<path d="M21.7385 4.07752C21.0545 2.14343 19.3113 0.603805 17.3266 0.349234C15.9308 0.175182 14.0257 0.0328496 11.4212 0.0678227C8.81662 0.102796 6.90834 0.303687 5.50845 0.515152C3.1951 0.879523 1.12902 2.91365 0.732074 5.24302C0.732074 5.24302 0.119572 8.52967 0 12.9558H22.4226C22.4226 12.9558 22.4226 7.09415 21.7385 4.07752Z" fill="url(#paint0_linear_2788_4410)"/>
<path d="M27.4645 9.62213C27.2009 7.56279 25.3667 5.82064 23.2201 5.53598C19.4377 5.16103 13.8503 5.12931 13.8487 5.14314C11.432 5.11793 5.77392 5.34891 4.47815 5.53598C3.1653 5.70515 1.97934 6.43063 1.18545 7.42452C0.672626 8.05528 0.343365 8.81503 0.233749 9.6205C0.0800139 10.8649 -0.0419989 12.5647 0.0198207 14.8909C0.0816403 17.217 0.299636 18.9217 0.517631 20.1702C0.893429 22.2368 2.7529 24.0522 4.82223 24.3995C6.0757 24.6386 11.5231 24.9688 13.8511 24.9281C16.1775 24.9704 21.625 24.6386 22.8801 24.3995C24.9494 24.0522 26.8089 22.2368 27.1847 20.1702C27.4027 18.9217 27.6166 17.2178 27.6825 14.8909C27.7484 12.5639 27.6182 10.8665 27.4645 9.62213Z" fill="url(#paint1_linear_2788_4410)"/>
<path d="M22.8617 16.945C22.4823 16.9452 22.1114 16.8328 21.7958 16.6222C21.4803 16.4115 21.2343 16.112 21.089 15.7615C20.9438 15.411 20.9057 15.0253 20.9797 14.6533C21.0537 14.2812 21.2364 13.9394 21.5047 13.6711C21.7729 13.4028 22.1148 13.2202 22.4869 13.1462C22.8591 13.0722 23.2448 13.1103 23.5953 13.2555C23.9458 13.4008 24.2453 13.6467 24.456 13.9622C24.6667 14.2777 24.7791 14.6486 24.7789 15.028C24.7789 15.5364 24.577 16.024 24.2174 16.3835C23.8579 16.7431 23.3702 16.945 22.8617 16.945Z" fill="url(#paint2_linear_2788_4410)"/>
<defs>
<linearGradient id="paint0_linear_2788_4410" x1="6.87337" y1="16.9216" x2="16.8499" y2="-0.360123" gradientUnits="userSpaceOnUse">
<stop stop-color="#34344F"/>
<stop offset="0.54" stop-color="#353551"/>
<stop offset="1" stop-color="#666684"/>
</linearGradient>
<linearGradient id="paint1_linear_2788_4410" x1="23.8578" y1="24.737" x2="3.84345" y2="4.72044" gradientUnits="userSpaceOnUse">
<stop stop-color="#1EB4EB"/>
<stop offset="0.54" stop-color="#1EB4EB"/>
<stop offset="1" stop-color="#92F4FE"/>
</linearGradient>
<linearGradient id="paint2_linear_2788_4410" x1="24.2177" y1="16.3838" x2="21.5061" y2="13.6719" gradientUnits="userSpaceOnUse">
<stop stop-color="#BCE4ED"/>
<stop offset="0.57" stop-color="white"/>
<stop offset="1" stop-color="white"/>
</linearGradient>
</defs>
</svg>
